<svg width="94" height="87" viewBox="0 0 94 87" fill="none" xmlns="http://www.w3.org/2000/svg">
<path d="M40.8455 46.3772C38.754 40.5136 39.0605 34.0727 39.1146 27.9205C39.1687 26.5313 38.808 25.1602 38.7179 23.7709C38.6277 22.2735 38.5917 20.776 38.6458 19.2966C38.6458 15.7604 39.4391 12.2243 41.1881 9.13916C41.8011 6.93807 42.1076 4.28595 44.0188 2.78849C44.5958 2.4457 45.2629 2.30137 45.876 2.04878C46.0022 1.83228 46.2005 1.65186 46.2726 1.43536C46.3267 1.25495 46.507 1.12866 46.6873 1.20082C46.8676 1.27299 46.9398 1.48949 46.8857 1.66991C47.1922 1.5797 47.679 1.21886 47.8052 1.70599C47.8413 1.88641 47.7511 2.06683 47.5889 2.13899C47.1561 2.30137 46.7234 2.4457 46.2907 2.60807C45.0646 4.30399 43.9287 6.05403 42.7206 7.74995C42.342 8.30924 41.9814 8.90462 41.6388 9.49999C41.4946 10.0593 41.3684 10.6005 41.2422 11.1779C40.5931 14.4254 40.4488 17.745 40.1062 21.0286C39.962 23.4101 39.4752 25.8277 39.7997 28.1912C40.6111 33.5134 41.3143 38.8538 41.4405 44.2482C41.4225 44.9519 41.5487 45.6916 41.3684 46.3772C41.2782 46.6117 40.9356 46.6478 40.8275 46.3952L40.8455 46.3772ZM40.6291 43.4183C40.6832 43.6529 40.7373 43.8874 40.7914 44.1039C40.8275 44.2482 40.8635 44.3926 40.8996 44.5369C40.8094 39.8461 40.3406 35.1733 39.6194 30.5546C39.5834 34.8485 39.6735 39.1966 40.6291 43.4183ZM39.2047 22.8508C39.2047 23.2838 39.2408 23.6988 39.2949 24.1318C39.7096 19.9642 39.9079 15.7604 40.6111 11.6289C39.0965 15.1831 39.0605 19.0621 39.2047 22.8508ZM42.1978 7.33499C42.1978 7.33499 42.1797 7.4252 42.1617 7.47932C43.1894 5.98187 44.1991 4.48441 45.1908 2.98695C43.2075 3.40191 42.7026 5.67516 42.1978 7.35303V7.33499Z" fill="black"/>
<path d="M44.4154 84.842C43.4057 84.4992 43.1172 83.2182 42.6484 82.3522C41.837 80.7465 41.6026 78.9243 41.4945 77.1743C40.9536 73.0969 40.8273 68.9834 41.1158 64.8699C41.0257 58.9522 41.0257 53.0345 40.8995 47.1349C40.9355 46.7741 40.5389 46.1967 40.9896 46.0163C41.1699 45.9802 41.3682 46.1246 41.4043 46.305C41.5486 46.9003 41.5846 47.5318 41.5846 48.1452C41.4945 53.7021 41.6207 59.2589 41.6567 64.8338C41.4223 68.7127 41.4043 72.5917 41.9633 76.4526C42.1075 78.7439 42.432 80.9991 43.568 83.0198C43.8204 83.4167 43.9646 83.976 44.4154 84.1925C44.4154 84.1925 44.3793 84.1925 44.3613 84.1925C46.0021 84.0662 47.4445 82.8754 48.4001 81.6125C47.6969 81.8471 46.9577 81.9373 46.2184 82.0455C45.8578 82.0636 45.2808 82.244 45.1907 81.7388C45.1186 81.1434 46.0562 81.4141 46.3807 81.2878C47.2822 81.1615 48.1837 80.9991 49.0312 80.6022C49.4278 79.7362 49.8065 78.8702 50.4195 78.1305C51.2489 77.2104 52.4209 76.633 53.088 75.5866C53.5748 74.883 53.8633 74.0711 54.3501 73.3675C55.3779 71.8339 56.9645 70.8056 58.443 69.7411C59.1823 69.1998 59.8494 68.5684 60.5887 68.0271C61.7426 67.2694 63.0408 66.8003 64.2128 66.0426C66.0158 64.8518 67.6385 66.8184 69.2613 67.4137C70.3431 68.1715 71.9298 68.0813 72.669 69.272C73.3001 70.986 70.271 70.1921 69.3695 70.4086C68.6122 70.4447 67.8549 70.553 67.1157 70.3545C66.2502 70.0478 65.2585 69.9756 64.375 70.1019C63.78 70.1921 63.2391 70.2824 62.7523 70.6071C62.2114 71.0221 61.8868 71.6535 61.3279 72.0865C60.4985 72.718 59.4888 73.1329 58.6594 73.7463C57.1809 75.0273 56.0991 76.4887 54.26 77.3006C52.4389 78.3289 51.5013 80.4398 49.5 81.1795C48.4903 83.0017 46.6151 84.7878 44.4334 84.86L44.4154 84.842ZM49.9868 80.1151C51.1227 79.3753 51.916 78.2387 52.9438 77.3547C54.0977 76.4165 55.5942 75.9113 56.5859 74.7747C57.7038 73.3314 59.2724 72.5015 60.787 71.5813C61.5984 70.986 62.0131 69.9396 63.0408 69.6509C64.5914 69.0736 66.1961 69.3803 67.7467 69.7411C69.099 69.705 70.4693 69.6148 71.8216 69.6329C71.9658 69.5968 72.0199 69.6328 72.1101 69.5246C71.8577 69.0736 71.2987 68.9473 70.848 68.8029C70.1267 68.5864 69.3875 68.1534 68.7204 67.8467C67.4222 67.4137 66.2322 65.808 64.7897 66.5297C63.5637 67.3055 62.1573 67.8287 60.9493 68.6225C60.174 69.2179 59.4527 69.8674 58.6594 70.4267C56.8564 71.6535 55.0533 73.0066 54.1518 75.0634C53.2863 77.1743 50.7801 77.932 49.9868 80.097V80.1151Z" fill="black"/>
<path d="M90.2849 86.8086C89.9784 86.3214 89.6358 85.8884 89.2031 85.4915C88.4638 85.4374 87.9049 84.824 87.364 84.373C84.8397 83.2183 82.9645 81.1615 81.0894 79.1589C79.2503 77.5712 77.6997 75.6588 75.7524 74.1614C74.2198 73.0608 72.9396 71.6175 71.353 70.6072C70.0548 69.8855 68.8107 68.4602 67.3142 68.3159C67.1158 68.3519 66.9535 68.2076 66.9175 68.0092C66.9175 66.9808 68.5042 67.8468 68.9369 68.1354C68.8467 67.9009 69.009 67.6303 69.2795 67.6122C69.5679 67.6122 69.7843 67.8287 69.9827 68.0092C71.4071 69.1277 72.7052 70.3546 74.0395 71.5634C75.7524 72.6639 77.1768 74.1433 78.5651 75.6047C80.6206 77.2104 82.622 78.9063 84.5152 80.7105C85.2003 81.378 85.9035 82.0456 86.5886 82.7131C87.9409 83.6874 89.3834 84.6255 90.4291 85.9426C91.2225 83.6513 91.0061 81.2878 90.9881 78.9244C91.0602 77.3547 91.2585 75.8032 91.2766 74.2516C91.2766 69.5968 90.5734 64.9962 89.9062 60.3956C89.6899 58.1223 89.5637 55.831 89.3834 53.5578C88.9867 48.7767 89.167 43.9596 89.0227 39.1786C88.9506 35.913 89.2752 32.6655 89.185 29.4C89.0768 26.9463 88.6802 24.4927 88.4638 22.039C88.3015 20.1987 88.0491 18.3044 88.6802 16.5002C88.8064 16.0672 88.9506 15.6162 89.0949 15.1832C89.149 15.0208 89.3293 14.9125 89.4915 14.9847C89.6538 15.0749 89.7079 15.2914 89.6538 15.4538C89.3653 16.3378 89.0588 17.2399 88.9146 18.16C88.6982 22.039 89.7259 25.8819 89.762 29.7608C89.762 34.1991 89.4194 38.6193 89.6718 43.0395C89.6718 46.8282 89.6718 50.617 90.0325 54.4057C90.2128 58.7177 90.8619 62.9755 91.4569 67.2334C91.9256 71.1664 91.9978 75.1537 91.6191 79.0867C91.6011 80.6383 91.8355 82.2079 91.6191 83.7595C91.4569 84.4632 91.0963 87.5483 90.3029 86.8266L90.2849 86.8086Z" fill="black"/>
<path d="M89.8521 22.3998C89.7078 22.0931 89.9062 21.7683 90.0324 21.4797C90.7716 19.3327 90.6635 16.9873 90.7175 14.7321C90.8077 11.665 89.7078 8.79639 88.608 6.01797C87.9949 5.26022 87.0574 4.91743 86.1919 4.53855C84.8216 3.97926 83.3431 3.54626 81.9187 3.31172C80.9451 3.18543 79.9354 3.1313 78.9617 3.14935C78.6732 3.11326 78.1864 3.27563 78.1323 2.89676C78.1323 2.73438 78.2946 2.60809 78.4388 2.60809C79.8091 2.60809 81.1795 2.6081 82.5317 2.84264C84.5511 3.32976 88.2654 4.1236 89.3292 6.01797C90.2848 8.74226 91.4207 11.4666 91.4027 14.3893C91.3486 16.9693 91.565 19.6936 90.5913 22.1292C90.8077 22.5622 90.0504 22.7967 89.8701 22.3818L89.8521 22.3998Z" fill="black"/>
<path d="M90.2847 6.27054C86.8048 4.66483 83.1807 2.89674 79.2862 2.78849C76.5455 2.78849 73.8229 3.2215 71.0823 3.29366C68.4499 3.41995 65.8174 3.20345 63.167 3.22149C62.7703 3.14933 61.9229 3.49212 61.8147 2.98695C61.8688 2.4457 62.7703 2.75241 63.1489 2.68025C66.4125 2.68025 69.694 2.93283 72.9575 2.64416C78.2945 2.19312 81.1974 1.74208 86.3541 3.90708C87.7965 4.44833 89.1848 5.09783 90.5732 5.78341C90.9158 5.96383 90.6093 6.41487 90.2847 6.27054Z" fill="black"/>
<path d="M44.181 3.27563C44.181 3.05913 44.3974 2.9148 44.5777 2.80655C45.4432 2.35551 46.3988 2.08488 47.3363 1.85034C53.9355 0.226588 60.751 1.54363 67.3862 2.33746C67.7828 2.37355 67.7287 2.9148 67.314 2.87872C59.9576 2.0488 52.0062 0.316797 44.9563 3.36584C44.8482 3.74471 44.145 3.70863 44.181 3.27563Z" fill="black"/>
<path d="M53.7914 1.74209C53.7373 1.4895 53.9717 1.36321 54.152 1.32713C56.7483 0.334837 59.5611 0.208544 62.3017 0.0461691C65.6914 -0.170331 69.0271 0.425047 72.3807 0.785881C76.0228 1.14671 79.683 1.09259 83.3432 1.14671C83.5415 1.14671 83.848 1.14671 83.8661 1.39929C83.8661 1.56167 83.7218 1.68796 83.5596 1.68796C79.8994 1.63384 76.2392 1.68796 72.5971 1.36321C69.9286 1.12867 67.224 0.641546 64.5555 0.587421C61.2379 0.641546 57.7761 0.749794 54.6568 1.85034C54.3864 1.97663 53.9356 2.10292 53.8274 1.72404L53.7914 1.74209Z" fill="black"/>
<path d="M89.1127 4.44831C88.085 4.32202 87.2195 3.32973 86.1918 3.02302C82.4234 1.57969 78.3846 1.25494 74.3819 1.09256C68.2876 1.0204 62.1753 1.41731 56.1532 2.33744C55.4319 2.44569 54.7107 2.59002 53.9895 2.73436C53.8453 2.77044 53.665 2.68023 53.6289 2.51786C53.5928 2.35548 53.7371 2.22919 53.8813 2.1931C54.7287 2.03073 55.5582 1.86835 56.4056 1.74206C65.0061 0.551313 81.558 -1.09048 88.8964 3.7086C89.1127 3.79881 89.4733 3.74469 89.4914 4.06944C89.4914 4.2679 89.3111 4.41223 89.1127 4.41223V4.44831Z" fill="black"/>
<path d="M47.5166 3.09521C46.9216 2.21116 52.2045 0.948248 52.8897 0.876081C60.0658 -0.87396 67.4402 0.713706 74.6163 1.74208C75.013 1.83229 74.8507 2.3555 74.454 2.26529C69.8743 1.57971 65.2765 0.803916 60.6608 0.623499C57.6677 0.533291 54.7468 1.03845 51.8619 1.706C50.4916 2.04879 49.2115 2.42767 48.0395 3.16737C47.8772 3.25758 47.6428 3.25758 47.5166 3.09521Z" fill="black"/>
<path d="M1.30478 14.4615C0.962206 13.9563 0.69175 13.4511 0.403264 12.9279C0.204929 12.9821 0.0246255 12.7836 0.00659505 12.6032C-0.0474961 12.2965 0.24099 12.098 0.511446 12.1521C0.799933 12.2423 0.962206 12.5491 1.08842 12.7836C1.30478 13.2166 1.57524 13.6315 1.8457 14.0285C2.09812 14.4073 1.57524 14.8945 1.30478 14.4434V14.4615Z" fill="black"/>
<path d="M40.5389 18.3404C40.2143 17.9615 40.4127 17.4203 40.5389 17.0053C40.7733 16.2656 41.0437 15.5439 41.2601 14.7862C41.8731 12.8738 41.8911 10.8711 42.3058 8.92264C42.1977 8.9046 42.1075 8.92264 41.9993 8.92264C41.7108 8.92264 41.6928 8.39943 41.9993 8.39943C42.7566 8.32727 42.8468 8.81439 42.6665 9.44585C42.5583 9.89689 42.4861 10.3299 42.414 10.7809C42.2878 12.1701 42.1436 13.5413 41.7289 14.8764C41.4945 15.9048 40.9716 16.8971 40.8995 17.9254C41.1339 18.1419 40.8454 18.611 40.5749 18.3404H40.5389Z" fill="black"/>
<path d="M40.4848 19.2064C40.3586 19.1884 40.2865 19.0441 40.3045 18.9358C40.4848 17.7631 40.6831 16.5723 40.8454 15.3996C41.1519 13.1985 41.206 10.9794 41.4765 8.77834C41.5486 8.47163 41.9453 8.5438 41.9633 8.85051C41.8191 9.87888 41.7469 10.9433 41.6568 11.9717C41.4765 14.3352 41.1159 16.6806 40.7372 19.008C40.7372 19.1162 40.629 19.2245 40.5028 19.2064H40.4848Z" fill="black"/>
<path d="M40.1965 33.3331C40.0702 33.279 40.0342 33.1527 40.0522 33.0264C40.1964 32.1965 40.3227 31.4207 40.4489 30.5908C40.8455 27.1809 41.5487 23.8071 40.7013 20.4152C40.7013 20.0364 41.2062 20.0544 41.2062 20.4152C41.8372 23.1395 41.4946 25.8819 41.116 28.6242C40.9537 30.1397 40.7193 31.6552 40.4489 33.1707C40.4308 33.279 40.3046 33.3692 40.1965 33.3331Z" fill="black"/>
<path d="M40.8094 41.2894C38.7719 35.8047 40.6471 29.9051 40.0341 24.2581C39.98 23.8972 40.4668 23.807 40.5209 24.1859C40.9175 28.552 39.9619 32.9361 40.3406 37.3022C40.4488 38.6553 40.7553 39.9002 41.206 41.1631C41.2962 41.4337 40.9175 41.5961 40.8274 41.2894H40.8094Z" fill="black"/>
<path d="M43.4597 85.1306C42.5402 84.878 42.3238 83.579 41.9272 82.8213C41.5485 81.811 41.0797 80.6563 41.5305 79.5918C41.6387 79.1949 42.0894 79.0867 42.1976 79.5377C42.2517 79.7001 42.1435 79.9346 41.9452 79.8985C41.6747 80.5841 41.9452 81.396 42.1435 82.0455C42.4681 82.8574 42.7385 83.7414 43.2614 84.445C43.4237 84.6255 43.6761 84.5894 43.8204 84.427C43.9285 84.3368 44.0908 84.4089 44.1449 84.5172C44.3432 84.8961 43.7663 85.1667 43.4417 85.0945L43.4597 85.1306Z" fill="black"/>
<path d="M42.919 85.1126C39.6194 83.2182 39.98 75.2258 40.6832 71.9061C40.7734 71.5994 41.152 71.7798 41.0799 72.0504C40.4128 75.1175 40.1243 82.677 43.0452 84.5533C42.9911 84.3548 42.8288 84.0662 43.0813 83.9399C43.2075 83.8677 43.3698 83.9579 43.4058 84.0842C43.6402 84.5172 43.6042 85.3291 42.919 85.0945V85.1126Z" fill="black"/>
<path d="M41.0799 80.1872C40.9176 80.1872 40.8275 80.0248 40.8275 79.8986C40.539 78.3289 40.1964 76.7593 40.0702 75.1716C39.9259 73.7824 39.9079 72.3752 39.9259 70.9679C39.9259 70.6432 40.3587 70.6612 40.3587 70.9679C40.3046 73.4035 40.5209 75.8572 40.9897 78.2568C40.9897 78.6717 41.6569 80.1151 41.0799 80.1872Z" fill="black"/>
<path d="M40.7554 76.9037C40.0702 73.2232 39.7457 69.4885 39.9981 65.7539C40.0341 65.4472 40.4488 65.5374 40.4128 65.8441C40.1964 69.4164 40.4849 73.0067 41.2061 76.5248C41.2422 76.7413 41.3504 77.1021 41.0438 77.1743C40.8996 77.1923 40.7734 77.066 40.7554 76.9217V76.9037Z" fill="black"/>
<path d="M40.2505 68.4421C40.0161 66.0967 40.1062 63.7332 40.1783 61.3698C40.1783 61.2615 40.2505 61.1353 40.3767 61.1353C40.5029 61.1353 40.593 61.2615 40.593 61.3878C40.557 63.3544 40.5029 65.3209 40.6471 67.2875C40.6652 67.6663 40.6832 68.0091 40.7373 68.37C40.7373 68.5143 40.6832 68.6767 40.539 68.6947C40.3947 68.7128 40.2685 68.5865 40.2505 68.4421Z" fill="black"/>
<path d="M82.4056 83.976C81.5041 83.2905 81.0353 82.1899 80.314 81.342C79.4306 80.2595 78.4569 79.2311 77.4652 78.2388C75.4639 76.2001 73.3723 74.2155 71.4251 72.1227C70.2351 70.9139 69.2975 69.4164 68.0353 68.2978C67.9272 68.2076 67.8731 68.0272 67.9452 67.9009C68.3238 67.2875 69.8384 69.6329 70.1629 69.9396C72.8855 73.3314 76.1851 76.2001 79.1421 79.3754C79.8813 80.1512 80.5665 80.9811 81.1975 81.8471C81.6483 82.4425 81.9909 83.1461 82.64 83.5611C82.8744 83.7234 82.676 84.2106 82.4056 84.0121V83.976Z" fill="black"/>
<path d="M85.7953 84.1924C83.5775 83.6873 81.7745 82.0275 80.332 80.3496C80.1337 80.0068 79.3404 78.9604 79.8272 78.6897C79.9714 78.6356 80.0977 78.7619 80.1337 78.8882C80.7467 80.6202 82.3695 81.7568 83.7759 82.8032C84.9298 83.5971 86.3362 83.9038 87.7245 83.7955C88.0671 83.8677 88.8063 83.5249 88.8604 84.0301C88.8604 84.1564 88.7703 84.2827 88.6441 84.2827C87.6885 84.3187 86.7328 84.3909 85.7953 84.1924Z" fill="black"/>
<path d="M92.4846 86.6823C91.3306 86.4297 85.4708 85.257 85.597 83.976C85.6691 83.8497 85.8133 83.8137 85.9396 83.9039C87.4721 85.0405 89.3834 85.4013 91.1684 85.8884C91.6191 85.9967 92.0879 86.0869 92.5387 86.1771C92.6829 86.2132 92.755 86.3575 92.737 86.4838C92.737 86.6101 92.6108 86.7364 92.4846 86.7003V86.6823Z" fill="black"/>
<path d="M91.3485 85.5636C91.3485 85.5636 91.4928 85.4013 91.6009 85.4013C92.7188 82.9657 92.3222 80.1512 92.6467 77.5532C92.6467 77.4269 92.7549 77.3186 92.8811 77.3547C93.0073 77.3727 93.0794 77.5171 93.0614 77.6434C92.9893 78.7439 92.9352 79.8625 92.8631 80.963C92.7549 82.5507 92.7549 84.2466 92.0156 85.6899C92.0156 85.6899 92.0156 85.726 92.0156 85.7441C92.0156 85.8704 91.9075 85.9967 91.7632 85.9786C91.4747 86.1771 91.1502 85.8523 91.3305 85.5636H91.3485Z" fill="black"/>
<path d="M92.3583 76.4166C92.1961 76.4166 92.1059 76.2542 92.1059 76.146C92.0158 75.3702 91.8535 74.5944 91.7633 73.8186C91.3486 70.6433 91.0421 67.4499 90.5373 64.2745C90.4832 63.8776 89.2751 55.1455 90.3209 56.9496C90.2848 60.125 90.8258 63.2642 91.2765 66.3854C91.6912 69.0556 91.9076 71.7438 92.3223 74.414C92.4124 74.9913 92.5386 75.5686 92.5927 76.146C92.5927 76.2903 92.5026 76.4346 92.3583 76.4346V76.4166Z" fill="black"/>
<path d="M90.7898 56.6609C90.6455 56.6609 90.5373 56.4986 90.5373 56.3542C90.6275 54.8207 90.6275 53.2871 90.5193 51.7536C90.4472 50.2381 90.3029 48.7226 90.2849 47.2071C90.2849 47.0808 90.357 46.9545 90.5013 46.9726C90.6275 46.9726 90.7176 47.0988 90.7176 47.2251C90.7717 49.1556 90.952 51.068 91.0602 52.9985C91.1143 54.1171 91.0963 55.2537 91.0602 56.3723C91.0602 56.5166 90.9701 56.6609 90.8078 56.6609H90.7898Z" fill="black"/>
<path d="M90.2668 51.1402C89.7078 49.8412 89.1128 48.5241 89.203 47.0808C89.203 46.9545 89.2931 46.8102 89.4193 46.8282C89.5636 46.8282 89.6537 46.9725 89.6537 47.0988C89.6537 47.5679 89.6898 48.0009 89.7799 48.4519C89.9602 49.354 90.411 50.1298 90.7355 50.9778C90.8437 51.3206 90.3749 51.501 90.2668 51.1402Z" fill="black"/>
<path d="M89.2031 49.2999C89.0589 49.2999 88.9507 49.1375 88.9507 49.0112C88.9507 48.6504 88.9507 48.2715 88.9146 47.9107C88.9146 47.7663 88.8966 47.622 88.8786 47.4777C88.7523 46.1787 88.3196 44.8255 88.8064 43.5446C88.9507 43.2198 89.0769 42.841 89.3473 42.6245C89.5998 42.5523 89.726 42.8951 89.5998 43.0755C88.3557 44.8797 89.5998 47.0627 89.4375 49.0473C89.4375 49.1916 89.3473 49.336 89.1851 49.336L89.2031 49.2999Z" fill="black"/>
<path d="M92.1961 21.9126C92.0699 21.8766 91.9978 21.7503 92.0158 21.624C92.0699 20.8482 92.106 20.0724 92.142 19.2966C92.2863 16.1213 92.6469 12.8196 91.493 9.78865C91.4389 9.42781 91.9257 9.3376 91.9798 9.71648C92.9714 12.3145 92.7911 15.129 92.6469 17.8533C92.6469 17.8533 92.6469 17.8533 92.6469 17.8352C92.5928 19.1162 92.5027 20.3971 92.4125 21.6961C92.4125 21.8224 92.3043 21.9126 92.1781 21.8946L92.1961 21.9126Z" fill="black"/>
<path d="M90.339 41.1271C90.2128 41.073 90.1587 40.9286 90.1767 40.8023C90.4472 39.7198 90.5373 38.6013 90.5914 37.5007C90.5734 33.6037 90.9881 29.7428 91.6732 25.918C91.8716 23.7891 92.142 21.6241 92.0879 19.4771C92.0699 19.3328 92.142 19.1704 92.2863 19.1523C92.7731 19.1884 92.5567 19.9642 92.5928 20.289C92.4305 22.3277 92.3223 24.3664 92.0339 26.3871C91.7093 28.4979 91.2766 30.5908 91.1504 32.7377C90.9701 35.1553 91.1143 37.609 90.7717 40.0085C90.7176 40.3333 90.6455 40.64 90.5914 40.9647C90.5734 41.091 90.4291 41.1812 90.321 41.1271H90.339Z" fill="black"/>
<path d="M89.7798 49.5525C89.6536 49.4803 89.6176 49.3179 89.6536 49.2097C89.9962 48.2715 90.4289 47.3694 90.5732 46.3771C91.1682 43.2198 91.2583 40.0265 91.7452 36.8511C91.7993 36.4722 92.2861 36.5985 92.232 36.9413C91.5649 40.7481 91.7452 44.7714 90.4289 48.4519C90.3027 48.7767 90.1765 49.1014 90.0683 49.4262C90.0323 49.5525 89.888 49.6066 89.7798 49.5525Z" fill="black"/>
</svg>
