<?xml version="1.0" encoding="UTF-8"?>
<svg id="Layer_1" data-name="Layer 1" xmlns="http://www.w3.org/2000/svg" viewBox="0 0 194 174">
  <defs>
    <style>
      .cls-1 {
        fill: #e30613;
        stroke: #e30613;
        stroke-miterlimit: 10;
      }
    </style>
  </defs>
  <path class="cls-1" d="M25.92,126.7c-.19-.1-.27-.46-.02-.54.54-13.51-1.57-17.8-7.21-29.62-.35-.77-.69-1.53-1.04-2.3-.04-.12-.02-.27.12-.31.35-.06.38.42.52.65,3.76,8.29,8.15,15.87,8.13,25.27.08,1.73.08,3.45.08,5.18-.04.44.19,2.09-.58,1.65,0,0,0,.02,0,.02Z"/>
  <path class="cls-1" d="M22.76,105.94c-.73-2.19-1.21-4.45-2.07-6.58-1.46-3.55-3.28-6.93-4.85-10.44-1.15-2.38-2.03-4.89-3.24-7.23-1.69-3.03-3.83-5.7-6.06-8.35-.08-.1-.12-.25,0-.35.35-.27.96.92,1.23,1.13,1.99,2.42,3.93,4.93,5.39,7.71,1.65,3.42,2.99,6.95,4.72,10.34,1.21,2.53,2.49,5.01,3.53,7.62.75,1.98,1.23,4.03,1.9,6.04.12.38-.42.48-.54.11v-.02.02Z"/>
  <path class="cls-1" d="M8.59,76.6c-1.76-3.05-2.95-6.35-3.76-9.77-1.21-4.16-2.19-8.4-2.22-12.76,0-.33.46-.25.46.04.08,3.72.67,7.37,1.76,10.92.79,2.84,1.42,5.76,2.7,8.42.46,1.02,1,1.98,1.51,2.95.17.36-.33.56-.5.19h.05Z"/>
  <path class="cls-1" d="M4.55,55.77c-.17,0-.33-.19-.31-.36-1.17-5.39.82-10.74,2.86-15.66.13-.31.59-.04.48.25-1.88,4.51-3.68,9.4-2.97,14.35,0,.36.5,1.38-.06,1.42Z"/>
  <path class="cls-1" d="M2.73,61.75c-.13-.02-.23-.15-.23-.29-.02-2.97.15-5.95.61-8.88.71-4.26,1.55-8.52,3.32-12.49,1.28-2.84,2.38-5.81,4.12-8.4.23-.27.67.13.46.4-.1.12-.17.23-.25.33-2.95,5.28-5.46,10.92-6.54,16.9-.61,2.86-1.04,5.76-1.19,8.67-.08,1.19-.08,2.4-.08,3.59,0,.13-.13.21-.25.19l.02-.02h0Z"/>
  <path class="cls-1" d="M8.79,74.74c-3.49-6.58-5.44-13.83-5.02-21.3.13-3.07,0-6.24.94-9.19.15-.29.17-1.02.63-.86.13.08.23.25.17.4-.19.44-.36.9-.48,1.34-.69,2.71-.63,5.47-.75,8.25-.13,4.16.1,8.36,1.34,12.36.88,3.07,2.13,6.01,3.58,8.83.13.29-.27.46-.4.17h-.02,0Z"/>
  <path class="cls-1" d="M18.18,92.47c-3.34-5.31-5.85-11.09-8.74-16.65-1.07-2.09-2.22-4.14-3.3-6.25-.77-1.61-1.73-3.2-2.01-4.99,0-.38.54-.31.56.04.81,3.38,2.86,6.31,4.35,9.42,2.09,3.97,4.01,8.04,6.04,12.03.9,1.69,1.78,3.38,2.76,5.01.23.38.46.77.71,1.13.06.1.08.25-.04.33s-.27,0-.33-.1v.04h0Z"/>
  <path class="cls-1" d="M25.64,107.4c-4.1-8.04-8.8-15.75-13.07-23.71-1.17-2.32-2.3-4.64-3.45-6.96-.84-1.69-1.82-3.34-2.42-5.14-.06-.13,0-.31.17-.35.35-.06.42.36.52.61.84,2.36,2.2,4.49,3.24,6.77,2.76,5.87,6.02,11.49,9.24,17.11,2.15,3.78,4.16,7.65,6.21,11.49.06.11.04.27-.1.31-.12.06-.27-.04-.33-.13h-.02.01Z"/>
  <path class="cls-1" d="M26.44,124.07c-.13-.02-.25-.17-.23-.31.25-2.42.29-4.89.27-7.31.08-4.01-1.32-7.71-2.72-11.4-.13-.38.42-.48.54-.12.61,1.92,1.46,3.76,1.96,5.72.54,2.11.77,4.3.75,6.48,0,2.25-.08,4.49-.29,6.72,0,.13-.13.23-.27.19v.02h-.01Z"/>
  <path class="cls-1" d="M25.16,129.17c-.5-.15-.12-.92-.15-1.3.06-3.84.38-7.69-.1-11.51-.02-.15.06-.31.21-.31.92-.1.46,6.77.52,7.75-.04,1.32-.1,2.65-.12,3.97-.02.4-.06.81-.1,1.21,0,.15-.15.25-.29.21l.02-.02h.01Z"/>
  <path class="cls-1" d="M26.75,129.9c-1.63-1.92-2.91-4.22-3.16-6.75-.04-.15.06-.31.21-.31.19,0,.35.15.35.33.17,2.01,1.07,3.87,2.22,5.47.25.33.48.63.75.94.1.1.12.29,0,.38-.12.1-.29.06-.38-.06h.02-.01Z"/>
  <path class="cls-1" d="M26.58,128.62c-1-.08-1.86-.61-2.45-1.38-.15-.21-.54-.48-.29-.75.12-.12.31-.06.4.06.88,1.38,2.38,1.73,3.93,1.5,1.99-.12,3.93-.73,5.52-1.96.33-.21.63-.44.96-.67.12-.08.29,0,.36.11.08.12.08.29-.06.36-2.36,1.9-5.31,2.99-8.36,2.71l-.02.02h.01Z"/>
  <path class="cls-1" d="M25.04,126.99c-.29-.92,3.35-.75,3.95-.77,3.2.12,6.44-.13,9.6-.58,3.41-.42,6.5-2.15,9.85-2.8.13-.04.29.08.33.19s0,.27-.13.31c-.56.13-1.11.25-1.67.38-.54.17-1.05.33-1.57.48-5.33,2.23-11.16,2.69-16.87,2.55-1.04.02-2.11,0-3.09.4-.15.06-.33-.04-.38-.17h-.02Z"/>
  <path class="cls-1" d="M40.24,125.37c-.15,0-.29-.15-.31-.31.02-.5.81-.17,1.11-.25,2.34-.02,4.64-.52,6.86-1.19,3.99-1.04,6.9-4.16,10.72-5.52.29-.12.56.36.25.5-2.7.84-4.77,2.78-7.25,4.07-3.49,1.78-7.48,2.82-11.41,2.71h.03Z"/>
  <path class="cls-1" d="M71.93,123.47c-3.47-1-6.81-2.63-10.47-2.78-3.66-.25-7.34.35-10.96-.34-.33,0-.46-.59-.06-.58,3.2.63,6.44.27,9.66.35,2.91.02,5.77.73,8.47,1.76,1.13.4,2.26.79,3.43,1.09.33.06.35.65-.06.52l-.02-.02h0Z"/>
  <path class="cls-1" d="M72.54,123.17c-2.32-.73-4.7-1.11-7.09-1.44-1.74-.17-3.57-.58-5.29-.36-.27.21-.65-.25-.4-.48.25-.79,15.49,1.5,12.79,2.28h0Z"/>
  <path class="cls-1" d="M88.03,142.56c-5.75-5.33-11.27-10.74-13.73-18.4-.29.06-.44-.33-.19-.48.36-.25.73.1.86.44.88,2.7,2.11,5.3,3.74,7.64,2.65,3.84,6.08,7.04,9.43,10.23.1.08.19.17.27.25.23.25-.19.54-.4.33h.02Z"/>
  <path class="cls-1" d="M95.11,147.57c-5.88-3.18-10.62-8.1-14.95-13.12-2.05-2.49-3.78-5.22-5.81-7.71-.1-.13-.19-.25-.29-.4-.17-.33.4-.56.58-.25,1.94,2.46,3.68,5.05,5.56,7.52,2.42,2.97,5.08,5.74,7.9,8.33,1.53,1.38,3.16,2.67,4.89,3.78.81.5,1.59.98,2.4,1.42.29.15-.02.54-.29.38l.02.06h-.01Z"/>
  <path class="cls-1" d="M110.23,153.6c-5.73-1.21-10.87-4.11-15.95-6.93-4.18-2.49-8.72-4.76-12-8.42-.21-.29-.5-.98-.06-1.15.35-.17.79.13.42.42.1.56.59.9.96,1.29,1.53,1.52,3.32,2.72,5.1,3.91,3.78,2.4,7.69,4.6,11.66,6.68,3.18,1.63,6.54,3.03,10.04,3.76.33.08.17.52-.15.44h-.02Z"/>
  <path class="cls-1" d="M87.78,143.7c-.13-.08-.29-.17-.42-.27-.15-.1-.31-.19-.46-.31-.13-.1-.25-.21-.38-.33-.1-.08-.1-.21-.04-.31.04-.06.08-.1.12-.13.06-.04.12-.06.19-.08.15-.02.33.04.35.21v.1c.06.06.12.1.17.13.15.11.33.21.5.33.12.08.25.15.36.25.12.08.13.25.04.35-.06.06-.15.1-.23.1-.06,0-.12,0-.17-.06l-.02.02h-.01Z"/>
  <path class="cls-1" d="M118.72,156.9c-9.51-1.34-18.09-5.97-26.32-10.72-.19-.15-.65-.23-.5-.54.08-.1.23-.13.35-.08.21.12.44.25.65.38,5.41,3.13,10.93,6.14,16.83,8.27,2.26.81,4.56,1.42,6.92,1.88.75.15,1.48.27,2.22.38.33.08.15.52-.15.44v-.02h0Z"/>
  <path class="cls-1" d="M125.18,155.99c-2.36-.17-4.72-.27-7.05-.48-.15,0-.29-.13-.27-.29.02-.15.21-.25.34-.25,2.36.23,4.72.31,7.05.48.4.04.29.56-.1.52l.02.02h.01Z"/>
  <path class="cls-1" d="M152.69,161.25c-2.63-.88-5.25-1.82-8.01-2.26-2.4-.4-4.77-.71-7.15-1.06-5.81-.81-11.64-1.42-17.41-2.42-.42-.15-2.3-.19-1.98-.79.1-.15.31-.17.46-.1,8.01,1.65,16.18,2.28,24.25,3.59,2.61.38,5.21.9,7.69,1.82.79.27,1.59.48,2.38.73.13.04.21.19.13.31-.06.13-.23.19-.36.13v.04h0Z"/>
  <path class="cls-1" d="M154.55,159.01c-3.78-.38-7.52-.96-11.27-1.53-1.86-.25-3.72-.44-5.58-.67-.15,0-.29-.11-.27-.29.02-.15.19-.27.34-.23,4.52.46,9.01,1.29,13.5,1.86,1.11.11,2.22.25,3.35.38.36.04.27.52-.08.48h.01Z"/>
  <path class="cls-1" d="M166.88,168.41c-6.96-5.22-11.33-7.23-19.84-8.83-5.18-1.29-10.26-3.03-15.6-3.22-.4-.02-.81-.04-1.21-.04-.11,0-.23-.1-.21-.23,0-.13.15-.21.27-.21.65,0,1.32.04,1.98.06,5.96.38,11.6,2.55,17.41,3.76,6.29,1.07,11.73,4.01,16.81,7.79.25.17.5.35.75.52.11.08.13.23.04.33-.1.1-.27.13-.38.06v.02h-.02Z"/>
  <path class="cls-1" d="M173.35,171.99c-2.3-4.99-8.86-6.54-13.42-8.86-1.53-.67-3.03-1.46-4.62-2-.38-.13-.1-.63.23-.5,2.7,1,5.23,2.38,7.88,3.53,3.58,1.5,7.46,3.17,9.79,6.41.19.34,1.02,1.36.48,1.59-.15.06-.33,0-.38-.17h.04Z"/>
  <path class="cls-1" d="M172.68,171.86c-.04-.15.1-.29.25-.33.04,0,.1-.02.13-.04-1.17-1.54-2.91-2.44-4.54-3.4-2.74-1.42-5.52-2.8-8.19-4.37-9.76-5.85-11.75-6.56-23.08-6.6-1.07-.06-2.17-.15-3.24-.31-.13,0-.25-.15-.19-.29.04-.13.21-.21.34-.19.36.06.71.1,1.07.15,3.18.38,6.4.17,9.58.44,6.96.36,12.67,4.78,18.59,7.94,2.89,1.57,6.02,2.82,8.66,4.82.5.4,2.41,1.84,1.28,2.26-.21.06-.59.19-.67-.12l-.02.02.03.02Z"/>
  <path class="cls-1" d="M172.93,171.67c-.33-.25-.5-.96.04-.86-.15-4.66-.44-9.32-.08-13.97.06-.65.46-5.54,1.07-5.3.15.06.19.25.15.38-1.3,5.39-.9,11.07-.71,16.58-.06.54.5,3.66-.46,3.17h-.02.01Z"/>
  <path class="cls-1" d="M172.82,170.36c-.33-.52-.29-1.19-.33-1.78-.06-1.27-.04-2.53,0-3.8.06-4.62,1.19-9.19,3.26-13.3.88-1.77,1.76-3.57,3.14-5.01.17-.15.4-.56.63-.29.17.21-.04.44-.19.54-1.99,2.05-3.11,4.78-4.24,7.35-2.01,4.95-2.53,10.53-1.92,15.81.5.23,0,.94-.36.46v.02h.01Z"/>
  <path class="cls-1" d="M173.8,160.79c.34,0,.34.63,0,.63s-.35-.63,0-.63Z"/>
  <path class="cls-1" d="M173.16,160.83c-.34-.35.19-.81.31-1.15.36-.69.71-1.42,1.02-2.13,2.09-5.83,4.18-11.68,6.92-17.25.75-1.57,1.48-3.11,2.28-4.66.21-.35.59.06.38.34-2.15,4.09-4.04,8.31-5.77,12.59-1.3,3.11-2.21,6.37-3.45,9.5-.38.92-.84,1.82-1.32,2.7-.08.13-.25.19-.36.1v-.04h0Z"/>
  <path class="cls-1" d="M172.51,170.57c-.58-3.95.25-7.89,1.67-11.57,1.02-3.03,2.18-6.02,3.49-8.96v.04c.46-1,.92-1.92,1.42-2.88.17-.31.56.04.38.29-1.44,2.67-2.55,5.47-3.62,8.31-1.21,3.49-2.76,7.02-2.95,10.72-.13,1.4.06,2.69.17,4.05,0,.36-.52.42-.52,0h-.04Z"/>
  <path class="cls-1" d="M172.68,169.98c0-.1.06-.21.13-.27.54-6.2,2.97-11.99,4.75-17.88.1-.34.56-.17.46.15-1.48,4.91-3.41,9.67-4.29,14.73-.21,1.13-.21,2.32-.5,3.42-.15.25-.58.15-.56-.17v.02h0Z"/>
  <path class="cls-1" d="M180.04,145.84c-.11-.11-.13-.33-.02-.44.98-1.02,1.57-2.32,2.17-3.59,2.68-5.7,6.4-10.86,8.7-16.73.13-.31.54-.08.4.23-2.32,5.87-5.98,11.07-8.66,16.77v-.02c-.5,1.02-.9,2.07-1.57,2.97-.25.21-.65,1.15-1.02.82v-.02h0Z"/>
  <path class="cls-1" d="M177.78,150.55c-.34-.23-.04-.59.15-.81.59-.75,1.13-1.54,1.59-2.36,4.33-8.77,8.93-17.69,10.56-27.42.04-.23-.11-.61.19-.69.17-.02.27.13.27.29-.86,6.5-3.39,12.68-6.08,18.63-1.32,2.88-2.59,5.7-4.01,8.54-.65,1.32-1.46,2.55-2.36,3.7-.06.13-.21.21-.34.13l.02-.02h0Z"/>
  <path class="cls-1" d="M184.51,139.19c-.13-.08-.17-.27-.11-.4.19-.5.34-1,.52-1.46.77-2.42,1.48-4.83,2.3-7.23,1.65-4.43,2.43-9.07,2.68-13.78.08-3.7.35-7.48-.1-11.17-.08-.46-.25-.86-.48-1.25-.17-.25.21-.63.4-.31,1.06,2.03.63,4.47.75,6.68,0,3.51-.1,7-.52,10.49-.44,4.26-1.92,8.35-3.22,12.39-.59,1.96-1.15,3.93-1.86,5.85-.06.14-.21.21-.34.15l-.02.02v.02Z"/>
  <path class="cls-1" d="M187.67,131.44c-.65-.17.44-2.51.56-3.01,1.04-2.69,1.59-5.51,2.11-8.33.98-6.1,1.55-16.75-.56-22.49-.19-.38-.4-.75-.67-1.07-.1-.12-.08-.31.02-.4.4-.29.59.56.81.79,1.02,1.88,1.11,4.07,1.44,6.14.21,2.3.27,4.53.25,6.81.06,7.18-1.23,14.26-3.6,21.01-.04.23-.04.61-.34.58v-.02h-.02Z"/>
  <path class="cls-1" d="M191.01,120.16c-.25-.15-.27-.79.12-.75.54-4.72-.12-9.42-.5-14.12-.77-6.85-1.38-14.62-6.36-19.84-.19-.15-.4-.33-.63-.38-.29-.1-.17-.65.13-.54.27.1.5.25.71.44,5.79,6.1,6.02,15.19,6.88,23.12.1,1.32,1.26,12.57-.35,12.09v-.02Z"/>
  <path class="cls-1" d="M184.36,137.98c-.1-.1-.1-.27-.02-.38.48-.69.94-1.38,1.4-2.09,1.46-2.23,2.93-4.49,3.7-7.06,2.72-8.44,2.45-19.59-.06-28.05-.71-2.51-1.48-5.03-2.82-7.29-1.86-3.32-4.49-6.25-5.77-9.86-.13-.48-.04-.96.02-1.44,0-.13.13-.25.27-.23.4.02.79.19,1.03.54,1.96,2.57,3.26,5.54,4.54,8.48,2.07,5.66,3.93,11.43,5.35,17.29,0,.15-.1.31-.27.31s-.25-.15-.27-.29c-.06-.38-.15-.73-.25-1.09,1.07,8.86,1,19.44-3.97,27.17-.82,1.34-1.71,2.65-2.59,3.95-.08.12-.23.12-.33.02l.02.04.02-.02ZM185.49,90.47c.52.79,1.04,1.57,1.5,2.4-1.32-3.66-2.91-7.33-5.25-10.46-.13-.17-.27-.25-.48-.25-.23.88.29,1.69.63,2.47,1.05,2.03,2.38,3.91,3.6,5.83h0Z"/>
  <path class="cls-1" d="M178.72,145.98c-.21-.23,0-.5.17-.65,2.01-2.8,3.45-6,5-9.07,2.72-5.99,4.1-12.43,5.6-18.8.61-3.15,1.21-6.29,1.55-9.48.04-.33.48-.25.42.08-.36,3.2-.94,6.35-1.55,9.5v.06-.04c-1.8,8.1-3.74,16.31-7.92,23.56-.46.71-2.59,5.37-3.3,4.87l.02-.02h0Z"/>
  <path class="cls-1" d="M182.4,84.24c-2.93-2.69-5.9-5.31-8.65-8.17-2.95-2.76-6.33-5.01-9.83-7-5.77-3.4-12.46-4.62-19.04-5.24-5.29-.58-10.6-.84-15.91-.54-2.63.33-5.35.48-7.9,1.19-.21.08-.4.15-.54.33-.17.29-.73.04-.54-.27.77-.82,2.09-.81,3.13-1.02,1.92-.29,3.83-.5,5.77-.69,5.27-.29,10.56-.04,15.82.56,3.62.38,7.27.79,10.77,1.78,5.98,1.55,11.39,4.78,16.22,8.56,3.05,2.4,5.5,5.43,8.49,7.89.88.75,1.73,1.55,2.57,2.34.1.1.11.23,0,.33-.1.1-.27.08-.36,0v-.04h0Z"/>
  <path class="cls-1" d="M185.6,90.19c-4.16-5.41-7.97-11.17-13.05-15.77-4.81-3.78-10.12-7.21-15.95-9.17-2.59-.77-5.31-.77-7.97-1.07-2.68-.27-5.37-.73-8.01-1.23-.12-.02-.23-.13-.19-.27.02-.13.17-.17.29-.15,2.28.4,4.49.82,6.79,1.07,4.29.5,8.78.48,12.69,2.57,4.6,2.19,8.99,4.89,12.92,8.13,2.24,2.03,4.18,4.37,6.13,6.66,1.9,2.4,3.72,4.85,5.54,7.31.42.56.84,1.11,1.28,1.65.23.29-.25.56-.46.29v-.02h0Z"/>
  <path class="cls-1" d="M114.85,65.99c-.08-.12-.04-.27.1-.33,2.86-1.15,5.96-1.32,8.99-1.65,6.44-.38,13.03-.86,19.4.42.38.08.31.59-.11.52-5.43-1.15-11-.9-16.5-.65-3.09.19-6.21.4-9.22,1.06-.79.17-1.55.4-2.28.75-.13.06-.29,0-.38-.1l.02-.02h-.02Z"/>
  <path class="cls-1" d="M112.53,65.36c-.06-.12,0-.25.15-.29,1.53-.48,3.12-.82,4.72-1,3.68-.46,7.38-.84,11.06-1.19,3.37-.29,6.77-.48,10.16-.48,3.03.02,6.15-.12,8.99,1.07.36.13.19.63-.19.5-2.42-1.04-5.04-1.06-7.61-1.07-2.51-.04-5.04.02-7.55.17-5.56.38-11.12.86-16.62,1.73-.92.17-1.84.4-2.72.71-.13.04-.29-.02-.34-.13l-.04-.02h-.01Z"/>
  <path class="cls-1" d="M123.44,63.81c-.11-.44.69-.38.96-.52,2.28-.58,4.62-.71,6.96-.88,2.28-.13,4.56-.21,6.84-.17,1.63,0,3.34.08,4.75.88.13.04.29.17.25.33-.08.29-.42.19-.63.12-.86-.56-1.88-.69-2.88-.77-1.92-.13-3.81-.1-5.73-.06-2.57.12-5.14.21-7.65.61-.9.13-1.73.36-2.59.59-.12,0-.23-.06-.27-.15l-.02.02h.01Z"/>
  <path class="cls-1" d="M71.24,100.18c-.36-2.84,1-5.62,1.99-8.19,3.07-6.71,8.88-12.85,14.93-17.02.77-.5,1.57-.96,2.38-1.42.12-.06.25-.04.31.1s-.04.27-.13.33c-.73.42-1.48.86-2.17,1.29-2.86,1.77-5.23,4.12-7.57,6.48-4.08,4.18-7.4,9.25-8.86,14.93-.25,1.07-.56,2.23-.31,3.3.1.31-.44.59-.56.21h-.02,0Z"/>
  <path class="cls-1" d="M81.9,81.73c-.36-.33.33-.82.48-1.11,2.17-2.59,5.1-4.32,7.86-6.2,6.65-4.24,14.26-8.15,22.24-8.86.31,0,.59-.02.9-.04.13,0,.23.08.21.21,0,.12-.12.25-.25.25-.36,0-.75.04-1.11.06-9.43,1.02-17.92,6.02-25.53,11.4-1.53,1.11-2.99,2.32-4.12,3.8-.19.19-.31.63-.65.48l-.02.02h-.01Z"/>
  <path class="cls-1" d="M77.68,89.04c-.4-.25.56-1,.65-1.29,1.8-2.3,3.85-4.39,5.98-6.41,7.36-7.19,16.72-12.09,26.72-14.41,2.93-.71,5.88-1.36,8.78-2.23,1.02-.27,1.99-.61,2.99-.92.25-.02.56-.21.79-.08.21.21,0,.54-.25.61-.27.1-.84.65-1,.17-5.2,1.67-10.56,2.63-15.8,4.14-6.79,2.17-13.3,5.51-18.73,10.13-2.78,2.4-5.46,4.89-7.88,7.66-.67.81-1.32,1.63-1.94,2.47-.08.12-.23.19-.35.12l.02.02.02.02Z"/>
  <path class="cls-1" d="M71.89,99.38c-.54-.02.77-2.21.84-2.55,1.36-2.67,2.74-5.33,4.39-7.83,2.34-3.66,5.52-6.64,9.03-9.15,2.38-1.8,4.77-3.61,7.38-5.08.25-.12.63-.48.82-.13.06.15-.04.33-.17.4-.38.19-.75.4-1.11.61-2.68,1.55-5.16,3.47-7.63,5.35-2.65,1.9-5.06,4.16-6.96,6.81-2.15,2.9-3.8,6.1-5.42,9.32-.31.67-.61,1.36-.88,2.07-.06.13-.17.23-.33.21l.04-.04h0Z"/>
  <path class="cls-1" d="M73.12,106.44c-1.19-2.44-.69-5.22-.19-7.77.71-3.05,1.59-6.29,3.95-8.52.25-.29.65.02.4.33-1.99,1.84-2.88,4.49-3.55,7-.59,2.67-1.38,5.62-.29,8.23.06.13.12.27.19.4.17.29-.31.63-.48.31l-.04.02h.01Z"/>
  <path class="cls-1" d="M73.35,107.91c.08-2.57.73-5.07,1.11-7.58.06-.27-.04-.71.35-.77.15,0,.27.12.27.27-.23,2.05-.79,4.09-1.05,6.12-.08.63-.13,1.27-.15,1.9,0,.15-.13.29-.29.29-.13,0-.25-.1-.25-.25l.02.02h0Z"/>
  <path class="cls-1" d="M72.81,119.02c-.98-2.09-1.13-4.41-1.09-6.7.19-3.03-.58-6.54,1.23-9.19.33-.35.69.1.35.4-1.25,1.9-.96,4.34-1.04,6.5,0,2.3-.19,4.7.38,6.95.19.59.42,1.19.67,1.76.06.14-.04.31-.15.37-.12.06-.29.04-.33-.1h-.02Z"/>
  <path class="cls-1" d="M75.05,125.09c-1.36-3.32-2.59-6.85-3.14-10.38-.19-2.07-.71-4.2-.29-6.27.06-.35.61-.38.56.02-.33,1.36-.12,2.78.04,4.14.17,1.92.44,3.86,1.05,5.7.4,1.29.77,2.57,1.19,3.84.33.92.71,1.82,1.11,2.7.13.29-.35.59-.5.27,0,0-.02-.02-.02-.02Z"/>
  <path class="cls-1" d="M76.82,129.36c-2.22-2.94-3.22-6.7-3.76-10.28-.06-.17,0-.34.15-.44.12-.06.31-.04.36.11.56,3.53,1.42,7.37,3.66,10.21.21.25-.21.65-.44.4h.03Z"/>
  <path class="cls-1" d="M140.8,64.44c-.31-.08-.27-.36-.23-.61-.06-4.32-1.11-8.56-2.26-12.7-1.15-3.55-2.42-7.08-4.05-10.44-1.4-2.99-2.91-5.99-5.1-8.48-.13-.21-.56-.31-.38-.59.36-.29.71.35.96.56,2.45,2.94,4.08,6.43,5.67,9.86,2.26,5.03,3.99,10.3,5.08,15.71.06.81,1.32,6.96.33,6.68l-.02.02h0Z"/>
  <path class="cls-1" d="M140.79,59.01c-.52-9.73-5.21-20.24-11.46-27.63-.31-.35-.59-.63-.92-.96-.1-.1-.13-.23-.02-.33.38-.29.86.67,1.15.88,5.9,6.91,9.89,15.56,11.48,24.5.17,1.17.19,2.36.34,3.53.04.36-.54.35-.58,0h.01Z"/>
  <path class="cls-1" d="M142.7,61.75c-.08-.27-.13-.54-.19-.81,0-.06,0-.12.04-.15-.92-3.63-2.32-7.1-3.64-10.57v.04c-4.06-9.65-9.24-18.9-16.14-26.82-.21-.25.19-.48.36-.25,1.02,1.17,1.99,2.38,2.97,3.59,5.9,7.73,10.56,16.37,14.09,25.42.23.61,4.47,11.4,2.51,9.57v-.02h0Z"/>
  <path class="cls-1" d="M132.77,37.23c-.17-.12-.48-.33-.29-.56-.88-1.21-1.76-2.36-2.63-3.57v.02c-4.98-6.14-10.37-12.13-16.83-16.73-.15,0-.31-.12-.31-.29.04-.33.44-.19.63-.06,3.45,2.44,6.56,5.31,9.45,8.35,2.65,2.71,5.16,5.51,7.51,8.46.61.82,1.21,1.63,1.8,2.42.27.44,1.5,1.55,1,1.98-.1.04-.23.02-.33-.04l-.02.02h.02Z"/>
  <path class="cls-1" d="M131.81,36.83c-.13-.27-.71-.61-.38-.9.4-.19.61.38.84.61.25.33-.23.58-.44.29h-.02,0Z"/>
  <path class="cls-1" d="M129.73,34.28c-1.38-1.75-2.57-3.61-4.05-5.26-1.99-2.3-4.24-4.34-6.4-6.48-3.24-3.01-6.69-5.91-10.43-8.23-1.51-.86-3.05-1.92-4.77-2.3-.15,0-.33,0-.46.08-.27.12-.56-.36-.23-.46.13-.04.25-.08.38-.08,6.79,1.3,20.22,14.16,24.48,19.91.65.84,1.23,1.73,1.9,2.55.25.31-.21.59-.46.29l.04-.02h0Z"/>
  <path class="cls-1" d="M122.31,25.42s-.1-.02-.13-.06c-.13-.08-.23-.23-.15-.36-3.03-2.95-6.84-5.01-10.41-7.25-4.29-2.49-8.55-5.1-12.94-7.42-.29-.15-.12-.58.21-.4,5.81,3.18,11.54,6.54,17.19,10.01.59.46,8.22,5.14,6.23,5.49h0Z"/>
  <path class="cls-1" d="M120.56,24.4c-.29-.13-.52-.38-.81-.54-.13-.08-.15-.29,0-.36-3.81-3.53-8.2-6.33-12.61-9.04-4.52-2.63-9.01-5.37-13.84-7.41-.48-.19-.98-.4-1.5-.5-.13-.02-.25-.15-.23-.29.12-.46,1.11.15,1.42.21,4.43,1.82,8.59,4.24,12.71,6.64,4.45,2.59,8.76,5.33,12.73,8.6.84.75,1.69,1.48,2.49,2.26.27.25-.12.52-.38.38l.02.04h0Z"/>
  <path class="cls-1" d="M112.32,17.09c-.65-.23-1.21-.67-1.82-1-.33-.17-.13-.63.21-.48-3.24-2.38-6.9-4.03-10.43-5.89-3.47-1.61-6.86-3.4-10.49-4.59-.35-.08-.29-.59.12-.46,3.74,1.3,7.28,3.09,10.87,4.78,3.72,1.96,7.67,3.65,10.95,6.31.29.25,1.61,1.4.61,1.32h-.02Z"/>
  <path class="cls-1" d="M110.92,15.06c-.33,0-1.48-.54-.81-.84-4.01-3.68-11.18-8.52-16.72-8.54-.29.02-.44-.46-.08-.48,5.35.06,12,4.3,16.03,7.67.31.29,2.63,2.03,1.55,2.19h.03Z"/>
  <path class="cls-1" d="M110.69,14.4c-.04-.38.56-.35.59,0,.04.38-.56.35-.59,0Z"/>
  <path class="cls-1" d="M110.23,13.75c-4.24-3.43-9.32-5.49-14.45-7.12-3.41-.9-6.86-1.86-10.41-1.96-.35,0-.69-.02-1.04-.02-.13,0-.27-.1-.29-.23-.02-.13.1-.25.21-.25,7.99.23,18.44,3.51,24.98,8.17.44.33.88.65,1.34.98.11.1.19.25.1.38-.1.12-.29.12-.42.04h-.02Z"/>
  <path class="cls-1" d="M97.31,7.57c-.33-.13-.65-.29-.98-.42-.35-.15-.71-.29-1.05-.42-.69-.27-1.38-.52-2.07-.73-.73-.23-1.48-.44-2.22-.63-.27-.08-.54-.13-.81-.21-.63-.15-1.25-.29-1.88-.44-.56-.13-1.13-.27-1.69-.4-.33-.08-.65-.13-.98-.19-.9-.17-1.82-.36-2.72-.54-.58-.1-1.17-.19-1.74-.27-.61-.08-1.23-.13-1.84-.17h-.02c-.61-.04-1.23-.04-1.8,0-.23.02-.46.06-.69.1-.29.06-.56.15-.82.27-.13.06-.31-.04-.36-.17-.06-.13,0-.27.13-.31.29-.1.59-.19.9-.25.36-.08.73-.1,1.07-.12.73-.04,1.46,0,2.19.06.75.06,1.48.15,2.22.27.33.06.65.1.98.17,1.15.23,2.3.46,3.45.67.08,0,.17.04.25.06.27.06.54.12.81.19.71.17,1.4.33,2.11.48.21.06.42.1.63.15.08,0,.15.04.25.06.38.1.75.19,1.13.31.71.19,1.42.4,2.11.63s1.38.48,2.05.75c.25.1.5.19.73.29.27.12.54.23.81.36.13.06.25.21.21.36-.04.12-.15.17-.25.17-.04,0-.08,0-.12-.02l.02-.06h0Z"/>
  <path class="cls-1" d="M125.85,29.62c-4.43-5.64-9.62-10.84-15.7-14.68-8.05-4.45-16.64-8.27-25.67-10.17-1.46-.23-3.01-.54-4.49-.23-.38.19-.88.15-.75-.31.06-.1.15-.12.25-.13.15-.04.29-.12.44-.13,1.97-.31,3.99.17,5.9.56,6.27,1.48,12.27,3.91,18.06,6.7,3.07,1.42,6.11,2.92,8.86,4.93,2.51,1.78,4.77,3.89,7.02,5.99,2.34,2.23,4.43,4.7,6.42,7.23.08.1.08.23-.02.31-.11.08-.27.04-.34-.06h.02,0Z"/>
  <path class="cls-1" d="M135.96,44.2c-.17-.17-.48-.58-.21-.79-1.42-2.8-3.64-5.1-5.58-7.56-5.27-6.14-11.21-11.68-17.39-16.92-.23-.21.06-.54.33-.31,6.38,5.39,12.52,11.13,17.94,17.5.48.65,7.32,8.52,4.91,8.06v.02Z"/>
  <path class="cls-1" d="M142.03,63.98c-.12-.1-.15-.23-.17-.36-.06-.71-.04-1.44-.1-2.15.08-.42-.48-1.9.15-1.86.48.12.27.81.38,1.19.13.79.13,1.69.54,2.4.29.27-.11.61-.38.36,0,.06,0,.12.02.15.15.27-.23.48-.42.29l-.02-.02h0Z"/>
  <path class="cls-1" d="M143.12,63.4c-.15,0-.31-.15-.31-.31,0-.06.02-.12.06-.15-.08-.38-.27-.73-.48-1.06-.1.21-.25.46-.5.31-.12-.06-.21-.23-.13-.36.13-.23.23-.54.54-.58.44-.1.59.4.79.67.19.36.81,1.42.06,1.48h-.03Z"/>
  <path class="cls-1" d="M142.38,64.86c-.15,0-.29-.13-.31-.29.1-1.96-.29-3.93-.63-5.85-.02-.15.1-.25.23-.25.15,0,.29.1.31.25.1.5.19,1,.29,1.5.04.59.9,4.82.12,4.66v-.02h0Z"/>
  <path class="cls-1" d="M3.15,47.65c-.35-2.51,1.09-4.7,2.07-6.89,1.27-2.59,2.42-5.22,3.68-7.81,1.48-3.05,3.68-5.66,6.12-8,1-1.17,1.8-2.51,2.91-3.59,1.65-1.82,3.76-3.13,5.81-4.47,2.66-1.67,5.37-3.32,8.11-4.85,2.28-1.11,4.68-1.94,7.02-2.94,2.36-.94,4.68-2.03,7.09-2.8,2.88-.79,5.81-1.38,8.72-2.07.84-.15,6.94-1.38,6.15-.17,1.78-.13,3.53-.4,5.29-.69,4.2-.58,8.43-.31,12.63.13,5.1,0,10.2.46,15.09,1.96,1.53.44,2.99,1.06,4.5,1.55.13.04.17.19.12.33,3.18.81,6.31,1.86,9.24,3.36,1.8.88,3.14,2.42,4.87,3.41,1.78.96,3.76,1.46,5.65,2.15.27.13.1.46-.13.56-.17.06-.34.06-.52.04-4.54-.84-8.76-2.78-13.07-4.39-3.7-1.3-7.4-2.44-11.18-3.45-11.54-3.05-23.71-3.51-35.48-1.5-6.61,1.53-13.05,3.91-19.13,6.93-2.07,1.02-4.08,2.15-6.06,3.32-.12.06-.27.08-.35-.06-.08-.12,0-.27.1-.33,1.27-.75,2.55-1.46,3.85-2.19,6.54-3.47,13.53-6.14,20.7-7.94,10.58-1.96,21.6-1.94,32.13.29,5.23,1.09,10.35,2.61,15.39,4.36,3.2,1.17,6.34,2.55,9.62,3.53-2.99-.96-4.93-3.66-7.82-4.82-2.97-1.38-6.12-2.34-9.3-3.13-2.91-.77-5.85-1.4-8.86-1.46-3.87-.19-7.69-.96-11.48-1.73-2.26-.48-4.52-.36-6.81-.33-2.38.1-4.75.08-7.09.48-2.66.65-5.29,1.36-7.92,2.15-4.93,1.48-9.91,2.71-14.93,3.76-2.51,1.29-4.98,2.63-7.48,3.95-1.65,1.15-3.34,2.26-5.04,3.36-1.19.92-2.3,1.94-3.51,2.86-.36.31-.92.69-1.34.29-3.26,2.21-6.4,4.7-8.59,8.04-.44.69-.84,1.42-1.32,2.09-.15.23-.58.17-.52-.13-1.76,2.65-3.32,5.43-4.89,8.21-1.57,2.34-3.09,4.82-3.45,7.66-.13.38.19,1.02-.23,1.15-.13.04-.33,0-.35-.17h-.04.03ZM7.33,37.54c-.17.36-.35.73-.52,1.07,2.24-4.14,4.79-8.1,7.28-12.09-3.16,3.05-5.06,7.02-6.77,10.99v.02h0ZM13.56,28.37c-.08.12-.13.23-.21.33,2.28-3.51,5.65-6.1,9.07-8.4,1.42-1.92,3.6-3.09,5.65-4.24,2.51-1.29,4.73-3.03,7.25-4.36-5.42,2.07-10.37,5.3-14.89,8.92-1.65,1.3-3.18,2.72-4.66,4.2-.77,1.19-1.48,2.36-2.22,3.53l.02.02h-.01ZM17.53,22.5c2.89-2.67,6.08-5.01,9.43-7.08-3.32,2.09-6.88,4.03-9.43,7.08ZM23.97,19.28c1.11-.77,2.34-1.42,3.37-2.28-1.17.67-2.36,1.38-3.37,2.28ZM30.52,13.31c-.13.1-.29.17-.42.27,3.83-1.96,7.92-3.42,11.96-4.89,1.65-.71,3.24-1.55,4.91-2.23-3.32.92-6.38,2.47-9.58,3.72-2.32.96-4.72,1.77-6.84,3.13h-.03ZM44.86,8.53c-.96.25-1.92.54-2.86.86,4.33-.88,8.59-2.05,12.84-3.3-3.34.79-6.69,1.52-9.99,2.44h.01ZM46.59,7.13c-.21.1-.42.17-.63.27-.25.12-.5.23-.75.35,2.26-.59,4.47-1.4,6.65-2.21-1.86.17-3.58.92-5.29,1.61l.02-.02ZM53.87,5.29c-1.42.5-2.82,1.06-4.24,1.53,3.11-.73,6.23-1.46,9.34-2.15-1.69.23-3.45.23-5.1.61h0ZM92.02,5.73c.27,0,.54.04.81.08.12,0,.21,0,.33.02-3.49-1-7.07-1.65-10.7-1.75,3.22.42,6.36,1.32,9.58,1.65h-.02ZM83.83,5.08c1.23.19,2.45.27,3.7.38-3.32-.58-6.63-1.32-9.99-1.52,2.09.38,4.18.86,6.29,1.13h0Z"/>
  <path class="cls-1" d="M22.07,100.34c-2.78-5.12-5.31-10.38-8.19-15.44-2.43-4.24-5.29-8.25-7.5-12.62-2.13-3.88-3.01-8.33-3.37-12.7-.25-3.11-.52-6.25-.36-9.38-.13.23-.17.77-.54.61-.12-.08-.15-.25-.1-.38.25-.59.5-1.19.77-1.78.25-2.17.67-4.32,1.53-6.33,1.4-3.26,3.32-6.29,5.6-9.02,1.28-1.55,2.93-2.88,3.66-4.82.06-.13.1-.25.15-.36.15-.33.58-.04.44.25-.79,2.32-2.15,4.32-3.49,6.33-1.65,2.55-3.09,5.22-4.52,7.89-1.04,2.05-2.05,4.11-2.93,6.22-.15,1.3-.19,2.61-.17,3.89.27,6.77.54,13.95,4.04,19.93,1.94,3.78,4.39,7.25,6.54,10.9,2.09,3.55,3.97,7.19,5.89,10.84.86,1.75,1.76,3.49,2.76,5.18.12.29.46.65.13.92-.13.08-.31,0-.36-.13l.02.02v-.02ZM3.73,45.81c-.04.25-.1.5-.13.73-.04.15-.06.33-.1.48,2.4-5.28,5.19-10.38,8.43-15.2-3.74,3.89-6.92,8.67-8.2,13.97,0,0,0,.02,0,.02Z"/>
  <path class="cls-1" d="M26,129.23c-.4-.13-.15-.58,0-.82,1-1.94.59-4.07.1-6.08-.54-2.47-.08-5.07-.42-7.56-.19-1.57-.59-3.13-.84-4.7-.19-1.04-.08-2.17-.44-3.15-.29-.27.12-.63.38-.36.35.33.36.86.42,1.3.1,1.23.23,2.44.46,3.63.35,1.77.71,3.53.73,5.33.04,1.59-.1,3.2.13,4.76.36,2.09,1.15,4.28.31,6.35,2.68-.46,5.31-1.09,7.9-1.9,2.99-.88,6-1.61,8.95-2.61,2.76-.9,5.29-2.46,8.19-2.88-3.68,0-7.44.67-10.91,1.88-2.65,1.3-5.1,3.09-7.96,3.99-.27.12-.56-.33-.23-.44,3.35-.98,6.02-3.49,9.35-4.49,3.93-1.04,8.05-1.82,12.11-1.23,2.53-.15,5.12-.5,7.59.21,1.71.63,3.49.56,5.25.77,2.09.15,3.95,1.11,5.81,1.98.59.25,1.27.38,1.74.81.08.08.13.17.1.27-.38.59-1.78-.46-2.28-.65-.82-.4-1.74-.54-2.63-.77-2.01-.46-4.06-.79-6.06-1.36-1.94-.06-3.87-.1-5.79-.27-.65-.08-1.3-.17-1.94-.27-4.27-.84-8.19,1.5-12.06,2.88-4.45,1.4-8.93,2.67-13.44,3.88-1.28.42-2.76.34-3.99.92-.17.21-.17.69-.56.58v.02l.03-.02ZM59.8,120.87c.65.06,1.28.06,1.94.08-1.61-.44-3.28-.5-4.91-.36,1,.15,1.97.21,2.97.29h0Z"/>
  <path class="cls-1" d="M170.48,170.88c-.79-.46,1.63-1.59-1.21-3.51-2.49-1.73-5.31-2.86-7.9-4.41-.13-.1-.25-.21-.38-.33-.21-.17,0-.5.27-.4.84.23,1.63.5,2.47.73-2.86-.98-5.67-2.05-8.55-2.95-3.3-.69-6.61-1.29-9.89-2.09.36.65-.61.61-1.04.73-3.22.38-6.44-.4-9.62-.82-5.23-.82-10.51-1.46-15.78-2-.35-.08-1.09-.17-1.04-.63.06-.11.17-.15.29-.13,1.57.13,3.14.38,4.72.59-6.79-1.82-13.94-1.94-20.59-4.32.94.52,1.88,1.02,2.84,1.48.12.06.23.17.17.33-.21.33-.61,0-.86-.12-1.92-.9-3.93-1.55-5.75-2.63-1-.58-1.94-1.23-3.01-1.67-.48-.25-3.78-1.73-2.76-2.28-1.86-1.44-3.7-2.86-5.5-4.35,1.34,1.42,2.72,2.8,4.18,4.12.1.08.12.23.02.31-.5.38-1.67-1.11-2.13-1.42-2.36-2.11-4.75-4.18-6.86-6.52-1.48-1.67-2.68-3.55-3.83-5.43-.52-.59-1.05-1.19-1.61-1.77-.27-.29.19-.54.4-.29-1.19-2.03-1.9-4.28-2.57-6.52-.52-1.76-1.38-3.4-1.84-5.18-.15-.02-.33-.04-.5-.08-.13-.04-.27-.17-.23-.33.04-.15.23-.21.36-.17.29.12.9-.06.96.35.13,1.29.86,2.44,1.25,3.66.59,1.67,1.05,3.4,1.65,5.07,1.11,3.03,2.93,5.64,5.14,7.96,2.19,2.67,4.77,4.99,7.46,7.14,2.47,1.9,4.79,4.03,7.65,5.33,1.63.86,3.18,1.9,4.96,2.4,3.49,1.19,7.04,2.05,10.68,2.59,3.07.42,6.11.9,9.12,1.61,1.04.29,2.11.46,3.09.86.1.04.17.13.17.23,3.87.44,7.74,1.09,11.62,1.65,2.7.35,5.56,1.04,8.26.4-1.11-.61-2.41-.79-3.62-1.15-.36-.1-.25-.58.11-.48,4.49,1.15,8.99,2.19,13.55,3.01.08-.06.19-.08.29-.06,1,.25,2.01.42,3.03.59.33.04.36.48,0,.48,2.78.98,5.54,1.96,8.32,2.94.36.13,1.38.25,1.23.81-.06.08-.17.13-.27.12-1.55-.27-3.09-.65-4.58-1.11,1.76.9,3.53,1.82,5.25,2.8,1.32.86,3.37,1.78,3.18,3.65-.06.38-.23.75-.38,1.11-.06.13-.25.17-.38.11h0ZM84.1,139.51c.58.59,1.19,1.15,1.78,1.73-1.53-1.69-3.05-3.38-4.58-5.07.82,1.21,1.78,2.3,2.8,3.34h0Z"/>
  <path class="cls-1" d="M74.06,96.92c0-1.77.79-3.4,1.55-4.95-.38.4-.81.96-1.42.81-.15,0-.23-.21-.17-.35.23-.65.65-1.23,1.02-1.82,1.88-3.2,4.41-5.93,7.11-8.44,2.43-2.26,4.87-4.57,7.73-6.33,2.88-1.78,5.9-3.34,9.07-4.57,1.69-.73,3.3-1.65,4.98-2.38-.46.17-.94.33-1.4.5-.13.04-.27-.04-.29-.17-.02-.13.06-.29.19-.35,3.51-1.13,6.98-2.86,10.73-2.9.73.04,1.46,0,2.19.02.11.02.17.15.17.27-.11.52-.84.31-1.23.33-4.08-.1-7.92,1.65-11.52,3.36,2.07-.63,4.16-1.11,6.29-1.52,1.05-.1,2.15-.52,3.18-.31.25.1.17.46-.04.54-1.05.36-2.15.69-3.2,1.11-4.43,1.61-8.82,3.36-13.28,4.89-4.14,1.34-7.46,4.12-10.6,7.04-3.03,2.9-6.02,5.91-8.38,9.38-.96,1.48-1.78,3.2-2.05,4.93-.12.35.1.96-.27,1.11-.15.06-.33-.06-.33-.23l-.04.02h0ZM74.61,92.2c1.42-1.19,2.45-2.72,3.68-4.11,2.45-2.78,4.79-5.68,7.51-8.23,1.59-1.5,3.45-2.69,5.39-3.7,1.51-1.07,3.11-2.01,4.66-3.03-4.98,2.23-9.41,5.43-13.28,9.25-3.14,2.86-5.96,6.06-7.94,9.82,0,0-.02,0-.02,0ZM94.2,74.72c5.29-1.96,10.6-3.91,15.89-5.89-3.6.56-7.13,1.5-10.56,2.74-1.84.94-3.6,2-5.33,3.15Z"/>
  <path class="cls-1" d="M20.27,21.1c-.15-.04-.19-.23-.12-.35.84-1.59,2.26-2.78,3.58-3.99,2.17-1.84,4.35-3.7,6.9-5.01,1.92-1.02,3.91-1.88,5.88-2.78,2.63-1.13,5.16-2.47,7.9-3.3,7.38-2.11,15.09-2.84,22.75-2.55,8.15.21,16.29,1.02,24.17,3.26.94.27,5.04.9,4.04,2.13-.12.1-.31.12-.4,0-.06-.08-.06-.17-.02-.25-.84-.69-1.97-.82-2.99-1.11-1.13-.27-2.24-.56-3.37-.84-5.73-1.57-11.65-2.19-17.58-2.49-7.73-.48-15.53-.27-23.08,1.48-4.54.84-8.59,2.99-12.77,4.83-2.01.9-4.04,1.82-5.92,2.99-2.17,1.4-4.16,3.09-6.08,4.8-.98.94-1.97,1.82-2.53,3.05-.06.13-.19.23-.35.19l-.04-.06h.03Z"/>
  <path class="cls-1" d="M8.54,36.08c-.44-.23.21-.98.35-1.23,1.07-2.23,2.28-4.37,3.85-6.29.42-.56.77-1.27,1.36-1.63-.13-.1-.12-.29,0-.38.73-.82,1.53-1.59,2.34-2.36.84-.77,1.73-1.5,2.53-2.3.5-.4.96-.96,1.61-1.09,3.16-2.26,6.31-4.57,9.57-6.7,2.53-1.5,5.08-2.92,7.65-4.36,5.46-3.13,11.48-5.08,17.58-6.54.04-.1.13-.17.23-.19,1.09-.06,2.13-.36,3.2-.52.36-.31,1.19-.12,1.69-.27.52-.08,1.05-.12,1.57-.06.08,0,.13.06.17.12,2.66.13,5.31-.61,7.97-.44.12,0,.19.12.19.21-.08.42-.71.4-1.04.5,1.74,0,3.47.08,5.19.21.36.08,1.69,0,1.5.58.29.04.58.08.86.13.12,0,.19.1.19.21-.08.48-.77.38-1.15.4.17.21.08.63-.23.63-.71-.04-1.4-.25-2.11-.33-2.05-.25-4.1-.1-6.15-.08-8.76.44-17.35,2.88-25.42,6.27-5.41,2.4-11,4.45-16.1,7.48-1.63,1.17-3.11,2.53-4.31,4.11-.29.23-.4.88-.82.73-.12-.08-.11-.25-.04-.35.75-.98,1.55-1.94,2.45-2.78-4.14,2.9-7.63,6.64-10.64,10.69-1.3,1.78-2.47,3.65-3.72,5.49-.06.1-.19.15-.31.12l-.02.02h.01ZM12.87,29.33c.9-1.23,1.9-2.36,2.91-3.49-1.15.98-2.07,2.24-2.91,3.49ZM30.62,14.86c-.15.12-.33.21-.48.33-.29.21-.59.4-.88.61.58-.31,1.19-.58,1.78-.84-.12,0-.25-.06-.27-.19-.06.04-.1.08-.15.1h0ZM30.08,14.69c.21-.15.44-.29.65-.44-.23.13-.44.27-.67.4v.04h.02ZM31.81,14.6c5.85-2.55,11.64-5.26,17.71-7.27,7.3-2.23,14.88-3.74,22.56-3.51-4.04-.59-8.11,0-12.11.5-.19,0-.44-.04-.4-.27,0-.12.1-.21.21-.25,1.07-.33,2.2-.48,3.32-.58-4.96.38-9.8,2.36-14.57,3.74-2.53.81-5.06,1.61-7.57,2.49-3.03,1.73-6.19,3.22-9.11,5.14h-.04,0ZM33.59,12.95c1.38-.79,2.76-1.55,4.16-2.3-1.5.56-2.88,1.36-4.16,2.3ZM44.15,7.69c-.42.19-.84.4-1.28.59,4.64-1.53,9.3-3.05,13.99-4.39-4.41.63-8.65,2-12.71,3.8ZM75,4.14c-.21-.13-.48-.08-.73-.12.25.04.48.08.73.12Z"/>
  <path class="cls-1" d="M141.9,61.75c-.46-.4-.58-1.02-.75-1.57-.4-1.32-.73-2.67-1.07-4.01-.9-3.47-1.9-6.91-3.3-10.21-1.88-4.22-4.52-8.04-7.09-11.86-2.61-3.99-5.56-7.77-9.18-10.9-1.59-1.38-2.99-3.01-4.83-4.07-5.23-3.26-10.52-6.54-16.1-9.17-2.28-.94-4.68-1.63-7-2.49-1.97-.88-4.26-1.36-6.4-1.04-.33.04-.75.38-.98,0-.08-.15,0-.29.15-.35,1.9-.63,3.93-.13,5.83.29.06-.06.15-.06.23-.06.12.02.23.06.36.08-1.88-.73-3.83-1.25-5.79-1.67,2.13,1.34-5.48-.35-5.83-.38-1.51-.25-2.88-.96-4.45-.86-.88-.04-1.78,0-2.66.12-.13,0-.29-.06-.35-.19-.23-.63,3.87-.35,4.37-.33.02-.1.12-.15.23-.15,1.19-.08,2.38.19,3.55.35,2.63.4,5.23.94,7.78,1.59-.33-.61,1.05-.4,1.34-.36,4.08.75,7.78,2.72,11.58,4.34,7.25,1.98,15.78,8.79,21.41,13.78,1.07,1.06,2.17,2.07,3.22,3.17.19.27.71.52.63.84-.08.13-.25.12-.38.08,3.78,3.84,6.96,8.23,9.43,13.03,1.51,3.26,2.88,6.6,4.22,9.94.75,1.94.79,4.01,1.57,5.93.25.96,1.67,4.83.77,5.31.04.36.08,1.27-.52.82v.02-.02ZM140.48,55.61c.38,1.46.75,2.92,1.19,4.37,0-.38-.5-2.01.21-1.8-.31-1.27-.73-2.51-1.13-3.76-.13.15-.38.19-.56.12.1.36.19.71.29,1.07ZM140.33,54c.23-1-.52-1.96-.73-2.92-.46-1.13-.84-2.28-1.36-3.4.81,2.05,1.27,4.28,2.09,6.31h0ZM135.94,42.28c.82,1.23,1.53,2.53,2.17,3.88-1.28-3.01-2.43-6.08-4.14-8.9-2.55-4.32-5.75-8.21-9.34-11.7-.04.23-.36.25-.5.08-.52-.54-1.02-1.02-1.55-1.52-.88-.88-1.94-1.55-2.93-2.3,2.88,2.53,5.58,5.24,7.84,8.35,2.78,3.95,5.52,7.94,7.96,12.13.1-.19.38-.17.5,0v-.02ZM118.03,19.07c-3.28-2.63-6.63-4.93-10.27-7.04,3.43,2.34,6.94,4.57,10.27,7.04ZM103.6,11.47c3.03,1.67,6.02,3.41,8.97,5.22-2.91-2.15-6.06-3.99-9.37-5.43.13.06.27.13.4.21ZM107.6,12.66c.27.13.54.25.81.38-1.09-.84-2.32-1.46-3.58-2.03.94.52,1.78,1.21,2.78,1.63v.02h0ZM94.28,7.31c2.82.94,5.6,1.98,8.3,3.2-1.04-.56-1.92-1.32-2.99-1.8-.59-.29-1.19-.58-1.76-.84-.08-.04-.13-.1-.15-.17-2.7-1.11-5.42-2.47-8.38-2.74,1.25.67,2.68.9,4.01,1.4.31.1.84.59.27.71.23.1.46.19.69.27l.02-.02h-.01Z"/>
  <path class="cls-1" d="M189.97,105.21c-1.36-6.91-4.7-13.22-8.09-19.34-3.39-4.07-6.61-8.46-10.95-11.59-1.07-.81-2.11-1.63-3.16-2.46-1.84-1-3.76-1.78-5.67-2.61-3.74-1.53-7.55-2.94-11.44-4.03-2.36-.65-4.73-1.17-7.15-1.55-.67-.15-1.28-.17-1.9-.38-.15-.08-.29-.19-.31-.36-.38-.98,5.42.35,6.06.38,2.36.58,4.79.75,7.13,1.36,1.42.38,2.8.86,4.2,1.32-.4-.19-.79-.44-1.02-.86-.06-.1-.06-.23.04-.31.13-.15.34-.19.54-.12,1.26.58,2.4,1.38,3.53,2.17.84.42,1.69.81,2.51,1.25-.86-.69-1.88-1.25-2.63-2.09-.86-1.36.81-.48,1.34-.19,2.65,1.36,5.06,3.15,7.23,5.22,1.71,1.77,4.16,2.49,6.13,3.93.23.21.81.38.61.75-.08.1-.25.12-.34.04-.84-.5-1.73-.94-2.59-1.4,2.13,1.75,3.64,4.09,5.29,6.25,2.7,2.65,5.44,5.41,7.11,8.86,1.11,2.57,2.45,5.08,3.05,7.85.61,2.38.54,4.85.92,7.27.06.21.1.42.11.63,0,.33-.54.25-.56-.04v.04h.01ZM183.99,88.69c2.15,4.03,4.14,8.15,5.56,12.51-.19-4.36-2.01-8.38-3.93-12.24.38.79.61,1.63.98,2.42.08.13.06.29-.1.35-.13.06-.33,0-.4-.13-.71-1.13-1.53-2.19-2.32-3.28.08.13.13.25.21.38h0ZM184.3,88.12c.36.5.73,1,1.09,1.5-.54-1.17-.96-2.42-1.82-3.38.27.35.65,1.04-.15.77.29.36.58.75.86,1.11h.02ZM169.31,72.21c.58.35,1.15.73,1.71,1.11-.65-.59-1.3-1.23-1.97-1.82-.96-.69-2.07-1.11-3.11-1.67,1.13.79,2.2,1.65,3.35,2.38h.02,0ZM169.21,70.94c.21.1.4.19.61.31-2.22-2.11-4.75-3.99-7.53-5.3.94.79,1.96,1.48,2.91,2.23.25-.17.52.15.73.27,1.15.75,2.13,1.77,3.26,2.49,0,0,.02,0,.02,0ZM154.45,65.86c3.74,1.29,7.42,2.72,11.02,4.34-1.74-1.11-3.62-2.07-5.54-2.9-1.98-.5-3.93-1.07-5.9-1.59.13.04.29.1.42.13v.02h0ZM144.47,63.31c1.34.25,2.68.5,4.01.84-.02-.04-.04-.1-.02-.15v-.02c-1.74-.36-3.47-.65-5.23-.88.42.08.82.13,1.25.21h0Z"/>
  <path class="cls-1" d="M189.65,131.38c-.27-.75-.44-1.53-.63-2.3-.04-.11,0-.29.15-.33.11-.04.25.06.27.17.17.75.34,1.52.59,2.24.12.27-.25.52-.38.21h0Z"/>
  <path class="cls-1" d="M171.63,170.86c-.17-.1-.21-.31-.19-.48.04-.5.11-.92.21-1.38.34-1.63.11-3.28.21-4.93.29-3.51,1.57-6.91,3.11-10.05,1.36-2.36,3.2-4.39,4.64-6.7,1.05-2.53,1.94-5.12,3.18-7.58.48-.84.92-1.71,1.48-2.51.34-.48.81-.88.92-1.5,1.86-5.22,3.55-10.48,4.91-15.83-.58-.21,0-1.06.25-1.32.31-3.24.36-6.54-.13-9.78,1.04-2.28.86,9.13.63,9.55,1.13.98-.42,5.3-.63,6.75-.86,3.53-2.07,6.96-3.6,10.24-1.38,2.9-3.07,5.66-4.29,8.63-1.38,2.94-2.78,5.83-4.2,8.77-.81,1.65-1.53,3.36-2.41,4.95-.19.29-.54,0-.4-.31-1.19,3.13-1.96,6.39-2.38,9.71-.21.79-.17,3.88-1.3,3.72l.02.04h-.03ZM172.34,165.74c0,.71.04,1.42-.02,2.13.67-6.35,2.91-12.39,6.04-17.92-1.44,2.05-3.07,4.03-3.89,6.43-1.21,2.97-2.28,6.12-2.13,9.36h0ZM181.73,143.29c.88-1.78,2.03-3.43,2.65-5.33-1.05,1.67-1.9,3.49-2.65,5.33ZM185.24,136.96c.06-.1.1-.19.15-.29-.02.04-.06.06-.08.1-.02.06-.04.13-.08.19h.01ZM186.77,132.63c-.15.46-.33.92-.48,1.38-.17.5-.34,1-.54,1.5.11-.1.25-.23.4-.25,1.57-3.36,2.78-6.87,3.64-10.46.36-1.84,1-3.74.92-5.62-1,4.57-2.53,9.02-3.97,13.45h.03Z"/>
</svg>