<svg width="194" height="174" viewBox="0 0 194 174" fill="none" xmlns="http://www.w3.org/2000/svg">
<path d="M24.4266 127.475C24.2309 127.377 24.1527 127.005 24.407 126.927C24.9549 113.14 22.8026 108.753 17.05 96.6899C16.6978 95.9066 16.3456 95.1233 15.9934 94.3399C15.9543 94.2224 15.9738 94.0657 16.1108 94.0266C16.463 93.9678 16.5021 94.4574 16.6391 94.6924C20.4742 103.152 24.9549 110.888 24.9353 120.484C25.0136 122.246 25.0136 124.009 25.0136 125.771C24.9745 126.222 25.2093 127.906 24.4266 127.455V127.475Z" fill="black"/>
<path d="M21.198 106.286C20.4545 104.053 19.9653 101.742 19.0848 99.5687C17.5978 95.9458 15.7389 92.4991 14.1345 88.9153C12.9605 86.487 12.0604 83.9216 10.8277 81.5324C9.10583 78.4383 6.91438 75.7162 4.64465 73.0137C4.56638 72.9158 4.52725 72.7591 4.64465 72.6612C4.99685 72.387 5.62298 73.6012 5.89691 73.8166C7.93184 76.2841 9.90807 78.8495 11.3951 81.6891C13.0779 85.1749 14.4475 88.7783 16.2085 92.2445C17.4412 94.8295 18.7522 97.3558 19.8088 100.019C20.5719 102.036 21.061 104.132 21.7459 106.188C21.8633 106.58 21.3154 106.677 21.198 106.305V106.286Z" fill="black"/>
<path d="M6.73834 76.3428C4.93821 73.2291 3.72506 69.8607 2.90327 66.3749C1.67057 62.1253 0.672678 57.7974 0.633545 53.352C0.633545 53.0191 1.10314 53.0974 1.10314 53.3911C1.18141 57.1903 1.78797 60.9112 2.90327 64.5341C3.7055 67.4324 4.3512 70.4091 5.66217 73.1312C6.13177 74.1691 6.67963 75.1482 7.20793 76.147C7.38403 76.5191 6.87529 76.7149 6.69919 76.3428H6.73834Z" fill="black"/>
<path d="M2.6097 55.0753C2.4336 55.0753 2.27706 54.8794 2.29663 54.7032C1.10307 49.2003 3.13799 43.7365 5.21205 38.7232C5.34902 38.4099 5.81862 38.684 5.70122 38.9778C3.78369 43.5799 1.94444 48.5736 2.6684 53.6261C2.6684 53.9982 3.17714 55.0361 2.6097 55.0753Z" fill="black"/>
<path d="M0.750894 61.1853C0.613927 61.1658 0.516104 61.0287 0.516104 60.8916C0.496537 57.8562 0.672636 54.8208 1.14224 51.8245C1.8662 47.477 2.72712 43.1295 4.52725 39.0758C5.83822 36.1774 6.95352 33.142 8.73408 30.4983C8.96888 30.2241 9.41891 30.6353 9.20368 30.9095C9.10584 31.027 9.02758 31.1445 8.94931 31.2424C5.93605 36.6278 3.37282 42.3853 2.27709 48.4953C1.65096 51.4133 1.2205 54.3703 1.06397 57.347C0.985701 58.5612 0.985699 59.7949 0.985699 61.0091C0.985699 61.1462 0.848738 61.2245 0.731338 61.2049L0.750894 61.1853Z" fill="black"/>
<path d="M6.93411 74.4432C3.37299 67.7261 1.37719 60.3236 1.80765 52.7057C1.94462 49.5724 1.80765 46.3411 2.76641 43.3253C2.92294 43.0315 2.94251 42.2874 3.41211 42.444C3.54908 42.5224 3.64692 42.6986 3.58822 42.8553C3.39255 43.3057 3.21646 43.7757 3.09906 44.2261C2.39466 46.9874 2.45336 49.8074 2.33596 52.6469C2.19899 56.8965 2.43379 61.1853 3.70562 65.2586C4.60568 68.3919 5.87752 71.3882 7.36458 74.2669C7.50155 74.5607 7.09063 74.7369 6.95367 74.4432H6.93411Z" fill="black"/>
<path d="M16.5215 92.5382C13.1169 87.1136 10.5537 81.2191 7.59915 75.5399C6.50342 73.4053 5.32942 71.3099 4.23369 69.1557C3.45102 67.5107 2.4727 65.8853 2.1792 64.0641C2.1792 63.6724 2.72707 63.7507 2.74663 64.1032C3.56843 67.5499 5.66205 70.5462 7.18825 73.7187C9.32101 77.7724 11.2777 81.9241 13.3517 85.9974C14.2714 87.7207 15.1714 89.4441 16.1693 91.1086C16.4041 91.5003 16.6389 91.892 16.8933 92.2641C16.952 92.362 16.9716 92.5187 16.8542 92.597C16.7368 92.6753 16.5802 92.597 16.5215 92.4991V92.5382Z" fill="black"/>
<path d="M24.1331 107.774C19.9459 99.5686 15.1521 91.6961 10.7887 83.569C9.59514 81.1995 8.4407 78.8299 7.26671 76.4603C6.40578 74.7369 5.40787 73.0528 4.80131 71.2119C4.74261 71.0749 4.80132 70.8986 4.97742 70.8594C5.32961 70.8007 5.40787 71.2315 5.50571 71.4861C6.36664 73.8949 7.75587 76.0686 8.81247 78.399C11.6301 84.3915 14.9564 90.1295 18.2436 95.8674C20.435 99.7253 22.4895 103.681 24.5832 107.598C24.6419 107.715 24.6223 107.872 24.4853 107.911C24.3679 107.97 24.2114 107.872 24.1527 107.774H24.1331Z" fill="black"/>
<path d="M24.9549 124.792C24.8179 124.772 24.7005 124.616 24.72 124.479C24.9744 122.011 25.0135 119.485 24.994 117.017C25.0722 112.924 23.6439 109.145 22.2155 105.385C22.0786 104.993 22.646 104.895 22.7634 105.267C23.3895 107.226 24.2505 109.106 24.7592 111.103C25.3071 113.257 25.5419 115.49 25.5223 117.722C25.5223 120.014 25.444 122.305 25.2288 124.577C25.2288 124.714 25.0918 124.812 24.9549 124.772V124.792Z" fill="black"/>
<path d="M23.644 130.001C23.1352 129.844 23.5266 129.061 23.4874 128.669C23.5461 124.753 23.8788 120.817 23.3896 116.919C23.37 116.763 23.4483 116.606 23.6048 116.606C24.544 116.508 24.0744 123.519 24.1331 124.518C24.094 125.869 24.0353 127.22 24.0157 128.572C23.9962 128.983 23.957 129.394 23.9179 129.805C23.9179 129.962 23.7614 130.06 23.6244 130.021L23.644 130.001Z" fill="black"/>
<path d="M25.2679 130.745C23.6047 128.787 22.2938 126.437 22.0394 123.852C22.0003 123.695 22.0981 123.539 22.2546 123.539C22.4503 123.539 22.6068 123.695 22.6068 123.872C22.7829 125.928 23.7025 127.827 24.8765 129.453C25.1309 129.786 25.3657 130.099 25.6396 130.412C25.7375 130.51 25.757 130.706 25.6396 130.804C25.5222 130.902 25.3461 130.863 25.2483 130.745H25.2679Z" fill="black"/>
<path d="M25.0918 129.433C24.0743 129.355 23.1938 128.807 22.5872 128.023C22.4307 127.808 22.0394 127.534 22.2937 127.26C22.4111 127.142 22.6068 127.201 22.7046 127.318C23.6047 128.728 25.1309 129.081 26.7158 128.846C28.7507 128.728 30.727 128.102 32.351 126.848C32.6836 126.633 32.9967 126.398 33.3293 126.163C33.4467 126.085 33.6228 126.163 33.7011 126.28C33.7794 126.398 33.7794 126.574 33.6424 126.652C31.2357 128.591 28.2224 129.707 25.1113 129.414L25.0918 129.433Z" fill="black"/>
<path d="M23.5265 127.769C23.233 126.829 26.9507 127.005 27.5572 126.985C30.8248 127.103 34.1316 126.848 37.3601 126.398C40.8429 125.967 43.9932 124.205 47.4173 123.539C47.5543 123.5 47.7108 123.617 47.75 123.735C47.7891 123.852 47.75 124.009 47.613 124.048C47.0456 124.185 46.4781 124.302 45.9107 124.44C45.3628 124.616 44.8345 124.772 44.3062 124.929C38.8667 127.201 32.9185 127.671 27.0876 127.534C26.031 127.553 24.9353 127.534 23.9374 127.945C23.7808 128.004 23.6048 127.906 23.5461 127.769H23.5265Z" fill="black"/>
<path d="M39.0428 126.124C38.8863 126.124 38.7493 125.967 38.7297 125.81C38.7493 125.301 39.5515 125.634 39.8646 125.556C42.2517 125.536 44.5997 125.027 46.8694 124.341C50.9393 123.284 53.9134 120.092 57.8072 118.702C58.1007 118.584 58.3746 119.074 58.0616 119.211C55.3027 120.072 53.1895 122.05 50.6654 123.362C47.1042 125.184 43.0344 126.241 39.0232 126.124H39.0428Z" fill="black"/>
<path d="M71.3864 124.185C67.8448 123.166 64.4402 121.502 60.703 121.345C56.9658 121.091 53.209 121.698 49.5109 120.993C49.1783 120.993 49.0413 120.386 49.4522 120.405C52.7198 121.051 56.0266 120.679 59.3138 120.758C62.2879 120.777 65.2033 121.502 67.9622 122.559C69.1167 122.971 70.2711 123.362 71.4647 123.676C71.7973 123.734 71.8169 124.342 71.406 124.204L71.3864 124.185Z" fill="black"/>
<path d="M72.0127 123.872C69.6451 123.127 67.2188 122.736 64.773 122.403C62.9925 122.227 61.1336 121.815 59.3726 122.031C59.0987 122.246 58.7074 121.776 58.9617 121.541C59.2161 120.738 74.7716 123.069 72.0127 123.872Z" fill="black"/>
<path d="M87.8224 143.67C81.9525 138.226 76.3173 132.704 73.8127 124.89C73.5192 124.949 73.3627 124.557 73.6171 124.4C73.9888 124.146 74.3606 124.498 74.4976 124.851C75.3976 127.612 76.6499 130.256 78.3131 132.645C81.0133 136.562 84.5157 139.832 87.9398 143.083C88.0377 143.161 88.1355 143.259 88.2138 143.337C88.4486 143.592 88.0181 143.886 87.8029 143.67H87.8224Z" fill="black"/>
<path d="M95.0426 148.782C89.0357 145.531 84.2027 140.517 79.7806 135.387C77.687 132.841 75.926 130.06 73.852 127.514C73.7541 127.377 73.6563 127.259 73.5585 127.103C73.3824 126.77 73.9694 126.535 74.1455 126.848C76.1217 129.355 77.9023 131.999 79.8198 134.525C82.2852 137.56 85.0049 140.38 87.8812 143.024C89.4466 144.434 91.1097 145.746 92.8707 146.882C93.6925 147.391 94.4947 147.881 95.3165 148.331C95.61 148.488 95.297 148.879 95.023 148.723L95.0426 148.782Z" fill="black"/>
<path d="M110.481 154.931C104.63 153.697 99.3863 150.74 94.2012 147.861C89.9357 145.315 85.2984 143.004 81.9525 139.264C81.7372 138.97 81.4437 138.265 81.8938 138.089C82.246 137.913 82.696 138.226 82.3242 138.52C82.4221 139.088 82.9308 139.44 83.3026 139.832C84.8679 141.379 86.6876 142.613 88.5073 143.827C92.3619 146.275 96.3535 148.527 100.404 150.642C103.652 152.307 107.076 153.736 110.657 154.48C110.989 154.559 110.833 155.009 110.5 154.931H110.481Z" fill="black"/>
<path d="M87.5681 144.826C87.4311 144.747 87.2746 144.649 87.1376 144.552C86.9811 144.454 86.8246 144.356 86.668 144.238C86.5311 144.14 86.4137 144.023 86.2767 143.905C86.1789 143.827 86.1789 143.69 86.2376 143.592C86.2767 143.533 86.3158 143.494 86.355 143.455C86.4137 143.416 86.4724 143.396 86.5506 143.377C86.7072 143.357 86.8833 143.416 86.9028 143.592C86.9028 143.631 86.9028 143.67 86.9028 143.69C86.9615 143.749 87.0202 143.788 87.0789 143.827C87.2355 143.944 87.4116 144.042 87.5877 144.16C87.7051 144.238 87.842 144.317 87.9594 144.414C88.0768 144.493 88.0964 144.669 87.9986 144.767C87.9399 144.826 87.842 144.865 87.7638 144.865C87.7051 144.865 87.6464 144.865 87.5877 144.806L87.5681 144.826Z" fill="black"/>
<path d="M119.148 158.299C109.443 156.928 100.678 152.209 92.2835 147.352C92.0879 147.195 91.6183 147.117 91.7748 146.804C91.8531 146.706 92.0096 146.667 92.127 146.725C92.3422 146.843 92.577 146.98 92.7923 147.117C98.3101 150.309 103.945 153.384 109.972 155.557C112.281 156.38 114.629 157.007 117.035 157.477C117.798 157.633 118.542 157.751 119.305 157.868C119.638 157.947 119.462 158.397 119.148 158.319V158.299Z" fill="black"/>
<path d="M125.742 157.379C123.336 157.202 120.929 157.104 118.542 156.889C118.385 156.889 118.248 156.752 118.268 156.595C118.288 156.439 118.483 156.341 118.62 156.341C121.027 156.576 123.434 156.654 125.821 156.83C126.232 156.869 126.114 157.398 125.723 157.359L125.742 157.379Z" fill="black"/>
<path d="M153.821 162.744C151.14 161.844 148.459 160.884 145.642 160.434C143.196 160.022 140.77 159.709 138.343 159.357C132.415 158.534 126.466 157.907 120.577 156.889C120.146 156.732 118.229 156.693 118.561 156.086C118.659 155.929 118.875 155.91 119.031 155.988C127.21 157.672 135.545 158.319 143.783 159.65C146.444 160.042 149.105 160.571 151.629 161.511C152.431 161.785 153.253 162 154.055 162.255C154.192 162.294 154.271 162.451 154.192 162.568C154.134 162.705 153.957 162.764 153.821 162.705V162.744Z" fill="black"/>
<path d="M155.719 160.453C151.864 160.062 148.048 159.474 144.213 158.887C142.315 158.632 140.417 158.436 138.519 158.201C138.363 158.201 138.226 158.084 138.246 157.907C138.265 157.751 138.441 157.633 138.598 157.672C143.215 158.142 147.794 158.984 152.373 159.572C153.507 159.689 154.642 159.827 155.797 159.964C156.169 160.003 156.071 160.492 155.719 160.453Z" fill="black"/>
<path d="M168.3 170.049C161.197 164.722 156.736 162.666 148.048 161.041C142.765 159.729 137.58 157.947 132.121 157.751C131.71 157.731 131.299 157.712 130.888 157.712C130.771 157.712 130.654 157.614 130.673 157.476C130.673 157.339 130.83 157.261 130.947 157.261C131.612 157.261 132.297 157.3 132.963 157.32C139.048 157.712 144.8 159.924 150.729 161.158C157.147 162.255 162.704 165.251 167.889 169.109C168.143 169.285 168.398 169.462 168.652 169.638C168.769 169.716 168.789 169.873 168.691 169.971C168.593 170.069 168.417 170.108 168.3 170.029V170.049Z" fill="black"/>
<path d="M174.913 173.711C172.565 168.619 165.874 167.033 161.217 164.664C159.651 163.978 158.125 163.175 156.501 162.627C156.11 162.49 156.403 161.981 156.736 162.118C159.495 163.136 162.078 164.546 164.778 165.721C168.437 167.249 172.389 168.952 174.776 172.262C174.972 172.614 175.813 173.652 175.266 173.887C175.109 173.946 174.933 173.887 174.874 173.711H174.913Z" fill="black"/>
<path d="M174.229 173.574C174.189 173.417 174.326 173.28 174.483 173.241C174.522 173.241 174.581 173.222 174.62 173.202C173.426 171.635 171.646 170.715 169.983 169.736C167.185 168.287 164.347 166.877 161.628 165.271C151.668 159.298 149.633 158.573 138.069 158.534C136.974 158.475 135.858 158.377 134.763 158.221C134.626 158.221 134.508 158.064 134.567 157.927C134.606 157.79 134.782 157.712 134.919 157.731C135.291 157.79 135.643 157.829 136.015 157.888C139.263 158.279 142.55 158.064 145.798 158.338C152.901 158.71 158.732 163.214 164.778 166.446C167.732 168.052 170.922 169.324 173.622 171.361C174.131 171.772 176.087 173.241 174.933 173.672C174.718 173.731 174.326 173.868 174.248 173.554L174.229 173.574Z" fill="black"/>
<path d="M174.483 173.378C174.15 173.124 173.974 172.399 174.522 172.497C174.366 167.738 174.072 162.98 174.444 158.24C174.503 157.575 174.913 152.581 175.54 152.835C175.696 152.894 175.735 153.09 175.696 153.227C174.366 158.73 174.777 164.527 174.972 170.147C174.913 170.695 175.481 173.887 174.503 173.378H174.483Z" fill="black"/>
<path d="M174.366 172.047C174.033 171.518 174.072 170.832 174.033 170.225C173.974 168.933 173.994 167.64 174.033 166.348C174.092 161.628 175.246 156.967 177.359 152.777C178.259 150.975 179.159 149.134 180.568 147.665C180.744 147.509 180.979 147.097 181.214 147.372C181.39 147.587 181.175 147.822 181.018 147.92C178.983 150.015 177.848 152.796 176.694 155.42C174.639 160.473 174.111 166.172 174.737 171.557C175.246 171.792 174.737 172.517 174.366 172.027V172.047Z" fill="black"/>
<path d="M175.364 162.275C175.716 162.275 175.716 162.921 175.364 162.921C175.011 162.921 175.011 162.275 175.364 162.275Z" fill="black"/>
<path d="M174.718 162.314C174.366 161.961 174.913 161.491 175.031 161.139C175.403 160.434 175.755 159.689 176.068 158.965C178.201 153.012 180.333 147.039 183.131 141.359C183.895 139.754 184.638 138.187 185.46 136.601C185.675 136.248 186.066 136.659 185.851 136.953C183.66 141.124 181.723 145.433 179.962 149.8C178.631 152.972 177.711 156.302 176.44 159.494C176.048 160.434 175.579 161.354 175.09 162.255C175.011 162.392 174.835 162.451 174.718 162.353V162.314Z" fill="black"/>
<path d="M174.053 172.262C173.466 168.228 174.307 164.213 175.755 160.453C176.792 157.359 177.985 154.304 179.316 151.308C179.316 151.308 179.316 151.327 179.316 151.347C179.786 150.329 180.255 149.389 180.764 148.409C180.94 148.096 181.331 148.449 181.155 148.703C179.688 151.425 178.553 154.284 177.457 157.183C176.224 160.747 174.64 164.35 174.444 168.13C174.307 169.559 174.503 170.872 174.62 172.262C174.62 172.634 174.092 172.693 174.092 172.262H174.053Z" fill="black"/>
<path d="M174.229 171.655C174.229 171.557 174.287 171.439 174.366 171.381C174.913 165.055 177.398 159.141 179.218 153.129C179.316 152.777 179.786 152.953 179.688 153.286C178.181 158.299 176.205 163.156 175.305 168.326C175.09 169.481 175.09 170.695 174.796 171.812C174.64 172.066 174.209 171.968 174.229 171.635V171.655Z" fill="black"/>
<path d="M181.742 147.019C181.625 146.902 181.605 146.686 181.723 146.569C182.721 145.531 183.327 144.199 183.934 142.907C186.673 137.09 190.469 131.822 192.817 125.83C192.954 125.517 193.365 125.752 193.228 126.065C190.86 132.057 187.123 137.364 184.384 143.181C184.384 143.181 184.384 143.181 184.384 143.161C183.875 144.199 183.464 145.276 182.779 146.197C182.525 146.412 182.114 147.372 181.742 147.039V147.019Z" fill="black"/>
<path d="M179.433 151.817C179.081 151.582 179.394 151.21 179.59 150.995C180.196 150.231 180.744 149.428 181.214 148.586C185.636 139.636 190.332 130.53 191.995 120.601C192.034 120.366 191.878 119.975 192.191 119.896C192.367 119.877 192.465 120.033 192.465 120.19C191.584 126.829 189.001 133.135 186.262 139.205C184.912 142.143 183.621 145.022 182.173 147.92C181.507 149.271 180.686 150.525 179.766 151.7C179.707 151.837 179.551 151.915 179.414 151.837L179.433 151.817Z" fill="black"/>
<path d="M186.301 140.224C186.164 140.145 186.125 139.95 186.184 139.812C186.38 139.303 186.536 138.794 186.712 138.324C187.495 135.857 188.219 133.389 189.06 130.941C190.743 126.417 191.545 121.678 191.799 116.88C191.878 113.101 192.152 109.243 191.702 105.483C191.623 105.013 191.447 104.602 191.212 104.21C191.036 103.955 191.428 103.564 191.623 103.897C192.7 105.972 192.269 108.46 192.387 110.712C192.387 114.295 192.289 117.86 191.858 121.424C191.408 125.771 189.902 129.942 188.571 134.075C187.964 136.072 187.397 138.089 186.673 140.047C186.614 140.185 186.458 140.263 186.321 140.204L186.301 140.224Z" fill="black"/>
<path d="M189.53 132.312C188.864 132.136 189.98 129.747 190.097 129.237C191.154 126.496 191.721 123.617 192.249 120.738C193.247 114.511 193.834 103.642 191.682 97.7865C191.486 97.3949 191.271 97.0228 190.997 96.6899C190.899 96.5724 190.919 96.3765 191.017 96.2786C191.428 95.9849 191.623 96.8465 191.839 97.0815C192.876 99.0007 192.973 101.233 193.306 103.348C193.521 105.698 193.58 107.97 193.56 110.3C193.619 117.624 192.308 124.851 189.882 131.744C189.843 131.979 189.843 132.371 189.53 132.332V132.312Z" fill="black"/>
<path d="M192.934 120.797C192.68 120.64 192.66 119.994 193.052 120.033C193.6 115.216 192.934 110.418 192.543 105.62C191.76 98.6286 191.134 90.6974 186.047 85.3707C185.851 85.2141 185.636 85.0378 185.401 84.9791C185.108 84.8812 185.225 84.3132 185.538 84.4307C185.812 84.5286 186.047 84.6853 186.262 84.8811C192.171 91.1086 192.406 100.391 193.287 108.479C193.384 109.83 194.578 121.306 192.934 120.817V120.797Z" fill="black"/>
<path d="M186.145 138.99C186.047 138.892 186.047 138.716 186.125 138.598C186.614 137.893 187.084 137.188 187.553 136.464C189.041 134.192 190.547 131.881 191.33 129.257C194.108 120.64 193.834 109.262 191.271 100.626C190.547 98.0607 189.765 95.4953 188.395 93.1845C186.497 89.7965 183.816 86.8003 182.505 83.1186C182.368 82.629 182.466 82.1395 182.525 81.6499C182.525 81.5128 182.662 81.3953 182.799 81.4149C183.21 81.4344 183.601 81.6107 183.855 81.9632C185.851 84.5874 187.182 87.6228 188.493 90.619C190.606 96.3961 192.504 102.291 193.952 108.264C193.952 108.42 193.854 108.577 193.678 108.577C193.502 108.577 193.423 108.42 193.404 108.283C193.345 107.892 193.247 107.539 193.15 107.167C194.245 116.214 194.167 127.005 189.099 134.897C188.258 136.268 187.358 137.599 186.458 138.931C186.379 139.049 186.223 139.049 186.125 138.951L186.145 138.99ZM187.299 90.5015C187.827 91.3045 188.356 92.1074 188.825 92.9495C187.475 89.209 185.851 85.4686 183.464 82.2765C183.327 82.1003 183.19 82.022 182.975 82.022C182.74 82.9228 183.268 83.7453 183.621 84.5482C184.697 86.624 186.047 88.5432 187.299 90.5015Z" fill="black"/>
<path d="M180.392 147.156C180.177 146.921 180.392 146.647 180.568 146.49C182.623 143.631 184.09 140.361 185.675 137.227C188.454 131.117 189.862 124.537 191.389 118.036C192.015 114.824 192.621 111.612 192.974 108.362C193.013 108.029 193.463 108.107 193.404 108.44C193.032 111.71 192.445 114.922 191.819 118.134C191.819 118.153 191.819 118.173 191.819 118.192C191.819 118.192 191.819 118.173 191.819 118.153C189.98 126.417 188.004 134.799 183.738 142.202C183.268 142.926 181.097 147.685 180.373 147.176L180.392 147.156Z" fill="black"/>
<path d="M184.149 84.137C181.155 81.3953 178.122 78.7124 175.324 75.7945C172.311 72.9745 168.867 70.6832 165.287 68.6466C159.397 65.1803 152.568 63.927 145.857 63.3003C140.457 62.7128 135.037 62.4387 129.617 62.752C126.936 63.0849 124.158 63.2416 121.555 63.9662C121.34 64.0445 121.144 64.1228 121.007 64.2991C120.831 64.5928 120.264 64.3382 120.459 64.0249C121.242 63.1828 122.592 63.2024 123.649 62.987C125.605 62.6933 127.562 62.4778 129.538 62.282C134.919 61.9882 140.32 62.2428 145.681 62.8499C149.379 63.2416 153.097 63.6528 156.677 64.6712C162.782 66.2574 168.3 69.5474 173.231 73.4053C176.342 75.8532 178.846 78.9474 181.899 81.4541C182.799 82.2178 183.66 83.0403 184.521 83.8433C184.618 83.9412 184.638 84.0783 184.521 84.1762C184.423 84.2741 184.247 84.2545 184.149 84.1762V84.137Z" fill="black"/>
<path d="M187.417 90.2078C183.171 84.6853 179.277 78.8103 174.092 74.1103C169.18 70.2523 163.76 66.7469 157.812 64.7494C155.171 63.9661 152.392 63.9661 149.672 63.6527C146.933 63.3786 144.194 62.9086 141.494 62.3994C141.376 62.3798 141.259 62.2623 141.298 62.1253C141.318 61.9882 141.474 61.949 141.591 61.9686C143.92 62.3798 146.17 62.8107 148.518 63.0653C152.901 63.5744 157.48 63.5548 161.471 65.6894C166.167 67.9219 170.648 70.6832 174.659 73.9928C176.948 76.0686 178.925 78.4577 180.92 80.7882C182.857 83.2361 184.716 85.7428 186.575 88.2494C187.006 88.8173 187.436 89.3853 187.886 89.9336C188.121 90.2273 187.632 90.5015 187.417 90.2273V90.2078Z" fill="black"/>
<path d="M115.196 65.5133C115.118 65.3958 115.157 65.2391 115.294 65.1804C118.209 64.0054 121.379 63.8291 124.471 63.4962C131.045 63.1045 137.776 62.6149 144.272 63.927C144.663 64.0054 144.585 64.5341 144.155 64.4558C138.617 63.2808 132.924 63.5353 127.308 63.7899C124.158 63.9858 120.968 64.2012 117.896 64.867C117.094 65.0433 116.311 65.2783 115.568 65.6308C115.431 65.6895 115.274 65.6308 115.177 65.5329L115.196 65.5133Z" fill="black"/>
<path d="M112.828 64.867C112.77 64.7495 112.828 64.6124 112.985 64.5733C114.55 64.0837 116.174 63.7312 117.798 63.555C121.555 63.085 125.332 62.6933 129.088 62.3408C132.532 62.047 135.995 61.8512 139.459 61.8512C142.55 61.8708 145.74 61.7337 148.635 62.9479C149.007 63.085 148.831 63.5941 148.44 63.457C145.974 62.3995 143.294 62.38 140.672 62.3604C138.109 62.3212 135.526 62.3799 132.963 62.5366C127.288 62.9283 121.614 63.4179 115.998 64.2991C115.059 64.4754 114.12 64.7104 113.22 65.0237C113.083 65.0629 112.926 65.0041 112.868 64.8866L112.828 64.867Z" fill="black"/>
<path d="M123.962 63.2807C123.845 62.8303 124.666 62.889 124.94 62.752C127.269 62.1645 129.656 62.0274 132.043 61.8511C134.372 61.714 136.7 61.6357 139.028 61.6749C140.692 61.6749 142.433 61.7532 143.881 62.5757C144.018 62.6149 144.174 62.752 144.135 62.9086C144.057 63.2024 143.705 63.1045 143.49 63.0261C142.609 62.4582 141.572 62.3211 140.555 62.2428C138.598 62.1057 136.661 62.1449 134.704 62.184C132.082 62.3015 129.46 62.3994 126.897 62.8107C125.977 62.9478 125.136 63.1828 124.256 63.4178C124.138 63.4178 124.021 63.359 123.982 63.2611L123.962 63.2807Z" fill="black"/>
<path d="M70.682 100.411C70.3102 97.5124 71.6995 94.6728 72.7169 92.0487C75.8476 85.1945 81.7763 78.9279 87.9593 74.6783C88.742 74.1691 89.5638 73.6991 90.3856 73.2291C90.503 73.1704 90.64 73.1899 90.6987 73.327C90.7574 73.4641 90.6595 73.6012 90.5617 73.6599C89.8182 74.0908 89.0551 74.5412 88.3507 74.972C85.4352 76.7737 83.009 79.1824 80.6218 81.5912C76.4542 85.8603 73.0691 91.0303 71.5821 96.827C71.3277 97.9237 71.0146 99.0987 71.269 100.195C71.3668 100.509 70.819 100.802 70.7016 100.411H70.682Z" fill="black"/>
<path d="M81.5611 81.5716C81.1893 81.2387 81.8937 80.7295 82.0502 80.4358C84.2612 77.792 87.2549 76.0295 90.0725 74.1103C96.8621 69.7824 104.63 65.7874 112.77 65.0628C113.083 65.0628 113.376 65.0433 113.689 65.0237C113.826 65.0237 113.924 65.102 113.905 65.2391C113.905 65.3566 113.787 65.4937 113.65 65.4937C113.279 65.4937 112.887 65.5328 112.515 65.5524C102.889 66.5903 94.2207 71.7016 86.4527 77.1849C84.8874 78.3208 83.4003 79.5545 82.2459 81.0624C82.0502 81.2583 81.9328 81.7087 81.5806 81.552L81.5611 81.5716Z" fill="black"/>
<path d="M77.2565 89.0328C76.8456 88.7782 77.824 88.0144 77.9218 87.7207C79.7611 85.3707 81.8547 83.2361 84.0266 81.1799C91.5402 73.8361 101.089 68.8424 111.302 66.4728C114.296 65.7482 117.309 65.0824 120.264 64.2011C121.301 63.9269 122.299 63.5744 123.316 63.2611C123.571 63.2415 123.884 63.0457 124.119 63.1828C124.334 63.3982 124.119 63.7311 123.864 63.8094C123.59 63.9074 123.003 64.4753 122.847 63.9857C117.544 65.6894 112.066 66.6686 106.724 68.2157C99.7973 70.4286 93.1446 73.8361 87.6073 78.5557C84.7701 81.0036 82.0308 83.5494 79.5654 86.3694C78.8806 87.1919 78.2153 88.034 77.5892 88.8957C77.5109 89.0132 77.3544 89.0915 77.237 89.0132L77.2565 89.0328Z" fill="black"/>
<path d="M71.3473 99.5882C70.7994 99.5686 72.1299 97.3361 72.2082 96.9836C73.5974 94.2616 75.0062 91.5395 76.689 88.9936C79.0761 85.2532 82.3241 82.2178 85.9048 79.6524C88.3311 77.8116 90.7769 75.9707 93.438 74.4628C93.6924 74.3453 94.0837 73.9732 94.2794 74.3257C94.3381 74.4824 94.2402 74.6586 94.1032 74.737C93.7119 74.9328 93.3402 75.1482 92.9684 75.3636C90.2291 76.9499 87.705 78.9082 85.1809 80.8274C82.4807 82.7661 80.0153 85.077 78.0782 87.7795C75.8867 90.7365 74.204 94.007 72.5408 97.297C72.2278 97.9824 71.9147 98.6874 71.6408 99.412C71.5821 99.5491 71.4647 99.647 71.3081 99.6274L71.3473 99.5882Z" fill="black"/>
<path d="M72.5995 106.795C71.3864 104.308 71.8951 101.468 72.4039 98.8637C73.1278 95.7499 74.0279 92.4404 76.4346 90.1687C76.689 89.8749 77.0999 90.1883 76.8455 90.5016C74.8106 92.3816 73.9105 95.0841 73.2257 97.6495C72.6191 100.372 71.8169 103.387 72.9322 106.051C72.9909 106.188 73.0496 106.325 73.1279 106.462C73.304 106.756 72.8148 107.108 72.6387 106.775L72.5995 106.795Z" fill="black"/>
<path d="M72.8343 108.303C72.9125 105.679 73.5778 103.133 73.9691 100.567C74.0278 100.293 73.93 99.8428 74.3213 99.7841C74.4779 99.7841 74.5953 99.9016 74.5953 100.058C74.3605 102.154 73.793 104.229 73.5191 106.305C73.4408 106.952 73.3821 107.598 73.3626 108.244C73.3626 108.401 73.2256 108.538 73.0691 108.538C72.9321 108.538 72.8147 108.44 72.8147 108.283L72.8343 108.303Z" fill="black"/>
<path d="M72.2864 119.642C71.2885 117.507 71.132 115.137 71.1711 112.807C71.3668 109.713 70.5841 106.129 72.4234 103.427C72.756 103.074 73.1278 103.525 72.7756 103.838C71.5037 105.777 71.7972 108.264 71.719 110.477C71.719 112.827 71.5233 115.275 72.1103 117.566C72.306 118.173 72.5408 118.78 72.7951 119.367C72.8538 119.505 72.756 119.681 72.6386 119.74C72.5212 119.798 72.3451 119.779 72.306 119.642H72.2864Z" fill="black"/>
<path d="M74.5758 125.83C73.1866 122.442 71.9343 118.839 71.3669 115.235C71.1712 113.12 70.6429 110.947 71.0734 108.832C71.1321 108.479 71.6995 108.44 71.6408 108.851C71.3082 110.242 71.5234 111.691 71.68 113.081C71.8561 115.04 72.13 117.017 72.7561 118.897C73.167 120.21 73.5388 121.522 73.9693 122.814C74.3019 123.754 74.6932 124.675 75.1041 125.575C75.2411 125.869 74.7519 126.182 74.5954 125.85L74.5758 125.83Z" fill="black"/>
<path d="M76.3759 130.197C74.1062 127.201 73.0887 123.362 72.5409 119.7C72.4822 119.524 72.5409 119.348 72.6974 119.25C72.8148 119.191 73.0105 119.211 73.0692 119.367C73.6366 122.971 74.5171 126.887 76.8064 129.786C77.0216 130.04 76.5912 130.452 76.3564 130.197H76.3759Z" fill="black"/>
<path d="M141.689 63.9269C141.376 63.8486 141.415 63.5548 141.455 63.3003C141.396 58.894 140.32 54.5661 139.146 50.3361C137.972 46.7132 136.68 43.1098 135.017 39.6828C133.589 36.6278 132.043 33.5728 129.812 31.0269C129.675 30.8115 129.245 30.7136 129.421 30.4199C129.793 30.1261 130.145 30.7723 130.399 30.9878C132.904 33.984 134.567 37.5482 136.191 41.0536C138.5 46.1844 140.261 51.5698 141.376 57.0923C141.435 57.9148 142.726 64.2011 141.709 63.9074L141.689 63.9269Z" fill="black"/>
<path d="M141.67 58.3849C141.141 48.4562 136.348 37.7245 129.969 30.1849C129.656 29.8324 129.362 29.5387 129.03 29.2058C128.932 29.1079 128.893 28.9708 129.01 28.8729C129.401 28.5791 129.891 29.5583 130.184 29.7737C136.211 36.8237 140.281 45.6558 141.905 54.7816C142.081 55.9762 142.1 57.1904 142.257 58.3849C142.296 58.757 141.709 58.7374 141.67 58.3849Z" fill="black"/>
<path d="M143.627 61.1853C143.548 60.9111 143.49 60.637 143.431 60.3628C143.431 60.304 143.431 60.2453 143.47 60.2061C142.531 56.5049 141.102 52.9603 139.752 49.4157C139.752 49.4157 139.752 49.4353 139.752 49.4549C135.604 39.6045 130.321 30.1653 123.277 22.0774C123.062 21.8228 123.473 21.5878 123.649 21.8228C124.686 23.0174 125.684 24.2511 126.682 25.4849C132.708 33.377 137.463 42.1895 141.063 51.4328C141.298 52.0595 145.622 63.0653 143.627 61.2049V61.1853Z" fill="black"/>
<path d="M133.491 36.1578C133.315 36.0403 133.002 35.8249 133.197 35.5899C132.297 34.3562 131.397 33.1812 130.517 31.9474C130.517 31.9474 130.517 31.9474 130.517 31.967C125.429 25.7003 119.931 19.5903 113.337 14.8903C113.181 14.8903 113.024 14.7728 113.024 14.5966C113.063 14.2637 113.474 14.4008 113.67 14.5378C117.192 17.0249 120.362 19.9624 123.316 23.0566C126.016 25.8178 128.58 28.677 130.986 31.6928C131.612 32.5349 132.219 33.3574 132.826 34.1603C133.1 34.6107 134.352 35.7466 133.843 36.1774C133.745 36.2166 133.608 36.197 133.51 36.1383L133.491 36.1578Z" fill="black"/>
<path d="M132.512 35.7466C132.375 35.4724 131.789 35.1199 132.121 34.8262C132.532 34.6303 132.747 35.2178 132.982 35.4528C133.236 35.7858 132.747 36.0403 132.532 35.7466H132.512Z" fill="black"/>
<path d="M130.38 33.1419C128.971 31.3598 127.758 29.4603 126.251 27.7761C124.216 25.4261 121.927 23.3503 119.716 21.1569C116.409 18.0823 112.887 15.1253 109.072 12.7557C107.526 11.8744 105.961 10.7973 104.2 10.4057C104.043 10.4057 103.867 10.4057 103.73 10.484C103.456 10.6015 103.163 10.1119 103.495 10.014C103.632 9.97484 103.75 9.93567 103.887 9.93567C110.813 11.2673 124.529 24.3882 128.873 30.2632C129.538 31.1248 130.125 32.0257 130.81 32.8678C131.065 33.1811 130.595 33.4748 130.341 33.1615L130.38 33.1419Z" fill="black"/>
<path d="M122.808 24.0944C122.808 24.0944 122.71 24.0749 122.671 24.0357C122.534 23.9574 122.436 23.8007 122.514 23.6636C119.423 20.6478 115.529 18.5524 111.889 16.2611C107.507 13.7153 103.163 11.0519 98.682 8.68236C98.3885 8.52569 98.5646 8.09486 98.8972 8.27111C104.826 11.5219 110.676 14.949 116.448 18.4936C117.055 18.9636 124.843 23.7419 122.808 24.0944Z" fill="black"/>
<path d="M121.027 23.0566C120.734 22.9195 120.499 22.6649 120.205 22.5083C120.068 22.4299 120.049 22.2145 120.205 22.1362C116.312 18.5328 111.831 15.6737 107.33 12.9124C102.713 10.2295 98.1341 7.42909 93.2033 5.35326C92.7142 5.15742 92.2054 4.942 91.6771 4.84409C91.5402 4.8245 91.4228 4.68742 91.4423 4.55033C91.5597 4.08033 92.5772 4.707 92.8903 4.76575C97.4102 6.62617 101.656 9.09368 105.863 11.5416C110.402 14.1853 114.805 16.9858 118.855 20.3149C119.716 21.0787 120.577 21.8228 121.399 22.6258C121.673 22.8803 121.281 23.1545 121.008 23.0174L121.027 23.0566Z" fill="black"/>
<path d="M112.613 15.5953C111.948 15.3603 111.381 14.9099 110.755 14.577C110.422 14.4007 110.618 13.9307 110.97 14.0874C107.663 11.6591 103.926 9.97492 100.326 8.07533C96.784 6.43033 93.3207 4.60908 89.6226 3.39492C89.2704 3.31658 89.3291 2.78784 89.74 2.92492C93.5555 4.25659 97.1753 6.07783 100.834 7.80117C104.63 9.79867 108.661 11.522 112.007 14.2441C112.3 14.4987 113.65 15.6737 112.633 15.5953H112.613Z" fill="black"/>
<path d="M111.185 13.5194C110.852 13.5194 109.678 12.9711 110.363 12.6578C106.274 8.89779 98.9558 3.96278 93.301 3.9432C93.0075 3.96278 92.851 3.4732 93.2227 3.45361C98.6818 3.51236 105.471 7.84028 109.58 11.2869C109.893 11.5807 112.261 13.3628 111.165 13.5194H111.185Z" fill="black"/>
<path d="M110.95 12.8536C110.911 12.4619 111.517 12.5011 111.557 12.8536C111.596 13.2453 110.989 13.2061 110.95 12.8536Z" fill="black"/>
<path d="M110.481 12.1879C106.156 8.68243 100.971 6.58702 95.7274 4.92244C92.2446 4.00202 88.7226 3.02286 85.1027 2.92494C84.7505 2.92494 84.3983 2.90535 84.0461 2.90535C83.9092 2.90535 83.7722 2.80743 83.7526 2.67035C83.7331 2.53327 83.8505 2.41577 83.9679 2.41577C92.1272 2.65077 102.791 5.99953 109.463 10.7583C109.913 11.0912 110.363 11.4241 110.833 11.757C110.95 11.8549 111.029 12.0116 110.931 12.1487C110.833 12.2662 110.637 12.2662 110.5 12.1879H110.481Z" fill="black"/>
<path d="M97.2927 5.882C96.96 5.74492 96.6274 5.58826 96.2948 5.45118C95.9426 5.29451 95.5708 5.15743 95.2186 5.02034C94.5142 4.74618 93.8098 4.49158 93.1054 4.27617C92.3619 4.04117 91.5988 3.82576 90.8357 3.62993C90.5617 3.5516 90.2878 3.49284 90.0139 3.41451C89.3682 3.25784 88.742 3.12075 88.0963 2.96409C87.5289 2.827 86.9419 2.68992 86.3745 2.55284C86.0419 2.47451 85.7092 2.41576 85.3766 2.35701C84.457 2.18076 83.5178 1.98493 82.5981 1.80868C82.0111 1.71076 81.4046 1.61285 80.8176 1.53451C80.1914 1.45618 79.5653 1.39742 78.9392 1.35825C78.9392 1.35825 78.9392 1.35825 78.9196 1.35825C78.2935 1.31909 77.6673 1.31909 77.0803 1.35825C76.8455 1.37784 76.6107 1.41701 76.3759 1.45618C76.0824 1.51493 75.8085 1.61284 75.5346 1.73034C75.3976 1.78909 75.2215 1.69117 75.1628 1.55409C75.1041 1.417 75.1628 1.27993 75.2998 1.24076C75.5933 1.14284 75.9063 1.04492 76.2194 0.986167C76.5912 0.907833 76.9629 0.888255 77.3151 0.868672C78.0587 0.829505 78.8022 0.868669 79.5457 0.927419C80.3088 0.986169 81.0524 1.08408 81.8155 1.20158C82.1481 1.26033 82.4807 1.29951 82.8134 1.37784C83.9874 1.61284 85.1614 1.84784 86.3354 2.06326C86.4136 2.06326 86.5115 2.10242 86.5897 2.122C86.8637 2.18075 87.1376 2.2395 87.4115 2.31783C88.1355 2.49408 88.8399 2.65075 89.5638 2.80742C89.7791 2.86617 89.9943 2.90534 90.2095 2.96409C90.2878 2.96409 90.3661 3.00325 90.4639 3.02284C90.8552 3.12075 91.227 3.21868 91.6183 3.33618C92.3423 3.53201 93.0663 3.74743 93.7707 3.98243C94.4751 4.21743 95.1795 4.47201 95.8643 4.74618C96.1187 4.84409 96.373 4.942 96.6078 5.03992C96.8818 5.15742 97.1557 5.27492 97.4296 5.412C97.5666 5.47075 97.684 5.62743 97.6449 5.78409C97.6057 5.90159 97.4883 5.96034 97.3905 5.96034C97.3514 5.96034 97.3122 5.96035 97.2731 5.94076L97.2927 5.882Z" fill="black"/>
<path d="M126.427 28.3832C121.908 22.6257 116.605 17.3186 110.402 13.402C102.184 8.85862 93.4185 4.96154 84.2026 3.02279C82.7156 2.78779 81.1307 2.47446 79.624 2.78779C79.2327 2.98363 78.724 2.94445 78.8609 2.47445C78.9196 2.37654 79.0175 2.35695 79.1153 2.33737C79.2718 2.2982 79.4088 2.21987 79.5653 2.20029C81.5807 1.88696 83.6352 2.37654 85.5919 2.76821C91.9901 4.27612 98.1145 6.7632 104.024 9.60279C107.154 11.052 110.265 12.5795 113.063 14.6357C115.627 16.457 117.935 18.6111 120.225 20.7457C122.612 23.0174 124.745 25.5436 126.78 28.1286C126.858 28.2265 126.858 28.3636 126.76 28.442C126.643 28.5203 126.486 28.4811 126.408 28.3832H126.427Z" fill="black"/>
<path d="M136.739 43.2666C136.563 43.0903 136.25 42.679 136.524 42.4636C135.076 39.6045 132.806 37.2545 130.83 34.7478C125.449 28.4811 119.383 22.8216 113.083 17.4753C112.848 17.2599 113.142 16.927 113.416 17.162C119.931 22.6649 126.193 28.5203 131.73 35.022C132.219 35.6878 139.204 43.717 136.739 43.247V43.2666Z" fill="black"/>
<path d="M142.942 63.457C142.824 63.359 142.785 63.222 142.765 63.0849C142.707 62.3603 142.726 61.6161 142.668 60.8915C142.746 60.4607 142.178 58.9528 142.824 58.992C143.313 59.1095 143.098 59.8145 143.215 60.2061C143.352 61.009 143.352 61.9295 143.763 62.654C144.057 62.9282 143.646 63.2807 143.372 63.0261C143.372 63.0849 143.372 63.1436 143.392 63.1828C143.548 63.457 143.157 63.6724 142.961 63.4765L142.942 63.457Z" fill="black"/>
<path d="M144.057 62.8695C143.9 62.8695 143.744 62.7128 143.744 62.5561C143.744 62.4974 143.764 62.4386 143.803 62.3995C143.724 62.0078 143.529 61.6553 143.313 61.3224C143.216 61.5378 143.059 61.7924 142.805 61.6357C142.687 61.577 142.59 61.4007 142.668 61.2637C142.805 61.0287 142.903 60.7153 143.216 60.6761C143.666 60.5782 143.822 61.0874 144.018 61.3616C144.214 61.7336 144.84 62.8107 144.077 62.8695H144.057Z" fill="black"/>
<path d="M143.294 64.3578C143.137 64.3578 143 64.2207 142.981 64.064C143.078 62.0665 142.687 60.0495 142.335 58.0911C142.315 57.9345 142.433 57.8365 142.57 57.8365C142.726 57.8365 142.863 57.9345 142.883 58.0911C142.981 58.6003 143.078 59.1095 143.176 59.6186C143.215 60.2257 144.096 64.534 143.294 64.3774V64.3578Z" fill="black"/>
<path d="M1.18135 46.7916C0.829147 44.2262 2.29665 41.9937 3.29455 39.7612C4.58594 37.1174 5.75994 34.4345 7.05133 31.7908C8.55796 28.677 10.8081 26.0137 13.2931 23.6245C14.3106 22.4299 15.1323 21.0591 16.2672 19.9624C17.9499 18.102 20.1023 16.7704 22.1959 15.3995C24.9157 13.6958 27.6746 12.0116 30.4726 10.4449C32.801 9.30911 35.2468 8.46703 37.634 7.44869C40.0407 6.48911 42.4082 5.37286 44.8736 4.58953C47.8086 3.78661 50.8023 3.17952 53.7764 2.47452C54.6374 2.31786 60.8596 1.06453 60.0573 2.29828C61.877 2.1612 63.6576 1.88703 65.4577 1.59328C69.7428 1.00578 74.067 1.27995 78.3521 1.73036C83.5568 1.73036 88.7616 2.20036 93.751 3.72786C95.3164 4.17827 96.8034 4.80495 98.3492 5.31412C98.4862 5.35328 98.5253 5.50995 98.4666 5.64703C101.715 6.46953 104.904 7.54661 107.898 9.07411C109.737 9.97495 111.107 11.5416 112.868 12.5599C114.687 13.5391 116.703 14.0483 118.64 14.7533C118.914 14.8904 118.738 15.2233 118.503 15.3212C118.327 15.3799 118.151 15.3799 117.975 15.3604C113.337 14.4987 109.033 12.5208 104.63 10.8758C100.854 9.54411 97.0774 8.38869 93.2227 7.35077C81.4436 4.23702 69.0188 3.76702 57.0049 5.82327C50.2544 7.38994 43.6801 9.81827 37.4774 12.8929C35.3642 13.9308 33.3097 15.0862 31.2944 16.2808C31.177 16.3395 31.0204 16.3591 30.9422 16.222C30.8639 16.1045 30.9422 15.9479 31.04 15.8891C32.3314 15.1254 33.6424 14.4008 34.9729 13.6566C41.6451 10.112 48.7869 7.38994 56.1049 5.54911C66.9056 3.55161 78.1564 3.57119 88.8985 5.84286C94.2402 6.95911 99.4645 8.50619 104.611 10.2883C107.878 11.4829 111.087 12.8929 114.433 13.8916C111.381 12.9124 109.404 10.1512 106.45 8.97619C103.417 7.56619 100.208 6.58703 96.96 5.78411C93.9858 5.00078 90.9922 4.35452 87.9202 4.29577C83.9677 4.09994 80.074 3.31661 76.1998 2.53327C73.8909 2.04369 71.5821 2.16119 69.2536 2.20036C66.8274 2.29828 64.4011 2.27869 62.014 2.68994C59.2942 3.35578 56.6136 4.08036 53.933 4.88328C48.9043 6.3912 43.817 7.64453 38.6906 8.72161C36.1273 10.0337 33.6032 11.4045 31.0596 12.7558C29.3769 13.9308 27.655 15.0666 25.9136 16.1829C24.7004 17.1229 23.5656 18.1608 22.3329 19.1008C21.9611 19.4141 21.3937 19.8058 20.9632 19.3945C17.6369 21.6466 14.4279 24.1924 12.1973 27.5999C11.7473 28.3049 11.3364 29.0491 10.8473 29.7345C10.6907 29.9695 10.2603 29.9108 10.319 29.5974C8.51883 32.2999 6.93394 35.1395 5.32948 37.9791C3.72501 40.3683 2.17924 42.8945 1.80748 45.7929C1.67051 46.1845 2.00314 46.8308 1.57267 46.9679C1.43571 47.007 1.24005 46.9679 1.22049 46.7916H1.18135ZM5.44687 36.4712C5.27077 36.8433 5.09468 37.2154 4.91858 37.5679C7.20787 33.3379 9.81023 29.3037 12.3539 25.2304C9.12539 28.3441 7.1883 32.3979 5.44687 36.4516V36.4712ZM11.806 27.1104C11.7278 27.2279 11.6691 27.3454 11.5908 27.4433C13.9192 23.8595 17.3629 21.2158 20.8458 18.8658C22.2937 16.9074 24.5243 15.7129 26.618 14.5379C29.1812 13.2258 31.4509 11.4437 34.0141 10.0924C28.4768 12.2074 23.4286 15.4974 18.8109 19.1987C17.1281 20.5304 15.5628 21.9795 14.0562 23.4874C13.2735 24.7016 12.5496 25.8962 11.7865 27.0908L11.806 27.1104ZM15.8563 21.1179C18.8109 18.3958 22.0589 16.0066 25.4831 13.8916C22.0981 16.0262 18.4587 18.0041 15.8563 21.1179ZM22.4307 17.8279C23.5656 17.0445 24.8178 16.3787 25.8744 15.4974C24.6809 16.1829 23.4677 16.9074 22.4307 17.8279ZM29.1225 11.7374C28.9855 11.8354 28.829 11.9137 28.692 12.0116C32.6053 10.0141 36.773 8.52577 40.9016 7.01786C42.5843 6.29327 44.2084 5.43161 45.9106 4.7462C42.5256 5.6862 39.395 7.27244 36.1273 8.54535C33.7598 9.52452 31.3139 10.347 29.1421 11.7374H29.1225ZM43.7583 6.86119C42.78 7.11577 41.8017 7.40953 40.8429 7.74245C45.265 6.84161 49.6087 5.64703 53.9525 4.37411C50.5479 5.17703 47.1238 5.92119 43.7583 6.86119ZM45.5193 5.43161C45.3041 5.52953 45.0889 5.60786 44.8736 5.70578C44.6193 5.82328 44.3649 5.94078 44.1105 6.05828C46.4194 5.45119 48.6695 4.62869 50.9001 3.80619C49.0022 3.98244 47.2412 4.7462 45.4998 5.4512L45.5193 5.43161ZM52.9546 3.55161C51.5067 4.06078 50.0783 4.62869 48.6304 5.11827C51.8002 4.3741 54.9896 3.62995 58.1594 2.92495C56.4375 3.15995 54.6374 3.15995 52.9546 3.55161ZM91.8922 4.00202C92.1661 4.00202 92.4401 4.04119 92.714 4.08036C92.8314 4.08036 92.9292 4.08036 93.0466 4.09994C89.4855 3.08161 85.8266 2.41577 82.1285 2.31785C85.4157 2.74869 88.6246 3.66911 91.9118 4.00202H91.8922ZM83.5373 3.3362C84.7895 3.53203 86.0418 3.61036 87.3136 3.72786C83.9286 3.14036 80.5436 2.3766 77.1194 2.18077C79.2522 2.57244 81.3849 3.06203 83.5373 3.3362Z" fill="black"/>
<path d="M20.4937 100.567C17.6565 95.3386 15.0737 89.9728 12.1387 84.8028C9.65374 80.4749 6.73832 76.382 4.48816 71.917C2.31626 67.9611 1.41619 63.4178 1.04443 58.9528C0.790062 55.7803 0.516125 52.5686 0.672658 49.3765C0.535691 49.6115 0.496561 50.1599 0.124795 50.0032C0.00739501 49.9249 -0.0317293 49.7486 0.0269706 49.6115C0.281337 49.0045 0.535691 48.3974 0.809624 47.7903C1.06399 45.5774 1.49446 43.384 2.37496 41.3278C3.80332 37.9986 5.75998 34.9045 8.08841 32.1236C9.39937 30.5374 11.0821 29.1861 11.8256 27.2082C11.8843 27.0711 11.9235 26.9536 11.9822 26.8361C12.1387 26.5032 12.5692 26.797 12.4322 27.0907C11.63 29.4603 10.2407 31.497 8.87108 33.5532C7.18835 36.1578 5.72085 38.8799 4.25335 41.602C3.19676 43.6974 2.15973 45.7928 1.25966 47.947C1.10313 49.2786 1.06399 50.6103 1.08356 51.9224C1.35749 58.8353 1.63142 66.1595 5.21211 72.2695C7.18834 76.1274 9.69288 79.672 11.8843 83.3928C14.0171 87.0157 15.9346 90.7365 17.8913 94.4574C18.7718 96.2395 19.6914 98.0215 20.7089 99.7449C20.8263 100.039 21.1785 100.411 20.8459 100.685C20.7089 100.763 20.5328 100.685 20.4741 100.548L20.4937 100.567ZM1.7684 44.9115C1.72927 45.1661 1.67057 45.4207 1.63143 45.6557C1.5923 45.8124 1.57273 45.9886 1.53359 46.1453C3.97942 40.7599 6.83615 35.5507 10.1429 30.6353C6.32742 34.6107 3.07936 39.487 1.7684 44.892V44.9115Z" fill="black"/>
<path d="M24.5049 130.06C24.094 129.923 24.3483 129.472 24.5049 129.218C25.5223 127.24 25.1114 125.066 24.6027 123.01C24.0548 120.484 24.5244 117.84 24.1722 115.294C23.9766 113.688 23.5657 112.102 23.3113 110.496C23.1156 109.439 23.233 108.283 22.8613 107.284C22.5678 107.01 22.9787 106.638 23.2526 106.912C23.6048 107.245 23.6244 107.794 23.6831 108.244C23.7809 109.497 23.9179 110.731 24.1527 111.945C24.5049 113.747 24.8766 115.549 24.8962 117.389C24.9353 119.015 24.7984 120.66 25.0332 122.246C25.4049 124.381 26.2071 126.613 25.3462 128.728C28.0855 128.258 30.7662 127.612 33.4077 126.789C36.4601 125.889 39.532 125.144 42.5453 124.126C45.3629 123.206 47.9457 121.619 50.9002 121.189C47.1434 121.189 43.3084 121.874 39.7668 123.108C37.0666 124.439 34.5621 126.261 31.6467 127.181C31.3727 127.299 31.0792 126.848 31.4119 126.731C34.836 125.732 37.5558 123.167 40.9604 122.148C44.9715 121.091 49.1784 120.288 53.3265 120.895C55.9093 120.738 58.5508 120.386 61.0749 121.11C62.8163 121.757 64.636 121.678 66.4361 121.894C68.5689 122.05 70.4669 123.029 72.3648 123.911C72.9714 124.165 73.6562 124.302 74.1454 124.733C74.2237 124.812 74.2824 124.909 74.2432 125.007C73.8519 125.614 72.4235 124.537 71.9148 124.342C71.0734 123.93 70.1342 123.793 69.2342 123.558C67.1797 123.088 65.086 122.755 63.0511 122.168C61.0749 122.109 59.0986 122.07 57.142 121.894C56.4767 121.815 55.8115 121.717 55.1658 121.619C50.8024 120.758 46.8108 123.147 42.8584 124.557C38.3189 125.987 33.7403 127.279 29.1421 128.513C27.8312 128.944 26.3246 128.865 25.0723 129.453C24.8962 129.668 24.8962 130.158 24.5049 130.04V130.06ZM59.0008 121.522C59.6661 121.58 60.3118 121.58 60.977 121.6C59.3334 121.149 57.6312 121.091 55.968 121.228C56.9855 121.384 57.9834 121.443 59.0008 121.522Z" fill="black"/>
<path d="M171.979 172.575C171.176 172.105 173.642 170.95 170.746 168.992C168.202 167.229 165.326 166.074 162.684 164.487C162.547 164.39 162.43 164.272 162.293 164.155C162.078 163.978 162.293 163.645 162.567 163.743C163.428 163.978 164.23 164.252 165.091 164.487C162.176 163.489 159.299 162.392 156.364 161.472C152.999 160.767 149.614 160.16 146.268 159.337C146.64 160.003 145.642 159.964 145.211 160.081C141.924 160.473 138.637 159.67 135.389 159.239C130.047 158.397 124.666 157.751 119.286 157.202C118.933 157.124 118.17 157.026 118.229 156.556C118.288 156.439 118.405 156.4 118.523 156.419C120.127 156.556 121.731 156.811 123.336 157.026C116.409 155.166 109.111 155.048 102.321 152.62C103.28 153.149 104.239 153.658 105.217 154.128C105.335 154.187 105.452 154.304 105.393 154.461C105.178 154.794 104.767 154.461 104.513 154.343C102.556 153.423 100.502 152.757 98.6428 151.66C97.6254 151.073 96.6666 150.407 95.5709 149.957C95.0817 149.702 91.7163 148.194 92.7533 147.626C90.8553 146.157 88.9769 144.708 87.1377 143.181C88.5073 144.63 89.9161 146.04 91.4032 147.391C91.501 147.47 91.5206 147.626 91.4228 147.705C90.914 148.096 89.7205 146.569 89.2509 146.255C86.8442 144.101 84.3984 141.986 82.246 139.597C80.7394 137.893 79.5067 135.974 78.3327 134.055C77.8044 133.448 77.2565 132.841 76.6891 132.253C76.4152 131.96 76.8848 131.705 77.1 131.96C75.8869 129.884 75.1629 127.592 74.4781 125.301C73.9498 123.5 73.0693 121.835 72.5997 120.014C72.4431 119.994 72.267 119.975 72.0909 119.935C71.954 119.896 71.817 119.759 71.8562 119.602C71.8953 119.446 72.0909 119.387 72.2279 119.426C72.5214 119.544 73.1475 119.367 73.2062 119.779C73.3432 121.091 74.0867 122.266 74.4781 123.519C75.0846 125.223 75.5542 126.985 76.1608 128.689C77.2957 131.783 79.1545 134.447 81.4047 136.816C83.6353 139.538 86.2767 141.908 89.0161 144.101C91.5402 146.04 93.9077 148.214 96.8232 149.545C98.4863 150.427 100.071 151.484 101.891 151.993C105.452 153.207 109.072 154.089 112.79 154.637C115.92 155.068 119.031 155.557 122.103 156.282C123.16 156.576 124.256 156.752 125.253 157.163C125.351 157.202 125.43 157.3 125.43 157.398C129.382 157.849 133.334 158.515 137.287 159.082C140.046 159.435 142.961 160.14 145.72 159.494C144.585 158.867 143.255 158.691 142.022 158.319C141.65 158.221 141.768 157.731 142.139 157.829C146.718 159.004 151.316 160.062 155.973 160.904C156.051 160.845 156.169 160.825 156.267 160.845C157.284 161.1 158.321 161.276 159.358 161.452C159.691 161.491 159.73 161.942 159.358 161.942C162.195 162.94 165.013 163.939 167.85 164.938C168.222 165.075 169.259 165.192 169.102 165.76C169.044 165.839 168.926 165.897 168.828 165.878C167.243 165.604 165.678 165.212 164.152 164.742C165.952 165.662 167.752 166.602 169.513 167.601C170.863 168.482 172.957 169.422 172.761 171.322C172.703 171.714 172.526 172.086 172.37 172.458C172.311 172.595 172.116 172.634 171.979 172.575ZM83.8114 140.557C84.3984 141.164 85.0245 141.732 85.6311 142.319C84.0657 140.596 82.52 138.872 80.9546 137.149C81.796 138.383 82.7743 139.499 83.8114 140.557Z" fill="black"/>
<path d="M73.5584 97.0816C73.5584 95.2799 74.3606 93.6153 75.1433 92.0291C74.7519 92.4403 74.3215 93.0082 73.6953 92.8516C73.5388 92.8516 73.4605 92.6362 73.5192 92.4991C73.754 91.8332 74.1845 91.2457 74.5563 90.6387C76.4738 87.3682 79.0566 84.5874 81.8155 82.022C84.3005 79.7112 86.7854 77.3612 89.7008 75.5595C92.6358 73.7382 95.7274 72.152 98.9559 70.8987C100.678 70.1545 102.321 69.2145 104.043 68.4703C103.574 68.6466 103.084 68.8032 102.615 68.9795C102.478 69.0186 102.341 68.9403 102.321 68.8032C102.302 68.6662 102.38 68.5095 102.517 68.4507C106.098 67.2953 109.639 65.5328 113.474 65.4937C114.218 65.5328 114.961 65.4937 115.705 65.5132C115.822 65.5328 115.881 65.6699 115.881 65.7874C115.764 66.3162 115.02 66.1007 114.629 66.1203C110.461 66.0224 106.548 67.8045 102.869 69.5474C104.982 68.9012 107.115 68.4116 109.287 68.0003C110.363 67.9024 111.479 67.4716 112.535 67.687C112.789 67.7849 112.711 68.157 112.496 68.2353C111.42 68.6074 110.304 68.9403 109.228 69.3712C104.708 71.0162 100.228 72.7982 95.6687 74.3649C91.4423 75.7357 88.0573 78.5753 84.8483 81.552C81.7568 84.5091 78.7044 87.5837 76.2977 91.1282C75.3194 92.6362 74.478 94.3987 74.2041 96.1612C74.0867 96.5137 74.3019 97.1403 73.9301 97.297C73.7736 97.3557 73.5975 97.2382 73.5975 97.062L73.5584 97.0816ZM74.1258 92.2641C75.5737 91.0499 76.6303 89.4832 77.8826 88.0732C80.3871 85.2336 82.7743 82.2766 85.5527 79.672C87.1768 78.1445 89.0747 76.9303 91.0509 75.8924C92.5967 74.7957 94.2207 73.8362 95.8056 72.7982C90.7183 75.0699 86.1984 78.3403 82.246 82.2374C79.037 85.1553 76.1607 88.4257 74.1454 92.2641H74.1258ZM94.1229 74.4236C99.5233 72.4261 104.943 70.4286 110.344 68.4116C106.665 68.9795 103.065 69.9391 99.5624 71.212C97.684 72.1716 95.8839 73.2486 94.1229 74.4236Z" fill="black"/>
<path d="M18.6543 19.6883C18.4978 19.6491 18.4587 19.4533 18.5369 19.3358C19.3979 17.7104 20.8458 16.4962 22.1959 15.2624C24.4069 13.3824 26.6375 11.4828 29.2399 10.1512C31.1965 9.11326 33.2315 8.23202 35.2468 7.3116C37.9275 6.15619 40.5102 4.78535 43.3083 3.94327C50.8414 1.7891 58.7072 1.04493 66.5339 1.33868C74.8497 1.5541 83.1655 2.37661 91.2074 4.66786C92.1661 4.94202 96.3534 5.58827 95.3359 6.84161C95.2185 6.93952 95.0229 6.95911 94.925 6.84161C94.8663 6.76327 94.8663 6.66535 94.9055 6.58701C94.0445 5.88201 92.8901 5.74494 91.8531 5.45119C90.6986 5.17703 89.5638 4.88327 88.4093 4.58952C82.5589 2.98369 76.5128 2.35701 70.4668 2.04368C62.5814 1.5541 54.6178 1.76952 46.9085 3.55161C42.2713 4.41327 38.1427 6.6066 33.8772 8.4866C31.8227 9.40702 29.7486 10.347 27.8311 11.5416C25.6201 12.9712 23.5851 14.6945 21.6285 16.4374C20.6306 17.397 19.6131 18.2979 19.0457 19.5512C18.987 19.6883 18.85 19.7862 18.6935 19.747L18.6543 19.6883Z" fill="black"/>
<path d="M6.6795 34.9828C6.22947 34.7478 6.89474 33.9841 7.0317 33.7295C8.12743 31.4578 9.36014 29.2645 10.9646 27.3061C11.3951 26.7382 11.7473 26.0136 12.3538 25.6416C12.2169 25.5436 12.2364 25.3478 12.3538 25.2499C13.0974 24.4078 13.9192 23.6245 14.741 22.8411C15.6019 22.0578 16.502 21.3137 17.3238 20.4911C17.8325 20.0799 18.3021 19.512 18.9674 19.3749C22.1958 17.0641 25.4048 14.7141 28.7311 12.5403C31.3139 11.0128 33.9162 9.56365 36.5382 8.0949C42.1147 4.90281 48.2586 2.90531 54.4808 1.41697C54.5199 1.31906 54.6177 1.24073 54.7156 1.22114C55.8309 1.16239 56.8875 0.849068 57.9832 0.692401C58.355 0.379068 59.1963 0.574902 59.7051 0.418235C60.2334 0.339902 60.7812 0.300723 61.3095 0.359473C61.3878 0.359473 61.4465 0.418233 61.4856 0.476983C64.2054 0.614066 66.9056 -0.14969 69.6253 0.0265598C69.7427 0.0265598 69.821 0.144061 69.821 0.241978C69.7427 0.672811 69.097 0.653232 68.7644 0.751148C70.545 0.751148 72.306 0.829483 74.067 0.966566C74.4387 1.0449 75.7888 0.966557 75.5931 1.55406C75.8867 1.59322 76.1802 1.63239 76.4737 1.69114C76.5911 1.69114 76.6693 1.78906 76.6693 1.90656C76.5911 2.39614 75.8867 2.29822 75.4953 2.31781C75.6714 2.53322 75.5736 2.96406 75.2605 2.96406C74.5366 2.92489 73.8322 2.70948 73.1082 2.63115C71.0146 2.37656 68.9209 2.53323 66.8273 2.55281C57.8854 3.00323 49.1195 5.4903 40.882 8.95655C35.3642 11.4045 29.6507 13.4999 24.446 16.5941C22.7828 17.7886 21.2762 19.1791 20.0435 20.7849C19.75 21.0199 19.6326 21.6857 19.2021 21.5291C19.0847 21.4507 19.0848 21.2745 19.163 21.1766C19.9261 20.1778 20.7479 19.1986 21.6675 18.337C17.4412 21.2941 13.88 25.1128 10.8081 29.2449C9.47753 31.0661 8.28398 32.9657 7.01215 34.8457C6.95345 34.9436 6.81647 35.0024 6.69907 34.9632L6.6795 34.9828ZM11.1016 28.0895C12.0212 26.8361 13.0387 25.6807 14.0757 24.5253C12.9017 25.5241 11.9625 26.8166 11.1016 28.0895ZM29.2203 13.3236C29.0637 13.4411 28.8876 13.5391 28.7311 13.6566C28.4376 13.872 28.1245 14.0678 27.831 14.2832C28.418 13.9699 29.0442 13.6957 29.6507 13.4216C29.5333 13.4216 29.3964 13.3628 29.3768 13.2257C29.3181 13.2649 29.279 13.3041 29.2203 13.3236ZM28.6724 13.1474C28.8876 12.9907 29.1224 12.8536 29.3377 12.697C29.1029 12.8341 28.8876 12.9711 28.6528 13.1082C28.6528 13.1082 28.6528 13.1278 28.6528 13.1474H28.6724ZM30.4334 13.0495C36.4012 10.4449 42.3103 7.68364 48.513 5.62739C55.9678 3.35573 63.6966 1.80864 71.5429 2.04364C67.4143 1.43656 63.2662 2.04364 59.1768 2.55281C58.9811 2.55281 58.7267 2.51365 58.7659 2.27865C58.7659 2.16115 58.8637 2.06323 58.9811 2.02407C60.0768 1.69115 61.2313 1.53448 62.3661 1.43656C57.2984 1.82823 52.3676 3.84531 47.4955 5.25531C44.9127 6.07781 42.3299 6.90031 39.7667 7.80115C36.6751 9.56365 33.4467 11.0911 30.4725 13.0495H30.4334ZM32.2531 11.3653C33.6619 10.5624 35.0707 9.77907 36.499 9.01532C34.9729 9.58323 33.564 10.4057 32.2531 11.3653ZM43.0343 5.99948C42.6038 6.19532 42.1734 6.41073 41.7233 6.60656C46.4585 5.03989 51.2132 3.49281 56.007 2.12198C51.5066 2.76823 47.1824 4.15865 43.0343 5.99948ZM74.517 2.37657C74.3018 2.23949 74.0278 2.29823 73.7735 2.25906C74.0278 2.29823 74.2626 2.3374 74.517 2.37657Z" fill="black"/>
<path d="M142.805 61.1853C142.335 60.7741 142.218 60.1474 142.042 59.5795C141.631 58.2282 141.298 56.8574 140.946 55.4866C140.026 51.942 139.009 48.4366 137.58 45.0682C135.663 40.7599 132.963 36.8628 130.341 32.9657C127.68 28.8924 124.666 25.0345 120.968 21.8424C119.344 20.4324 117.916 18.7678 116.038 17.6907C110.696 14.3616 105.295 11.0128 99.6016 8.32989C97.2732 7.37031 94.8273 6.66532 92.4598 5.78407C90.4444 4.88324 88.116 4.39365 85.9245 4.72657C85.5919 4.76573 85.1614 5.11823 84.9266 4.72657C84.8484 4.5699 84.9266 4.43282 85.0831 4.37407C87.0202 3.72782 89.0943 4.23699 91.0314 4.66782C91.0901 4.60907 91.1879 4.60907 91.2662 4.60907C91.3836 4.62865 91.501 4.66782 91.638 4.68741C89.7204 3.94324 87.7246 3.41448 85.7288 2.98365C87.9007 4.35448 80.1328 2.63114 79.7806 2.59198C78.2348 2.33739 76.8456 1.61281 75.2411 1.71073C74.3411 1.67156 73.4214 1.71073 72.5214 1.82823C72.3844 1.82823 72.2279 1.76948 72.1692 1.6324C71.9344 0.986146 76.1216 1.2799 76.6304 1.29948C76.6499 1.20157 76.7478 1.14281 76.8652 1.14281C78.0783 1.06448 79.2914 1.33865 80.485 1.49531C83.1656 1.90656 85.8267 2.4549 88.429 3.12073C88.0964 2.49407 89.5052 2.70948 89.7987 2.74865C93.9664 3.5124 97.7428 5.52948 101.617 7.17448C109.013 9.19157 117.72 16.1437 123.473 21.2353C124.569 22.3124 125.684 23.3503 126.76 24.4666C126.956 24.7407 127.484 24.9953 127.406 25.3282C127.327 25.4653 127.151 25.4457 127.014 25.4066C130.869 29.3232 134.117 33.8078 136.641 38.7036C138.187 42.0328 139.576 45.4403 140.946 48.8478C141.709 50.8257 141.748 52.9407 142.55 54.8991C142.805 55.8782 144.253 59.8341 143.333 60.3236C143.372 60.6957 143.411 61.6161 142.805 61.1657V61.1853ZM141.357 54.9186C141.748 56.407 142.12 57.8953 142.57 59.3836C142.57 58.992 142.061 57.3274 142.785 57.5428C142.472 56.2503 142.042 54.9774 141.631 53.7045C141.494 53.8612 141.239 53.9003 141.063 53.822C141.161 54.1941 141.259 54.5466 141.357 54.9186ZM141.2 53.2737C141.435 52.2553 140.672 51.2761 140.457 50.297C139.987 49.1416 139.596 47.9666 139.067 46.8307C139.889 48.9261 140.359 51.1978 141.2 53.2737ZM136.719 41.3082C137.561 42.5616 138.285 43.8932 138.93 45.2641C137.62 42.1895 136.446 39.0561 134.704 36.1774C132.102 31.7711 128.834 27.7957 125.175 24.2316C125.136 24.4666 124.803 24.4862 124.666 24.3099C124.138 23.7616 123.629 23.272 123.082 22.7628C122.181 21.862 121.105 21.1766 120.088 20.4128C123.023 22.9978 125.782 25.7591 128.091 28.9316C130.928 32.9657 133.726 37.0391 136.211 41.3082C136.309 41.1124 136.602 41.132 136.719 41.3082ZM118.444 17.6124C115.098 14.9295 111.674 12.5795 107.957 10.4253C111.459 12.8145 115.04 15.0862 118.444 17.6124ZM103.711 9.85741C106.802 11.5612 109.854 13.3432 112.868 15.1841C109.894 12.9907 106.685 11.1107 103.3 9.64199C103.437 9.70074 103.574 9.77907 103.711 9.85741ZM107.8 11.0716C108.074 11.2086 108.348 11.3262 108.622 11.4632C107.507 10.6016 106.254 9.97489 104.963 9.38739C105.922 9.91615 106.783 10.6212 107.8 11.052V11.0716ZM94.2012 5.60781C97.0775 6.56739 99.9147 7.62491 102.674 8.87824C101.617 8.31032 100.717 7.52698 99.6211 7.0374C99.0146 6.74365 98.408 6.4499 97.821 6.17573C97.7428 6.13656 97.684 6.07782 97.6645 5.99949C94.9056 4.86365 92.1271 3.47324 89.1139 3.19907C90.3857 3.88449 91.8532 4.11948 93.2033 4.62864C93.5164 4.72656 94.0642 5.23573 93.4772 5.35323C93.712 5.45115 93.9468 5.54907 94.1816 5.6274L94.2012 5.60781Z" fill="black"/>
<path d="M191.878 105.542C190.488 98.4916 187.084 92.0487 183.621 85.8016C180.157 81.6499 176.87 77.1653 172.448 73.9733C171.352 73.1508 170.296 72.3087 169.219 71.4666C167.341 70.4483 165.384 69.6453 163.428 68.8033C159.612 67.2366 155.718 65.807 151.746 64.6908C149.34 64.0249 146.914 63.4962 144.448 63.1045C143.763 62.9478 143.137 62.9283 142.511 62.7128C142.354 62.6345 142.218 62.517 142.198 62.3408C141.807 61.342 147.735 62.6933 148.381 62.7324C150.788 63.3199 153.273 63.4962 155.66 64.1229C157.108 64.5145 158.517 65.0041 159.945 65.4741C159.534 65.2783 159.143 65.0237 158.908 64.5928C158.849 64.4949 158.849 64.3578 158.947 64.2795C159.084 64.1228 159.299 64.0837 159.495 64.162C160.786 64.7495 161.941 65.572 163.095 66.3749C163.956 66.8058 164.817 67.1974 165.658 67.6478C164.778 66.9428 163.741 66.3749 162.978 65.5133C162.097 64.1228 163.8 65.0237 164.347 65.3174C167.048 66.7079 169.513 68.5291 171.724 70.6441C173.465 72.4458 175.97 73.1899 177.985 74.6587C178.22 74.8741 178.807 75.0503 178.611 75.4224C178.533 75.5203 178.357 75.5399 178.259 75.4616C177.398 74.9524 176.498 74.502 175.618 74.032C177.79 75.8141 179.335 78.2033 181.018 80.4162C183.777 83.1187 186.575 85.9387 188.277 89.4637C189.412 92.0878 190.782 94.6533 191.388 97.4733C192.015 99.9016 191.936 102.428 192.328 104.895C192.386 105.111 192.425 105.326 192.445 105.542C192.445 105.875 191.897 105.796 191.878 105.502V105.542ZM185.773 88.6804C187.964 92.7929 189.999 97.0033 191.447 101.449C191.251 97.0033 189.393 92.8908 187.436 88.9545C187.827 89.7574 188.062 90.6191 188.434 91.422C188.512 91.5591 188.493 91.7158 188.336 91.7745C188.199 91.8333 188.003 91.7745 187.925 91.6374C187.201 90.482 186.36 89.4049 185.558 88.2887C185.636 88.4258 185.695 88.5433 185.773 88.6804ZM186.086 88.0928C186.458 88.602 186.829 89.1112 187.201 89.6203C186.653 88.4258 186.223 87.1528 185.342 86.1737C185.616 86.5262 186.008 87.2312 185.186 86.957C185.479 87.3291 185.773 87.7208 186.066 88.0928H186.086ZM170.785 71.8583C171.372 72.2108 171.959 72.6024 172.526 72.9941C171.861 72.387 171.196 71.7408 170.511 71.1337C169.533 70.4287 168.398 69.9978 167.341 69.4299C168.496 70.2328 169.591 71.1141 170.765 71.8583H170.785ZM170.687 70.5658C170.902 70.6637 171.098 70.7616 171.313 70.8791C169.043 68.7249 166.461 66.8058 163.623 65.4741C164.582 66.277 165.619 66.982 166.598 67.7458C166.852 67.5695 167.126 67.9024 167.341 68.0199C168.515 68.7837 169.513 69.8216 170.667 70.5658H170.687ZM155.621 65.3762C159.436 66.6883 163.193 68.157 166.871 69.802C165.091 68.6662 163.173 67.687 161.217 66.8449C159.201 66.3358 157.206 65.7483 155.19 65.2195C155.327 65.2587 155.484 65.3174 155.621 65.3566V65.3762ZM145.426 62.7716C146.796 63.0262 148.166 63.2808 149.516 63.6333C149.496 63.5941 149.477 63.5353 149.496 63.4766C149.496 63.4766 149.496 63.4766 149.496 63.457C147.716 63.0849 145.955 62.7912 144.155 62.5562C144.585 62.6345 144.996 62.6933 145.426 62.7716Z" fill="black"/>
<path d="M191.545 132.253C191.271 131.489 191.095 130.687 190.899 129.903C190.86 129.786 190.899 129.609 191.056 129.57C191.173 129.531 191.31 129.629 191.33 129.747C191.506 130.51 191.682 131.294 191.936 132.038C192.054 132.312 191.682 132.567 191.545 132.253Z" fill="black"/>
<path d="M173.152 172.556C172.976 172.458 172.937 172.242 172.957 172.066C172.996 171.557 173.074 171.126 173.172 170.656C173.524 168.992 173.289 167.307 173.387 165.623C173.681 162.04 174.992 158.573 176.557 155.362C177.946 152.953 179.825 150.877 181.292 148.527C182.368 145.942 183.268 143.298 184.54 140.792C185.029 139.93 185.479 139.049 186.047 138.226C186.399 137.737 186.869 137.325 186.986 136.699C188.884 131.372 190.606 126.006 191.995 120.542C191.408 120.327 191.995 119.465 192.249 119.191C192.562 115.882 192.621 112.513 192.112 109.204C193.169 106.873 192.993 118.525 192.758 118.956C193.913 119.955 192.328 124.361 192.112 125.85C191.232 129.453 189.999 132.958 188.434 136.307C187.025 139.264 185.303 142.084 184.051 145.12C182.642 148.116 181.214 151.073 179.766 154.069C178.944 155.753 178.201 157.496 177.301 159.122C177.105 159.415 176.753 159.122 176.89 158.808C175.677 162 174.894 165.33 174.463 168.717C174.248 169.52 174.287 172.673 173.133 172.517L173.152 172.556ZM173.876 167.327C173.876 168.052 173.916 168.776 173.857 169.501C174.542 163.019 176.831 156.85 180.02 151.21C178.553 153.305 176.89 155.322 176.048 157.77C174.816 160.806 173.72 164.017 173.876 167.327ZM183.464 144.415C184.364 142.593 185.538 140.909 186.164 138.97C185.088 140.674 184.227 142.535 183.464 144.415ZM187.045 137.952C187.103 137.854 187.143 137.756 187.201 137.658C187.182 137.697 187.143 137.717 187.123 137.756C187.103 137.815 187.084 137.893 187.045 137.952ZM188.61 133.526C188.453 133.996 188.277 134.466 188.121 134.936C187.945 135.445 187.769 135.955 187.573 136.464C187.69 136.366 187.827 136.229 187.984 136.209C189.588 132.782 190.821 129.198 191.702 125.536C192.073 123.656 192.719 121.717 192.641 119.798C191.623 124.459 190.058 129.002 188.59 133.526H188.61Z" fill="black"/>
</svg>
