<svg width="68" height="77" viewBox="0 0 68 77" fill="none" xmlns="http://www.w3.org/2000/svg">
<path d="M5.77237 25.7595C4.26574 24.6041 3.07217 23.1157 2.56344 21.2749C1.46771 18.4745 1.23291 15.2824 2.34821 12.4624C2.93521 11.0328 3.11131 9.05489 4.67664 8.36948C5.12667 8.21281 5.40061 8.99613 4.97014 9.1528C4.75491 9.23113 4.57881 9.34865 4.40271 9.50531C3.73744 10.3278 3.52221 11.307 3.15045 12.2666C2.58301 13.7353 2.17211 15.2824 2.23081 16.8491C2.26995 18.6703 2.83738 20.4328 3.50265 22.0974C4.01138 23.4095 5.0484 24.3495 6.12457 25.2112C6.4572 25.4657 6.1637 26.0924 5.77237 25.7791V25.7595Z" fill="black"/>
<path d="M20.9167 40.1728C19.9188 38.8803 19.0187 37.4899 17.8643 36.3149C15.8489 34.5524 13.5205 33.1032 11.466 31.3994C9.50932 30.1461 8.02225 28.364 6.55475 26.582C4.63723 24.604 3.60019 22.0778 2.7784 19.4928C2.6023 19.0032 3.22842 18.729 3.44365 19.2578C3.99152 20.7657 4.38285 22.3715 5.20465 23.762C6.00688 25.0349 6.98521 26.0924 7.92441 27.2478C9.58758 29.5195 12.053 30.9686 14.1857 32.7115C16.0054 34.1019 18.0599 35.2574 19.41 37.1374C20.0753 38.0186 20.721 38.8999 21.3863 39.7615C21.6406 40.114 21.1906 40.6036 20.8971 40.1728H20.9167Z" fill="black"/>
<path d="M23.9886 46.6744C23.7147 46.5765 23.656 46.2632 23.7538 46.0282C24.4387 42.5424 18.1969 37.3528 16.1228 34.6698C15.7902 34.3173 16.2207 33.6907 16.612 34.1019C18.9209 37.1961 25.28 42.3074 24.3995 46.4003C24.3604 46.5961 24.1843 46.7332 24.0082 46.6744H23.9886Z" fill="black"/>
<path d="M23.9104 47.8299C23.8517 47.634 23.9104 47.3795 24.1061 47.3011H24.1648C24.1648 47.3011 24.243 47.2424 24.2822 47.2228C24.4191 47.027 24.3409 46.792 24.2822 46.5765C23.8517 45.4015 23.0104 44.5007 22.3647 43.4432C20.7015 40.5057 18.9601 37.529 16.0642 35.649C13.1292 33.0249 9.47024 31.4582 6.61351 28.7557C4.93078 27.4241 3.83506 25.5832 2.8763 23.7032C1.44793 20.9028 0 17.9065 0 14.6949C0.0586999 12.4428 0.802223 10.0732 2.40669 8.44779C3.07195 7.80154 3.91333 7.3903 4.75469 7.01822C5.04819 6.70488 5.36124 6.41115 5.75258 6.2349C6.33958 5.94115 6.86788 5.56906 7.23965 5.04031C7.49401 4.76615 7.90492 5.11864 7.82665 5.43197C7.70925 5.84322 7.33747 6.15656 7.00484 6.41114C6.49611 6.86156 5.94825 7.25321 5.34168 7.52737C3.30675 9.79904 2.05449 12.7561 1.83925 15.772C1.70229 17.1036 1.83925 18.4353 2.19145 19.7278C2.25015 19.9628 2.0545 20.2174 1.8197 20.0999C3.18936 23.3507 4.79382 26.719 7.67011 28.8928C9.72461 30.7532 12.2487 31.8891 14.4206 33.5536C16.0251 34.8853 17.8252 36.0407 19.234 37.5878C20.408 38.9391 21.3472 40.4861 22.2277 42.0332C22.8538 43.5216 26.2388 46.6549 24.5757 48.0257C24.3409 48.202 23.9887 48.1432 23.8908 47.8495L23.9104 47.8299ZM1.42836 19.062C1.42836 19.062 1.42836 19.0815 1.42836 19.1011C0.665257 15.3607 1.66315 11.4049 3.79591 8.27155C0.273923 10.504 -0.0195643 15.5174 1.4088 19.062H1.42836Z" fill="black"/>
<path d="M2.42609 17.3582C1.46732 17.2016 2.01519 14.8516 2.05432 14.127C2.28912 12.9912 2.44565 11.8162 2.97395 10.7587C3.48268 9.7795 4.32405 9.01575 5.06758 8.21283C7.33731 5.58866 10.2919 3.72825 13.4812 2.377C8.37435 3.317 4.26535 7.05742 1.87823 11.5224C2.28913 11.777 1.87822 12.2862 1.50646 12.2666C0.469425 11.9924 1.38907 10.6999 1.76083 10.1907C4.05013 6.54823 7.43515 3.47367 11.6028 2.22033C19.5078 0.105334 27.9214 0.771173 36.022 1.33909C37.2938 1.43701 38.5852 1.5545 39.857 1.73075C40.6397 1.73075 44.0443 1.55449 43.9073 2.57282C43.8486 2.72949 43.6725 2.80784 43.516 2.80784C41.9311 2.69034 40.3462 2.27907 38.7613 2.41615C38.0569 2.43573 37.3525 2.47492 36.6677 2.4945C36.7068 2.4945 36.7264 2.4945 36.746 2.4945C29.4085 2.76867 21.9144 0.829911 14.6944 2.61199C12.3659 3.45408 10.1353 4.68782 8.13954 6.15657C7.16121 6.97907 6.28072 7.97782 5.38065 8.87866C4.57842 9.74032 3.69793 10.602 3.36529 11.7378C2.9544 13.3437 2.54349 15.0083 2.71959 16.6728C3.38486 16.8295 2.95439 17.4758 2.42609 17.3778V17.3582ZM30.9151 1.73075C32.363 1.82867 33.8305 1.90698 35.2785 1.86782C32.4804 1.67198 29.6628 1.41741 26.8452 1.41741C28.2345 1.51533 29.5454 1.63283 30.9151 1.73075Z" fill="black"/>
<path d="M63.4742 21.1182C62.5545 20.5894 65.6069 18.4157 65.7048 17.4757C65.5873 16.6336 65.9396 15.7915 65.9983 14.9494C66.1548 13.8528 66.2331 12.7561 66.4091 11.6594C65.6852 10.2298 64.8047 8.83943 63.9046 7.54693C60.6957 5.13818 56.7432 3.98276 52.869 3.25818C48.3883 2.61193 43.8293 2.00484 39.3094 2.61193C37.881 2.70984 36.3353 2.57275 34.9265 2.6315C32.4415 2.92525 29.937 3.16026 27.4716 3.59109C27.2368 3.63026 26.9433 3.43442 26.9628 3.16026C27.0411 2.70984 27.6868 2.84694 28.039 2.74902C31.3066 2.16152 34.5938 1.75026 37.9006 1.73068C39.1333 1.06485 40.6399 1.4761 41.9704 1.1236C45.2381 0.242353 48.6035 -0.286408 52.0081 0.164009C54.5126 0.496925 57.0954 0.653599 59.4826 1.45652C62.0067 2.63152 64.0025 4.72694 65.6852 6.88111C66.5657 8.11486 67.3092 9.564 67.1722 11.1111C67.3092 12.0511 67.7788 12.8932 67.9158 13.8332C68.0723 14.7536 67.8179 15.674 67.6027 16.5749C67.4657 17.2603 67.1331 18.7094 66.1548 18.2394C65.6852 19.1011 64.8634 19.7082 64.296 20.4915C64.0807 20.7853 63.9242 21.3728 63.4546 21.1182H63.4742ZM64.6482 7.37069C65.1765 7.80152 65.646 8.29111 66.0569 8.83944C66.0961 8.87861 66.1157 8.91777 66.1548 8.95694C64.8047 6.07819 61.0283 2.12233 57.7998 1.59358C53.2213 0.81025 48.447 0.0269158 43.9075 1.37817C45.5511 1.28025 47.1947 1.37817 48.8383 1.41734C50.9515 1.47609 53.0843 1.39777 55.1583 1.88735C57.565 2.49443 59.8935 3.51277 62.0067 4.82485C63.0828 5.4711 63.8068 6.48942 64.6482 7.35109V7.37069ZM58.9543 4.29609C60.0696 4.70734 61.1653 5.15775 62.2023 5.72567C59.913 4.10025 57.252 2.98402 54.5127 2.37694C52.2038 1.9461 49.9145 2.12236 47.5861 1.98527C51.4211 2.37694 55.3344 2.88609 58.9347 4.29609H58.9543Z" fill="black"/>
<path d="M39.2507 73.7973C38.742 73.4644 39.4073 72.4069 39.8182 73.014C41.6574 72.0544 42.8901 70.194 43.7902 68.4119C45.1794 65.4352 44.6511 62.0669 44.2207 58.9335C43.4184 55.3498 42.8706 51.7073 42.264 48.0844C42.1662 47.6144 42.0488 47.164 41.9314 46.694C41.8727 46.4981 41.9705 46.2827 42.1662 46.2044C42.3423 46.126 42.5575 46.2044 42.5966 46.4198C42.6945 46.929 42.8314 47.4577 42.9293 47.9669C43.3206 50.4148 43.6924 52.8823 44.1228 55.3106C45.062 60.0302 46.4513 65.4156 43.7902 69.8219C43.0858 71.0361 40.7965 74.2477 39.2703 73.7973H39.2507Z" fill="black"/>
<path d="M42.2054 55.1344C41.5597 54.9777 42.1076 53.9985 42.0685 53.5481C42.2054 51.6094 42.2054 49.6511 42.9098 47.7907C43.7708 45.2057 44.6317 42.5619 46.0992 40.2511C47.4689 38.0577 49.4647 36.3344 51.2648 34.5132C52.5171 33.2794 53.7302 31.9869 55.0411 30.7923C55.1781 30.6552 55.4129 30.6944 55.5107 30.8511C55.726 31.2427 55.2955 31.4777 55.0411 31.6932C52.2236 34.6502 48.9364 37.2744 46.6079 40.6623C44.9252 43.5019 43.8686 46.6548 43.0468 49.8273C42.7337 50.7086 43.0664 55.1931 42.1663 55.154L42.2054 55.1344Z" fill="black"/>
<path d="M36.4527 76.1082C36.394 75.9124 36.5114 75.697 36.6875 75.6186C37.3136 75.3249 38.018 74.9724 38.605 74.6591C41.4226 73.347 43.5945 70.3507 42.8118 67.1782C42.5183 65.3178 41.8531 63.6337 41.1291 61.9299C40.6791 60.422 40.6595 58.8162 40.5812 57.2691C40.5617 55.1149 40.3856 52.9216 40.7378 50.787C41.8726 45.7541 45.6686 41.9157 49.0731 38.2732C50.9711 36.5695 52.9278 34.8853 54.454 32.8095C53.3191 33.7299 52.3212 34.807 51.245 35.7862C51.1081 35.9428 50.8537 35.9624 50.7167 35.7862C50.5798 35.6295 50.6189 35.3357 50.7559 35.1986C51.7146 34.2978 52.6538 33.3774 53.6322 32.4961C55.8041 30.9491 57.4281 28.8732 59.15 26.8757C60.324 25.5832 61.224 24.0361 62.1828 22.587C63.0242 21.3141 63.9829 20.1195 64.5112 18.6703C64.9613 17.6324 65.2548 16.5357 65.47 15.4195C65.5287 15.0866 66.057 14.9299 66.1548 15.3411C66.2722 16.2028 66.1548 17.1232 65.92 17.9653C65.6069 19.0424 64.9025 19.9237 64.2568 20.8049C63.5329 22.1562 62.7894 23.5074 61.8502 24.7412C60.2066 26.7191 58.6608 28.8145 56.8411 30.6357C55.7258 32.0653 54.7279 33.5732 53.5148 34.9245C52.2625 36.3345 50.8146 37.5487 49.4058 38.8216C47.4883 40.917 45.4533 42.9341 43.9076 45.3232C41.8922 48.1041 40.8943 51.1982 41.1682 54.6253C41.2661 57.1907 41.0313 59.9324 42.0292 62.3607C44.025 66.7082 44.6707 71.232 40.3464 74.3849C39.2507 75.1486 38.0376 75.7166 36.844 76.2845C36.6875 76.3628 36.4722 76.2649 36.4331 76.0887L36.4527 76.1082Z" fill="black"/>
<path d="M36.394 75.599C34.7895 75.2465 33.459 74.1498 32.1089 73.2294C30.2305 71.8977 28.5673 70.2723 27.0998 68.5098C23.9887 65.4352 23.2452 63.6336 22.6582 59.3448C22.6191 59.0706 22.5995 58.6986 22.9126 58.5811C23.1082 58.5223 23.3626 58.5811 23.48 58.7377C23.6365 58.9923 23.6757 59.2861 23.7148 59.5798C25.4954 67.1194 29.8979 71.7411 37.0788 74.4044C37.2549 73.8561 37.9985 74.1302 37.9593 74.659C39.1138 74.9723 40.2877 74.6002 41.3443 74.1498C41.7161 73.9931 42.0879 74.5219 41.6378 74.7177C40.4443 75.2073 39.1137 75.5794 37.8223 75.2269C37.4897 75.6381 36.8636 75.6577 36.3744 75.5794L36.394 75.599ZM36.7853 74.9527C36.3744 74.7961 35.9635 74.6198 35.5526 74.4631C34.9852 74.2281 34.4569 73.954 33.909 73.6798C34.3786 73.9736 34.8482 74.2673 35.3374 74.5219C35.3374 74.5219 35.2983 74.5219 35.2983 74.5023C35.7679 74.7373 36.2766 74.9723 36.8049 74.9723L36.7853 74.9527Z" fill="black"/>
<path d="M22.8734 59.5995C22.6582 59.3254 22.8343 59.0512 23.0496 58.8554C23.4018 58.4441 23.5974 57.9154 23.7344 57.4258C24.6932 52.8041 25.0258 47.5754 22.7365 43.3258C22.306 42.8166 22.893 42.1312 23.2844 42.8166C25.0454 45.9695 25.378 49.6904 25.0258 53.2349C24.8106 55.1933 24.8106 57.3083 23.8127 59.0903C23.5974 59.3841 23.2452 60.0695 22.8539 59.6191L22.8734 59.5995Z" fill="black"/>
</svg>
