<?xml version="1.0" encoding="UTF-8"?>
<svg id="Layer_1" data-name="Layer 1" xmlns="http://www.w3.org/2000/svg" viewBox="0 0 68 77">
  <defs>
    <style>
      .cls-1 {
        stroke: #000;
        stroke-miterlimit: 10;
      }
    </style>
  </defs>
  <path class="cls-1" d="M6.7,26.51c-1.46-1.12-2.61-2.56-3.11-4.34-1.06-2.71-1.29-5.8-.21-8.53.57-1.38.74-3.3,2.25-3.96.44-.15.7.61.28.76-.21.08-.38.19-.55.34-.64.8-.85,1.74-1.21,2.67-.55,1.42-.95,2.92-.89,4.43.04,1.76.59,3.47,1.23,5.08.49,1.27,1.5,2.18,2.54,3.01.32.25.04.85-.34.55v-.02Z"/>
  <path class="cls-1" d="M21.36,40.45c-.97-1.25-1.84-2.6-2.95-3.73-1.95-1.71-4.2-3.11-6.19-4.76-1.89-1.21-3.33-2.94-4.75-4.66-1.86-1.91-2.86-4.36-3.65-6.86-.17-.47.44-.74.64-.23.53,1.46.91,3.01,1.7,4.36.78,1.23,1.72,2.25,2.63,3.37,1.61,2.2,3.99,3.6,6.06,5.29,1.76,1.35,3.75,2.46,5.06,4.28.64.85,1.27,1.71,1.91,2.54.25.34-.19.81-.47.4h.02Z"/>
  <path class="cls-1" d="M24.33,46.74c-.27-.09-.32-.4-.23-.63.66-3.37-5.38-8.39-7.38-10.99-.32-.34.09-.95.47-.55,2.23,2.99,8.39,7.94,7.54,11.9-.04.19-.21.32-.38.27h-.02Z"/>
  <path class="cls-1" d="M24.25,47.86c-.06-.19,0-.44.19-.51h.06s.08-.06.11-.08c.13-.19.06-.42,0-.63-.42-1.14-1.23-2.01-1.86-3.03-1.61-2.84-3.29-5.72-6.1-7.54-2.84-2.54-6.38-4.06-9.14-6.67-1.63-1.29-2.69-3.07-3.62-4.89-1.38-2.71-2.78-5.61-2.78-8.72.06-2.18.78-4.47,2.33-6.04.64-.63,1.46-1.02,2.27-1.38.28-.3.59-.59.97-.76.57-.28,1.08-.64,1.44-1.16.25-.27.64.08.57.38-.11.4-.47.7-.8.95-.49.44-1.02.81-1.61,1.08-1.97,2.2-3.18,5.06-3.39,7.98-.13,1.29,0,2.58.34,3.83.06.23-.13.47-.36.36,1.33,3.15,2.88,6.4,5.66,8.51,1.99,1.8,4.43,2.9,6.53,4.51,1.55,1.29,3.29,2.41,4.66,3.9,1.14,1.31,2.04,2.8,2.9,4.3.61,1.44,3.88,4.47,2.27,5.8-.23.17-.57.11-.66-.17l.02-.02ZM2.5,20.02v.04c-.74-3.62.23-7.45,2.29-10.48-3.41,2.16-3.69,7.01-2.31,10.44h.02Z"/>
  <path class="cls-1" d="M3.47,18.38c-.93-.15-.4-2.43-.36-3.13.23-1.1.38-2.24.89-3.26.49-.95,1.31-1.69,2.03-2.46,2.2-2.54,5.06-4.34,8.14-5.65-4.94.91-8.92,4.53-11.23,8.85.4.25,0,.74-.36.72-1-.27-.11-1.52.25-2.01,2.22-3.52,5.49-6.5,9.52-7.71,7.65-2.05,15.79-1.4,23.63-.85,1.23.09,2.48.21,3.71.38.76,0,4.05-.17,3.92.81-.06.15-.23.23-.38.23-1.53-.11-3.07-.51-4.6-.38-.68.02-1.36.06-2.03.08h.08c-7.1.27-14.35-1.61-21.34.11-2.25.81-4.41,2.01-6.34,3.43-.95.8-1.8,1.76-2.67,2.63-.78.83-1.63,1.67-1.95,2.77-.4,1.55-.8,3.16-.62,4.78.64.15.23.78-.28.68v-.02ZM31.03,3.25c1.4.09,2.82.17,4.22.13-2.71-.19-5.43-.44-8.16-.44,1.34.09,2.61.21,3.94.3Z"/>
  <path class="cls-1" d="M62.54,22.01c-.89-.51,2.06-2.61,2.16-3.52-.11-.81.23-1.63.28-2.44.15-1.06.23-2.12.4-3.18-.7-1.38-1.55-2.73-2.42-3.98-3.1-2.33-6.93-3.45-10.68-4.15-4.34-.63-8.75-1.21-13.12-.63-1.38.09-2.88-.04-4.24.02-2.4.28-4.83.51-7.21.93-.23.04-.51-.15-.49-.42.08-.44.7-.3,1.04-.4,3.16-.57,6.34-.97,9.54-.99,1.19-.64,2.65-.25,3.94-.59,3.16-.85,6.42-1.36,9.71-.93,2.42.32,4.92.47,7.23,1.25,2.44,1.14,4.37,3.16,6,5.25.85,1.19,1.57,2.6,1.44,4.09.13.91.59,1.72.72,2.63.15.89-.09,1.78-.3,2.65-.13.66-.45,2.07-1.4,1.61-.45.83-1.25,1.42-1.8,2.18-.21.28-.36.85-.81.61h.02ZM63.67,8.71c.51.42.97.89,1.36,1.42.04.04.06.08.09.11-1.31-2.79-4.96-6.61-8.08-7.12-4.43-.76-9.05-1.52-13.44-.21,1.59-.09,3.18,0,4.77.04,2.04.06,4.11-.02,6.12.45,2.33.59,4.58,1.57,6.63,2.84,1.04.63,1.74,1.61,2.56,2.44v.02ZM58.16,5.74c1.08.4,2.14.83,3.14,1.38-2.22-1.57-4.79-2.65-7.44-3.24-2.23-.42-4.45-.25-6.7-.38,3.71.38,7.5.87,10.98,2.24h.02Z"/>
  <path class="cls-1" d="M39.1,72.99c-.49-.32.15-1.35.55-.76,1.78-.93,2.97-2.73,3.84-4.45,1.34-2.88.83-6.14.42-9.17-.78-3.47-1.31-6.99-1.89-10.5-.09-.45-.21-.89-.32-1.35-.06-.19.04-.4.23-.47.17-.08.38,0,.42.21.09.49.23,1,.32,1.5.38,2.37.74,4.76,1.15,7.11.91,4.57,2.25,9.78-.32,14.04-.68,1.17-2.9,4.28-4.37,3.85h-.02Z"/>
  <path class="cls-1" d="M41.96,54.93c-.62-.15-.09-1.1-.13-1.53.13-1.88.13-3.77.81-5.57.83-2.5,1.67-5.06,3.09-7.3,1.33-2.12,3.26-3.79,5-5.55,1.21-1.19,2.39-2.44,3.65-3.6.13-.13.36-.09.45.06.21.38-.21.61-.45.81-2.73,2.86-5.91,5.4-8.16,8.68-1.63,2.75-2.65,5.8-3.45,8.87-.3.85.02,5.19-.85,5.15l.04-.02Z"/>
  <path class="cls-1" d="M36.39,75.22c-.06-.19.06-.4.23-.47.61-.28,1.29-.63,1.86-.93,2.73-1.27,4.83-4.17,4.07-7.24-.28-1.8-.93-3.43-1.63-5.08-.44-1.46-.45-3.01-.53-4.51-.02-2.08-.19-4.21.15-6.27,1.1-4.87,4.77-8.58,8.07-12.11,1.84-1.65,3.73-3.28,5.21-5.29-1.1.89-2.06,1.93-3.11,2.88-.13.15-.38.17-.51,0-.13-.15-.09-.44.04-.57.93-.87,1.84-1.76,2.78-2.61,2.1-1.5,3.67-3.51,5.34-5.44,1.14-1.25,2.01-2.75,2.93-4.15.81-1.23,1.74-2.39,2.25-3.79.44-1,.72-2.07.93-3.15.06-.32.57-.47.66-.08.11.83,0,1.72-.23,2.54-.3,1.04-.98,1.89-1.61,2.75-.7,1.31-1.42,2.61-2.33,3.81-1.59,1.91-3.09,3.94-4.85,5.7-1.08,1.38-2.04,2.84-3.22,4.15-1.21,1.36-2.61,2.54-3.98,3.77-1.86,2.03-3.82,3.98-5.32,6.29-1.95,2.69-2.92,5.68-2.65,9,.09,2.48-.13,5.14.83,7.48,1.93,4.21,2.56,8.58-1.63,11.63-1.06.74-2.23,1.29-3.39,1.84-.15.08-.36-.02-.4-.19l.02.02Z"/>
  <path class="cls-1" d="M36.33,74.73c-1.55-.34-2.84-1.4-4.15-2.29-1.82-1.29-3.43-2.86-4.85-4.57-3.01-2.98-3.73-4.72-4.3-8.87-.04-.27-.06-.63.25-.74.19-.06.44,0,.55.15.15.25.19.53.23.81,1.72,7.3,5.98,11.77,12.93,14.34.17-.53.89-.27.85.25,1.12.3,2.25-.06,3.28-.49.36-.15.72.36.28.55-1.15.47-2.44.83-3.69.49-.32.4-.93.42-1.4.34l.02.02ZM36.71,74.11c-.4-.15-.8-.32-1.19-.47-.55-.23-1.06-.49-1.59-.76.45.28.91.57,1.38.81,0,0-.04,0-.04-.02.45.23.95.45,1.46.45l-.02-.02Z"/>
  <path class="cls-1" d="M23.25,59.25c-.21-.27-.04-.53.17-.72.34-.4.53-.91.66-1.38.93-4.47,1.25-9.53-.97-13.64-.42-.49.15-1.16.53-.49,1.7,3.05,2.03,6.65,1.69,10.08-.21,1.89-.21,3.94-1.17,5.67-.21.28-.55.95-.93.51l.02-.02Z"/>
</svg>