<svg width="31" height="48" viewBox="0 0 31 48" fill="none" xmlns="http://www.w3.org/2000/svg">
<path d="M3.56045 8.50801C3.54045 8.44801 3.52045 8.37801 3.50045 8.31801C3.43045 8.25801 3.38045 8.18801 3.33045 8.12801C2.44045 8.04801 2.17045 6.96801 2.07045 6.23801C0.920447 5.72801 0.760448 3.38801 1.46045 2.45801C2.00045 1.83801 2.47045 1.15801 2.99045 0.528007C3.20045 0.238007 3.62045 0.168009 3.90045 0.418009C4.01045 0.318009 4.12045 0.228008 4.23045 0.138008C4.79045 -0.301992 5.28045 0.408008 5.49045 0.898008C5.66045 0.998008 5.81045 1.17801 5.93045 1.36801C5.96045 1.33801 5.99045 1.31801 6.02045 1.28801C6.46045 0.928007 6.89045 1.34801 7.13045 1.74801C7.58045 1.40801 8.03045 1.07801 8.51045 0.778007C8.97045 0.478007 9.32045 0.798009 9.59045 1.17801C10.1504 2.07801 10.2304 3.39801 9.72045 4.33801C9.68045 4.93801 9.51045 5.97801 8.74045 5.95801C7.83045 6.45801 7.12045 7.29801 6.37045 7.99801C5.37045 8.85801 4.40045 10.618 3.57045 8.49801L3.56045 8.50801Z" fill="#F4D600"/>
<path d="M22.6104 24.718C20.6004 24.428 20.9104 23.098 21.8004 21.738C21.8104 21.448 21.9104 21.158 22.0104 20.928C22.1704 20.568 22.3804 20.248 22.6004 19.938C22.5204 19.908 22.4304 19.888 22.3504 19.848C22.0404 19.728 21.8804 19.428 21.8504 19.118C21.2904 19.158 20.7404 19.228 20.1804 19.268C20.0004 19.278 19.8204 19.278 19.6704 19.158C19.1704 18.638 19.5204 17.778 19.8104 17.218C19.2604 17.168 18.3304 17.538 18.1204 16.818C17.9604 16.008 18.3504 15.218 18.8804 14.608C18.1904 14.528 16.2904 14.948 16.0904 14.128C15.9204 13.218 16.5504 12.318 17.1904 11.728C15.3304 11.618 13.4704 11.548 11.6004 11.538C10.7104 11.718 10.5504 10.918 10.7904 10.238C8.80038 10.088 6.76038 10.268 4.80038 9.83799C3.78038 9.34799 4.41038 7.88798 4.95038 7.23798C5.58038 6.32798 6.65038 5.97798 7.71038 5.86798C7.63038 5.81798 7.56038 5.73798 7.49038 5.63798C7.40038 5.48798 7.37038 5.32798 7.37038 5.15798C6.89038 5.16798 6.39038 5.03798 6.32038 4.47798C5.70038 4.48798 5.04038 4.59799 4.43038 4.50799C2.93038 4.06799 4.77038 1.48798 5.67038 1.19798C7.15038 0.637984 8.81038 0.837985 10.3704 0.757985C12.0904 0.747985 13.8104 0.807985 15.5204 0.847985C17.7804 -0.0220146 20.3104 0.537986 22.6504 0.767986C23.9904 0.437986 25.4104 0.707984 26.7504 0.887984C27.1504 0.997984 27.6404 0.917984 27.9604 1.20798C28.2704 1.51798 28.2304 1.95799 28.1104 2.34799C28.1104 2.87799 27.9004 3.29798 27.6804 3.72798C29.2804 2.86798 29.2404 5.44798 28.7204 6.29798C28.9204 7.26798 28.6904 8.20798 28.5104 9.15798C28.5104 9.74798 28.6004 10.338 28.6404 10.918C28.4804 13.278 28.9504 16.058 27.4904 18.078C27.0304 18.638 26.3504 19.288 25.5704 19.208C25.4604 19.418 25.3504 19.628 25.2204 19.828C25.3604 20.168 25.2204 20.648 25.1104 20.948C25.0504 21.098 24.9804 21.248 24.9104 21.378C25.9504 22.358 23.8404 25.048 22.6004 24.718H22.6104ZM17.3604 4.62798C17.4504 4.60798 17.5404 4.58798 17.6304 4.56798C17.5904 4.56798 17.5504 4.56798 17.5004 4.55798C17.4704 4.55798 17.4404 4.55798 17.4204 4.55798C17.4004 4.58798 17.3804 4.60798 17.3604 4.63798V4.62798Z" fill="#F4D600"/>
<path d="M1.69048 46.6381C0.460478 45.4581 0.110477 44.0381 1.07048 42.5681C0.120477 40.8781 0.190478 38.8281 0.150478 36.9481C0.140478 35.5781 0.110477 34.1981 0.370477 32.8481C0.400477 29.4481 0.270478 26.3081 0.300478 22.9781C0.150478 20.3781 0.130478 17.7681 0.180478 15.1581C0.140478 14.0181 -0.00952267 12.8881 0.000477333 11.7381C0.0604773 9.83812 0.0504778 7.93812 0.0204778 6.03812C0.120478 5.16812 -0.029522 4.19812 0.360478 3.38812C0.930478 2.49812 1.99048 3.59812 2.34048 4.18812C3.02048 5.21812 3.06048 6.48812 3.18048 7.67812C3.53048 7.03812 3.83048 6.28812 4.42048 5.81812C4.81048 5.60812 5.31048 5.90812 5.62048 6.14812C6.60048 6.01812 7.31048 7.00812 7.70048 7.77812C8.39048 7.08812 9.02048 7.61812 9.53048 8.21812C10.4405 6.23812 11.5905 7.04812 12.3705 8.57812C13.3205 7.23812 14.7605 8.95812 15.0705 9.98812C15.0505 8.80812 15.9205 8.73812 16.6405 9.47812C16.7805 9.12812 17.1205 8.88812 17.4805 8.84812C18.0105 7.74812 18.6805 7.57812 19.5905 8.42812C20.4105 9.17812 20.7805 10.3381 20.8905 11.4281C21.9905 11.5981 22.6305 12.8281 22.8505 13.8081C23.1905 15.6481 23.2905 17.5181 23.4605 19.3781C23.5505 20.3481 23.6305 21.3181 23.7605 22.2781C23.9205 23.1081 24.1805 24.1481 23.5505 24.8381C22.9805 25.3381 22.2605 24.6281 21.9105 24.1781C20.6505 24.0481 19.9105 22.7081 19.6105 21.5881C18.7405 22.1481 17.8505 20.7781 17.5205 20.0881C17.3905 20.9481 17.4405 21.8781 17.0805 22.6881C16.6705 23.4181 16.3805 23.8481 15.5705 23.2781C14.7405 22.6981 14.3905 21.6681 14.1605 20.7281C14.0405 21.4481 14.2405 23.6081 13.6205 23.9481C13.0105 24.1881 12.4605 23.5781 12.1105 23.1581C10.8905 23.1581 10.2005 21.7881 9.89048 20.7781C9.84048 21.1781 9.74048 21.5381 9.59048 21.9181C9.26048 22.6581 8.35048 22.0181 8.02048 21.6381C7.92048 22.3181 8.14048 23.1281 7.74048 23.7181C6.93048 24.3081 6.08048 23.1481 5.74048 22.4681C4.88048 22.5881 4.30048 21.6181 3.93048 20.9781C4.05048 21.7581 3.64048 22.5481 2.79048 22.0081C2.90048 23.8181 2.91048 25.6381 2.92048 27.4581C3.42048 28.3781 3.58048 29.4081 3.70048 30.4381C3.93048 32.4181 3.96048 34.4181 4.00048 36.4081C4.14048 38.6681 4.29048 40.9381 3.98048 43.1881C4.26048 43.7981 4.37048 44.4981 4.09048 45.1081C4.14048 45.5781 4.14048 46.0481 3.84048 46.4381C3.73048 46.5881 3.54048 46.6381 3.38048 46.7281C2.89048 47.4081 2.22048 47.1481 1.70048 46.6481L1.69048 46.6381Z" fill="#F4D600"/>
<path d="M26.8504 46.728C25.5604 46.348 24.7904 45.508 23.9604 44.738C23.0104 43.948 21.9904 43.218 21.2904 42.188C20.3004 40.988 19.1704 39.908 18.0004 38.878C16.5504 38.178 14.8204 38.688 13.4104 37.908C12.3404 38.868 11.4004 39.948 10.2904 40.868C9.63036 41.718 9.14036 42.728 8.19036 43.308C7.05036 43.938 6.11036 44.808 5.33036 45.838C4.43036 46.888 1.30036 44.868 1.91036 43.628C2.42036 42.878 2.31036 41.858 2.28036 40.988C2.28036 39.378 1.58036 37.878 1.49036 36.278C1.31036 33.668 1.31036 31.038 1.38036 28.428C1.47036 25.908 1.71036 23.398 2.04036 20.898C2.14036 19.788 2.04036 18.718 3.57036 19.148C3.64036 18.648 3.71036 18.138 3.79036 17.638C4.16036 16.768 5.46036 17.338 6.05036 17.688C6.19036 17.238 6.30036 16.568 6.88036 16.538C8.10036 16.468 9.29036 17.338 9.86036 18.368C10.0804 18.368 10.3104 18.418 10.4804 18.468C10.5104 18.468 10.5304 18.478 10.5604 18.488C10.2104 16.188 13.0704 17.288 13.8704 18.348C14.6504 18.718 15.4904 19.318 15.6704 20.218C15.7304 19.788 15.9204 19.358 16.3504 19.188C16.5404 19.118 16.7504 19.098 16.9604 19.108C16.9304 18.238 16.5304 15.628 17.6304 15.408C18.7904 15.148 20.0304 15.988 20.6404 16.918C21.0704 17.648 21.2204 18.528 21.4104 19.348C21.4904 17.688 21.5204 16.028 21.5204 14.368C21.6704 13.238 23.3304 13.908 23.9204 14.308C24.0204 13.658 24.2904 13.058 24.3904 12.408C24.4404 12.098 24.5004 11.828 24.6504 11.548C24.8904 11.258 25.1004 10.938 25.3704 10.678C26.1304 10.178 27.1304 10.628 27.8104 11.058C29.0504 11.788 29.4904 13.168 29.4104 14.538C29.6204 15.498 29.7604 16.448 29.6504 17.428C29.6804 18.288 29.5104 19.108 29.3404 19.948C29.1604 21.768 28.8704 23.588 28.7504 25.418C28.4804 27.078 28.7204 28.748 28.4504 30.408C28.3504 33.738 29.4304 36.968 29.7004 40.278C29.7004 41.258 30.8304 43.538 29.2804 43.678C29.3204 44.478 29.9204 45.618 28.8704 45.978C28.7004 46.888 27.5804 46.968 26.8704 46.718L26.8504 46.728Z" fill="#F4D600"/>
</svg>
