<?xml version="1.0" encoding="UTF-8"?>
<svg id="Layer_1" data-name="Layer 1" xmlns="http://www.w3.org/2000/svg" viewBox="0 0 111 113">
  <defs>
    <style>
      .cls-1 {
        stroke: #000;
        stroke-miterlimit: 10;
      }
    </style>
  </defs>
  <path class="cls-1" d="M23.52,100.58c-1.96-1.43-3.88-2.94-5.6-4.64-1.14-1.3-2.08-2.78-3.2-4.13-.52-.67-4.14-4.11-3.67-4.63-.58-.81-1.14-1.64-1.64-2.5.23.45.54.91.58,1.43,0,.11-.03.23-.15.28-.11.03-.21-.03-.24-.13-.16-.36-.31-.73-.45-1.1-1.14-2.03-2.11-4.16-3-6.3-.34-.63-.7-1.25-.94-1.93-.05-.19-.06-.41,0-.6-.05-.13-.1-.26-.15-.39-.02-.06-.05-.13-.06-.19-.24,0-.41-.23-.47-.44-.63-1.8-1.04-3.65-1.31-5.54-.11-.86-.54-1.74-.37-2.6v-.06c-.05-.45-.1-.91-.15-1.36-.47,2.13-1.49-1.19-1.51-1.85-.34-2.66-.05-5.36.32-7.99.13-2.27.44-4.55.7-6.8-.34-.84-.1-1.85-.13-2.76.15-2.09.41-4.21,1.04-6.22,1.06-3.36,3.38-6.07,5.06-9.08,1.38-2.6,3-5.05,4.77-7.41.41-.54.83-1.09,1.28-1.59.21-.19.42.18.36.37,2.06-2.37,4.22-4.64,6.4-6.9,1.01-1.02,2.03-2.03,3.15-2.94.08-.06.19-.03.24.05.18.31-.26.52-.42.73-1.22,1.12-2.47,2.22-3.59,3.44,2.5-2.19,5.13-4.27,7.91-6.09.15-.08.24-.19.37-.29.23-.11.39.19.28.37-3.41,2.39-6.67,4.79-9.76,7.6-1.66,1.45-2.95,3.23-4.37,4.9-1.87,2.16-3.25,4.68-4.68,7.13-2.01,3.51-3.98,7.06-5.37,10.85-.45,1.88-.84,3.78-1.06,5.7.1.88.05,1.75.06,2.63-.1,4.32.16,8.66.49,12.96.45,5.51,1.07,11.21,3.39,16.29,1.43,2.96,3.51,5.52,5.34,8.23.47.67.93,1.33,1.4,2.01.06.1.06.24-.02.34-.08.08-.23.08-.29-.02-.54-.84-1.1-1.66-1.67-2.48-2.31-3.36-4.9-6.63-6.14-10.57-1.4-4.35-1.98-8.92-2.34-13.46-.31-4.24-.62-8.46-.54-12.7-.39,6.01-.5,12.05.34,18.03.71,3.38,1.82,6.67,2.87,9.97,2.01,4.27,4.66,8.19,7.44,12,1.75,2.03,3.56,4.01,5.49,5.86.83.76,1.7,1.48,2.48,2.29.05.05.06.11.06.19.6.57,1.23,1.1,1.79,1.72.16.18-.05.54-.28.37l-.06-.05ZM2.19,65.84c.26-1.14-.05-2.39-.05-3.51-.1-1.71-.21-3.35-.29-5.02-.05.28.1.8-.28.86-.15,2.53-.6,5.34.63,7.68l-.02-.02ZM2.68,60.87c0-1.98,0-3.95.05-5.93-.1,1.98-.16,3.96-.05,5.93ZM2.38,47.16v.23c.06-.47.13-.93.19-1.4.05-.32.1-.67.15-.99-.05.05-.13.06-.19.03-.06.71-.11,1.43-.13,2.13h-.02ZM3.29,46.43h.03c.05-.5.15-.99.23-1.48-.1.49-.19.99-.26,1.49v-.02ZM2.63,43.93c.36-.86.5-1.75.55-2.7.03-.29.42-.24.41.05.89-2.37,1.93-4.69,2.97-7.02-2,2.89-3.57,6.14-3.93,9.66ZM5.31,38.49c.84-2.27,1.82-4.48,2.91-6.66-1.12,2.14-2.06,4.35-2.95,6.59.03.02.05.03.06.06h-.02ZM7.53,34.2c.32-.63.68-1.25,1.02-1.87-.05-.16.05-.34.1-.5-.18.36-.36.71-.54,1.09v-.02c-.19.44-.41.88-.6,1.32l.02-.02Z"/>
  <path class="cls-1" d="M103.36,30.53c-.44.02-.7-.37-1.02-.6-.1-.08-.05-.23.03-.31.18-.16.36,0,.49.11-1.57-2.79-3.94-4.95-6.07-7.32-.78-.89-1.56-1.79-2.32-2.7-.06-.08-.03-.21.05-.26-1.19-1.1-2.35-2.22-3.49-3.38-.45-.44-.86-.93-1.14-1.49-.03-.06-.02-.13,0-.18-1.83-1.27-3.7-2.48-5.63-3.57-.13.57-1.25-.32-1.61-.42,1.35.81,2.68,1.64,3.98,2.52,1.1.73,2.09,1.66,3.28,2.26.13.05.15.21.08.31-.23.31-.58-.02-.83-.15-3.83-2.79-7.79-5.46-12.09-7.47-1.4-.62-2.84-1.1-4.29-1.59-.36-.11-.71-.26-1.06-.42-.08-.05-.11-.15-.08-.23-4.33-1.23-8.8-1.97-13.28-2.37-2.97.03-5.93.24-8.88.6-.26.41-.83.42-1.27.5-3.8.97-7.52,2.29-11.22,3.56-2.56,1.07-5.11,2.22-7.69,3.26-1.06.44-2.13.83-3.2,1.22-.08.02-.16.02-.23-.03-1.96,1.19-3.51,2.89-5.08,4.53-.57.5-2.81,3.36-3.49,2.6-1.12,1.17-2.09,2.44-3.07,3.72-.28.36-.55.8-1.02.93-.78.89-1.49,1.88-2.35,2.7-.06.06-.16.11-.28.08-.39-.19.24-.78.37-1.01.45-.63.93-1.28,1.41-1.9.71-.88,7.24-9.58,7.84-8.32,1.4-1.32,2.97-2.4,4.5-3.54.54-.41,1.07-.84,1.64-1.2.08-.06.21-.06.29,0,3.34-2.11,7.03-3.64,10.75-4.95-.21-.67,1.7-.89,2.16-1.01-.96-.08-1.04-.24-.23-.84.84-.57,1.87-.83,2.82-1.15,4.27-1.23,8.85-1.84,13.26-1.36,1.88-.05,3.75,0,5.62.15.31-.19.84.11,1.2.13,2.66.21,5.26.81,7.87,1.38.24.08.8.13.7.49-.15.26-.47.08-.7.08,3.28.96,11.87,3.54,13.72,6.22,3.34,1.93,6.62,4.01,9.59,6.51,1.02.84,2,1.75,2.94,2.7.06.06.06.16.02.24-.41.57-1.23-.37-1.62-.62-1.27-1.09-2.45-2.29-3.67-3.43,2.55,2.65,5.32,5.03,7.89,7.67.71.73,1.41,1.49,2.08,2.27.16.28-.29.47-.5.36.32.39,3.96,4.76,2.84,4.74h-.02ZM100.06,25.01c-.89-1.04-1.85-1.98-2.81-2.92.94.96,1.7,2.14,2.81,2.92ZM17.81,19.19c1.41-.96,2.43-2.4,3.67-3.56-1.22.97-2.35,2.03-3.44,3.12-.1.15-.16.28-.23.44ZM28.42,10.96c-.28.16-.54.34-.8.52,1.7-.63,3.36-1.36,5.03-2.08-.8.05-1.49.54-2.26.73-.73.11-1.36.41-1.96.83h-.02ZM30.61,9.63c.26-.1.52-.19.78-.29.08-.03.18-.06.26-.1,0-.05.03-.08.06-.11.11-.1.23-.19.32-.28-.41.21-.83.44-1.23.67-.06.05-.13.08-.19.13v-.02ZM77.06,6.84c1.95.7,3.77,1.69,5.58,2.65-4.42-2.94-9.61-4.35-14.66-5.73-1.98-.52-3.98-1.01-5.99-1.43-1.87-.24-3.75-.21-5.63-.28-.32,0-.67.03-.99.03-.36.19-.75.34-1.15.39,1.62,0,3.25-.03,4.84.28.1,0,.18.11.15.21,1.04.08,2.06.23,3.08.37-.49-.1-.96-.23-1.43-.39-.1-.03-.15-.13-.11-.23.03-.1.13-.16.24-.16,2.47.24,4.89.89,7.29,1.49,2.99.83,5.86,2,8.69,3.25-.05-.05-.11-.1-.16-.15-.16-.16.08-.41.26-.34v.03ZM32.71,8.78c1.02-.44,2.05-.88,3.05-1.36-1.09.29-2.14.7-3.05,1.36ZM37.19,7.16c-.83.39-1.66.8-2.5,1.19,2.06-.67,4.04-1.59,6.06-2.37-1.19.37-2.45.57-3.56,1.17v.02ZM44.57,4.89c-.21.13-.45.24-.68.34,1.25-.41,2.5-.76,3.77-1.12-1.01.1-1.96.42-2.95.63-.02.06-.06.11-.13.15ZM39.9,4.64c2.58-.15,4.97-1.36,7.55-1.66-.36-.5.86-.41,1.12-.45.55-.45,1.33-.45,2.01-.55-2.76.11-5.54.63-8.17,1.38-1.01.36-2.16.6-3.02,1.25.08,0,.15.02.19.03h.31ZM49.46,3.16c-1.04.19-2.06.47-3.08.7,1.19-.13,2.32-.49,3.46-.76-.13.02-.24.05-.37.06ZM52.59,3.02s-.16.1-.23.15l-.03.02c.88-.06,1.75-.16,2.63-.19-.36,0-.7-.02-1.06-.03-.41,0-.81-.03-1.22-.05,0,.05-.05.1-.1.11Z"/>
  <path class="cls-1" d="M84.1,101.24c0-.13.06-.24.21-.24h.05c.13,0,.26-.03.37-.05.21-.05.42-.13.63-.21.37-.16.73-.36,1.06-.55.55-.36,1.09-.73,1.64-1.1.31-.21.63-.44.94-.65.31-.21.62-.42.93-.65.44-.32.88-.63,1.31-.96.06-.05.11-.1.18-.13l.57-.45c.31-.26.63-.5.94-.76.1-.1.21-.19.32-.29.23-.21.45-.42.68-.63.24-.23.49-.44.73-.68.39-.41.78-.8,1.17-1.2.23-.24.44-.49.67-.73.32-.36.65-.73.97-1.09.28-.29.54-.62.8-.91.31-.36.62-.7.93-1.06.1-.11.18-.21.28-.32.19-.24.39-.47.58-.7.1-.11.19-.23.29-.34.16-.21.32-.42.44-.62.05-.08.08-.18.11-.26.05-.11.18-.13.28-.06.1.06.15.19.1.31-.05.11-.11.23-.18.34-.06.11-.15.23-.23.32-.08.11-.16.23-.26.32-.16.19-.31.37-.47.57-.24.29-.47.57-.71.86-.36.41-.71.83-1.09,1.23-.21.24-.42.49-.63.73-.37.42-.75.83-1.12,1.25-.11.11-.21.24-.32.36-.1.11-.21.21-.31.32-.37.37-.73.76-1.1,1.14-.06.08-.15.15-.23.21-.21.19-.42.39-.63.6-.19.19-.41.37-.62.57-.06.06-.15.13-.21.19-.42.34-.84.68-1.27,1.02-.11.08-.21.18-.32.26-.15.11-.31.23-.45.34-.24.18-.49.37-.75.55-.11.08-.23.16-.34.24-.58.42-1.19.83-1.77,1.25-.44.29-.86.6-1.3.89-.42.28-.84.54-1.3.75-.41.18-.84.32-1.3.32-.13,0-.24-.15-.24-.26l-.02-.05Z"/>
  <path class="cls-1" d="M94.83,92.96c-.18-.19.02-.37.13-.52.8-.99,1.59-1.98,2.45-2.91,3-3.72,5.73-7.68,7.65-12.08-.6-.13.28-1.07.47-1.3.15-.16.39.06.34.23-.08.49-.29.94-.5,1.38-1.57,3.62-3.7,6.97-6.09,10.12.16.06.21.29.08.41-.57.5-1.12,1.02-1.64,1.59-.68.84-1.35,1.66-2.03,2.48-.21.18-.58.89-.88.58l.02.02Z"/>
  <path class="cls-1" d="M98.94,89.37c1.96-5.51,5.02-10.56,7-16.05.62-2.06.59-4.24.96-6.35.57-4.17,1.1-8.35,1.36-12.55.21-2.73-.31-5.46-.5-8.17-.19-1.61-.84-3.15-.96-4.77-1.19-2.34-2.16-4.77-3.39-7.08-1.43-2.73-2.99-5.42-4.53-8.06-1.06-1.72-2.06-3.54-3.57-4.92-.23-.18,0-.58.26-.32,2.05,1.97,3.3,4.56,4.76,6.95,2.16,3.7,4.29,7.44,5.93,11.42-.49-1.88-1.27-3.64-1.93-5.46-.08.13-.29.08-.34-.05-.76-1.48-1.54-2.94-2.34-4.42-.52-1.04-1.15-2.05-1.56-3.13-.08-.24-.24-.57-.05-.8.63-.55,1.51,1.58,1.82,1.95.32.34.45.8.63,1.22.44.91.91,1.8,1.36,2.7.1-.02.19.05.23.13.29.6.54,1.22.73,1.85.71,1.88,1.61,3.7,2.21,5.64.26.76,1.88,3.72,1.2,4.22.6,2.35.71,4.79,1.2,7.16.16.89.29,1.8.34,2.71,0,.13-.1.26-.24.21.08,1.02.15,2.06.16,3.09.86,4.08-.29,8.35-1.57,12.23.06.05.11.15.1.24-.08.45-.2.91-.34,1.35-.47,1.58-1.02,3.13-1.61,4.68-1.2,2.91-2.06,5.93-3.26,8.82-.73,1.87-1.79,3.59-3.05,5.13-.23.23-.42.73-.71.81-.15,0-.29-.18-.23-.34l-.05-.03ZM103.86,79.37c-1.35,2.94-2.84,5.81-3.98,8.85.5-.65.99-1.32,1.41-2.01-.28-.13-.13-.47-.08-.7.02-.08.1-.13.18-.15,1.06-2.31,2.17-4.61,2.95-7.05-.16.36-.32.71-.49,1.07v-.02ZM107.95,61.99c-.26,2.32-.6,4.64-.89,6.97.41-1.67.67-3.31.97-5-.28-.73-.05-1.59-.05-2.35,0,.13-.03.26-.05.39h.02ZM108.57,64.86c-.06.52-.15,1.04-.24,1.54-.02.1-.03.18-.05.28.68-2.26,1.15-4.56,1.22-6.92-.21,1.72-.7,3.38-.93,5.1ZM108.89,55.54c.02.37.03.75.05,1.12,0,.39.03.78.03,1.17.13-.45-.11-1.1.29-1.45-.08-1.92-.15-3.85-.44-5.75-.05,1.64-.11,3.28.06,4.92v-.02ZM101.16,27.79c.57,1.12,1.17,2.22,1.75,3.33-.31-.8-.67-1.59-1.01-2.35-.44-.94-.8-1.98-1.54-2.73.21.62.5,1.19.8,1.75Z"/>
  <path class="cls-1" d="M59.67,111.49c-.18-.03-.32-.23-.18-.37-5.93,0-11.74-1.38-17.56-2.32.32.18,1.46.54.68.89-.58,0-1.17-.15-1.74-.26-2.56-.62-4.97-1.77-7.29-3,.19.18.08.47-.18.45-1.02-.15-1.87-.81-2.79-1.23-.06.05-.16.06-.24.03-.71-.41-1.41-.84-2.13-1.27-.89-.5-7.86-4.97-7.27-5.78-.31-.41.62-.63.57-.16.13.1.28.18.41.26.06-.1.21-.15.31-.06,1.12.78,2.27,1.56,3.41,2.31,2.19,1.41,4.37,2.84,6.57,4.22,1.3.68,2.74,1.06,4.17,1.41,5.21,1.46,10.63,2.08,15.99,2.53,2.34.18,4.66.29,7,.44.47.05.94.11,1.4.18.15.02.18.18.11.28-.16.37-.54.5-.91.54-.7.03-1.36.11-2.05.15,1.19.05,2.4.02,3.57-.08,1.33-.44,2.63-.93,3.94-1.4-.26,0-.86-.08-.88-.41,0-.08.08-.16.16-.19.36-.16.71-.28,1.09-.39-2.42.39-4.84.67-7.27.97-3.04,0-6.07-.34-9.11-.52-2.76-.36-5.55-.5-8.28-1.04-3.43-.83-6.83-1.83-10.05-3.26-.18-.18,0-.5.24-.45.31.03.52.24.78.37,4.59,1.38,9.2,2.79,13.96,3.57,2.19.26,4.4.28,6.61.34.1-.23.34-.29.55-.28.57.02,1.14.03,1.7.08,2.91.23,5.83.32,8.7-.18,3.62-.52,7.14-1.62,10.67-2.61,2.84-.85,5.67-1.8,8.34-3.09,1.07-.73,2.13-1.51,3.28-2.1,1.95-1.67,3.96-3.3,6.15-4.63,1.85-1.62,3.75-3.22,5.34-5.08,1.49-1.35,2.48-3.18,3.7-4.77.18-.23.37-.42.62-.55.08-.05.18-.08.26-.02.08.05.1.15.05.24-.13.34-.32.63-.52.94.84-.1-.6,1.43-.71,1.71-.41.5-.76,1.02-1.1,1.58-.05.06-.13.1-.21.11-1.23,1.51-2.48,2.99-3.77,4.43-.68.67-1.25,1.51-2.09,2-2.05,2.06-4.59,3.56-7.08,5.02-.58.52-1.2,1.02-1.83,1.49-.34.24-.73.57-1.17.47-.6.37-1.27.67-1.96.75-3.39,1.82-7,3.23-10.62,4.55-.99.37-2,.65-3.02.93-.26.03-1.01.39-.89-.11-.55.2-1.1.39-1.66.59-.49.18-.97.36-1.46.52,1.51-.28,2.99-.67,4.51-.91.08,0,.18.03.21.11.08.57-2.11.75-2.58.96-1.53.31-3.08.49-4.63.71-.62.15-1.22.45-1.87.44l.03-.03ZM56.81,110.34c1.19,0,2.39-.08,3.56-.24-1.69-.26-3.41-.23-5.1-.37.11,0,.19.1.18.21-.02.11-.13.2-.24.2-.49.03-.97.05-1.46.02,1.02.11,2.05.16,3.07.2ZM41.64,109.17c-1.22-.42-2.4-.97-3.68-1.12,1.2.49,2.42.89,3.68,1.12ZM65.76,108.81c1.25-.02,2.37-.5,3.54-.93,1.1-.39,2.22-.76,3.33-1.15,2.99-1.01,5.83-2.44,8.81-3.39.03-.08.05-.16.1-.23,0,0,.02-.03.03-.05-2.13.96-4.35,1.69-6.57,2.35,0,.1-.05.2-.13.23-.93.49-1.93.8-2.92,1.12-2.18.63-4.37,1.27-6.51,2.01h.32v.03ZM57.4,108.66c.13,0,.26-.02.37-.03h-2.76c.8.06,1.59.06,2.39.03ZM69.66,106.94c-1.2.29-2.4.65-3.62.86,1.62-.28,3.25-.62,4.79-1.19-.39.11-.78.21-1.17.32ZM36.17,107.25c.26.13.52.24.8.37-.02-.03-.03-.08-.03-.13-.24-.1-.5-.16-.76-.24ZM31.39,105.53c.19.1.41.21.6.31.31.16.62.32.94.47-.47-.47-1.04-.83-1.59-1.17-.08.08-.21.11-.31.06-.34-.19-.68-.41-1.02-.6.36.46.88.68,1.38.94v-.02ZM23.86,100.8c1.48,1.09,3.02,2.13,4.59,3.07-1.8-1.41-3.72-2.63-5.63-3.87.32.29.68.54,1.04.8ZM82.89,102.51c-.16.11-.32.23-.49.32.49-.26.97-.5,1.46-.76,0-.02.03-.03.05-.05-.34.16-.7.28-1.02.49ZM86.12,100.46c.1-.05.19-.11.29-.16-.06.03-.13.06-.21.08-.03.02-.05.05-.08.06,0,0,.02,0,.03-.02,0,0-.02.02-.03.03ZM87.27,99.63s.06.08.06.13c.94-.76,1.8-1.66,2.73-2.47-1.02.73-2.01,1.51-2.95,2.32.05,0,.11,0,.16.03v-.02ZM92.25,96.74c-.45.39-.93.76-1.4,1.14.5-.36.99-.73,1.46-1.12,0,0-.02,0-.02.02.21-.18.42-.34.63-.52.11-.1.21-.19.32-.29l-.03-.03c-.31.28-.62.55-.93.83l-.05-.02ZM92.19,95.88c-.71.62-1.4,1.25-2.09,1.9.91-.68,1.74-1.4,2.6-2.14,0-.03.02-.05.03-.08-.21.1-.39.16-.54.32ZM93.15,95.04h.03c.1-.1.21-.19.31-.29-.11.1-.23.19-.32.29h-.02Z"/>
  <path class="cls-1" d="M35.48,66.62c-.28-.58,2.14-1.23,2.58-1.53,2.35-.88,4.84-1.85,7.4-1.72.32.03.21.57-.1.52-2.81-.11-5.52.99-8.08,2.03-.5.24-1.07.39-1.51.75-.08.06-.21.06-.28-.03l-.02-.02Z"/>
  <path class="cls-1" d="M32.38,69.34c-.1-.24.18-.39.32-.52,1.02-.86,2.16-1.54,3.31-2.22,2.6-1.46,5.36-2.57,8.17-3.56.23-.08.47-.15.7-.21.1-.03.19.03.23.13.06.24-.23.36-.39.47-.57.26-1.14.52-1.69.8-.13.06-.28-.06-.26-.19-3.25,1.19-6.46,2.61-9.29,4.66.1-.03.16-.06.24-.1.28-.06.32.37.08.45-.42.15-.83.34-1.28.39-.08,0-.15-.03-.16-.11l.02.02Z"/>
  <path class="cls-1" d="M29.44,72.89c-.63-.13,1.53-2.99,1.79-3.33,2.66-3.36,6.88-4.81,10.81-6.09.49-.16.55.49.11.5-5,1.49-9.85,3.43-12.29,8.4.23-.11.58-.73.84-.44.06.11.02.26-.06.32-.36.24-.7.81-1.19.62l-.02.02Z"/>
  <path class="cls-1" d="M24.72,80.71c-.58-.23,1.2-3.57,1.48-4.08,1.66-2.91,3.43-5.8,5.96-8.04.44-.29,2.13-2.24,2.52-1.51.1.21-.16.54-.37.36-2.76,1.87-4.87,4.58-6.61,7.41-.93,1.59-1.95,3.18-2.52,4.95.29-.42.54-.83.8-1.25.06-.1.18-.16.29-.1.1.06.11.23.06.32-.18.29-.34.57-.52.84-.11.19-.26.39-.37.57-.15.24-.36.62-.7.54l-.02-.02Z"/>
  <path class="cls-1" d="M23.24,99.31c-.18-.1-.26-.31-.31-.49-.28-1.07-.26-2.21-.26-3.31-.24-1.56-.23-3.15-.06-4.71-1.62.1.11-5.62.36-6.56.52-1.77,1.27-3.44,2.01-5.12.55-1.23.91-2.57,1.69-3.7,1.64-2.58,3.64-4.99,6.14-6.79.84-.62,1.62-1.33,2.55-1.82,1.12-.58,2.32-.96,3.46-1.53,2.01-.97,4.06-2.31,6.41-2,.28.08.94,0,.86.39-.03.11-.13.21-.26.19-.83-.23-1.74-.23-2.56-.06-1.92.44-3.54,1.62-5.34,2.34-1.43.57-2.87,1.15-4.04,2.18-2.21,1.54-4.2,3.41-5.75,5.64.06.06.06.18.03.28-.05.11-.16.21-.29.16-.97,1.25-1.51,2.83-2.24,4.24-.49,1.38-.65,2.86-.93,4.29-.41,2.44-.99,4.87-.97,7.36-.03,2.14-.36,4.32-.41,6.45.05.71.13,1.43.37,2.11.19.29-.18.62-.47.47h.02ZM22.53,90.33s.1-.08.15-.11c.23-2.27.57-4.55.97-6.8-.44,1.45-1.83,5.7-1.12,6.92ZM23.99,84.04c0,.16-.03.34-.05.5-.02.31-.05.63-.06.94.28-1.61.58-3.22.88-4.82-.31.7-.62,1.41-.88,2.13.5-.15.06.96.11,1.25Z"/>
  <path class="cls-1" d="M39.98,31.93c-.45-.55,2.6-2.44,3.05-2.89,1.79-1.48,3.8-2.7,5.96-3.52,1.46-.58,3.04-.39,4.56-.28.31.03.23.54-.06.52-1.15-.06-2.34-.28-3.49-.03-2,.5-3.83,1.56-5.52,2.71-1.33,1.15-2.89,2.05-4.11,3.33-.1.13-.24.31-.39.18v-.02Z"/>
  <path class="cls-1" d="M43.65,64.6c-.76-.99-1.83-1.67-2.86-2.39-1.66-1.22-2.81-3.02-3.57-4.9-.24-.86-.65-1.62-1.07-2.42-.34-.47-.7-.93-.91-1.48-.68-2.21-.63-4.6-.75-6.89-.02-1.48.31-2.92.49-4.4.06-1.23.58-2.37.8-3.56.02-2.5,1.62-4.53,3.3-6.24-.78-.99,2.74-3.25,3.49-3.77,1.25-.84,2.65-1.45,4.11-1.87.96-.32,1.92-.63,2.84-1.04.16-.08.32.1.29.26.6-.34,1.59-.83,2,0,.52.18.02.94-.31.45-1.7-.08-3.21.83-4.66,1.61-1.12.58-2.19,1.25-3.26,1.95-.58.47-1.17.93-1.75,1.4-.06.05-.15.06-.21.03-1.61,1.27-2.14,3.26-2.94,5.05-1.06,2.71-2.53,5.31-2.87,8.23.37.44.73,4.92.11,5.03.29,1.23.55,2.57,1.09,3.7.15.36,1.96,2.68.97,2.63-.28-.1-.29-.42-.41-.65-.24-.52-.47-1.09-.89-1.49-.05-.03-.11-.05-.18-.05.34,1.41,1.1,2.63,1.98,3.77.88,1.15,1.9,2.18,3.25,2.76.45.21.93.5,1.43.57.57,0,1.09.26,1.46.67.49.54,1.04.97,1.67,1.3.19.13.42.23.55.42.42.94-2.99.1-3.38-.06.15.28.94,1.45.16,1.33l.03.03ZM45.69,63.21h.11c-.83-.37-1.3-1.22-2.08-1.64-1.09-.16-2.05-.62-2.99-1.19.67.8,1.49,1.38,2.19,2.13.88.37,1.83.62,2.76.68v.02ZM36.33,53.19s.03.15.06.21c.05-.02.08-.03.13-.03-.15-.34-.26-.7-.37-1.06-.03-.1-.05-.18-.08-.28.08.39.16.78.26,1.15ZM35.65,52.16s.03.11.05.18c-.32-1.36-.37-2.79-.57-4.16-.15,1.36,0,2.73.52,3.98ZM35.73,48.43s.05.13.08.18c.03-.93-.05-1.8-.13-2.73-.03.84-.23,1.72.05,2.53v.02ZM35.18,43.77c-.03.26-.06.52-.1.8v.08c.19-.83.49-1.64.81-2.44.24-1.15.49-2.29.73-3.43-.41.54-.49,1.22-.68,1.85-.26,1.06-.6,2.08-.73,3.15l-.03-.02ZM37.17,38.07c-.13.67-.29,1.33-.44,2,.99-2.39,1.93-4.79,3.02-7.11.88-1.46,2.26-2.53,3.68-3.43,1.31-1.09,2.76-2.06,4.35-2.7-1.19.47-2.53.67-3.6,1.36-.52.73-1.19,1.35-1.85,1.95-1.74,1.56-3.73,2.86-5,4.86h.06c.08,0,.13.05.18.11.97-.15-.49,2.4-.42,2.97l.02-.02ZM39.38,31.93s.08-.02.13-.03c1.02-1.01,2.09-1.93,3.17-2.87-1.17.84-2.56,1.62-3.3,2.91Z"/>
  <path class="cls-1" d="M62.72,64.02c-.1-.08-.1-.23,0-.31.78-.54,1.54-1.09,2.32-1.64,1.23-.76,2.56-1.3,3.72-2.16.93-.65,1.61-1.53,2.39-2.32,1.06-.99,2.29-1.95,2.71-3.39.42-1.35.78-2.78,1.1-4.14.18-1.01.06-2.05.02-3.07-.15-1.53.39-3.05.13-4.58-.24-.11-.23-.5-.36-.71-.23-.68-.52-1.33-.81-2-1.62-3.28-3.77-6.35-6.59-8.72-1.46-1.23-2.89-2.55-4.55-3.52-1.49-.81-3.1-1.41-4.72-1.9-2.16-.58-4.58-.86-6.59.24-.24.11-.58.31-.81.06-.31-.57,2.08-1.43,2.52-1.54-.05-.31.42-.32.63-.31,1.07.11,2.16,0,3.23.19,1.8.36,3.57.93,5.26,1.61,1.15.65,2.42,1.15,3.43,2.03.97.71,2.05,1.33,2.97,2.11.42.36.83.73,1.12,1.2.08.15-.08.29-.21.29-.32.03-.6-.19-.88-.36,1.33,1.43,2.82,2.74,3.93,4.37,1.54,2.53,3.07,5.36,2.97,8.41-.08.94-.24,1.87-.21,2.81.03,1.15.19,2.32,0,3.46-.31,1.32-.67,2.61-1.04,3.91-.41,1.69-1.77,2.78-2.99,3.9-.81.84-1.56,1.77-2.53,2.42-1.35.99-2.99,1.54-4.29,2.58-.45.44-1.04.68-1.53,1.09-.1.1-.28.08-.37,0l.03-.02ZM70.79,33.86c1.2,1.45,2.21,3.04,3.08,4.69-.86-1.75-1.77-3.48-3.2-4.82.03.05.08.1.11.13ZM64.74,28.24c1.1.88,2.19,1.77,3.25,2.71-1.02-1.02-2.14-1.93-3.33-2.76l.06.05h.02ZM60.18,25.58c2.03.73,4.06,1.61,5.75,2.99-1.79-1.48-3.98-2.58-6.22-3.17.16.06.31.11.47.18ZM57.92,24.78h.13c-.13-.03-.26-.06-.39-.1.1.03.18.06.28.08l-.02.02ZM53.39,24.68s.13-.02.18-.03h-.05s-.1.02-.13.03Z"/>
  <path class="cls-1" d="M73.79,51.07c0-.31.5-.31.54-.02,0,.31-.5.31-.54.02Z"/>
  <path class="cls-1" d="M72.19,55.65c-.44-.15.26-1.02.41-1.27.18-.23.47-.39.55-.68.21-.7.28-1.41.44-2.13.03-.13.19-.19.31-.16.13.03.23.13.19.28-.21.83-.21,1.75-.65,2.5-.19.28-.5.45-.65.76-.18.23-.21.81-.62.7h.02Z"/>
  <path class="cls-1" d="M82.17,102.36c-.57-.16.47-2.92.54-3.49.67-1.87.45-3.85.8-5.77.41-1.59.15-3.22.11-4.82-.11-1.58-.23-3.15-.67-4.68-.15-.96-.45-1.9-.42-2.87-.29-.81-.63-1.59-.97-2.39-.93-2.27-2.65-4.11-3.54-6.38-.03-.28-.41-.75-.06-.88-1.02-1.32-1.93-2.76-3.49-3.49-.78-.49-1.57-.96-2.37-1.41-.55-.26-1.04-.75-1.66-.78.29.06.81.75.24.75-.6-.15-1.06-.65-1.62-.84-1.19-.47-2.6.32-3.64-.6-.21-.13-.45-.41-.31-.67-.31-.15-.65-.28-.88-.52-.34-.58.47-.83.93-.76.6.05,1.17.24,1.74.44.11.03.21.16.19.29-.1.37-.55,0-.78-.02-.55-.15-1.12-.36-1.66-.13.08.05.18.11.26.16.19.1.41.19.62.29,1.74-.42,3.43.29,5.02.91,1.33.62,2.86.73,4.17,1.45,2.24,1.06,3.81,3.04,5.13,5.07.83,1.28,1.79,2.48,2.42,3.87,1.02,2.22,1.66,4.61,2.14,7.02.41,2.13.94,4.21,1.2,6.35.26,2.68.28,5.34.08,8.02-.11,1.04-.29,2.08-.58,3.07-.08.84-.29,1.88-1.1,2.29-.11.18-.29.32-.5.21-.75-.16-.23-1.53-.31-2.08-.24.78-.47,1.58-.76,2.36-.03.08-.13.11-.21.1l-.05-.05ZM83.54,101.53c.81-.93,1.2-2.11,1.12-3.33,0-1.4-.03-2.79-.03-4.19-.23,1.46-.62,2.89-1.02,4.32.05,1.07-.03,2.13-.08,3.2h.02ZM85.03,87.57c.06,3.25-.03,6.5.06,9.74.41-3.26.37-6.61-.08-9.86v.13l.02-.02ZM84.28,91.22c.05-.15.11-.29.16-.45,0-.03.03-.05.06-.06v-.03c0-.06,0-.15-.03-.21-.08.24-.15.5-.19.75v.02ZM84.02,88.09c.02.26.03.52.05.78.02.44.03.88.05,1.32.1-.21.24-.71.54-.41.08-3.28-.39-6.54-1.35-9.68-.5-1.75-.81-3.61-1.62-5.26-1.12-2.06-2.71-3.87-4.48-5.38.83,1.22,5.5,6.46,4.2,7.62.52,1.06.97,2.1,1.4,3.18.11,0,.21.08.24.18.15.49.19,1.01.36,1.48.21.78,1.25,3.93.49,4.35.05.6.1,1.2.15,1.82h-.02ZM81.2,76.49c.06-.49-.26-.93-.45-1.36-.47-.89-1.04-1.71-1.62-2.52.75,1.25,1.28,2.68,2.08,3.88ZM78.13,69.73c.24.23.47.45.71.7-.21-.31-.42-.62-.65-.91-.05.06-.15.08-.23.05.06.05.11.1.18.16h-.02ZM75.14,66.97c.62.36,1.2.78,1.8,1.19-.67-.62-1.35-1.15-2.13-1.56.11.11.21.26.34.36l-.02.02ZM69.61,64.83c-.36-.16-.73-.32-1.1-.45.36.23.68.47,1.1.45ZM67.14,64.7c-.16-.03-.31-.08-.47-.11-.36-.1-.71-.21-1.07-.34,0,0-.02,0-.03.02.44.37,1.01.52,1.56.44h.02ZM66.59,64.12c.23.06.47.11.7.18.15.03.28.06.42.11-.1-.06-.19-.13-.31-.19-.03-.02-.06-.05-.08-.08-.24,0-.49-.02-.73,0v-.02Z"/>
</svg>