<svg width="111" height="113" viewBox="0 0 111 113" fill="none" xmlns="http://www.w3.org/2000/svg">
<path d="M22.9054 100.935C20.9047 99.4794 18.9536 97.941 17.2009 96.2041C16.0435 94.8808 15.0845 93.3755 13.9436 92.0026C13.4145 91.3243 9.7273 87.8175 10.2068 87.2882C9.61156 86.4611 9.04939 85.6175 8.53682 84.7408C8.7683 85.2039 9.08246 85.6671 9.13207 86.1964C9.13207 86.3122 9.09898 86.428 8.98324 86.4776C8.86749 86.5107 8.7683 86.4446 8.73523 86.3453C8.56988 85.9814 8.42107 85.6009 8.27226 85.2205C7.11484 83.1528 6.12275 80.9858 5.21335 78.8023C4.86612 78.1572 4.50238 77.5286 4.25436 76.8339C4.20476 76.6354 4.18822 76.4203 4.25436 76.2218C4.20476 76.0895 4.15514 75.9571 4.10553 75.8248C4.089 75.7586 4.05594 75.6925 4.03941 75.6263C3.79139 75.6263 3.62603 75.3947 3.55989 75.1797C2.91504 73.3436 2.50168 71.4578 2.22059 69.539C2.10485 68.6623 1.67495 67.769 1.8403 66.8923C1.8403 66.8758 1.8403 66.8427 1.8403 66.8261C1.7907 66.363 1.7411 65.8998 1.69149 65.4366C1.21199 67.6036 0.170298 64.2291 0.153763 63.5509C-0.193464 60.8381 0.104154 58.0921 0.48445 55.4124C0.616727 53.0965 0.930897 50.7807 1.19545 48.4814C0.848224 47.6213 1.09624 46.5957 1.06317 45.6693C1.21198 43.5355 1.47654 41.3851 2.12139 39.3339C3.19613 35.9098 5.56058 33.1473 7.28017 30.0871C8.68562 27.4404 10.3391 24.9426 12.1414 22.5441C12.5547 21.9982 12.9846 21.4358 13.4476 20.923C13.6625 20.7245 13.8775 21.105 13.8114 21.3035C15.9113 18.8884 18.1103 16.5725 20.326 14.2733C21.3511 13.2311 22.3928 12.2056 23.5337 11.2792C23.6164 11.2131 23.7321 11.2461 23.7817 11.3288C23.9636 11.6431 23.5172 11.8582 23.3518 12.0732C22.1117 13.2146 20.8386 14.3394 19.6977 15.5801C22.244 13.3469 24.9226 11.2296 27.75 9.37694C27.8988 9.29423 27.998 9.17842 28.1303 9.07917C28.3618 8.96338 28.5271 9.27767 28.4114 9.45963C24.9391 11.8913 21.6157 14.3394 18.4741 17.2011C16.7876 18.6733 15.4648 20.4929 14.0263 22.1967C12.1248 24.3968 10.7194 26.9607 9.26435 29.4585C7.21406 33.0315 5.21335 36.6541 3.79137 40.5083C3.3284 42.4272 2.93158 44.3625 2.71663 46.3145C2.81584 47.2077 2.76622 48.101 2.78276 48.9942C2.68355 53.3943 2.94811 57.8109 3.2788 62.1945C3.74177 67.8021 4.37011 73.6082 6.73455 78.7858C8.1896 81.7963 10.306 84.4099 12.1744 87.1724C12.6539 87.8506 13.1169 88.5288 13.5964 89.2235C13.6625 89.3228 13.6626 89.4717 13.5799 89.5709C13.4972 89.6536 13.3484 89.6536 13.2822 89.5544C12.7366 88.6942 12.1579 87.8671 11.5792 87.0235C9.23127 83.5994 6.58573 80.2745 5.3291 76.2549C3.90713 71.8217 3.31188 67.1735 2.94812 62.5419C2.63396 58.2245 2.3198 53.9236 2.40247 49.6063C2.00564 55.7267 1.88991 61.8802 2.74971 67.9675C3.47723 71.4082 4.60157 74.7661 5.67632 78.1241C7.72661 82.4746 10.4218 86.4611 13.2492 90.3484C15.0349 92.4161 16.8703 94.4342 18.8379 96.3199C19.6811 97.0974 20.574 97.8252 21.3677 98.6523C21.4173 98.7019 21.4338 98.7681 21.4338 98.8508C22.0456 99.4298 22.6904 99.9756 23.2526 100.604C23.418 100.786 23.203 101.15 22.9715 100.985L22.9054 100.935ZM1.17893 65.5524C1.44348 64.3945 1.1293 63.1208 1.1293 61.9794C1.03009 60.2425 0.914361 58.5718 0.831688 56.868C0.782084 57.1493 0.930899 57.6786 0.550603 57.7448C0.401791 60.3253 -0.0611788 63.187 1.19545 65.569L1.17893 65.5524ZM1.67494 60.4907C1.67494 58.4726 1.67494 56.4711 1.72455 54.453C1.62534 56.4711 1.5592 58.4891 1.67494 60.4907ZM1.37733 46.5295C1.37733 46.5295 1.37733 46.6784 1.37733 46.7611C1.44347 46.2814 1.5096 45.8182 1.57574 45.3385C1.62534 45.0077 1.67494 44.6603 1.72455 44.3295C1.67494 44.3791 1.59228 44.3956 1.52614 44.3626C1.46 45.0904 1.41039 45.8182 1.39386 46.5295H1.37733ZM2.30327 45.7851C2.30327 45.7851 2.31981 45.7851 2.33634 45.7851C2.38595 45.2723 2.48515 44.7761 2.56783 44.2798C2.46862 44.7761 2.36941 45.2889 2.30327 45.8017V45.7851ZM1.62534 43.2377C1.9891 42.361 2.13793 41.4512 2.18754 40.4918C2.22061 40.1941 2.61744 40.2437 2.6009 40.5414C3.51031 38.1263 4.5685 35.7609 5.62671 33.3954C3.59296 36.3398 1.9891 39.6482 1.62534 43.2377ZM4.35357 37.6963C5.21337 35.3804 6.20543 33.1308 7.31325 30.9142C6.17236 33.0977 5.21337 35.3473 4.30397 37.6301C4.33703 37.6466 4.35356 37.6632 4.37009 37.6963H4.35357ZM6.6188 33.3293C6.94949 32.6841 7.31326 32.0555 7.66049 31.427C7.61088 31.2615 7.71009 31.0796 7.75969 30.9142C7.57781 31.2781 7.39593 31.642 7.21405 32.0225C7.21405 32.0225 7.21405 32.0225 7.21405 32.0059C7.01563 32.4526 6.80069 32.8992 6.60227 33.3458L6.6188 33.3293Z" fill="#e30613"/>
<path d="M104.223 29.5908C103.776 29.6073 103.512 29.2103 103.181 28.9788C103.082 28.896 103.131 28.7472 103.214 28.6645C103.396 28.499 103.578 28.6645 103.71 28.7803C102.106 25.9351 99.692 23.735 97.526 21.32C96.7323 20.4102 95.9387 19.5004 95.1616 18.5741C95.0954 18.4913 95.1285 18.359 95.2112 18.3094C94.0041 17.1846 92.8136 16.0432 91.6562 14.8687C91.1932 14.4221 90.7799 13.9258 90.4988 13.3469C90.4657 13.2807 90.4823 13.2146 90.4988 13.1649C88.6304 11.8747 86.7289 10.6341 84.7613 9.52576C84.629 10.1047 83.4881 9.19491 83.1244 9.09566C84.4967 9.92275 85.8526 10.7664 87.1753 11.6596C88.2997 12.404 89.3083 13.3469 90.5153 13.9589C90.6476 14.0085 90.6641 14.174 90.598 14.2732C90.3665 14.5875 90.0028 14.2567 89.7547 14.1243C85.8526 11.2792 81.8181 8.56633 77.4365 6.51517C76.0145 5.88658 74.5429 5.39034 73.0713 4.89409C72.7076 4.7783 72.3438 4.62943 71.9966 4.46402C71.9139 4.41439 71.8808 4.31514 71.9139 4.23244C67.4992 2.97527 62.9521 2.23088 58.3886 1.81734C55.3628 1.85042 52.3535 2.06546 49.3442 2.42937C49.0796 2.84292 48.5009 2.85948 48.0545 2.94219C44.1854 3.93469 40.3989 5.27454 36.629 6.56479C34.0166 7.65654 31.4207 8.83102 28.7917 9.88968C27.7169 10.3363 26.6256 10.7333 25.5343 11.1303C25.4517 11.1468 25.369 11.1468 25.3029 11.0972C23.3022 12.3048 21.7314 14.0416 20.1275 15.7123C19.5488 16.2251 17.267 19.1365 16.5726 18.359C15.4317 19.55 14.4396 20.8402 13.4475 22.147C13.1665 22.511 12.8854 22.9576 12.4059 23.0899C11.6122 23.9997 10.8847 25.0088 10.0083 25.8358C9.94221 25.902 9.84301 25.9516 9.72726 25.9186C9.33043 25.7201 9.97528 25.1245 10.1076 24.893C10.5705 24.2478 11.05 23.5862 11.5461 22.9576C12.2736 22.0643 18.9205 13.198 19.5323 14.4883C20.9542 13.1484 22.5581 12.0401 24.1124 10.8822C24.658 10.4686 25.2036 10.022 25.7824 9.6581C25.865 9.59193 25.9973 9.59193 26.08 9.6581C29.4861 7.50768 33.2395 5.95276 37.0259 4.61289C36.8109 3.93468 38.762 3.7031 39.225 3.58731C38.2495 3.5046 38.1668 3.33918 38.9935 2.72714C39.8533 2.14818 40.895 1.8835 41.8705 1.55267C46.2191 0.295501 50.8819 -0.316534 55.3793 0.163174C57.2973 0.113549 59.1988 0.163168 61.1003 0.312043C61.4144 0.113543 61.9601 0.427838 62.3238 0.444379C65.0355 0.659421 67.681 1.27147 70.3431 1.85043C70.5911 1.93314 71.1533 1.98277 71.0541 2.34669C70.9053 2.61135 70.5746 2.42937 70.3431 2.42937C73.6831 3.40533 82.4299 6.03546 84.3149 8.76484C87.721 10.7333 91.061 12.8506 94.0868 15.3981C95.1285 16.2582 96.1206 17.1845 97.0796 18.144C97.1457 18.2101 97.1457 18.3094 97.0961 18.3921C96.6827 18.9711 95.8395 18.0116 95.4426 17.7635C94.153 16.6552 92.9459 15.4311 91.7058 14.2732C94.3018 16.9695 97.1292 19.4011 99.7417 22.0809C100.469 22.8253 101.18 23.6027 101.858 24.3967C102.023 24.6779 101.56 24.8764 101.345 24.7606C101.676 25.1576 105.38 29.6073 104.239 29.5908H104.223ZM100.866 23.9666C99.9566 22.908 98.9811 21.9485 98.0055 20.9891C98.9645 21.9651 99.7416 23.1726 100.866 23.9666ZM17.0852 18.0447C18.5237 17.0688 19.5653 15.5965 20.822 14.4221C19.5819 15.4146 18.4245 16.4898 17.3166 17.5981C17.2174 17.747 17.1513 17.8793 17.0852 18.0447ZM27.8988 9.6581C27.6177 9.82352 27.3532 10.0055 27.0886 10.1874C28.8247 9.5423 30.5112 8.79792 32.2143 8.07009C31.4041 8.11971 30.6931 8.61596 29.916 8.81446C29.1719 8.93025 28.5271 9.22802 27.9153 9.6581H27.8988ZM30.131 8.30167C30.3955 8.20242 30.6601 8.10318 30.9246 8.00393C31.0073 7.97085 31.1065 7.93777 31.1892 7.90469C31.1892 7.85506 31.2222 7.82197 31.2553 7.78888C31.371 7.68963 31.4868 7.59039 31.586 7.50768C31.1726 7.72272 30.7427 7.95431 30.3294 8.18589C30.2632 8.23552 30.1971 8.2686 30.131 8.31823V8.30167ZM77.4365 5.4565C79.4206 6.16779 81.2725 7.17684 83.1244 8.1528C78.627 5.15876 73.3359 3.71964 68.1936 2.3136C66.1764 1.78426 64.1426 1.288 62.0924 0.857921C60.1909 0.609796 58.2729 0.642882 56.3548 0.576716C56.0242 0.576716 55.6769 0.609806 55.3462 0.609806C54.9825 0.808306 54.5856 0.957165 54.1723 1.00679C55.8257 1.00679 57.4792 0.973729 59.0996 1.28802C59.1988 1.28802 59.2815 1.40379 59.2484 1.50304C60.3066 1.58575 61.3483 1.73462 62.39 1.8835C61.8939 1.78425 61.4144 1.65193 60.9349 1.48651C60.8357 1.45343 60.7861 1.35418 60.8192 1.25493C60.8523 1.15568 60.9515 1.0895 61.0672 1.0895C63.5805 1.33763 66.0441 1.99929 68.4912 2.61133C71.5336 3.45496 74.4602 4.64596 77.3373 5.91967C77.2877 5.87004 77.2215 5.82042 77.1719 5.7708C77.0066 5.60538 77.2546 5.35727 77.4365 5.42344V5.4565ZM32.2639 7.4415C33.3056 6.99487 34.3473 6.54825 35.3724 6.052C34.2646 6.34975 33.1899 6.76329 32.2639 7.4415ZM36.8275 5.78733C35.9842 6.18433 35.1409 6.59789 34.2811 6.99489C36.381 6.31668 38.3983 5.3738 40.4486 4.5798C39.2415 4.96025 37.9518 5.15876 36.8275 5.7708V5.78733ZM44.3507 3.47151C44.1358 3.60384 43.8877 3.71964 43.6563 3.81889C44.9294 3.40535 46.2026 3.04143 47.4923 2.67751C46.4672 2.77676 45.4916 3.1076 44.483 3.32264C44.4664 3.38881 44.4169 3.43842 44.3507 3.47151ZM39.5888 3.22339C42.2178 3.07452 44.6483 1.83389 47.2773 1.53614C46.9136 1.02334 48.1537 1.1226 48.4182 1.07297C48.9804 0.609804 49.7741 0.60981 50.4685 0.51056C47.6576 0.626352 44.8302 1.15567 42.1516 1.91659C41.1265 2.2805 39.9525 2.52864 39.0762 3.1903C39.1589 3.1903 39.225 3.20685 39.2746 3.22339C39.3738 3.22339 39.473 3.22339 39.5888 3.22339ZM49.3276 1.71809C48.2694 1.91659 47.2277 2.19779 46.186 2.42937C47.3931 2.29704 48.5505 1.93312 49.7079 1.65191C49.5756 1.66846 49.4599 1.70155 49.3276 1.71809ZM52.5188 1.56923C52.5188 1.56923 52.3535 1.66847 52.2873 1.71809L52.2543 1.73463C53.1471 1.66846 54.04 1.56922 54.9329 1.53614C54.5691 1.53614 54.2219 1.51959 53.8581 1.50304C53.4448 1.50304 53.0314 1.46996 52.618 1.45342C52.618 1.50305 52.5684 1.55268 52.5188 1.56923Z" fill="#e30613"/>
<path d="M84.6125 101.613C84.6125 101.481 84.6787 101.365 84.8275 101.365C84.844 101.365 84.8606 101.365 84.8771 101.365C85.0094 101.365 85.1417 101.332 85.2574 101.316C85.4723 101.266 85.6873 101.183 85.9022 101.1C86.2825 100.935 86.6463 100.737 86.977 100.538C87.5392 100.174 88.0848 99.7937 88.647 99.4132C88.9612 99.1982 89.2918 98.9666 89.606 98.7516C89.9202 98.5365 90.2343 98.3215 90.5485 98.0899C90.9949 97.7591 91.4414 97.4448 91.8878 97.1139C91.9539 97.0643 92.0035 97.0147 92.0696 96.9816L92.6484 96.5184C92.9625 96.2538 93.2932 96.0056 93.6074 95.741C93.7066 95.6417 93.8223 95.5425 93.9381 95.4432C94.1695 95.2282 94.401 95.0132 94.6325 94.7981C94.8805 94.5665 95.1285 94.3515 95.3766 94.1033C95.7734 93.6898 96.1702 93.2928 96.5671 92.8793C96.7985 92.6312 97.0135 92.383 97.245 92.1349C97.5757 91.771 97.9064 91.3905 98.2371 91.0266C98.5182 90.7289 98.7827 90.398 99.0473 90.1003C99.3614 89.7364 99.6756 89.389 99.9897 89.0251C100.089 88.9093 100.172 88.81 100.271 88.6942C100.469 88.4461 100.668 88.2145 100.866 87.9829C100.965 87.8671 101.064 87.7514 101.164 87.6356C101.329 87.4205 101.494 87.2055 101.61 87.007C101.66 86.9243 101.693 86.825 101.726 86.7423C101.775 86.6265 101.908 86.61 102.007 86.6762C102.106 86.7423 102.156 86.8747 102.106 86.9905C102.057 87.1062 101.99 87.222 101.924 87.3378C101.858 87.4536 101.775 87.5694 101.693 87.6686C101.61 87.7844 101.527 87.9002 101.428 87.9995C101.263 88.198 101.114 88.3799 100.949 88.5784C100.701 88.8762 100.469 89.1574 100.221 89.4551C99.8575 89.8687 99.4937 90.2988 99.1134 90.7123C98.8985 90.9605 98.6835 91.2086 98.4686 91.4567C98.0883 91.8868 97.708 92.3003 97.3277 92.7304C97.2119 92.8462 97.1127 92.9785 96.997 93.0943C96.8978 93.2101 96.782 93.3094 96.6828 93.4252C96.3025 93.8056 95.9387 94.2026 95.5584 94.5831C95.4923 94.6658 95.4096 94.732 95.327 94.7981C95.112 94.9966 94.8971 95.1951 94.6821 95.4102C94.4837 95.6087 94.2688 95.7906 94.0538 95.9891C93.9877 96.0553 93.905 96.1214 93.8389 96.1876C93.409 96.535 92.9791 96.8824 92.5492 97.2297C92.4334 97.3125 92.3342 97.4117 92.2185 97.4944C92.0697 97.6102 91.9043 97.726 91.7555 97.8418C91.5075 98.0237 91.2595 98.2222 90.9949 98.4042C90.8792 98.4869 90.7634 98.5696 90.6477 98.6523C90.0524 99.0824 89.4406 99.4959 88.8454 99.926C88.399 100.224 87.9691 100.538 87.5226 100.836C87.0927 101.117 86.6629 101.382 86.1999 101.597C85.7865 101.779 85.3401 101.928 84.8771 101.928C84.7448 101.928 84.6291 101.779 84.6291 101.663L84.6125 101.613Z" fill="#e30613"/>
<path d="M95.5418 93.1769C95.36 92.9784 95.5584 92.7965 95.6741 92.6476C96.4843 91.6385 97.2945 90.6295 98.1708 89.6866C101.23 85.8986 104.008 81.8624 105.959 77.3796C105.347 77.2473 106.24 76.2879 106.438 76.0563C106.587 75.8909 106.835 76.1225 106.785 76.2879C106.703 76.7841 106.488 77.2473 106.273 77.6939C104.669 81.3827 102.503 84.7903 100.072 87.9994C100.238 88.0655 100.287 88.2971 100.155 88.4129C99.5763 88.9257 99.0141 89.455 98.485 90.034C97.7905 90.8942 97.1126 91.7212 96.4182 92.5649C96.2032 92.7468 95.8229 93.4747 95.5253 93.1604L95.5418 93.1769Z" fill="#e30613"/>
<path d="M99.7251 89.5213C101.726 83.9137 104.834 78.7692 106.851 73.1781C107.48 71.0773 107.447 68.8607 107.827 66.7103C108.406 62.4591 108.951 58.2079 109.216 53.9236C109.431 51.1446 108.902 48.3656 108.703 45.6032C108.505 43.9655 107.844 42.3941 107.728 40.7399C106.521 38.3579 105.529 35.8766 104.272 33.5277C102.817 30.7487 101.23 28.0028 99.659 25.3231C98.5842 23.5697 97.5591 21.717 96.0213 20.311C95.7899 20.129 96.0213 19.7154 96.2859 19.9801C98.3692 21.9816 99.6424 24.6283 101.131 27.0599C103.33 30.8314 105.496 34.636 107.166 38.6887C106.67 36.7699 105.876 34.9834 105.198 33.1307C105.115 33.2631 104.9 33.2134 104.851 33.0811C104.074 31.5758 103.28 30.0871 102.47 28.5818C101.941 27.5231 101.296 26.4975 100.882 25.3892C100.8 25.1411 100.634 24.8103 100.833 24.5787C101.478 24.0163 102.371 26.1832 102.685 26.5637C103.015 26.9111 103.148 27.3742 103.33 27.8043C103.776 28.7307 104.256 29.6404 104.719 30.5502C104.818 30.5337 104.917 30.5999 104.95 30.6826C105.248 31.2946 105.496 31.9232 105.694 32.5683C106.422 34.4871 107.331 36.3398 107.943 38.3083C108.207 39.0857 109.861 42.0963 109.166 42.6091C109.778 45.0077 109.894 47.4889 110.39 49.904C110.555 50.8138 110.688 51.7401 110.737 52.6664C110.737 52.7988 110.638 52.9311 110.489 52.8815C110.572 53.9236 110.638 54.9823 110.654 56.0244C111.531 60.1764 110.357 64.5268 109.051 68.4803C109.117 68.5299 109.166 68.6291 109.15 68.7284C109.067 69.1916 108.951 69.6547 108.803 70.1014C108.323 71.7059 107.761 73.2939 107.166 74.8654C105.942 77.8263 105.066 80.9031 103.842 83.8475C103.098 85.7498 102.023 87.5032 100.734 89.0747C100.502 89.3062 100.304 89.819 100.006 89.9017C99.8574 89.9017 99.7085 89.7198 99.7747 89.5544L99.7251 89.5213ZM104.735 79.3316C103.363 82.3257 101.842 85.2535 100.684 88.3468C101.197 87.6852 101.693 87.007 102.123 86.2957C101.842 86.1633 101.99 85.8159 102.04 85.5844C102.056 85.5016 102.139 85.452 102.222 85.4355C103.297 83.0866 104.437 80.7377 105.231 78.2564C105.066 78.6203 104.9 78.9842 104.735 79.3481V79.3316ZM108.902 61.632C108.637 63.9975 108.29 66.3629 107.992 68.7284C108.406 67.0246 108.67 65.3539 108.984 63.6336C108.703 62.8892 108.935 62.0125 108.935 61.235C108.935 61.3674 108.902 61.4997 108.885 61.632H108.902ZM109.53 64.5599C109.464 65.0892 109.381 65.6186 109.282 66.1314C109.266 66.2306 109.249 66.3133 109.232 66.4126C109.927 64.1133 110.406 61.7643 110.473 59.3658C110.258 61.1192 109.762 62.8065 109.53 64.5599ZM109.861 55.065C109.877 55.4454 109.894 55.8259 109.91 56.2064C109.91 56.6034 109.943 57.0004 109.943 57.3974C110.076 56.9342 109.828 56.2725 110.241 55.9252C110.158 53.9732 110.092 52.0048 109.795 50.0694C109.745 51.7401 109.679 53.4108 109.861 55.0815V55.065ZM101.99 26.7953C102.569 27.9367 103.181 29.0615 103.776 30.1863C103.462 29.3758 103.098 28.5652 102.751 27.7878C102.304 26.8284 101.941 25.7697 101.18 25.0088C101.395 25.6374 101.693 26.2163 101.99 26.7953Z" fill="#e30613"/>
<path d="M59.7279 112.051C59.546 112.018 59.3972 111.819 59.546 111.671C53.5109 111.671 47.5915 110.265 41.6556 109.305C41.9862 109.487 43.1437 109.851 42.35 110.215C41.7548 110.215 41.1595 110.066 40.5808 109.95C37.9683 109.322 35.5212 108.147 33.1568 106.89C33.3552 107.072 33.2394 107.37 32.9749 107.353C31.9332 107.204 31.0734 106.526 30.1309 106.096C30.0648 106.146 29.9656 106.162 29.8829 106.129C29.1554 105.716 28.4444 105.269 27.7169 104.839C26.8075 104.326 19.7141 99.7771 20.3094 98.9501C19.9952 98.5365 20.9377 98.3049 20.8881 98.7846C21.0204 98.8839 21.1692 98.9666 21.3015 99.0493C21.3676 98.9501 21.5164 98.9004 21.6156 98.9831C22.7565 99.7771 23.9305 100.571 25.0879 101.332C27.32 102.771 29.5357 104.227 31.7844 105.633C33.1072 106.328 34.5787 106.708 36.0338 107.072C41.3414 108.561 46.864 109.189 52.3204 109.653C54.7014 109.834 57.0658 109.95 59.4468 110.099C59.9263 110.149 60.4058 110.215 60.8688 110.281C61.0176 110.298 61.0507 110.463 60.9845 110.562C60.8192 110.943 60.4389 111.075 60.0586 111.108C59.3476 111.141 58.6697 111.224 57.9752 111.257C59.1822 111.307 60.4223 111.274 61.6128 111.174C62.9687 110.728 64.2914 110.231 65.6307 109.752C65.3662 109.752 64.7544 109.669 64.7379 109.338C64.7379 109.256 64.8205 109.173 64.9032 109.14C65.267 108.974 65.6307 108.859 66.011 108.743C63.5474 109.14 61.0837 109.421 58.6035 109.735C55.5116 109.735 52.4196 109.388 49.3276 109.206C46.5167 108.842 43.6728 108.693 40.895 108.147C37.4062 107.304 33.9339 106.278 30.66 104.822C30.4781 104.64 30.66 104.31 30.9081 104.359C31.2222 104.392 31.4372 104.607 31.7017 104.74C36.381 106.146 41.0769 107.585 45.9215 108.379C48.1537 108.643 50.4024 108.66 52.6511 108.726C52.7503 108.495 52.9983 108.428 53.2132 108.445C53.7919 108.462 54.3707 108.478 54.9494 108.528C57.9091 108.759 60.8853 108.859 63.8119 108.346C67.4991 107.816 71.0872 106.692 74.6752 105.683C77.5687 104.822 80.4457 103.846 83.174 102.54C84.2652 101.795 85.34 101.001 86.514 100.406C88.4981 98.7019 90.5484 97.0478 92.7806 95.6913C94.6655 94.0372 96.6 92.4161 98.2204 90.5138C99.7416 89.1408 100.75 87.2717 101.99 85.6506C102.172 85.419 102.371 85.2205 102.619 85.0881C102.701 85.0385 102.801 85.0054 102.883 85.0716C102.966 85.1212 102.982 85.2205 102.933 85.3197C102.801 85.6671 102.602 85.9648 102.404 86.2791C103.263 86.1799 101.792 87.7348 101.676 88.016C101.263 88.5288 100.899 89.0581 100.552 89.6206C100.502 89.6867 100.42 89.7198 100.337 89.7363C99.0802 91.2747 97.8071 92.78 96.5008 94.2522C95.8064 94.9304 95.2277 95.7906 94.3679 96.2868C92.2845 98.3876 89.6886 99.9095 87.1588 101.398C86.5636 101.928 85.9352 102.44 85.2904 102.92C84.9432 103.168 84.5463 103.499 84.0999 103.4C83.4881 103.78 82.8102 104.078 82.0992 104.161C78.6435 106.013 74.9728 107.452 71.2856 108.792C70.277 109.173 69.2518 109.454 68.2101 109.735C67.9456 109.768 67.185 110.132 67.3007 109.619C66.7385 109.818 66.1764 110.016 65.6142 110.215C65.1181 110.397 64.6221 110.579 64.1261 110.744C65.6638 110.463 67.1684 110.066 68.7227 109.818C68.8054 109.818 68.9046 109.851 68.9377 109.934C69.0203 110.513 66.7882 110.695 66.3087 110.91C64.7544 111.224 63.1671 111.406 61.5963 111.638C60.968 111.786 60.3562 112.101 59.6948 112.084L59.7279 112.051ZM56.8178 110.877C58.0248 110.877 59.2484 110.794 60.4389 110.628C58.7193 110.364 56.9666 110.397 55.247 110.248C55.3627 110.248 55.4454 110.347 55.4289 110.463C55.4124 110.579 55.2966 110.662 55.1809 110.662C54.6848 110.695 54.1888 110.711 53.6927 110.678C54.7344 110.794 55.7761 110.844 56.8178 110.877ZM41.3579 109.686C40.1178 109.256 38.9108 108.693 37.6046 108.544C38.8281 109.04 40.0682 109.454 41.3579 109.686ZM65.9283 109.322C67.2015 109.305 68.3424 108.809 69.5329 108.379C70.6573 107.982 71.7981 107.601 72.9225 107.204C75.9649 106.179 78.8584 104.723 81.9008 103.747C81.9339 103.664 81.9504 103.582 82 103.516C82 103.516 82.0165 103.482 82.0331 103.466C79.867 104.442 77.6018 105.186 75.3365 105.864C75.3365 105.964 75.2869 106.063 75.2043 106.096C74.2618 106.592 73.2366 106.907 72.228 107.237C70.0124 107.883 67.7802 108.528 65.5977 109.289C65.7134 109.289 65.8126 109.289 65.9283 109.289V109.322ZM57.413 109.173C57.5453 109.173 57.6776 109.156 57.7933 109.14C56.8509 109.14 55.9084 109.14 54.9824 109.14C55.7926 109.206 56.6028 109.206 57.413 109.173ZM69.8967 107.419C68.6731 107.717 67.4495 108.081 66.2094 108.296C67.8629 108.015 69.5164 107.668 71.0872 107.089C70.6903 107.204 70.2935 107.304 69.8967 107.419ZM35.7858 107.734C36.0503 107.866 36.3149 107.982 36.596 108.114C36.5794 108.081 36.5629 108.031 36.5629 107.982C36.3149 107.883 36.0503 107.816 35.7858 107.734ZM30.9246 105.98C31.123 106.08 31.338 106.195 31.5364 106.295C31.8505 106.46 32.1647 106.625 32.4954 106.774C32.0159 106.295 31.4372 105.931 30.875 105.583C30.7923 105.666 30.66 105.699 30.5608 105.649C30.2136 105.451 29.8664 105.236 29.5192 105.037C29.8829 105.501 30.412 105.732 30.9246 105.997V105.98ZM23.2525 101.167C24.7572 102.275 26.328 103.334 27.9318 104.293C26.0965 102.854 24.1454 101.613 22.1943 100.356C22.525 100.654 22.8888 100.902 23.2525 101.167ZM83.3724 102.904C83.207 103.019 83.0417 103.135 82.8763 103.234C83.3724 102.97 83.8684 102.722 84.3644 102.457C84.3644 102.44 84.3975 102.424 84.4141 102.407C84.0668 102.573 83.7031 102.688 83.3724 102.904ZM86.6628 100.819C86.762 100.77 86.8612 100.703 86.9604 100.654C86.8942 100.687 86.8281 100.72 86.7454 100.737C86.7124 100.753 86.6958 100.786 86.6628 100.803C86.6628 100.803 86.6793 100.803 86.6958 100.786C86.6958 100.786 86.6793 100.803 86.6628 100.819ZM87.8367 99.9756C87.8367 99.9756 87.9029 100.058 87.9029 100.108C88.8619 99.3305 89.7382 98.4207 90.6807 97.5936C89.639 98.338 88.6304 99.132 87.6714 99.9591C87.721 99.9591 87.7871 99.9591 87.8367 99.9922V99.9756ZM92.9128 97.0312C92.4499 97.4282 91.9704 97.8087 91.4909 98.1891C92.0034 97.8252 92.4995 97.4448 92.979 97.0478C92.979 97.0478 92.9624 97.0478 92.9624 97.0643C93.1774 96.8824 93.3923 96.7169 93.6073 96.535C93.723 96.4357 93.8222 96.3365 93.938 96.2372L93.9049 96.2041C93.5907 96.4853 93.2766 96.7666 92.9624 97.0478L92.9128 97.0312ZM92.8467 96.1545C92.1192 96.7831 91.4247 97.4282 90.7137 98.0899C91.6397 97.3951 92.4829 96.6673 93.3593 95.9064C93.3593 95.8733 93.3758 95.8568 93.3923 95.8237C93.1774 95.9229 92.9955 95.9891 92.8467 96.1545ZM93.8223 95.2943C93.8223 95.2943 93.8388 95.2943 93.8553 95.2943C93.9545 95.1951 94.0703 95.0959 94.1695 94.9966C94.0537 95.0959 93.938 95.1951 93.8388 95.2943H93.8223Z" fill="#e30613"/>
<path d="M35.0914 66.3464C34.8103 65.7509 37.2739 65.0892 37.7204 64.7915C40.1179 63.8982 42.6477 62.9057 45.2601 63.0381C45.5908 63.0711 45.4751 63.617 45.1609 63.5674C42.3004 63.4516 39.5392 64.5764 36.9267 65.6351C36.4141 65.8832 35.8354 66.0321 35.389 66.396C35.3063 66.4622 35.174 66.4622 35.1079 66.363L35.0914 66.3464Z" fill="#e30613"/>
<path d="M31.9333 69.1254C31.8341 68.8773 32.1152 68.7284 32.264 68.5961C33.3057 67.7194 34.4631 67.0247 35.6371 66.3299C38.2826 64.8412 41.0935 63.7163 43.954 62.7073C44.1855 62.6246 44.4335 62.5584 44.665 62.4923C44.7642 62.4592 44.8634 62.5253 44.8965 62.6246C44.9626 62.8727 44.665 62.9885 44.4996 63.1043C43.9209 63.369 43.3422 63.6336 42.78 63.9148C42.6477 63.981 42.499 63.8487 42.5155 63.7163C39.2086 64.9239 35.9347 66.3795 33.0577 68.4638C33.1569 68.4307 33.223 68.3976 33.3057 68.3645C33.5868 68.2984 33.6364 68.745 33.3884 68.8277C32.9585 68.9766 32.5451 69.1751 32.0821 69.2247C31.9995 69.2247 31.9333 69.1916 31.9168 69.1089L31.9333 69.1254Z" fill="#e30613"/>
<path d="M28.9406 72.7315C28.2958 72.5992 30.4949 69.6879 30.7594 69.3405C33.4711 65.9164 37.7701 64.4442 41.7715 63.1374C42.2675 62.9719 42.3337 63.6336 41.8872 63.6502C36.7946 65.172 31.8507 67.1404 29.3705 72.2022C29.602 72.0864 29.9658 71.4578 30.2303 71.7556C30.2965 71.8714 30.2469 72.0202 30.1642 72.0864C29.8004 72.3345 29.4532 72.9135 28.9571 72.715L28.9406 72.7315Z" fill="#e30613"/>
<path d="M24.1289 80.7045C23.5337 80.4729 25.3525 77.0653 25.6336 76.5525C27.3201 73.5916 29.1224 70.6471 31.7018 68.3644C32.1482 68.0666 33.8678 66.0817 34.2646 66.826C34.3638 67.0411 34.0993 67.3719 33.8843 67.1899C31.0735 69.0922 28.924 71.8547 27.1548 74.7329C26.2123 76.354 25.1706 77.9751 24.5919 79.7782C24.8895 79.3481 25.1375 78.9345 25.4021 78.5044C25.4682 78.4052 25.584 78.339 25.6997 78.4052C25.7989 78.4714 25.8155 78.6368 25.7658 78.736C25.584 79.0338 25.4186 79.315 25.2367 79.5962C25.121 79.7947 24.9722 79.9932 24.8564 80.1751C24.7076 80.4233 24.4927 80.8037 24.1455 80.721L24.1289 80.7045Z" fill="#e30613"/>
<path d="M22.6244 99.6448C22.4425 99.5455 22.3598 99.3305 22.3102 99.1485C22.0291 98.0568 22.0457 96.8989 22.0457 95.774C21.7976 94.186 21.8142 92.5649 21.9795 90.9769C20.3261 91.0762 22.0953 85.2535 22.3433 84.2941C22.8724 82.4911 23.633 80.7873 24.3936 79.0835C24.9558 77.8263 25.3195 76.4699 26.1132 75.312C27.7832 72.6819 29.8169 70.2337 32.3633 68.3976C33.2231 67.769 34.0167 67.0412 34.9592 66.5449C36.1001 65.9494 37.3236 65.569 38.4811 64.99C40.5314 63.9975 42.6147 62.6411 45.0122 62.9554C45.2933 63.0381 45.9712 62.9554 45.8886 63.3524C45.8555 63.4682 45.7563 63.5674 45.624 63.5509C44.7807 63.3193 43.8548 63.3193 43.0115 63.4847C41.0604 63.9313 39.407 65.1389 37.5717 65.8667C36.1166 66.4457 34.645 67.0412 33.4545 68.0833C31.2058 69.6547 29.1721 71.557 27.6013 73.8232C27.6674 73.8894 27.6674 74.0052 27.6344 74.1044C27.5848 74.2202 27.469 74.3195 27.3367 74.2699C26.3447 75.5436 25.799 77.1481 25.055 78.5872C24.5589 79.9933 24.3936 81.4986 24.1125 82.9542C23.6991 85.4355 23.1039 87.9167 23.1204 90.4476C23.0873 92.6311 22.7566 94.8477 22.707 97.0147C22.7566 97.7425 22.8393 98.4703 23.0874 99.1651C23.2858 99.4628 22.9055 99.7937 22.6078 99.6448H22.6244ZM21.8969 90.4972C21.8969 90.4972 21.9961 90.4145 22.0457 90.3814C22.2772 88.0656 22.6244 85.7498 23.0377 83.4505C22.5913 84.9227 21.1693 89.2566 21.8969 90.4972ZM23.385 84.0956C23.385 84.261 23.3519 84.443 23.3354 84.6084C23.3188 84.9227 23.2858 85.2535 23.2692 85.5678C23.5503 83.9302 23.8645 82.2926 24.1621 80.655C23.8479 81.3662 23.5338 82.0941 23.2692 82.8219C23.7818 82.673 23.3354 83.7979 23.385 84.0956Z" fill="#e30613"/>
<path d="M39.6714 31.0134C39.2084 30.451 42.3169 28.5321 42.7799 28.069C44.5987 26.5637 46.649 25.3231 48.8481 24.4794C50.3362 23.8839 51.9401 24.0824 53.4943 24.1982C53.8085 24.2313 53.7258 24.7441 53.4282 24.7276C52.2542 24.6614 51.0472 24.4464 49.8732 24.6945C47.8395 25.2073 45.971 26.2825 44.2514 27.4569C42.8956 28.6314 41.3083 29.5412 40.0682 30.848C39.969 30.9803 39.8202 31.1623 39.6714 31.0299V31.0134Z" fill="#e30613"/>
<path d="M43.4084 64.2952C42.6313 63.2862 41.54 62.5914 40.4983 61.8636C38.8118 60.6229 37.6378 58.7868 36.8607 56.868C36.6127 55.9913 36.1993 55.2138 35.7694 54.4033C35.4222 53.9236 35.0584 53.4604 34.8435 52.898C34.149 50.6483 34.1986 48.2167 34.0829 45.8843C34.0663 44.379 34.397 42.9068 34.5789 41.4015C34.6451 40.1444 35.1741 38.9864 35.3891 37.7789C35.4056 35.2315 37.0426 33.1638 38.7456 31.4269C37.952 30.4178 41.54 28.1186 42.3006 27.5892C43.5737 26.7291 44.9957 26.117 46.4838 25.687C47.4594 25.3561 48.4349 25.0418 49.3774 24.6283C49.5427 24.5456 49.7081 24.7275 49.675 24.8929C50.2868 24.5456 51.2954 24.0493 51.7088 24.8929C52.2379 25.0749 51.7253 25.8523 51.3946 25.3561C49.6585 25.2734 48.1208 26.1997 46.6492 26.9937C45.5083 27.5892 44.417 28.2674 43.3257 28.9787C42.7305 29.4584 42.1352 29.9216 41.54 30.4013C41.4738 30.4509 41.3912 30.4675 41.325 30.4344C39.6881 31.7247 39.1424 33.7593 38.3323 35.5789C37.2575 38.3413 35.7529 40.988 35.4056 43.9655C35.7859 44.4121 36.1497 48.9776 35.5214 49.0934C35.819 50.3506 36.0835 51.707 36.6292 52.8649C36.778 53.2288 38.6299 55.5943 37.6213 55.5446C37.3402 55.4454 37.3237 55.1146 37.2079 54.883C36.9599 54.3537 36.7284 53.7747 36.2985 53.3612C36.2489 53.3281 36.1828 53.3115 36.1166 53.3115C36.4638 54.7507 37.241 55.9913 38.1338 57.1492C39.0267 58.3236 40.0684 59.3658 41.4408 59.9613C41.9037 60.1763 42.3832 60.4741 42.8958 60.5402C43.4745 60.5402 44.0036 60.8049 44.3839 61.2184C44.88 61.7643 45.4421 62.2109 46.087 62.5418C46.2854 62.6741 46.5169 62.7734 46.6492 62.9719C47.0791 63.9313 43.6068 63.0711 43.21 62.9057C43.3588 63.1869 44.169 64.3779 43.3753 64.2621L43.4084 64.2952ZM45.4917 62.8726C45.4917 62.8726 45.5744 62.8726 45.6075 62.8726C44.7642 62.4922 44.2847 61.632 43.4911 61.2019C42.3832 61.0365 41.4077 60.5733 40.4487 59.9944C41.1266 60.8049 41.9699 61.4004 42.6809 62.1613C43.5737 62.5418 44.5493 62.7899 45.4917 62.8561V62.8726ZM35.9513 52.6664C35.9513 52.6664 35.9843 52.8153 36.0174 52.8814C36.067 52.8649 36.1001 52.8484 36.1497 52.8484C36.0009 52.501 35.8852 52.1371 35.7694 51.7731C35.7363 51.6739 35.7198 51.5912 35.6867 51.4919C35.7694 51.8889 35.8521 52.2859 35.9513 52.6664ZM35.2568 51.6243C35.2568 51.6243 35.2899 51.7401 35.3064 51.8062C34.9758 50.4167 34.9261 48.9611 34.7277 47.5716C34.5789 48.9611 34.7277 50.3506 35.2568 51.6243ZM35.3395 47.8197C35.3395 47.8197 35.3891 47.952 35.4222 48.0016C35.4552 47.0588 35.3726 46.1655 35.2899 45.2227C35.2568 46.0828 35.0584 46.9761 35.3395 47.8032V47.8197ZM34.7773 43.0722C34.7443 43.3369 34.7112 43.6016 34.6781 43.8828C34.6781 43.9159 34.6781 43.9324 34.6781 43.9655C34.8765 43.1218 35.1742 42.2948 35.5048 41.4842C35.7529 40.3098 36.0009 39.1518 36.2489 37.9939C35.8355 38.5398 35.7529 39.2346 35.5545 39.8797C35.2899 40.9549 34.9427 41.997 34.8104 43.0888L34.7773 43.0722ZM36.8111 37.2661C36.6788 37.9443 36.5135 38.6225 36.3647 39.3007C37.3733 36.8691 38.3323 34.4209 39.4401 32.0555C40.333 30.5667 41.7384 29.475 43.1934 28.5652C44.5327 27.4569 46.0043 26.4644 47.6247 25.8193C46.4177 26.299 45.0453 26.4975 43.954 27.2088C43.4249 27.9532 42.747 28.5817 42.0691 29.1938C40.2999 30.7818 38.2661 32.1051 36.9764 34.1397C36.993 34.1397 37.026 34.1397 37.0426 34.1397C37.1252 34.1397 37.1748 34.1894 37.2244 34.2555C38.2165 34.1066 36.7284 36.7037 36.7945 37.2827L36.8111 37.2661ZM39.0598 31.0133C39.0598 31.0133 39.1425 30.9968 39.1921 30.9803C40.2337 29.9547 41.325 29.0118 42.4163 28.0524C41.2258 28.9126 39.8038 29.7066 39.0598 31.0133Z" fill="#e30613"/>
<path d="M62.8364 63.6998C62.7372 63.617 62.7372 63.4682 62.8364 63.3855C63.6301 62.8396 64.4072 62.2772 65.2008 61.7148C66.4575 60.9373 67.8133 60.3914 68.9873 59.5147C69.9297 58.853 70.6242 57.9598 71.4179 57.1492C72.4926 56.1402 73.7492 55.1642 74.1791 53.692C74.609 52.3191 74.9728 50.8634 75.3035 49.4739C75.4854 48.4483 75.3696 47.3897 75.32 46.3475C75.1712 44.7926 75.7169 43.2377 75.4523 41.6828C75.2043 41.567 75.2208 41.17 75.0885 40.955C74.8571 40.2602 74.5594 39.5986 74.2618 38.9203C72.6084 35.5789 70.4258 32.4525 67.5488 30.0375C66.0607 28.7803 64.6056 27.4404 62.9191 26.4479C61.3979 25.6208 59.761 25.0088 58.1075 24.5125C55.9084 23.917 53.4447 23.6358 51.3945 24.7607C51.1464 24.8764 50.7992 25.075 50.5677 24.8268C50.2536 24.2479 52.6842 23.3712 53.1306 23.2554C53.081 22.9411 53.5605 22.9245 53.7754 22.9411C54.8667 23.0569 55.9745 22.9411 57.0658 23.1396C58.9012 23.5035 60.7034 24.0825 62.423 24.7772C63.597 25.4389 64.8867 25.9517 65.9118 26.8449C66.9039 27.5728 67.9952 28.2013 68.9377 28.9953C69.3676 29.3593 69.7809 29.7397 70.0786 30.2194C70.1612 30.3683 69.9959 30.5172 69.8636 30.5172C69.5329 30.5503 69.2518 30.3187 68.9707 30.1533C70.3266 31.6089 71.8478 32.9488 72.9721 34.603C74.5429 37.1835 76.0972 40.0617 75.998 43.1715C75.9153 44.131 75.7499 45.0738 75.783 46.0332C75.8161 47.2077 75.9814 48.3987 75.783 49.5566C75.4688 50.8965 75.1051 52.2198 74.7248 53.5432C74.3114 55.2635 72.9225 56.3718 71.6824 57.5132C70.8557 58.3733 70.0951 59.3162 69.103 59.9779C67.7306 60.9869 66.0606 61.5493 64.7379 62.608C64.2749 63.0546 63.6797 63.3027 63.1836 63.7163C63.0844 63.8155 62.9025 63.799 62.8033 63.7163L62.8364 63.6998ZM71.0541 32.9819C72.2777 34.4541 73.3028 36.0752 74.1957 37.7624C73.3193 35.9759 72.3934 34.2225 70.9383 32.8495C70.9714 32.8992 71.021 32.9488 71.0541 32.9819ZM64.8867 27.2585C66.0111 28.1517 67.1189 29.0615 68.1936 30.0209C67.1519 28.9788 66.011 28.0525 64.804 27.2088L64.8701 27.2585H64.8867ZM60.2405 24.5456C62.3073 25.29 64.3741 26.1833 66.0937 27.5893C64.2749 26.084 62.0427 24.9592 59.761 24.3637C59.9263 24.4298 60.0751 24.4795 60.2405 24.5456ZM57.9421 23.7351C57.9421 23.7351 58.0248 23.7351 58.0744 23.7351C57.9421 23.702 57.8099 23.6689 57.6776 23.6358C57.7768 23.6689 57.8595 23.702 57.9587 23.7185L57.9421 23.7351ZM53.329 23.6358C53.329 23.6358 53.4613 23.6193 53.5109 23.6027C53.5109 23.6027 53.4943 23.6027 53.4778 23.6027C53.4778 23.6027 53.4778 23.6027 53.4613 23.6027C53.4117 23.6027 53.3621 23.6193 53.329 23.6358Z" fill="#e30613"/>
<path d="M74.113 50.516C74.113 50.2017 74.6256 50.2017 74.6587 50.4995C74.6587 50.8138 74.1461 50.8138 74.113 50.516Z" fill="#e30613"/>
<path d="M72.4761 55.1808C72.0297 55.0319 72.7407 54.1387 72.8895 53.8905C73.0714 53.659 73.369 53.4935 73.4516 53.1958C73.6666 52.4845 73.7327 51.7567 73.8981 51.0288C73.9312 50.8965 74.0965 50.8303 74.2123 50.8634C74.3445 50.8965 74.4437 50.9958 74.4107 51.1446C74.1957 51.9883 74.1957 52.9311 73.7493 53.692C73.5509 53.9733 73.2367 54.1552 73.0879 54.4695C72.906 54.7011 72.873 55.2966 72.4596 55.1808H72.4761Z" fill="#e30613"/>
<path d="M82.6449 102.755C82.0662 102.589 83.1244 99.7771 83.1906 99.1981C83.8685 97.2958 83.6535 95.2778 84.0008 93.3258C84.4141 91.7048 84.1496 90.0506 84.1165 88.413C84.0007 86.8084 83.885 85.2039 83.4386 83.6489C83.2898 82.673 82.9756 81.7136 83.0087 80.7211C82.711 79.894 82.3638 79.1 82.0166 78.2894C81.0741 75.9736 79.3215 74.1044 78.4121 71.7886C78.379 71.5074 77.9987 71.0276 78.3459 70.8953C77.3042 69.5554 76.3783 68.0832 74.791 67.3389C73.9973 66.8426 73.1871 66.3629 72.3769 65.8997C71.8148 65.6351 71.3187 65.1388 70.6904 65.1057C70.988 65.1719 71.5171 65.8667 70.9384 65.8667C70.3266 65.7178 69.8637 65.205 69.2849 65.0065C68.0779 64.5268 66.6394 65.3373 65.5812 64.3945C65.3663 64.2621 65.1182 63.9809 65.267 63.7162C64.9529 63.5674 64.6056 63.435 64.3742 63.1869C64.0269 62.5914 64.8537 62.3433 65.3166 62.4095C65.9284 62.4591 66.5072 62.6576 67.0859 62.8561C67.2016 62.8891 67.3008 63.0215 67.2843 63.1538C67.1851 63.5343 66.7221 63.1538 66.4906 63.1373C65.9284 62.9884 65.3497 62.7734 64.8041 63.005C64.8868 63.0546 64.986 63.1207 65.0686 63.1704C65.2671 63.2696 65.482 63.3689 65.6969 63.4681C67.4661 63.038 69.1858 63.7659 70.8061 64.3945C72.162 65.023 73.7162 65.1388 75.0555 65.8667C77.3373 66.9419 78.9412 68.9599 80.2805 71.0277C81.1237 72.3344 82.0993 73.5585 82.7441 74.9646C83.7858 77.2308 84.4307 79.6624 84.9267 82.1106C85.3401 84.2775 85.8857 86.3949 86.1503 88.5784C86.4148 91.3077 86.4313 94.0206 86.2329 96.7499C86.1172 97.8086 85.9353 98.8673 85.6377 99.8763C85.555 100.736 85.3401 101.795 84.5133 102.209C84.3976 102.391 84.2157 102.54 84.0008 102.424C83.2402 102.258 83.7693 100.869 83.6866 100.306C83.4386 101.1 83.2071 101.911 82.9095 102.705C82.8764 102.788 82.7772 102.821 82.6945 102.804L82.6449 102.755ZM84.0338 101.911C84.8606 100.968 85.2574 99.7605 85.1747 98.5199C85.1747 97.0973 85.1416 95.6747 85.1416 94.2522C84.9102 95.7409 84.5133 97.1966 84.1 98.6522C84.1496 99.744 84.0669 100.819 84.0173 101.911H84.0338ZM85.555 87.6851C85.6212 90.9935 85.5219 94.3018 85.6211 97.6101C86.0345 94.2852 86.0014 90.8776 85.5385 87.5693C85.5385 87.6189 85.5385 87.652 85.5385 87.7017L85.555 87.6851ZM84.7944 91.407C84.844 91.2581 84.9102 91.1092 84.9598 90.9438C84.9598 90.9107 84.9928 90.8942 85.0259 90.8776C85.0259 90.8776 85.0259 90.8611 85.0259 90.8446C85.0259 90.7784 85.0259 90.6957 84.9928 90.6295C84.9101 90.8777 84.844 91.1423 84.7944 91.3904V91.407ZM84.5299 88.2144C84.5464 88.4791 84.5629 88.7438 84.5795 89.0085C84.596 89.4551 84.6125 89.9017 84.6291 90.3483C84.7283 90.1333 84.8771 89.6205 85.1747 89.9348C85.2574 86.5934 84.7779 83.2685 83.8023 80.0759C83.2898 78.2894 82.9756 76.4037 82.1489 74.7165C81.008 72.6157 79.3876 70.7795 77.5853 69.2411C78.4286 70.4818 83.1905 75.8247 81.8678 76.9992C82.3969 78.0744 82.8599 79.1331 83.2898 80.2414C83.4055 80.2414 83.5047 80.3241 83.5378 80.4233C83.6866 80.9196 83.7362 81.4489 83.9016 81.9286C84.1165 82.7226 85.1747 85.9317 84.3976 86.3618C84.4472 86.9738 84.4968 87.5859 84.5464 88.2144H84.5299ZM81.6528 76.4037C81.719 75.9074 81.3883 75.4608 81.1899 75.0142C80.7104 74.1044 80.1317 73.2773 79.5364 72.4502C80.297 73.7239 80.8427 75.1796 81.6528 76.4037ZM78.5278 69.5224C78.7758 69.754 79.0073 69.9855 79.2553 70.2337C79.0404 69.9194 78.8254 69.6051 78.5939 69.3073C78.5443 69.3735 78.4451 69.39 78.3625 69.357C78.4286 69.4066 78.4782 69.4562 78.5443 69.5224H78.5278ZM75.4854 66.7103C76.1137 67.0742 76.709 67.5043 77.3208 67.9178C76.6428 67.2893 75.9484 66.7434 75.1547 66.3298C75.2705 66.4456 75.3697 66.5945 75.502 66.6937L75.4854 66.7103ZM69.8471 64.5268C69.4834 64.3614 69.1031 64.196 68.7228 64.0636C69.0865 64.2952 69.4172 64.5433 69.8471 64.5268ZM67.3339 64.3945C67.1685 64.3614 67.0197 64.3117 66.8544 64.2786C66.4906 64.1794 66.1269 64.0636 65.7631 63.9313C65.7631 63.9313 65.7465 63.9313 65.73 63.9478C66.1764 64.3283 66.7552 64.4772 67.3173 64.3945H67.3339ZM66.7717 63.799C67.0032 63.8651 67.2512 63.9147 67.4827 63.9809C67.6315 64.014 67.7638 64.0471 67.9126 64.0967C67.8134 64.0305 67.7142 63.9644 67.5984 63.8982C67.5654 63.8817 67.5323 63.8486 67.5158 63.8155C67.2677 63.8155 67.0197 63.7989 66.7717 63.8155V63.799Z" fill="#e30613"/>
</svg>
