<svg width="47" height="42" viewBox="0 0 47 42" fill="#e30613" xmlns="http://www.w3.org/2000/svg">
<path d="M24.97 28.8357C24.68 28.7657 24.17 28.5157 24.4 28.1357C24.43 28.0957 24.45 28.0557 24.48 28.0157C23.93 28.4257 23.21 28.5557 22.56 28.3257C22.3 28.2457 21.96 27.9857 22.14 27.6857C20.98 27.4057 21.27 26.9057 22.13 26.4457C21.61 26.5457 20.68 26.5457 20.52 25.9157C20.52 25.7157 20.7 25.5957 20.86 25.5057C21.38 25.2157 21.91 24.9357 22.44 24.6657C21.86 24.6257 21.25 24.0857 21.98 23.7057C23.29 23.0157 24.65 22.3957 26 21.7857C25.9 21.7557 25.8 21.7157 25.71 21.6657C25.64 21.6357 25.57 21.5857 25.51 21.5357C24.26 21.9757 23.02 22.4457 21.77 22.9057C20.78 23.2657 19.8 23.6657 18.8 24.0157C18.27 24.2057 17.01 24.2357 16.97 23.4857C16.53 23.7457 14.84 23.6257 15.17 22.8457C15.67 22.1957 16.54 21.9757 17.24 21.6157C17.92 21.2957 18.59 20.9757 19.26 20.6557C18.28 20.9357 17.31 21.2257 16.34 21.5157C15.51 21.7557 14.6 22.2357 13.75 21.8057C13.34 21.6257 13.3 21.2257 13.7 21.0057C12.34 21.2957 11.14 20.2657 13.09 19.7757C12.35 20.0057 10.89 20.4857 10.52 19.5057C10.52 19.3157 10.7 19.1657 10.86 19.0957C11.61 18.7657 12.36 18.4457 13.13 18.1457C9.53002 17.0857 16.2 15.6557 17.16 15.4257C20.48 14.6957 23.9 14.4457 27.28 14.7157C30.38 13.5557 33.84 13.3757 37.12 13.4457C38.4 13.3857 44.08 12.6957 44.71 13.4457C44.98 13.5157 45.36 13.6657 45.35 13.9957C47.26 14.5557 44.79 15.4457 44.11 15.7857C43.55 16.9457 41.11 17.9757 39.98 18.6957C40.81 19.2157 38.44 20.4057 38.07 20.7557C37.04 21.4257 36.15 22.2757 35.22 23.0757C34 24.1157 32.83 25.2257 31.58 26.2257C31.11 26.5157 30.48 26.5257 29.97 26.3457C29.34 26.7957 28.7 27.2157 28.05 27.6457C27.1 28.2057 26.15 29.1957 24.96 28.8457L24.97 28.8357Z" fill="#e30613" fill-opacity="0.77"/>
<path d="M7.38013 12.8257C7.45013 12.8257 7.51012 12.8257 7.58012 12.8257C7.52012 12.8257 7.46012 12.8257 7.40012 12.8357C7.40012 12.8357 7.39013 12.8257 7.38013 12.8157V12.8257Z" fill="#e30613" fill-opacity="0.77"/>
<path d="M4.29998 20.1456C4.29998 20.1456 4.27998 20.1456 4.26998 20.1456C4.15998 20.0056 4.05998 19.8656 3.97998 19.7156C4.00998 19.7356 4.03998 19.7556 4.06998 19.7756C4.25998 19.9056 4.45998 20.0356 4.64998 20.1756C4.53998 20.1656 4.41997 20.1556 4.30997 20.1456H4.29998Z" fill="#e30613" fill-opacity="0.77"/>
<path d="M10.01 23.0757C10.01 23.0757 10.03 23.0957 10.04 23.1057C10.03 23.1057 10.02 23.0857 10.01 23.0757Z" fill="#e30613" fill-opacity="0.77"/>
<path d="M10.8701 25.1157C10.8701 25.1157 10.9401 25.1157 10.9701 25.1157C11.0301 25.1557 11.0801 25.1957 11.1401 25.2357C11.1401 25.2357 11.1601 25.2557 11.1701 25.2557C11.0701 25.2157 10.9701 25.1657 10.8701 25.1157Z" fill="#e30613" fill-opacity="0.77"/>
<path d="M36.42 40.5656C35.7 39.6956 34.98 38.8356 34.19 38.0356C34.18 39.5356 33.03 38.1356 32.52 37.7556C32.39 37.9056 32.16 37.8856 32 37.7756C30.8 36.9056 29.68 35.9556 28.52 35.0356C26.72 33.6456 24.72 32.5456 22.78 31.3656C22.75 31.3956 22.71 31.4156 22.67 31.4356C22.69 31.6356 22.66 31.8356 22.56 32.0056C22.54 32.0456 22.51 32.0756 22.48 32.1056C22.41 32.4056 22.11 32.5456 21.85 32.6456C21.34 33.0056 20.81 33.3456 20.26 33.6556C18.27 34.8056 16.13 35.6856 13.89 36.1456C13.89 37.0356 13.25 36.6956 12.79 36.3556C12.69 36.4356 12.58 36.5256 12.48 36.6056C12.68 37.4756 12.28 37.7756 11.49 37.3656C11.43 37.4156 11.37 37.4556 11.31 37.5056C11.25 37.5556 11.18 37.6056 11.12 37.6656C10.82 37.7656 10.53 37.8956 10.23 38.0156C9.98 38.1156 9.74 38.2256 9.49 38.3256C9.28 38.4156 9.07 38.5156 8.86 38.6156C8.68 38.6956 8.5 38.7656 8.33 38.8556C8.29 38.8756 8.24 38.8956 8.2 38.9256C8.15 38.8956 8.09 38.8656 8.03 38.8556C7.89 38.8256 7.76 38.8156 7.63 38.8756C7.53 38.9156 7.43 38.9656 7.34 39.0156C7.27 39.0556 7.2 39.0956 7.12 39.1256C7.18 38.9256 7.24 38.7156 7.3 38.5156C7.37 38.2756 7.44 38.0356 7.5 37.8056C7.54 37.6656 7.58 37.5156 7.62 37.3756C7.66 37.2256 7.7 37.0756 7.73 36.9256C7.76 36.7656 7.78 36.6156 7.78 36.4456C7.78 36.4156 7.78 36.3756 7.77 36.3456C7.8 36.2456 7.83 36.1356 7.82 36.0356C7.91 35.8356 8.08 35.6856 8.33 35.6756C8.12 34.9156 8.42 34.0956 9.33 34.5156C8.99 33.9456 8.72 32.2356 9.85 32.6656C9.8 32.4656 9.78 32.2556 9.81 32.0556C9.83 31.8856 9.93 31.6756 10.08 31.5856C10.04 31.3056 10.08 31.0356 10.17 30.7756C10.1 30.4356 10.07 29.9656 10.43 29.8756C10.61 29.4556 10.15 28.4456 10.89 28.4456C11.26 27.5156 11.48 26.5056 11.87 25.6056C11.9 25.6056 11.92 25.6056 11.95 25.6056C12.05 25.5856 12.14 25.5256 12.2 25.4456C12.2 25.4456 12.22 25.4456 12.23 25.4456C12.45 25.4056 12.62 25.2056 12.64 24.9856C12.66 24.7856 12.55 24.5756 12.39 24.4556C12.2 24.3156 11.95 24.2956 11.72 24.2956C11.62 24.2156 11.52 24.1356 11.43 24.0656C11.25 23.9256 11.08 23.7856 10.9 23.6556C10.54 23.3756 10.17 23.1156 9.81 22.8456C9.24 22.4356 8.64 22.0656 8.02 21.7356C7.78 21.5356 7.54 21.3356 7.29 21.1456C7.03 20.9456 6.77 20.7456 6.52 20.5556C6.39 20.4556 6.25 20.3456 6.11 20.2456C5.67 19.9356 5.24 19.6256 4.8 19.3156C4.44 19.0556 4.06 18.8256 3.69 18.5756C3.65 18.5556 3.62 18.5256 3.58 18.5056C2.66 17.7756 1.66 17.1356 0.790001 16.3656C0.220001 15.7056 0.15 14.8056 0 13.9856C0 13.9856 0 13.9856 0 13.9756C0.14 13.9656 0.270002 13.9556 0.400002 13.9356C0.450002 13.9856 0.510002 14.0156 0.580002 14.0356C0.930002 14.1156 1.28 14.0956 1.64 14.1056C1.63 14.1556 1.62 14.2056 1.63 14.2656C1.66 14.4956 1.87 14.6556 2.09 14.6356C2.35 14.6156 2.62 14.5956 2.88 14.5656C3.19 14.5456 3.5 14.5156 3.82 14.4956C3.84 14.4956 3.85 14.4956 3.87 14.4956C4.3 14.4956 4.74 14.4856 5.18 14.4756C5.69 14.4956 6.19 14.5056 6.69 14.5256C6.87 14.5256 7.06 14.5456 7.24 14.5656L8.04 14.6156C8.34 14.6356 8.63 14.6456 8.93 14.6556C9.25 14.6556 9.58 14.6356 9.9 14.6156C10.14 14.5956 10.38 14.5656 10.61 14.5356C10.83 14.5156 11.04 14.4756 11.26 14.4556C11.32 14.4556 11.39 14.4356 11.45 14.4256C11.51 14.4256 11.57 14.4256 11.63 14.4256C11.79 14.4256 11.95 14.4556 12.11 14.4656C12.38 14.4856 12.66 14.5156 12.93 14.5356C13.27 14.5656 13.61 14.6056 13.96 14.6356C14.13 14.6656 14.31 14.7256 14.48 14.7256C14.52 14.7256 14.56 14.7256 14.59 14.7156C14.69 14.6956 14.79 14.6656 14.87 14.6056C14.89 14.5856 14.91 14.5656 14.93 14.5456C14.97 14.5456 15.02 14.5556 15.06 14.5656C15.1 14.5956 15.14 14.6156 15.19 14.6356C15.26 14.6656 15.36 14.6956 15.44 14.6956C15.55 14.6956 15.66 14.6756 15.76 14.6556C15.9 14.6256 16.01 14.5156 16.06 14.3856C16.12 14.5056 16.16 14.6256 16.2 14.7356C16.5 14.8856 16.75 15.1456 17 15.3556C17.02 15.3756 17.05 15.3956 17.07 15.4156C17.22 15.4256 17.37 15.4456 17.51 15.5056C17.71 15.5856 17.86 15.7556 17.99 15.9356C18 15.9056 18.02 15.8656 18.04 15.8356C18.11 15.7256 18.19 15.6756 18.29 15.6756C18.29 15.6656 18.29 15.6556 18.29 15.6456C16.38 13.7356 17.8 9.32562 19.16 7.39562C19.03 6.51562 19.6 6.24562 20.13 6.97562C20.21 6.41562 20.14 5.73562 20.54 5.29562C20.47 4.84562 20.79 4.10562 21.31 4.51562C21.34 3.73562 21.15 2.94562 21.27 2.17562C21.32 1.85562 21.66 1.49562 21.99 1.69562C21.99 1.67562 21.99 1.65562 21.99 1.64562C22.02 1.46562 22.1 1.25562 22.3 1.22562C22.04 0.715615 22.12 -0.464384 22.94 0.195616C23.27 0.175616 23.55 0.305616 23.76 0.575616C24.78 0.985616 24.88 2.33562 25.12 3.26562C26.08 5.12562 26.66 7.17562 26.98 9.24562C27.04 10.0256 27.34 10.8056 27.19 11.5856C27.8 13.5556 28.3 15.5656 28.66 17.6056C28.7 17.8856 28.64 18.4156 28.24 18.3456C27.7 18.2156 27.45 17.5656 27.3 17.1056C26.98 17.8356 26.23 16.9456 26.1 16.5056C26.16 17.2456 26.53 18.0456 26.29 18.7656C26 19.1956 25.49 18.7056 25.32 18.4056C24.87 17.6856 24.93 16.7656 24.74 15.9656C24.77 16.6156 24.78 17.2656 24.73 17.9156C24.87 17.9956 24.98 18.1156 25.07 18.2356C25.54 18.8456 26 19.4656 26.46 20.0856C27.58 20.8656 28.37 22.0356 29.13 23.1556C29.81 23.3656 30.12 24.2156 30.51 24.7556C30.54 24.6456 30.6 24.5456 30.71 24.4956C30.82 24.4456 30.93 24.4756 31.03 24.5256C31.99 23.5956 33 27.4556 33.34 28.0656C33.57 28.7356 35.59 33.8156 34.41 33.7556C34.83 35.3756 37.63 37.9756 37.15 39.5456C37.38 39.9456 37.69 41.0056 36.97 41.0356C36.75 40.9956 36.58 40.8056 36.44 40.6456L36.42 40.5656ZM27 26.1756C26.55 25.5956 26.1 25.0156 25.64 24.4456C25.97 25.1256 26.44 25.6756 27 26.1756ZM11.72 23.4256C11.93 23.4256 12.03 23.2456 12.06 23.0556C11.62 22.7456 11.18 22.4256 10.73 22.1356C10.79 22.2756 10.83 22.4156 10.85 22.5656C10.9 22.6256 10.96 22.6856 11.01 22.7456C11.18 22.9356 11.32 23.1656 11.42 23.4056C11.47 23.4056 11.51 23.4256 11.56 23.4256C11.65 23.4256 11.73 23.4256 11.82 23.4056C11.79 23.4056 11.76 23.4256 11.73 23.4256H11.72ZM14.03 17.9956C15.63 19.1556 17.16 20.4356 18.68 21.6956C17.11 20.2056 15.36 18.9156 13.69 17.5456C13.63 17.5456 13.57 17.5356 13.51 17.5256C13.43 17.5256 13.35 17.5056 13.26 17.4956C13.5 17.6956 13.73 17.8856 14.03 17.9856V17.9956ZM24.1 20.9456C24.24 20.9456 24.37 21.0356 24.46 21.1156C24.58 21.2256 24.7 21.3456 24.82 21.4656C24.52 21.0556 24.26 20.4056 24.49 19.9156C24.48 19.8956 24.47 19.8756 24.46 19.8556C24.43 19.8156 24.41 19.7656 24.39 19.7156C24.38 20.1356 24.26 20.5456 24.11 20.9356L24.1 20.9456ZM12.34 19.5156C12.96 19.9256 13.57 20.3556 14.16 20.8056C14.17 20.7356 14.19 20.6756 14.22 20.6156C14.2 20.5656 14.18 20.5056 14.16 20.4556C13.95 20.2756 13.73 20.1056 13.51 19.9256C13.27 19.7256 13.03 19.5156 12.79 19.3156C12.61 19.3256 12.45 19.3056 12.27 19.2656C12.1 19.2356 11.93 19.1956 11.76 19.1456C11.95 19.2656 12.15 19.3956 12.34 19.5156ZM9.19 20.4556C9.27 20.5156 9.35 20.5856 9.43 20.6456C9.43 20.6256 9.43 20.6056 9.42 20.5756C9.33 20.5156 9.23 20.4656 9.14 20.4056C9.16 20.4156 9.18 20.4356 9.2 20.4556H9.19ZM21.68 18.4956C21.78 18.5956 21.87 18.6956 21.97 18.7956C21.9 18.4956 21.83 18.1956 21.76 17.8856C21.73 18.0856 21.71 18.2956 21.68 18.4956ZM23.01 17.8656C23.03 17.4656 23.01 17.0556 22.97 16.6556C22.84 17.0656 22.9 17.4556 23.01 17.8656Z" fill="#e30613" fill-opacity="0.77"/>
<path d="M12.64 25.0157C11.82 24.6457 11.36 23.7957 10.62 23.2957C10.26 23.0757 9.06 22.2857 9.65 21.8457C10.27 21.5657 11 21.9457 11.48 22.3457C12.08 22.8257 12.99 23.1157 13.27 23.8757C13.51 24.1757 13.93 24.4257 13.95 24.8357C13.8 25.3757 13.02 25.1757 12.64 25.0157Z" fill="#e30613" fill-opacity="0.77"/>
<path d="M20.4201 6.33551C19.2901 5.96551 19.1101 5.34551 19.7101 4.34551C19.8901 3.99551 20.1101 3.66551 20.3401 3.35551C20.5101 3.06551 20.7501 2.78551 21.1001 2.73551C21.7801 2.66551 22.5001 2.96551 23.0301 3.37551C23.6401 3.90551 23.1601 4.34551 22.4901 4.22551C22.0901 4.78551 21.6401 5.37551 21.5401 6.07551C21.4601 6.55551 20.7301 6.42551 20.4301 6.33551H20.4201Z" fill="#e30613" fill-opacity="0.77"/>
<path d="M28.95 35.9856C27.21 35.0356 25.45 34.0856 23.87 32.9256C22.54 32.3156 20.42 31.5456 19.72 30.2156C19.81 29.1656 21.89 30.2356 22.44 30.4456C23.43 30.8656 24.38 31.4456 25.17 32.1856C25.98 32.5056 27.23 32.8256 27.42 33.7956C28.35 34.3656 29.42 34.7656 30.25 35.4756C30.95 36.3756 29.42 36.3456 28.95 35.9956V35.9856Z" fill="#e30613" fill-opacity="0.77"/>
</svg>
