<svg width="75" height="76" viewBox="0 0 75 76" fill="none" xmlns="http://www.w3.org/2000/svg">
<path d="M21.379 36.1133C16.6046 36.0346 11.6142 35.8969 7.1935 33.9303C4.73756 32.4553 2.39951 30.1936 2.12445 27.1846C0.827712 20.4783 0.552651 7.69494 6.56478 3.25027C9.33507 1.44094 12.8127 1.38193 15.9956 1.12627C16.4475 1.1066 16.919 1.08693 17.3709 1.12627C17.6067 1.12627 17.9014 1.18528 17.9996 1.42128C21.6147 0.575617 24.5029 0.831276 27.8626 2.36528C29.847 3.05361 31.8904 3.97795 33.2853 5.62995C34.5428 7.20328 34.1105 9.34693 34.2284 11.2349C34.2677 12.2773 34.3267 13.3196 34.366 14.3423C34.4249 19.0426 34.5428 23.8019 33.3639 28.3843C32.4994 30.7246 30.9669 32.9076 29.0022 34.4809C27.6465 35.4053 25.9568 35.5429 24.385 35.8183C23.383 36.0149 22.381 36.1526 21.3593 36.1133H21.379ZM16.8601 35.1496C19.4339 35.1889 22.0666 35.5036 24.6012 34.9333C25.9568 34.7169 27.3911 34.5596 28.5896 33.8123C30.3579 32.4553 31.635 30.587 32.5584 28.5613C33.0299 27.3813 33.1085 26.0833 33.3639 24.8443C33.8748 21.0683 33.7765 17.2529 33.6783 13.4573C33.6194 12.4543 33.5801 11.4513 33.5604 10.4483C33.5015 9.22894 33.6979 7.91129 33.1871 6.77062C31.9297 4.58762 29.3166 3.72228 27.0767 2.89628C24.8959 1.91295 22.4596 1.48026 20.0822 1.89326C19.1392 2.0506 18.2157 2.2866 17.253 2.32593C17.0369 2.32593 16.8993 2.10962 16.8993 1.91295C13.3235 2.12928 9.25648 2.07028 6.34866 4.43028C2.65493 8.00961 2.16374 14.4209 2.12445 19.3179C2.12445 21.1273 2.16374 22.9563 2.49775 24.746C2.83176 26.4373 2.81211 28.2859 3.81413 29.7413C4.8358 31.2753 6.34865 32.5536 7.97939 33.3796C10.8283 34.4416 13.8933 34.9529 16.919 35.1299L16.8601 35.1496Z" fill="black"/>
<path d="M13.3432 36.5262C11.2999 36.4476 9.4137 35.5429 7.60613 34.6776C5.9361 33.9696 4.56077 32.7896 3.28369 31.5506C2.45849 30.7442 2.06554 29.6429 1.69224 28.5613C0.925991 26.5946 0.316921 24.5492 0.474101 22.4252C0.729518 19.3572 0.415156 16.2499 1.00458 13.2213C1.67259 10.8023 2.53708 8.38324 3.49981 6.08224C5.05196 2.46357 9.02075 2.14891 12.3215 1.32291C14.7382 0.241245 17.3709 -0.171754 20.0037 0.064246C22.8133 0.162579 25.6425 0.516584 28.3146 1.42125C31.0456 2.36525 33.1675 4.68591 34.4642 7.22291C35.5841 9.62224 34.8768 12.2969 34.6607 14.8142C34.4446 16.6826 34.4053 18.5706 34.2874 20.4586C34.0516 23.3102 33.7176 26.2406 32.5584 28.8759C31.5368 30.7639 30.3186 32.6716 28.57 33.9696C27.5287 34.5989 26.3302 34.8349 25.2103 35.2479C24.169 35.6412 23.1276 35.9756 22.0274 36.1722C20.3573 36.6049 18.648 36.2902 16.978 36.1722C15.7402 36.1329 14.5417 36.5066 13.3235 36.5066L13.3432 36.5262ZM13.9523 35.6609C15.0132 35.5429 16.0545 35.3069 17.1352 35.3463C18.6677 35.4249 20.1609 35.7592 21.6541 35.4052C22.9901 35.2086 24.2475 34.7562 25.505 34.2842C26.6445 33.8909 27.8823 33.6353 28.7861 32.8289C31.0652 30.6459 32.6174 27.7352 33.1086 24.6082C33.5801 22.1302 33.6587 19.6326 33.7766 17.1152C33.8945 14.8929 34.3071 12.6902 34.4053 10.4482C34.5428 7.38024 32.303 4.80391 29.965 3.07324C27.7644 1.69658 25.0727 1.38192 22.5382 1.02792C22.4596 2.18826 18.2944 1.63759 17.3316 1.79492C15.4062 2.01126 13.4807 2.16858 11.6142 2.46358C8.96181 3.78125 6.25046 5.45291 4.44289 7.83257C3.79452 8.99291 3.51946 10.2516 3.12651 11.5102C3.06757 11.7069 2.89074 11.8643 2.67462 11.7856C2.14413 11.4906 2.61567 10.7826 2.69426 10.3499C2.98898 9.54357 3.18545 8.81592 3.49981 8.02925C4.67866 5.64959 7.0953 4.2139 9.25652 2.81757C5.24844 3.8009 4.06959 5.70857 2.96933 9.48457C2.47814 10.9792 1.84942 12.3166 1.57436 13.8309C1.26 15.4829 1.33859 17.1349 1.2993 18.8066C1.24035 21.3239 0.808105 23.9396 1.65295 26.3586C2.32096 28.2269 2.7925 30.3706 4.46254 31.6096C5.85751 32.9666 7.54719 33.8123 9.29582 34.5793C10.7497 35.1889 12.3019 35.7986 13.913 35.6609H13.9523ZM16.3689 0.94924C15.9367 1.00824 15.5241 1.10657 15.0918 1.22457C17.0173 0.890239 18.9624 1.0279 20.8878 0.909898C19.3946 0.870565 17.8621 0.752573 16.3689 0.94924Z" fill="black"/>
<path d="M15.9168 73.1652C13.343 73.1062 10.7888 72.7916 8.25431 72.3982C4.63917 72.1426 2.16359 70.0579 1.79028 66.3802C1.47592 63.5089 0.572138 60.7162 0.55249 57.8252C0.55249 54.9342 1.14191 52.0629 1.71169 49.2505C2.02605 47.7362 2.14394 46.1432 2.75301 44.7076C3.87292 41.9149 6.87898 40.8529 9.66892 40.6366C11.2997 40.4596 12.8911 39.9482 14.5218 39.8302C14.5611 39.6926 14.6594 39.5746 14.8166 39.5549C16.8206 38.9846 18.8836 38.9256 20.9466 39.1026C22.9113 39.2009 24.8761 39.4762 26.7033 40.2432C28.3537 41.1085 29.9844 42.0722 31.399 43.2916C33.1477 45.0616 33.0494 47.6575 33.3048 49.9586C33.9925 53.3806 34.4247 56.8616 34.4837 60.3622C34.4051 64.0399 34.1497 68.3272 30.8096 70.5102C28.5305 71.7689 25.8977 72.4572 23.3239 72.8112C20.8287 72.9489 18.412 73.3029 15.9168 73.1849V73.1652ZM15.1702 72.2999C18.078 72.4769 21.0252 72.1032 23.9133 71.8869C25.8977 71.5329 27.8625 70.9429 29.7093 70.1562C30.2202 69.9202 30.6721 69.6056 31.0847 69.2319C32.3421 68.2092 33.0298 66.7539 33.2852 65.2002C33.5603 63.5679 33.855 61.9356 33.7764 60.2639C33.6781 57.1959 33.462 54.1082 32.7744 51.1189C32.3421 49.1326 32.6368 46.9692 31.7723 45.1009C30.9275 43.2129 28.7859 42.4262 27.1748 41.3249C24.2866 39.8106 20.8876 39.8106 17.7047 39.8106C17.6458 39.8106 17.7047 39.8106 16.8599 39.9482C17.1546 40.0269 17.4886 40.1842 17.5279 40.5382C17.5869 40.9316 17.0957 41.2462 16.8795 40.8332C15.5632 40.4596 14.2271 40.5972 12.9304 40.8332C11.3979 41.1872 9.8261 41.3642 8.27395 41.6396C3.73538 42.3672 2.98878 45.3172 2.419 49.3095C1.90817 51.7482 1.43663 54.1869 1.27945 56.6649C1.04368 59.9492 2.14394 63.1156 2.51724 66.3606C2.8316 69.5466 5.15 71.3166 8.25431 71.5329C10.5727 71.8869 12.8715 72.1819 15.2095 72.2802L15.1702 72.2999Z" fill="black"/>
<path d="M16.5849 75.1516C12.5571 74.9353 8.29362 74.365 4.9732 71.887C3.42105 70.825 1.98678 69.4483 1.80996 67.4816C1.24018 64.9446 0.965117 62.3683 0.945469 59.7526C0.611462 56.1536 0.84723 52.4563 2.18326 49.0736C3.46034 45.455 6.80042 43.2326 10.1798 41.7773C10.1208 41.5806 10.1994 41.3053 10.4156 41.2463C12.4785 40.6563 14.5022 40.0073 16.5849 39.5353C22.0469 38.2569 26.3889 39.378 30.4756 43.213C31.8509 44.3536 32.46 46.045 32.794 47.756C33.2656 49.821 33.462 51.9253 33.9139 53.9903C34.3855 58.081 34.2479 62.3486 33.0102 66.282C32.2046 68.465 30.5935 70.294 28.8449 71.7886C27.391 72.9686 25.5638 73.4996 23.7758 73.9716C21.4181 74.6206 19.0211 75.1713 16.5652 75.1516H16.5849ZM16.5456 74.306C20.0035 74.306 23.4222 73.3226 26.6444 72.2016C28.3144 71.4543 29.5915 70.1563 30.7114 68.7599C31.8706 67.4619 32.5583 65.8296 32.853 64.1383C33.5996 60.2246 33.7371 56.1536 32.8726 52.2596C32.519 50.2929 32.3028 48.287 31.7134 46.399C31.124 44.3733 29.2378 43.1146 27.6071 41.9543C25.0726 40.145 21.87 39.5156 18.805 40.0073C19.8463 41.2856 15.5435 41.0889 14.9148 41.2266C12.6357 41.4429 10.5531 42.4459 8.54904 43.4686C6.26993 44.6486 4.16765 46.3006 3.10669 48.7C1.77066 51.6893 1.29912 55.0326 1.51524 58.2973C1.69207 60.4606 1.57419 62.6633 1.98678 64.807C2.36009 66.3606 2.30114 68.17 3.32281 69.4876C6.64324 73.1653 11.7712 74.1486 16.5259 74.3453L16.5456 74.306Z" fill="black"/>
<path d="M58.8074 74.9549C55.6834 74.7976 52.8738 73.2243 50.4965 71.2969C47.7458 69.0549 42.6178 63.9023 44.7398 60.0869C45.5257 58.3563 47.6476 58.7496 49.0426 59.3986C50.8305 60.0673 52.0683 61.6209 53.7187 62.5256C56.4693 63.7449 55.9585 58.7299 56.0174 57.1959C55.5655 49.0736 55.2905 40.9316 55.1529 32.7896C55.1333 28.1286 55.0743 23.4283 54.9957 18.7673C54.9171 16.2696 54.8582 13.7719 54.7993 11.2939C54.7993 11.0776 54.9957 10.9399 55.1922 10.9793C55.6441 11.0776 55.5459 11.6676 55.5655 11.9823C55.8602 20.6946 55.7816 29.4266 56.0174 38.1389C56.1156 44.3339 56.4104 50.4699 56.7444 56.6453C56.8033 59.0446 57.2159 65.1413 53.2078 63.0959C52.029 62.4076 51.0466 61.3259 49.8874 60.6573C48.7478 60.0673 47.3136 59.2609 46.0365 59.8313C44.7791 60.7949 44.7398 62.6633 45.4078 63.9809C47.5886 68.7403 53.4436 73.8536 58.8074 74.1486C61.7938 74.4829 64.2301 73.0866 66.352 71.1396C68.3364 69.5466 70.2815 67.8159 71.6961 65.6723C72.3641 64.5513 72.9928 63.2336 72.6195 61.8963C72.089 59.9296 69.7117 58.0809 67.8845 59.7329C66.0966 61.0899 65.1928 65.9279 62.5797 65.4953C59.495 65.1806 60.1827 56.1733 60.163 53.7543C60.3006 46.3989 61.6955 39.1812 62.2064 31.8849C62.4618 27.5582 62.3046 23.2316 61.8527 18.9246C61.8134 17.1546 60.0058 10.8416 62.2064 10.3893C63.6603 10.4089 64.4658 12.4936 65.4482 13.3786C66.8039 14.9126 69.3581 17.4496 71.3424 15.4829C73.3268 12.6706 69.6921 9.83859 68.081 7.77359C66.5681 6.08226 65.0749 4.35161 63.287 2.93561C57.098 -1.64672 54.8582 2.62092 50.1625 6.31825C47.8637 8.10792 45.1524 10.1139 44.5826 13.1426C44.5236 15.9943 47.2939 16.4859 49.3373 15.2076C51.695 13.7523 53.2668 11.3529 55.2512 9.44527C55.4083 9.28794 55.6638 9.3666 55.7816 9.50427C55.9192 9.6616 55.9781 9.97627 55.762 10.1139C54.1902 11.6086 52.8935 13.3589 51.2824 14.8143C49.8874 16.0336 47.9226 17.1546 46.0561 16.4859C44.3861 15.9549 43.4823 13.9293 43.9539 12.2773C44.9166 9.20928 47.6672 7.16394 50.0839 5.29561C52.4416 3.56494 54.3081 0.772269 57.3338 0.221603C62.0492 -0.348731 65.4678 3.80093 68.3167 6.9476C69.5152 8.32427 70.8512 9.62227 71.7943 11.1956C73.4644 13.4179 72.7571 17.2726 69.4563 16.9383C66.4699 16.4466 64.8391 13.5949 62.9923 11.5103C61.1061 9.74025 62.1671 15.7386 62.2457 16.4269C62.5011 17.9806 62.6779 19.5343 62.7958 21.1076C63.562 28.7973 62.619 36.5263 61.6366 44.1373C61.3026 47.2053 59.6325 63.7253 62.4618 64.6496C64.5444 65.2789 65.7822 59.7526 67.6684 58.8283C68.9062 57.9236 70.5958 58.1793 71.6764 59.2216C75.9203 62.8206 71.5586 67.8356 68.4346 70.4709C65.5268 72.9883 62.9333 75.4072 58.7877 74.9352L58.8074 74.9549Z" fill="black"/>
<path d="M55.5066 11.825C55.2905 11.7856 55.1333 11.5693 55.1333 11.353C55.2119 10.7237 55.1333 10.0156 55.3691 9.42563C55.6834 9.0323 56.2925 9.64198 56.0174 9.99598C55.9585 10.5073 55.9389 11.0186 55.8996 11.5103C55.8996 11.7266 55.7031 11.884 55.5066 11.825Z" fill="black"/>
<path d="M58.5913 73.8733C54.3671 73.9913 50.8305 71.1003 48.3943 67.8947C47.3922 66.695 46.6653 65.3183 46.0366 63.922C45.6829 63.214 45.4078 62.447 45.3882 61.6407C45.1721 59.4577 47.2154 57.6287 49.3373 58.4153C51.0663 59.0447 52.3631 60.4607 53.9349 61.385C54.4064 61.68 54.8976 61.7587 55.2119 61.2277C56.0371 59.674 55.6245 57.845 55.4281 56.193C54.5832 50.7453 55.1333 45.219 55.094 39.732C55.0155 35.189 55.1726 30.6067 55.1137 26.0637C55.0351 22.8777 54.9172 19.6917 54.9565 16.5057C54.9369 15.0307 55.1333 13.5163 54.7404 12.0807C53.5026 12.592 52.7756 14.008 51.9112 14.9913C50.9091 16.1713 49.9071 17.725 48.2371 17.9217C46.9993 17.961 45.7419 17.43 44.897 16.545C41.9499 13.2017 45.1328 9.22902 47.7655 6.86902C50.4179 4.50902 53.2079 2.24735 56.3318 0.536349C59.1807 -0.663317 62.4815 1.81468 64.7606 3.32901C67.5309 5.41368 70.6156 7.41967 72.3249 10.5073C73.9949 13.1623 72.8947 17.4693 69.1616 16.5843C66.7647 15.719 64.8981 13.89 63.0709 12.179C62.8155 11.9823 62.4422 11.7463 62.1475 11.9627C61.5188 14.4997 62.1082 17.017 62.3243 19.554C62.5601 24.2347 63.2674 28.8563 63.4246 33.537C63.5425 35.8183 64.2498 38.021 64.0533 40.3023C64.014 41.7577 63.346 43.154 63.5228 44.629C63.5621 44.9043 63.2478 45.101 63.012 44.9633C61.4205 49.2113 61.4991 53.7937 61.7742 58.258C61.8528 59.8903 61.7349 61.562 61.9117 63.1747C61.951 63.4303 62.0296 63.7057 62.2261 63.9023C62.2261 63.9023 62.2064 63.8827 62.1868 63.863C62.1868 63.863 62.1868 63.863 62.1868 63.8433C63.7782 65.1413 65.4679 61.4833 66.3913 60.559C67.138 59.8117 68.0614 59.2413 69.0241 58.8087C75.2524 57.078 75.0559 63.8433 71.6962 67.108C69.9083 69.173 67.5702 70.6087 65.1143 71.71C63.0709 72.7523 60.9686 73.9717 58.5913 73.8537V73.8733ZM57.7858 73.067C60.0649 73.3227 62.1671 72.3787 64.1122 71.297C66.5485 70.1563 69.0045 68.8977 70.8317 66.872C72.1677 65.456 73.3662 63.686 73.3073 61.6603C73.3073 60.677 72.7964 59.6347 71.7748 59.438C69.9083 58.9267 68.1203 60.0083 66.8629 61.2867C66.018 62.3487 65.409 63.5877 64.3087 64.4137C63.4442 65.161 61.9707 65.0823 61.4598 63.981C60.8704 62.6043 61.2044 61.0113 61.1062 59.556C61.0472 56.2717 60.6936 53.007 61.1258 49.7423C61.2634 48.5623 61.4795 47.3823 61.8135 46.2417C62.344 44.6093 62.9727 43.036 62.7566 41.3053C62.5797 37.49 61.8331 33.7337 61.5581 29.938C61.3616 26.8897 61.5974 23.802 61.3419 20.7733C61.3419 18.0987 59.8684 13.6343 61.4991 11.471C61.5974 11.0973 61.5974 10.586 61.9314 10.35C62.3243 10.055 62.8352 10.7827 62.4029 11.058C62.4029 11.058 62.4029 11.0973 62.3833 11.117C63.0906 11.1367 63.6211 11.6873 64.0926 12.1397C65.6054 13.6147 67.2755 15.0897 69.2795 15.8567C71.0282 16.427 72.5017 14.7357 72.4035 13.064C72.3445 12.1397 71.9516 11.2547 71.5193 10.4483C69.8886 7.872 67.3148 6.12167 64.9374 4.332C62.7173 2.81767 59.0235 -0.112659 56.3318 1.48034C52.8542 3.64367 44.0522 9.48467 44.5237 13.949C44.563 15.9157 46.6849 17.5283 48.5711 17.0367C50.3983 16.2107 51.3021 14.3227 52.5792 12.9067C56.9016 7.77367 55.5263 16.3287 55.7228 18.7477C56.0175 29.348 55.8014 39.9287 55.7424 50.529C55.7621 52.24 55.8603 53.9117 56.1157 55.603C56.3515 57.373 57.2749 62.3683 54.6029 62.4077C52.0487 61.857 49.0033 56.842 46.5474 60.1263C45.3096 62.3683 47.687 65.6133 48.964 67.4227C51.1449 70.2547 54.1313 72.89 57.8447 73.067H57.7858ZM62.3047 30.4887C62.5797 33.478 63.012 36.4673 63.346 39.4567C63.3853 37.962 63.0316 36.5263 62.8352 35.071C62.4815 32.2193 62.5797 29.3283 62.1671 26.4767C62.1671 27.814 62.1671 29.171 62.3047 30.5083V30.4887Z" fill="black"/>
<path d="M54.4261 65.1414C53.2472 64.984 52.3827 64.0204 51.6165 63.1747C50.5359 62.0144 49.6321 60.5787 48.3157 59.7134C48.1389 59.5954 48.0603 59.3594 48.1389 59.143C48.5318 58.258 50.1429 60.3427 50.4966 60.6967C53.1293 64.0401 56.1354 66.9901 55.9782 60.3231C56.0764 59.7134 56.823 59.9887 56.6659 60.5197V60.4804C56.5873 62.1324 56.8034 65.3184 54.3868 65.1611L54.4261 65.1414Z" fill="black"/>
<path d="M61.283 73.0474C61.2044 72.8114 61.3616 72.536 61.617 72.477C63.071 71.6904 64.5838 71.002 65.9984 70.117C67.6292 69.114 68.6115 67.5014 69.7118 65.987C70.7138 64.689 71.7551 63.391 73.0715 62.4077C73.602 61.975 73.9949 62.9584 73.4055 63.155C70.1833 65.5347 68.9062 69.9007 65.0946 71.5724C64.2498 72.005 63.4246 72.418 62.5994 72.89C62.2065 73.0474 61.5188 73.6767 61.3027 73.0277L61.283 73.0474Z" fill="black"/>
<path d="M44.0522 12.9852C43.6789 12.6705 44.0326 12.2575 44.229 11.9822C44.9167 10.6055 46.1741 9.72056 47.353 8.79622C49.1802 7.26222 50.9485 5.55123 52.756 4.03689C54.6618 2.28656 56.9213 -0.388114 59.8095 0.555886C61.1259 1.04755 62.1868 2.03087 63.3264 2.81754C64.407 3.46654 65.468 4.13523 66.5289 4.80389C66.7254 4.90223 66.7843 5.17755 66.7058 5.37421C66.3914 6.04288 65.5073 5.03989 65.0947 4.86289C63.6014 3.97789 62.1868 2.99455 60.7722 1.97189C59.0432 0.555888 56.7445 1.36222 55.2709 2.73889C53.1097 4.82355 50.7913 6.71156 48.5908 8.73723C47.1369 10.0352 45.3882 11.0186 44.5434 12.8476C44.5434 12.8476 44.5434 12.8082 44.563 12.7886C44.4845 13.0049 44.229 13.1229 44.0326 12.9655L44.0522 12.9852Z" fill="black"/>
<path d="M67.7861 16.3285C66.4305 15.8172 65.566 14.5979 64.6622 13.5359C63.8566 12.6902 63.3458 10.0549 61.9115 10.3302C61.8722 10.3695 61.8329 10.4088 61.8133 10.4678C61.6758 10.8022 61.6168 11.1759 61.6168 11.5495C61.7347 11.9232 61.2632 12.2968 60.9881 11.9428C60.713 11.2152 60.9881 9.58287 61.9312 9.4452C63.3851 9.3272 64.0138 10.9792 64.6032 12.0412C64.9962 12.8279 65.5856 13.4769 66.175 14.1062C66.6662 14.6962 67.236 15.2272 67.9826 15.4829C68.4148 15.6402 68.238 16.4465 67.7665 16.2892L67.7861 16.3285Z" fill="black"/>
<path d="M3.51944 47.5986C3.32296 47.5396 3.22473 47.3233 3.32296 47.1266C3.69626 46.34 4.06957 45.5533 4.50181 44.806C5.87714 42.0133 9.2958 41.5413 12.0661 41.2266C14.7774 41.089 17.4298 40.5776 20.1216 40.4006C23.1669 40.4596 26.3891 40.7546 29.1397 42.1313C29.3755 42.3083 29.7292 42.3673 29.8667 42.6623C29.9649 42.9967 29.572 43.3113 29.2576 43.1736C29.0415 42.9966 28.7468 42.8196 28.5503 42.7016C26.2909 41.561 23.6777 41.3447 21.2022 41.1283C19.0409 41.03 16.919 41.4823 14.7774 41.6986C11.7321 42.092 7.56682 41.7773 5.52348 44.4716C4.9537 45.3566 4.48217 46.3203 4.04992 47.284C3.95168 47.4806 3.73556 47.6183 3.51944 47.5593V47.5986Z" fill="black"/>
<path d="M9.41366 72.6934C6.7809 72.3984 4.75721 70.6874 3.3033 68.5437C2.91035 67.7964 2.47811 67.049 1.94763 66.4C1.81009 65.9674 2.45846 65.6527 2.73352 66.0067C3.36224 66.8327 3.77484 67.7964 4.36426 68.642C5.20911 69.6254 6.15219 70.5694 7.27209 71.238C8.03834 71.6314 8.90283 71.769 9.72803 71.946C10.2192 72.1034 9.82626 72.8114 9.41366 72.6737V72.6934Z" fill="black"/>
<path d="M33.5995 9.36661C33.5995 9.36661 33.5209 9.20928 33.5406 9.13062C31.9295 6.16095 29.336 3.74194 26.0549 2.75861C25.603 2.54227 26.0549 1.87361 26.4675 2.05061C28.4126 2.73894 30.2791 3.70262 31.6741 5.25628C32.6368 6.25928 33.462 7.38027 34.1693 8.56027C34.2872 8.75693 34.4051 9.01262 34.2675 9.22896C34.13 9.46496 33.7567 9.60262 33.5799 9.34695L33.5995 9.36661Z" fill="black"/>
<path d="M14.0503 35.7592C11.1228 35.3855 7.54701 34.7955 5.93592 32.0225C4.8946 30.4492 4.18729 28.4629 2.47796 27.4796C1.82959 27.5189 2.10465 26.5945 2.63514 26.6732C3.00844 26.7715 3.3228 27.0665 3.63716 27.2829C5.89662 29.1315 6.28957 32.7306 9.23669 33.8122C13.0876 35.4642 17.3118 35.1692 21.3592 34.7169C23.4025 34.3629 25.662 34.4022 27.4303 33.2419C28.3537 32.6125 29.0413 31.7275 29.9255 31.0589C30.2988 30.7835 31.8116 29.6625 32.0278 30.2919C32.1456 30.9015 31.0847 30.9802 30.7114 31.3342C29.0806 32.5535 27.7839 34.4219 25.6423 34.7759C21.8307 35.5035 17.9209 35.9559 14.0503 35.7592Z" fill="black"/>
<path d="M6.70229 5.74796C6.2111 5.1383 7.7829 4.19429 8.17585 3.80095C9.39399 2.77829 10.8283 2.10962 12.4001 1.83429C14.2862 1.24429 16.1527 0.870619 18.1175 0.850952C18.589 0.850952 18.589 1.67697 18.1175 1.69663C16.2903 1.69663 14.4827 1.99163 12.7537 2.52263C11.6927 2.7783 10.6514 3.0143 9.728 3.6043C8.88316 4.11564 8.07761 4.70563 7.38995 5.41363C7.21312 5.62997 6.997 6.00364 6.70229 5.72831V5.74796Z" fill="black"/>
<path d="M0.670573 20.8127C0.474098 20.7733 0.336566 20.5373 0.375861 20.3603C0.552689 19.023 0.611632 17.666 0.925992 16.3483C1.43683 10.0747 4.93408 3.91898 11.1623 1.89331C11.3588 1.79498 11.5553 1.89332 11.6339 2.08999C11.85 2.69966 11.0641 2.77834 10.6711 2.93567C5.99504 4.60734 2.8318 9.13065 1.88872 13.9096C1.6333 15.778 1.20105 17.6463 1.14211 19.5343C1.02423 19.9473 1.24035 20.793 0.650925 20.8127H0.670573Z" fill="black"/>
<path d="M3.20507 29.879C2.26199 28.9546 1.98692 27.5976 1.53503 26.398C0.74913 24.4706 0.729484 22.3466 0.434771 20.321C0.218649 20.1046 0.336532 19.731 0.336532 19.4753C0.336532 19.259 0.395474 18.964 0.650891 18.9246C1.02419 18.8853 1.08314 19.318 1.06349 19.5933C1.27961 21.4026 1.31891 23.2316 1.7708 25.0016C2.24234 26.339 2.57635 27.814 3.38189 28.994C3.59802 29.23 3.93202 29.5053 3.6766 29.8396C3.55872 29.997 3.3426 30.0166 3.20507 29.879Z" fill="black"/>
<path d="M5.05194 32.1602C1.63328 29.1315 -0.0564043 21.0289 0.21866 16.5646C0.415135 13.5359 1.63328 10.7236 3.46049 8.30457C5.38595 5.17757 8.31342 2.64055 11.7714 1.40155C13.4414 0.949215 15.1704 1.02788 16.8601 0.693548C17.7246 0.555881 18.589 0.437893 19.4535 0.39856C19.65 0.39856 19.7679 0.595231 19.7679 0.772231C19.7679 0.949231 19.65 1.12624 19.4535 1.1459C18.0979 1.2049 16.8011 1.46057 15.4651 1.63757C14.3452 1.7949 13.1663 1.7949 12.125 2.07024C9.13861 3.07324 6.48621 5.13823 4.67864 7.71456C3.08719 9.9959 1.37786 12.3756 1.04385 15.2076C0.238308 19.9669 1.8887 27.6172 5.16983 31.2162C5.85749 31.0982 5.79854 32.5142 5.07159 32.1602H5.05194Z" fill="black"/>
<path d="M17.9996 36.4672C14.1683 36.3099 10.2585 35.3462 6.997 33.2616C4.89472 31.9242 3.46045 29.8199 2.30125 27.6566C2.08513 27.0272 0.297212 24.6869 1.90831 24.9032C2.18337 24.9622 2.36019 25.2966 2.12442 25.5129C3.34257 28.2662 4.81613 31.0786 7.42924 32.7306C10.5532 34.7366 14.2862 35.6609 17.9603 35.8182C20.3966 35.7789 22.8132 35.2676 25.053 34.3039C27.9412 33.4976 30.9473 31.9636 31.91 28.9152C32.244 28.1876 32.6173 27.4402 33.0299 26.7519C33.2067 26.5159 33.4229 26.2602 33.305 25.9456C33.0299 25.4932 33.8158 25.2179 34.0319 25.6112C34.2481 26.0242 34.2088 26.5552 33.8944 26.8896C33.0299 28.0302 32.637 29.4265 31.9493 30.6655C31.4581 31.4129 30.8097 32.0422 30.1221 32.6322C28.8843 33.7335 27.2732 34.2449 25.7603 34.7366C24.8369 35.0119 23.9921 35.4249 23.0883 35.7199C21.4379 36.0936 19.7089 36.3885 18.0192 36.4082L17.9996 36.4672Z" fill="black"/>
<path d="M24.5422 34.5005C26.9981 33.3402 29.1201 31.4719 31.0062 29.5249C32.4994 27.6959 33.3246 25.4145 33.8748 23.1332C34.9947 19.1212 35.1322 14.8339 34.1105 10.7825C33.2068 8.50119 31.969 6.27885 30.3579 4.44986C30.24 4.52852 30.0828 4.50888 29.9649 4.41054C29.6506 4.13521 29.3362 3.84019 29.0415 3.56486C28.3735 3.19119 27.7055 2.79785 27.0571 2.38485C26.5856 2.05052 26.0354 1.79487 25.446 1.91287C25.446 1.91287 25.4656 1.91287 25.4853 1.91287C25.3085 1.97187 25.112 1.87353 25.0334 1.69653C24.7976 0.9492 25.7996 1.02787 26.2712 1.14587C26.9589 1.32287 27.4893 1.81451 28.0788 2.16851C28.4324 1.85385 28.7664 2.34554 29.0808 2.50287C30.5347 3.44687 31.7332 4.76454 32.7352 6.16088C34.307 7.79321 34.6607 10.0352 35.0536 12.1789C36.4682 19.2785 34.5428 27.4009 29.4541 32.6518C28.0395 33.6745 26.3105 34.5005 24.7583 35.3265C24.2868 35.5035 24.0903 34.7169 24.5226 34.5399L24.5422 34.5005Z" fill="black"/>
<path d="M31.8707 31.8653C31.4974 31.4129 32.2047 30.9999 32.3815 30.6263C32.8334 29.9969 33.2656 29.3086 33.5996 28.6399C34.6017 26.6143 34.8964 24.4116 35.2107 22.2089C35.7805 18.5706 35.4858 14.7356 33.9729 11.3726C33.5407 10.9596 34.0319 10.2516 34.4641 10.8023C36.6646 15.3059 36.3503 20.5569 35.3679 25.3359C35.0732 26.9879 34.5034 28.6006 33.6193 30.0559C33.2263 30.6853 32.7941 31.2949 32.3422 31.8849C32.2243 32.0423 32.0082 32.0029 31.8903 31.8849L31.8707 31.8653Z" fill="black"/>
<path d="M27.2143 34.9726C26.9392 34.6186 27.2928 34.3432 27.5679 34.1466C28.177 33.5762 29.1004 33.6746 29.8077 33.2812C30.0828 33.1042 30.4364 32.8486 30.6722 33.2419C31.0652 34.2056 28.8843 34.3039 28.3342 34.5792C27.9609 34.7169 27.6269 35.4446 27.2339 34.9726H27.2143Z" fill="black"/>
<path d="M27.9018 34.2647C27.8036 34.068 27.9018 33.773 28.0983 33.7337C29.0021 33.537 29.6308 32.8093 30.2988 32.1997C31.0258 31.5113 31.7331 30.9017 32.2832 30.115C33.187 28.5417 33.4228 26.7323 33.8354 25.0016C33.9729 24.5493 34.5427 24.8837 34.4248 25.2573C33.6978 28.935 33.3835 30.6657 30.397 33.183C29.9648 33.6157 28.3734 35.13 27.8822 34.2843L27.9018 34.2647Z" fill="black"/>
<path d="M10.671 75.6629C10.2584 75.6235 10.1995 74.8959 10.671 74.9155C12.9698 75.2499 15.1507 74.6599 17.4101 74.4239C20.6127 74.2469 24.0706 73.6765 26.3301 71.1985C26.4676 71.0215 26.7034 71.0609 26.8605 71.1985C27.3714 71.8672 26.1336 72.3785 25.7603 72.7915C24.66 73.6569 23.3633 74.2665 22.0076 74.5812C20.4358 74.9549 18.8444 75.0926 17.2333 75.2106C15.0524 75.5056 12.8912 75.9579 10.6907 75.6825L10.671 75.6629Z" fill="black"/>
<path d="M9.49225 74.9745C7.70433 74.3255 6.25042 73.0472 4.71792 71.9852C4.56074 71.8672 4.50179 71.6116 4.60003 71.4542C4.69827 71.2772 4.91439 71.2772 5.07157 71.3952C7.07561 72.8506 9.0993 74.6402 11.6731 74.6402C14.3845 74.7582 17.0565 74.3452 19.6107 73.4405C20.0429 73.3029 20.4752 73.1652 20.8681 72.9882C21.0646 72.9096 21.2807 73.0669 21.3593 73.2439C21.6147 73.9519 20.2591 74.0109 19.8268 74.2469C16.5261 75.2892 12.8716 75.9382 9.47261 74.9942L9.49225 74.9745Z" fill="black"/>
<path d="M14.4041 74.719C13.3431 74.4437 12.2428 74.6403 11.1819 74.601C9.05996 74.6403 7.09521 73.5193 5.66094 72.005C4.34456 70.648 3.63725 68.878 2.73347 67.2457C1.47603 64.984 0.14 62.6437 0.00246737 60.0083C-0.0171801 59.8313 0.0810598 59.615 0.277535 59.615C0.474009 59.615 0.650834 59.792 0.670482 59.969C0.729424 60.5 0.768721 61.0113 0.886605 61.5227C1.31885 63.45 2.36017 65.1807 3.30324 66.8917C5.28764 71.0807 7.60604 74.365 12.734 73.7357C13.3038 73.775 14.856 73.539 14.8363 74.3846C14.8167 74.601 14.6202 74.7387 14.4237 74.6993L14.4041 74.719Z" fill="black"/>
<path d="M0.611421 61.9946C0.198824 60.3033 0.434591 58.553 0.650713 56.842C0.729303 54.423 0.45424 52.004 0.572125 49.585C0.473888 46.0056 3.34242 43.2523 6.58425 42.2493C8.64724 41.6003 10.5923 40.617 12.5767 39.7713C13.8931 39.2403 15.3863 38.9453 16.8009 39.0633C17.1742 39.083 17.7047 38.9453 17.7833 39.4566C17.8226 40.1843 16.8206 39.8106 16.3687 39.8696C14.9541 39.8106 13.6573 40.1843 12.3803 40.7153C11.1621 41.207 10.0029 41.8166 8.78477 42.2886C7.21297 42.8786 5.52329 43.3113 4.14797 44.3143C2.22251 45.75 1.24014 47.4806 1.25979 49.88C1.16155 53.0266 1.59379 56.2323 1.04366 59.3396C1.00437 60.2443 1.1419 61.0506 1.29908 61.9356C1.35803 62.447 0.690012 62.447 0.631069 61.975L0.611421 61.9946Z" fill="black"/>
<path d="M1.02404 62.1717C-0.803177 56.901 0.886507 51.1387 3.02808 46.222C3.57821 45.278 4.34446 44.511 4.95353 43.6063C5.79838 42.387 6.66286 41.1283 8.05784 40.499C8.49008 40.2827 8.84373 41.0103 8.41149 41.207C8.29361 41.266 8.19536 41.325 8.11678 41.3447C6.78075 41.9937 6.09309 43.3113 5.24825 44.452C4.61953 45.2977 3.83363 46.1237 3.38174 47.0677C1.67241 51.4533 0.0613141 56.37 1.43664 61.0507C1.47593 61.503 1.98676 62.1127 1.51523 62.388C1.31875 62.4667 1.08298 62.329 1.02404 62.1323V62.1717Z" fill="black"/>
<path d="M32.1458 68.1699C31.9886 68.1109 31.8904 67.8946 31.9297 67.7176C32.7549 64.8069 33.5801 61.8766 33.9534 58.8676C34.7393 52.7709 34.4839 44.5109 28.1181 41.5216C25.5246 40.0663 22.4793 39.7713 19.5518 39.5746C19.3357 39.5746 19.1392 39.5746 18.9427 39.5746C18.1175 39.6139 17.2137 39.2599 16.4278 39.5746C16.3492 39.6336 16.2903 39.7516 16.2903 39.8499C16.2117 40.4203 15.4651 40.1253 15.5633 39.6533C15.7009 38.4143 17.1744 38.6306 18.0782 38.7289C20.4163 38.8273 22.7543 39.0829 25.0531 39.5549C32.9121 41.6986 34.9357 47.3036 34.9357 54.8556C34.8572 58.3956 34.2284 61.9159 33.2854 65.3379C33.0299 66.2229 32.7942 67.0883 32.5584 67.9733C32.5191 68.1503 32.3423 68.2289 32.1851 68.1699H32.1458Z" fill="black"/>
<path d="M29.8863 70.5102C29.4934 69.9006 30.5347 69.4876 30.8098 69.0549C33.9141 65.8492 34.4445 61.5029 34.0712 57.2549C33.7765 54.5606 33.246 51.8859 32.5191 49.2702C31.8707 46.7529 31.0259 44.1569 29.0218 42.4066C27.9216 41.3642 26.3694 40.9316 24.8959 41.0299C24.4047 40.9709 23.4223 41.4232 23.2848 40.7349C23.2455 40.0466 24.2868 40.4006 24.6994 40.2629C26.0747 40.1449 27.4697 40.4596 28.6289 41.2069C31.2617 43.0359 32.3816 46.1629 33.1282 49.1719C34.1498 52.9676 34.9554 56.8812 34.7982 60.8539C34.7982 63.7646 33.8158 66.5966 32.0279 68.8779C31.5564 69.5072 31.0062 70.0776 30.4365 70.6086C30.2793 70.7659 30.0239 70.6676 29.906 70.5102H29.8863Z" fill="black"/>
<path d="M25.5048 70.8643C25.2494 70.4906 25.6031 70.2939 25.8585 70.0973C27.6857 68.7796 29.061 67.0489 30.0237 65.0429C31.8313 61.0899 33.3638 56.7239 33.2263 52.3383C33.0298 49.6439 31.6152 47.0282 29.6701 45.1992C28.1179 43.9602 26.664 42.3476 24.6993 41.7969C24.5028 41.7379 24.3653 41.5216 24.3849 41.3053C24.4046 41.1086 24.5814 40.9512 24.7975 41.0102C26.4086 41.4036 27.5875 42.5836 28.8449 43.5866C34.3462 47.8346 34.7981 53.5379 32.7351 59.7919C31.4973 64.0006 29.7094 68.4059 25.9567 70.9429C25.8192 71.0609 25.6227 71.0216 25.5048 70.8643Z" fill="black"/>
<path d="M14.3648 75.1318C14.0308 75.1515 13.7164 74.8762 13.8147 74.5418C13.854 74.3452 14.0504 74.2468 14.2273 74.2862C14.7774 74.3452 15.3079 74.2075 15.858 74.1878C17.7049 74.0895 19.5714 74.1288 21.3396 73.5388C23.4419 72.8308 25.4263 71.7688 27.2339 70.5102C30.1024 68.1698 31.91 64.6495 33.0692 61.1882C33.2067 60.8735 33.1281 60.1458 33.639 60.2835C34.1694 60.5982 33.639 61.3258 33.5997 61.7782C32.6173 64.5905 31.1634 67.3045 29.2772 69.5858C27.9215 71.1788 26.0747 72.1818 24.2475 73.1455C22.5185 74.0502 20.652 74.6992 18.6872 74.8368C17.253 74.8762 15.8187 75.0335 14.3844 75.1122L14.3648 75.1318Z" fill="black"/>
<path d="M20.3376 74.7975C20.0429 74.2665 20.7305 74.0895 21.0645 73.8535C22.3023 73.1455 23.6383 72.6342 24.8368 71.9065C29.5129 68.9565 31.3598 63.1352 31.792 57.8842C31.8706 57.4319 32.4601 57.6482 32.4011 58.0415C31.9689 64.3152 29.2575 71.2575 23.0489 73.7552C22.3023 74.1289 21.5557 74.5222 20.8484 74.9745C20.6716 75.0925 20.4358 74.9745 20.3376 74.7975Z" fill="black"/>
<path d="M16.1722 74.6403C12.1052 74.1093 8.47038 71.769 5.44467 69.0943C2.69402 66.7146 1.63306 63.1746 1.06328 59.6936C1.02399 59.5166 1.06328 59.3003 1.27941 59.261C1.88848 59.1626 1.82953 60.6573 2.00636 61.09C2.61543 65.2593 5.09102 68.5633 8.62756 70.7266C10.6905 72.1426 12.95 73.303 15.4256 73.7356C15.9954 73.7946 16.6241 73.9913 17.1546 73.7356C17.3117 73.4603 17.6654 73.5193 17.8029 73.775C18.1173 74.6796 16.7616 74.7386 16.1722 74.6403Z" fill="black"/>
<path d="M45.8989 17.784C43.6787 16.545 43.8949 13.4377 44.7397 11.3727C46.6062 6.96735 50.9483 4.45 54.6813 1.77534C55.1725 1.48034 56.7247 0.497014 57.039 1.26401C57.098 1.48035 56.9801 1.75568 56.7443 1.81468C55.8012 1.81468 54.9957 2.50301 54.2687 2.95535C53.3846 3.56501 52.5201 4.17469 51.636 4.80402C49.9266 6.04302 48.1387 7.32133 46.8813 9.052C45.6042 10.6843 44.6022 12.7494 44.8183 14.8537C45.6631 18.1774 47.2939 17.194 49.4158 15.66C49.5926 15.542 49.7891 15.66 49.8481 15.837C50.0249 16.2697 49.4355 16.486 49.18 16.6827C48.237 17.3317 47.1171 18.256 45.8989 17.7643V17.784Z" fill="black"/>
<path d="M55.4673 34.9726C54.8189 31.885 55.2708 28.7186 55.3887 25.5916C55.4476 22.504 55.2708 19.4163 55.6048 16.3483C55.6048 16.368 55.6048 16.3876 55.6048 16.4073C55.6245 14.4013 55.9388 12.3166 55.5655 10.3303C54.6814 11.943 53.3257 13.2016 52.1272 14.5783C51.2824 15.5616 50.5358 16.6433 49.3373 17.2136C48.9836 17.371 48.237 17.8036 48.1388 17.1546C48.0995 16.84 48.3549 16.6433 48.6496 16.6236C49.8874 16.25 50.6929 15.188 51.4985 14.244C52.5005 13.064 53.7187 11.9626 54.5831 10.6646C55.0154 10.0943 55.2315 9.28799 55.7816 8.83565C56.43 8.71765 56.1549 9.52397 56.2139 9.89764C56.7444 12.9656 56.1942 16.1516 56.0371 19.259C55.9585 22.6023 56.1353 25.9457 55.7816 29.2693C55.7423 31.0787 55.6834 32.947 56.096 34.717C56.2139 35.13 55.6245 35.484 55.4673 34.953V34.9726Z" fill="black"/>
<path d="M55.0153 45.0222C54.2294 43.8815 53.5024 42.5049 53.8757 41.0889C53.9936 40.5775 54.2687 40.2235 54.4062 39.7515C54.583 39.2402 54.4062 38.6895 54.4062 38.1389C54.2883 35.6215 53.8364 33.1435 53.8364 30.6262C53.915 28.2858 54.4258 25.9849 54.5241 23.6445C54.642 21.5205 54.642 19.3965 54.8777 17.2922C55.0153 16.0139 55.2314 14.7159 55.3689 13.4572C55.3689 12.3755 55.251 11.2939 55.1921 10.2122C54.9563 9.7992 55.5654 9.26819 55.8208 9.79919C55.8798 9.97619 55.8798 10.1532 55.8994 10.3302C55.8994 11.0972 55.8994 11.8642 55.9976 12.6508C56.0173 14.1652 55.644 15.6599 55.5065 17.1742C55.251 19.2589 55.2707 21.3435 55.1528 23.4282C55.0742 25.8275 54.5241 28.2072 54.4455 30.6065C54.4455 32.6715 54.8188 34.6775 54.9563 36.7229C55.5654 31.8259 55.8798 26.8699 56.0173 21.9335C55.9976 20.0652 55.8601 18.1772 56.1941 16.3089C56.2531 15.8369 56.9014 15.8762 56.8425 16.3875C56.4102 18.6885 56.7442 21.0289 56.6264 23.3692C56.312 28.7382 56.1155 34.1269 55.1528 39.4369C55.251 40.8725 55.4082 42.3279 55.6047 43.7439C55.644 44.1765 55.8208 44.6879 55.5065 45.0419C55.3689 45.1992 55.1332 45.1795 55.0153 45.0222ZM54.8384 43.2719C54.7402 42.5245 54.6616 41.7575 54.6027 41.0102C54.308 41.7378 54.4651 42.5835 54.8384 43.2719Z" fill="black"/>
<path d="M53.9544 64.689C52.7755 64.4727 51.6949 63.863 50.7125 63.214C49.6516 62.329 49.0621 61.0507 48.3941 59.8903C48.2959 59.733 48.3352 59.497 48.4924 59.379C48.6496 59.261 48.8264 59.32 48.9246 59.4774C49.2783 60.087 49.6319 60.6967 50.0052 61.267C50.4768 62.0733 51.1644 62.7223 52.0289 63.096C52.9327 63.5287 53.9937 64.1777 55.0153 63.804C55.2315 63.7057 55.2708 63.4697 55.31 63.273C55.5655 61.3063 54.8582 59.3593 54.6224 57.432C54.3277 55.544 53.8365 53.6363 54.033 51.6893C54.2098 50.057 54.4849 48.4247 54.6813 46.7923C54.7796 45.9467 54.8189 45.101 54.8582 44.2553C54.8974 43.9013 54.7796 43.2917 55.2511 43.2327C55.7816 43.272 55.5851 43.9603 55.5655 44.3143C55.4869 47.3037 54.6027 50.2537 54.6027 53.2233C54.7992 55.308 55.2708 57.3337 55.6048 59.379C55.9191 61.1293 57.0194 65.161 53.9544 64.6694V64.689Z" fill="black"/>
<path d="M45.7221 66.2818C44.8773 65.1608 44.3664 63.8038 44.504 62.3878C44.5825 61.1292 44.9559 59.6148 46.2722 59.1232C47.8637 58.5135 49.3765 59.7722 50.7519 60.4212C51.1841 60.5785 50.9876 61.3652 50.5161 61.2275C50.3 61.1488 50.1035 61.0308 49.907 60.9128C48.7085 60.2442 46.9599 59.0248 45.781 60.3425C45.0148 61.5618 44.9559 63.2728 45.506 64.5905C45.7025 65.0035 45.9579 65.3772 46.2133 65.7508C46.3312 65.9082 46.3115 66.1442 46.174 66.3015C46.0561 66.4392 45.8203 66.4392 45.7025 66.2818H45.7221Z" fill="black"/>
<path d="M51.8325 72.3982C50.1428 72.2212 48.8461 71.0806 47.8047 69.8416C45.7614 67.5799 44.3271 64.1383 45.447 61.1293C45.5256 60.9523 45.7221 60.8146 45.9382 60.9129C46.3312 61.1489 46.0365 61.6012 45.9382 61.9159C45.3685 64.5316 46.4884 67.2849 48.1977 69.2123C49.1801 70.3923 50.3589 71.5526 51.9504 71.6312C52.3826 71.6902 52.2844 72.4769 51.8521 72.4179L51.8325 72.3982Z" fill="black"/>
<path d="M56.4497 73.8732C53.7776 73.8732 51.0073 73.3618 49.0819 71.3558C48.5711 70.8445 46.7438 68.9368 47.5101 68.2682C47.7262 68.1502 47.962 68.3075 48.0013 68.5238C49.1015 71.1002 51.8522 72.9095 54.6225 73.0078C55.2708 73.0078 55.9192 73.0472 56.5676 73.0668C56.7837 73.0668 56.8819 73.3225 56.8426 73.4995C56.823 73.6962 56.6658 73.8732 56.4497 73.8535V73.8732Z" fill="black"/>
<path d="M55.3297 74.4435C55.035 74.3452 54.9171 74.0108 54.9957 73.7158C55.5065 72.4965 57.1962 72.8702 58.2571 72.6932C59.7307 72.5948 61.165 72.3589 62.6189 72.1622C64.0924 71.9655 65.6053 71.8672 66.961 71.2379C68.8668 70.3135 69.9867 68.4255 71.2638 66.8522C72.1086 65.5542 73.2678 64.1185 73.091 62.4862C72.8159 61.4242 72.7177 59.9099 71.2638 59.9689C70.7333 59.9689 70.2225 60.0475 69.7116 60.1459C69.5152 60.1852 69.358 60.0082 69.3187 59.8312C69.2401 59.1035 70.7136 59.2412 71.2048 59.1625C72.9535 59.1232 73.3071 60.3819 73.6215 61.8372C74.5253 64.6889 70.4386 69.1728 68.4935 71.1002C66.961 72.4375 64.8587 72.6538 62.9136 72.9095C60.6934 73.2832 58.4536 73.4798 56.1942 73.7158C56.4496 74.2468 55.7226 74.5615 55.2904 74.4632L55.3297 74.4435Z" fill="black"/>
<path d="M62.6191 66.1639C62.4226 66.1049 62.344 65.8689 62.4029 65.6723C62.5798 64.9839 62.7566 64.2759 63.012 63.6073C64.1516 60.4803 67.8256 59.0446 70.9103 58.8086C71.4211 58.9069 71.2443 59.7723 70.7335 59.6346C67.8846 59.9296 64.4266 61.1883 63.5032 64.1579C63.3264 64.7086 63.1692 65.2789 63.0317 65.8689C62.9924 66.0656 62.7959 66.2033 62.5994 66.1443L62.6191 66.1639Z" fill="black"/>
<path d="M63.6406 64.0989C62.4421 62.5846 61.892 60.5392 61.6169 58.6512C61.3418 56.4879 61.892 54.3443 62.2456 52.2203C62.6189 49.1916 62.9726 46.1629 62.9726 43.1146C63.3066 39.1616 62.0099 35.4249 61.6955 31.5309C61.6366 28.0893 61.7348 24.6279 61.9509 21.1863C62.0884 18.4526 62.6386 15.7189 62.4421 12.9852C62.4028 12.8082 62.4028 12.7493 62.3439 12.6313C62.1867 12.3559 62.4028 11.8839 62.7565 11.9822C63.1494 12.1986 63.1298 12.7689 63.1887 13.1623C63.2673 15.8763 62.7368 18.5903 62.56 21.3043C62.3439 24.6279 62.2456 28.0303 62.3046 31.3539C62.4421 33.8516 63.1298 36.1919 63.4834 38.6306C63.7192 40.6563 63.6013 42.7213 63.6209 44.7469C63.4441 47.5003 63.228 50.2733 62.7761 53.0069C62.501 54.5999 62.1277 56.2913 62.226 57.9039C62.3439 59.7919 62.9726 61.6603 63.955 63.2729C64.0139 63.3516 64.0532 63.3713 64.1121 63.4303C64.4854 63.6859 64.0925 64.4333 63.6995 64.0793L63.6406 64.0989Z" fill="black"/>
<path d="M62.9727 65.161C61.5973 64.7676 60.8507 63.3909 60.3596 62.1519C59.7308 60.7556 59.7112 59.1823 60.3596 57.786C60.5757 57.2943 61.1455 57.6483 60.9686 58.1006C60.6936 58.8479 60.4185 59.6346 60.5953 60.4213C60.9883 61.9553 61.6366 64.0006 63.3656 64.394C63.3656 64.1186 63.4049 63.7253 63.7389 63.7056C63.955 63.7056 64.1122 63.9219 64.0926 64.1186C64.1122 64.8659 63.7782 65.456 62.9727 65.161Z" fill="black"/>
<path d="M62.5405 66.4196C61.6171 65.8886 61.1259 64.9053 60.674 63.9613C59.1415 60.9916 59.2987 57.5696 59.5541 54.3443C59.6916 51.3156 60.9687 48.5623 61.6563 45.6516C62.4619 41.9346 63.4246 38.198 63.3067 34.363C63.2085 32.239 62.7959 30.1543 62.7173 28.05C62.678 25.2376 62.7959 22.386 62.5994 19.5933C62.5994 18.433 62.1279 17.3906 61.676 16.3483C61.1652 14.4603 61.8135 12.474 62.5405 10.7236C62.7566 10.1533 64.2302 8.99298 64.4266 9.87798C64.4463 10.0746 64.3284 10.291 64.1319 10.3303C63.739 10.4286 63.3853 10.6646 63.1692 10.999C62.5012 12.4346 61.9904 14.0866 62.1868 15.6796C62.6387 17.076 63.3264 18.4133 63.2282 19.9276C63.405 22.6613 63.2478 25.3753 63.3067 28.109C63.405 30.2133 63.8372 32.298 63.8962 34.422C63.9944 38.8273 62.8548 43.154 61.8332 47.4216C60.8312 50.293 60.0453 53.243 60.0453 56.311C59.9274 58.7496 60.0453 61.2473 61.1848 63.4303C61.5974 64.2366 61.9511 65.102 62.7173 65.5936C63.2674 65.7313 63.071 66.7343 62.4815 66.4196H62.5405Z" fill="black"/>
</svg>
