<?xml version="1.0" encoding="UTF-8"?>
<svg id="Layer_1" data-name="Layer 1" xmlns="http://www.w3.org/2000/svg" viewBox="0 0 75 76">
  <defs>
    <style>
      .cls-1 {
        stroke: #000;
        stroke-miterlimit: 10;
      }
    </style>
  </defs>
  <path class="cls-1" d="M22.56,36.31c-4.56-.08-9.33-.21-13.56-2.09-2.35-1.41-4.58-3.57-4.85-6.45-1.24-6.41-1.5-18.63,4.24-22.88,2.65-1.73,5.97-1.79,9.02-2.03.43-.02.88-.04,1.31,0,.23,0,.51.06.6.28,3.46-.81,6.22-.56,9.43.9,1.9.66,3.85,1.54,5.18,3.12,1.2,1.5.79,3.55.9,5.36.04,1,.09,1.99.13,2.97.06,4.49.17,9.04-.96,13.42-.83,2.24-2.29,4.32-4.17,5.83-1.3.88-2.91,1.02-4.41,1.28-.96.19-1.92.32-2.89.28h.02ZM18.24,35.39c2.46.04,4.98.34,7.4-.21,1.3-.21,2.67-.36,3.81-1.07,1.69-1.3,2.91-3.08,3.79-5.02.45-1.13.53-2.37.77-3.55.49-3.61.39-7.26.3-10.89-.06-.96-.09-1.92-.11-2.88-.06-1.17.13-2.43-.36-3.52-1.2-2.09-3.7-2.91-5.84-3.7-2.08-.94-4.41-1.35-6.69-.96-.9.15-1.78.38-2.7.41-.21,0-.34-.21-.34-.39-3.42.21-7.31.15-10.09,2.41-3.53,3.42-4,9.55-4.04,14.23,0,1.73.04,3.48.36,5.19.32,1.62.3,3.38,1.26,4.78.98,1.47,2.42,2.69,3.98,3.48,2.72,1.02,5.65,1.5,8.55,1.67l-.06.02Z"/>
  <path class="cls-1" d="M14.88,36.7c-1.95-.08-3.76-.94-5.48-1.77-1.6-.68-2.91-1.8-4.13-2.99-.79-.77-1.16-1.82-1.52-2.86-.73-1.88-1.31-3.84-1.16-5.87.24-2.93-.06-5.9.51-8.8.64-2.31,1.46-4.62,2.39-6.82,1.48-3.46,5.28-3.76,8.43-4.55,2.31-1.03,4.83-1.43,7.34-1.2,2.69.09,5.39.43,7.94,1.3,2.61.9,4.64,3.12,5.88,5.55,1.07,2.29.39,4.85.19,7.26-.21,1.79-.24,3.59-.36,5.4-.23,2.73-.54,5.53-1.65,8.05-.98,1.8-2.14,3.63-3.81,4.87-1,.6-2.14.83-3.21,1.22-1,.38-1.99.7-3.04.88-1.6.41-3.23.11-4.83,0-1.18-.04-2.33.32-3.49.32l.02.02ZM15.46,35.87c1.01-.11,2.01-.34,3.04-.3,1.46.08,2.89.39,4.32.06,1.28-.19,2.48-.62,3.68-1.07,1.09-.38,2.27-.62,3.14-1.39,2.18-2.09,3.66-4.87,4.13-7.86.45-2.37.53-4.76.64-7.16.11-2.12.51-4.23.6-6.37.13-2.93-2.01-5.4-4.24-7.05-2.1-1.32-4.68-1.62-7.1-1.96-.08,1.11-4.06.58-4.98.73-1.84.21-3.68.36-5.47.64-2.54,1.26-5.13,2.86-6.86,5.13-.62,1.11-.88,2.31-1.26,3.52-.06.19-.23.34-.43.26-.51-.28-.06-.96.02-1.37.28-.77.47-1.47.77-2.22,1.13-2.27,3.44-3.65,5.5-4.98-3.83.94-4.96,2.76-6.01,6.37-.47,1.43-1.07,2.71-1.33,4.15-.3,1.58-.23,3.16-.26,4.76-.06,2.41-.47,4.91.34,7.22.64,1.79,1.09,3.84,2.69,5.02,1.33,1.3,2.95,2.11,4.62,2.84,1.39.58,2.87,1.17,4.41,1.03h.04ZM17.77,2.69c-.41.06-.81.15-1.22.26,1.84-.32,3.7-.19,5.54-.3-1.43-.04-2.89-.15-4.32.04Z"/>
  <path class="cls-1" d="M17.34,71.73c-2.46-.06-4.9-.36-7.32-.73-3.46-.24-5.82-2.24-6.18-5.75-.3-2.74-1.16-5.41-1.18-8.18,0-2.76.56-5.51,1.11-8.2.3-1.45.41-2.97,1-4.34,1.07-2.67,3.94-3.68,6.61-3.89,1.56-.17,3.08-.66,4.64-.77.04-.13.13-.24.28-.26,1.92-.55,3.89-.6,5.86-.43,1.88.09,3.76.36,5.5,1.09,1.58.83,3.14,1.75,4.49,2.91,1.67,1.69,1.58,4.17,1.82,6.37.66,3.27,1.07,6.6,1.13,9.95-.08,3.52-.32,7.61-3.51,9.7-2.18,1.2-4.7,1.86-7.16,2.2-2.39.13-4.7.47-7.08.36v-.02ZM16.62,70.9c2.78.17,5.6-.19,8.36-.39,1.9-.34,3.78-.9,5.54-1.65.49-.23.92-.53,1.31-.88,1.2-.98,1.86-2.37,2.1-3.85.26-1.56.54-3.12.47-4.72-.09-2.93-.3-5.88-.96-8.74-.41-1.9-.13-3.97-.96-5.75-.81-1.8-2.85-2.56-4.39-3.61-2.76-1.45-6.01-1.45-9.05-1.45-.06,0,0,0-.81.13.28.08.6.23.64.56.06.38-.41.68-.62.28-1.26-.36-2.54-.23-3.78,0-1.46.34-2.97.51-4.45.77-4.34.7-5.05,3.52-5.6,7.33-.49,2.33-.94,4.66-1.09,7.03-.23,3.14.83,6.17,1.18,9.27.3,3.05,2.52,4.74,5.48,4.94,2.22.34,4.41.62,6.65.71l-.04.02Z"/>
  <path class="cls-1" d="M17.98,73.63c-3.85-.21-7.93-.75-11.1-3.12-1.48-1.02-2.85-2.33-3.02-4.21-.54-2.43-.81-4.89-.83-7.39-.32-3.44-.09-6.97,1.18-10.21,1.22-3.46,4.41-5.58,7.64-6.97-.06-.19.02-.45.23-.51,1.97-.56,3.91-1.18,5.9-1.64,5.22-1.22,9.37-.15,13.28,3.52,1.31,1.09,1.9,2.71,2.22,4.34.45,1.97.64,3.99,1.07,5.96.45,3.91.32,7.99-.86,11.75-.77,2.09-2.31,3.84-3.98,5.26-1.39,1.13-3.14,1.64-4.85,2.09-2.25.62-4.55,1.15-6.89,1.13h.02ZM17.94,72.82c3.31,0,6.57-.94,9.65-2.01,1.6-.71,2.82-1.96,3.89-3.29,1.11-1.24,1.77-2.8,2.05-4.42.71-3.74.85-7.63.02-11.36-.34-1.88-.54-3.8-1.11-5.6-.56-1.94-2.37-3.14-3.93-4.25-2.42-1.73-5.48-2.33-8.41-1.86,1,1.22-3.12,1.03-3.72,1.17-2.18.21-4.17,1.17-6.09,2.14-2.18,1.13-4.19,2.71-5.2,5-1.28,2.86-1.73,6.05-1.52,9.17.17,2.07.06,4.17.45,6.22.36,1.49.3,3.21,1.28,4.47,3.17,3.52,8.08,4.46,12.62,4.64l.02-.04Z"/>
  <path class="cls-1" d="M58.34,73.44c-2.99-.15-5.67-1.65-7.94-3.5-2.63-2.14-7.53-7.07-5.5-10.72.75-1.65,2.78-1.28,4.11-.66,1.71.64,2.89,2.12,4.47,2.99,2.63,1.17,2.14-3.63,2.2-5.09-.43-7.76-.69-15.55-.83-23.33-.02-4.46-.08-8.95-.15-13.4-.08-2.39-.13-4.78-.19-7.14,0-.21.19-.34.38-.3.43.09.34.66.36.96.28,8.33.21,16.68.43,25,.09,5.92.38,11.79.69,17.69.06,2.29.45,8.12-3.38,6.17-1.13-.66-2.07-1.69-3.17-2.33-1.09-.56-2.46-1.33-3.68-.79-1.2.92-1.24,2.71-.6,3.97,2.08,4.55,7.68,9.44,12.81,9.72,2.85.32,5.18-1.02,7.21-2.88,1.9-1.52,3.76-3.18,5.11-5.23.64-1.07,1.24-2.33.88-3.61-.51-1.88-2.78-3.65-4.53-2.07-1.71,1.3-2.57,5.92-5.07,5.51-2.95-.3-2.29-8.91-2.31-11.22.13-7.03,1.46-13.93,1.95-20.91.24-4.14.09-8.27-.34-12.39-.04-1.69-1.77-7.73.34-8.16,1.39.02,2.16,2.01,3.1,2.86,1.3,1.47,3.74,3.89,5.63,2.01,1.9-2.69-1.58-5.4-3.12-7.37-1.45-1.62-2.87-3.27-4.58-4.62-5.92-4.38-8.06-.3-12.55,3.23-2.2,1.71-4.79,3.63-5.33,6.52-.06,2.73,2.59,3.2,4.55,1.97,2.25-1.39,3.76-3.68,5.65-5.51.15-.15.39-.08.51.06.13.15.19.45-.02.58-1.5,1.43-2.74,3.1-4.28,4.49-1.33,1.17-3.21,2.24-5,1.6-1.6-.51-2.46-2.44-2.01-4.02.92-2.93,3.55-4.89,5.86-6.67,2.25-1.65,4.04-4.32,6.93-4.85,4.51-.55,7.78,3.42,10.5,6.43,1.15,1.32,2.42,2.56,3.32,4.06,1.6,2.12.92,5.81-2.23,5.49-2.85-.47-4.41-3.2-6.18-5.19-1.8-1.69-.79,4.04-.71,4.7.24,1.49.41,2.97.53,4.47.73,7.35-.17,14.74-1.11,22.02-.32,2.93-1.92,18.72.79,19.61,1.99.6,3.17-4.68,4.98-5.56,1.18-.86,2.8-.62,3.83.38,4.06,3.44-.11,8.23-3.1,10.75-2.78,2.41-5.26,4.72-9.22,4.27l.02.02Z"/>
  <path class="cls-1" d="M55.18,13.09c-.21-.04-.36-.24-.36-.45.08-.6,0-1.28.23-1.84.3-.38.88.21.62.55-.06.49-.08.98-.11,1.45,0,.21-.19.36-.38.3Z"/>
  <path class="cls-1" d="M58.13,72.4c-4.04.11-7.42-2.65-9.75-5.72-.96-1.15-1.65-2.46-2.25-3.8-.34-.68-.6-1.41-.62-2.18-.21-2.09,1.75-3.84,3.78-3.08,1.65.6,2.89,1.96,4.4,2.84.45.28.92.36,1.22-.15.79-1.49.39-3.23.21-4.81-.81-5.21-.28-10.49-.32-15.74-.08-4.34.08-8.72.02-13.07-.08-3.05-.19-6.09-.15-9.14-.02-1.41.17-2.86-.21-4.23-1.18.49-1.88,1.84-2.7,2.78-.96,1.13-1.92,2.61-3.51,2.8-1.18.04-2.39-.47-3.19-1.32-2.82-3.2.23-6.99,2.74-9.25,2.54-2.26,5.2-4.42,8.19-6.05,2.72-1.15,5.88,1.22,8.06,2.67,2.65,1.99,5.6,3.91,7.23,6.86,1.6,2.54.54,6.66-3.02,5.81-2.29-.83-4.08-2.58-5.82-4.21-.24-.19-.6-.41-.88-.21-.6,2.43-.04,4.83.17,7.26.23,4.47.9,8.89,1.05,13.37.11,2.18.79,4.29.6,6.47-.04,1.39-.68,2.73-.51,4.14.04.26-.26.45-.49.32-1.52,4.06-1.45,8.44-1.18,12.71.08,1.56-.04,3.16.13,4.7.04.24.11.51.3.7,0,0-.02-.02-.04-.04v-.02c1.52,1.24,3.14-2.26,4.02-3.14.71-.71,1.6-1.26,2.52-1.67,5.95-1.65,5.77,4.81,2.55,7.93-1.71,1.97-3.94,3.35-6.29,4.4-1.95,1-3.96,2.16-6.24,2.05v.02ZM57.36,71.63c2.18.24,4.19-.66,6.05-1.69,2.33-1.09,4.68-2.29,6.42-4.23,1.28-1.35,2.42-3.05,2.37-4.98,0-.94-.49-1.94-1.46-2.12-1.78-.49-3.49.55-4.7,1.77-.81,1.02-1.39,2.2-2.44,2.99-.83.71-2.23.64-2.72-.41-.56-1.32-.24-2.84-.34-4.23-.06-3.14-.39-6.26.02-9.38.13-1.13.34-2.26.66-3.35.51-1.56,1.11-3.06.9-4.72-.17-3.65-.88-7.24-1.15-10.87-.19-2.91.04-5.87-.21-8.76,0-2.56-1.41-6.82.15-8.89.09-.36.09-.85.41-1.07.38-.28.86.41.45.68,0,0,0,.04-.02.06.68.02,1.18.55,1.63.98,1.45,1.41,3.04,2.82,4.96,3.55,1.67.55,3.08-1.07,2.99-2.67-.06-.88-.43-1.73-.85-2.5-1.56-2.46-4.02-4.14-6.29-5.85-2.12-1.45-5.65-4.25-8.23-2.73-3.32,2.07-11.74,7.65-11.29,11.92.04,1.88,2.07,3.42,3.87,2.95,1.75-.79,2.61-2.59,3.83-3.95,4.13-4.91,2.82,3.27,3.01,5.58.28,10.13.08,20.25.02,30.38.02,1.64.11,3.23.36,4.85.23,1.69,1.11,6.47-1.45,6.5-2.44-.53-5.35-5.32-7.7-2.18-1.18,2.14,1.09,5.25,2.31,6.97,2.08,2.71,4.94,5.23,8.49,5.4h-.06ZM61.68,30.93c.26,2.86.68,5.72,1,8.57.04-1.43-.3-2.8-.49-4.19-.34-2.73-.24-5.49-.64-8.22,0,1.28,0,2.58.13,3.85v-.02Z"/>
  <path class="cls-1" d="M54.15,64.06c-1.13-.15-1.95-1.07-2.69-1.88-1.03-1.11-1.9-2.48-3.16-3.31-.17-.11-.24-.34-.17-.55.38-.85,1.92,1.15,2.25,1.49,2.52,3.2,5.39,6.02,5.24-.36.09-.58.81-.32.66.19v-.04c-.08,1.58.13,4.62-2.18,4.47l.04-.02Z"/>
  <path class="cls-1" d="M60.71,71.61c-.08-.23.08-.49.32-.55,1.39-.75,2.84-1.41,4.19-2.26,1.56-.96,2.5-2.5,3.55-3.95.96-1.24,1.95-2.48,3.21-3.42.51-.41.88.53.32.71-3.08,2.27-4.3,6.45-7.94,8.05-.81.41-1.6.81-2.39,1.26-.38.15-1.03.75-1.24.13l-.02.02Z"/>
  <path class="cls-1" d="M44.23,14.2c-.36-.3-.02-.7.17-.96.66-1.32,1.86-2.16,2.99-3.05,1.75-1.47,3.44-3.1,5.16-4.55,1.82-1.67,3.98-4.23,6.74-3.33,1.26.47,2.27,1.41,3.36,2.16,1.03.62,2.05,1.26,3.06,1.9.19.09.24.36.17.55-.3.64-1.15-.32-1.54-.49-1.43-.85-2.78-1.79-4.13-2.76-1.65-1.35-3.85-.58-5.26.73-2.07,1.99-4.28,3.8-6.39,5.73-1.39,1.24-3.06,2.18-3.87,3.93,0,0,0-.04.02-.06-.08.21-.32.32-.51.17l.02.02Z"/>
  <path class="cls-1" d="M66.92,17.39c-1.3-.49-2.12-1.65-2.99-2.67-.77-.81-1.26-3.33-2.63-3.06-.04.04-.08.08-.09.13-.13.32-.19.68-.19,1.03.11.36-.34.71-.6.38-.26-.7,0-2.26.9-2.39,1.39-.11,1.99,1.47,2.55,2.48.38.75.94,1.37,1.5,1.97.47.56,1.01,1.07,1.73,1.32.41.15.24.92-.21.77l.02.04Z"/>
  <path class="cls-1" d="M5.49,47.29c-.19-.06-.28-.26-.19-.45.36-.75.71-1.5,1.13-2.22,1.31-2.67,4.58-3.12,7.23-3.42,2.59-.13,5.13-.62,7.7-.79,2.91.06,5.99.34,8.62,1.65.23.17.56.23.69.51.09.32-.28.62-.58.49-.21-.17-.49-.34-.68-.45-2.16-1.09-4.66-1.3-7.02-1.5-2.07-.09-4.09.34-6.14.55-2.91.38-6.89.08-8.85,2.65-.54.85-1,1.77-1.41,2.69-.09.19-.3.32-.51.26v.04Z"/>
  <path class="cls-1" d="M11.12,71.28c-2.52-.28-4.45-1.92-5.84-3.97-.38-.71-.79-1.43-1.3-2.05-.13-.41.49-.71.75-.38.6.79,1,1.71,1.56,2.52.81.94,1.71,1.84,2.78,2.48.73.38,1.56.51,2.35.68.47.15.09.83-.3.7v.02Z"/>
  <path class="cls-1" d="M34.24,10.74s-.08-.15-.06-.23c-1.54-2.84-4.02-5.15-7.16-6.09-.43-.21,0-.85.39-.68,1.86.66,3.64,1.58,4.98,3.06.92.96,1.71,2.03,2.39,3.16.11.19.23.43.09.64-.13.23-.49.36-.66.11l.02.02Z"/>
  <path class="cls-1" d="M15.55,35.97c-2.8-.36-6.22-.92-7.76-3.57-1-1.5-1.67-3.4-3.31-4.34-.62.04-.36-.85.15-.77.36.09.66.38.96.58,2.16,1.77,2.54,5.21,5.35,6.24,3.68,1.58,7.72,1.3,11.59.86,1.95-.34,4.11-.3,5.8-1.41.88-.6,1.54-1.45,2.39-2.09.36-.26,1.8-1.33,2.01-.73.11.58-.9.66-1.26,1-1.56,1.17-2.8,2.95-4.85,3.29-3.64.7-7.38,1.13-11.08.94Z"/>
  <path class="cls-1" d="M8.53,7.28c-.47-.58,1.03-1.49,1.41-1.86,1.16-.98,2.54-1.62,4.04-1.88,1.8-.56,3.59-.92,5.47-.94.45,0,.45.79,0,.81-1.75,0-3.47.28-5.13.79-1.01.24-2.01.47-2.89,1.03-.81.49-1.58,1.05-2.24,1.73-.17.21-.38.56-.66.3v.02Z"/>
  <path class="cls-1" d="M2.76,21.68c-.19-.04-.32-.26-.28-.43.17-1.28.23-2.58.53-3.84.49-6,3.83-11.88,9.79-13.82.19-.09.38,0,.45.19.21.58-.54.66-.92.81-4.47,1.6-7.49,5.92-8.4,10.49-.24,1.79-.66,3.57-.71,5.38-.11.39.09,1.2-.47,1.22h.02Z"/>
  <path class="cls-1" d="M5.19,30.35c-.9-.88-1.16-2.18-1.6-3.33-.75-1.84-.77-3.87-1.05-5.81-.21-.21-.09-.56-.09-.81,0-.21.06-.49.3-.53.36-.04.41.38.39.64.21,1.73.24,3.48.68,5.17.45,1.28.77,2.69,1.54,3.82.21.23.53.49.28.81-.11.15-.32.17-.45.04Z"/>
  <path class="cls-1" d="M6.95,32.53c-3.27-2.9-4.88-10.64-4.62-14.91.19-2.9,1.35-5.58,3.1-7.9,1.84-2.99,4.64-5.41,7.94-6.6,1.6-.43,3.25-.36,4.86-.68.83-.13,1.65-.24,2.48-.28.19,0,.3.19.3.36s-.11.34-.3.36c-1.3.06-2.54.3-3.81.47-1.07.15-2.2.15-3.19.41-2.85.96-5.39,2.93-7.12,5.4-1.52,2.18-3.16,4.46-3.47,7.16-.77,4.55.81,11.86,3.94,15.3.66-.11.6,1.24-.09.9h-.02Z"/>
  <path class="cls-1" d="M19.33,36.65c-3.66-.15-7.4-1.07-10.52-3.06-2.01-1.28-3.38-3.29-4.49-5.36-.21-.6-1.92-2.84-.38-2.63.26.06.43.38.21.58,1.16,2.63,2.57,5.32,5.07,6.9,2.99,1.92,6.55,2.8,10.07,2.95,2.33-.04,4.64-.53,6.78-1.45,2.76-.77,5.63-2.24,6.55-5.15.32-.7.68-1.41,1.07-2.07.17-.23.38-.47.26-.77-.26-.43.49-.7.69-.32.21.39.17.9-.13,1.22-.83,1.09-1.2,2.43-1.86,3.61-.47.71-1.09,1.32-1.75,1.88-1.18,1.05-2.72,1.54-4.17,2.01-.88.26-1.69.66-2.55.94-1.58.36-3.23.64-4.85.66l-.02.06Z"/>
  <path class="cls-1" d="M25.58,34.77c2.35-1.11,4.38-2.9,6.18-4.76,1.43-1.75,2.22-3.93,2.74-6.11,1.07-3.84,1.2-7.93.23-11.81-.86-2.18-2.05-4.31-3.59-6.05-.11.08-.26.06-.38-.04-.3-.26-.6-.55-.88-.81-.64-.36-1.28-.73-1.9-1.13-.45-.32-.98-.56-1.54-.45h.04c-.17.06-.36-.04-.43-.21-.23-.71.73-.64,1.18-.53.66.17,1.16.64,1.73.98.34-.3.66.17.96.32,1.39.9,2.54,2.16,3.49,3.5,1.5,1.56,1.84,3.7,2.22,5.75,1.35,6.79-.49,14.55-5.35,19.57-1.35.98-3.01,1.77-4.49,2.56-.45.17-.64-.58-.23-.75l.02-.04Z"/>
  <path class="cls-1" d="M32.59,32.25c-.36-.43.32-.83.49-1.18.43-.6.85-1.26,1.16-1.9.96-1.94,1.24-4.04,1.54-6.15.54-3.48.26-7.14-1.18-10.36-.41-.39.06-1.07.47-.55,2.1,4.31,1.8,9.32.86,13.89-.28,1.58-.83,3.12-1.67,4.51-.38.6-.79,1.18-1.22,1.75-.11.15-.32.11-.43,0l-.02-.02Z"/>
  <path class="cls-1" d="M28.14,35.22c-.26-.34.08-.6.34-.79.58-.55,1.46-.45,2.14-.83.26-.17.6-.41.83-.04.38.92-1.71,1.02-2.23,1.28-.36.13-.68.83-1.05.38h-.02Z"/>
  <path class="cls-1" d="M28.79,34.54c-.09-.19,0-.47.19-.51.86-.19,1.46-.88,2.1-1.47.69-.66,1.37-1.24,1.9-1.99.86-1.5,1.09-3.23,1.48-4.89.13-.43.68-.11.56.24-.69,3.52-1,5.17-3.85,7.58-.41.41-1.93,1.86-2.4,1.05l.02-.02Z"/>
  <path class="cls-1" d="M12.32,74.11c-.39-.04-.45-.73,0-.71,2.2.32,4.28-.24,6.44-.47,3.06-.17,6.37-.71,8.53-3.08.13-.17.36-.13.51,0,.49.64-.69,1.13-1.05,1.52-1.05.83-2.29,1.41-3.59,1.71-1.5.36-3.02.49-4.56.6-2.08.28-4.15.71-6.25.45l-.02-.02Z"/>
  <path class="cls-1" d="M11.2,73.46c-1.71-.62-3.1-1.84-4.56-2.86-.15-.11-.21-.36-.11-.51.09-.17.3-.17.45-.06,1.92,1.39,3.85,3.1,6.31,3.1,2.59.11,5.15-.28,7.59-1.15.41-.13.83-.26,1.2-.43.19-.08.39.08.47.24.24.68-1.05.73-1.46.96-3.16,1-6.65,1.62-9.9.71l.02-.02Z"/>
  <path class="cls-1" d="M15.89,73.21c-1.01-.26-2.07-.08-3.08-.11-2.03.04-3.91-1.03-5.28-2.48-1.26-1.3-1.93-2.99-2.8-4.55-1.2-2.16-2.48-4.4-2.61-6.92-.02-.17.08-.38.26-.38s.36.17.38.34c.06.51.09,1,.21,1.49.41,1.84,1.41,3.5,2.31,5.13,1.9,4,4.11,7.14,9.02,6.54.54.04,2.03-.19,2.01.62-.02.21-.21.34-.39.3l-.02.02Z"/>
  <path class="cls-1" d="M2.71,61.05c-.39-1.62-.17-3.29.04-4.93.08-2.31-.19-4.62-.08-6.94-.09-3.42,2.65-6.05,5.75-7.01,1.97-.62,3.83-1.56,5.73-2.37,1.26-.51,2.69-.79,4.04-.68.36.02.86-.11.94.38.04.7-.92.34-1.35.39-1.35-.06-2.59.3-3.81.81-1.16.47-2.27,1.05-3.44,1.5-1.5.56-3.12.98-4.43,1.94-1.84,1.37-2.78,3.03-2.76,5.32-.09,3.01.32,6.07-.21,9.04-.04.86.09,1.64.24,2.48.06.49-.58.49-.64.04l-.02.02Z"/>
  <path class="cls-1" d="M3.1,61.22c-1.75-5.04-.13-10.55,1.92-15.25.53-.9,1.26-1.64,1.84-2.5.81-1.17,1.63-2.37,2.97-2.97.41-.21.75.49.34.68-.11.06-.21.11-.28.13-1.28.62-1.93,1.88-2.74,2.97-.6.81-1.35,1.6-1.78,2.5-1.63,4.19-3.17,8.89-1.86,13.37.04.43.53,1.02.08,1.28-.19.08-.41-.06-.47-.24v.04Z"/>
  <path class="cls-1" d="M32.85,66.95c-.15-.06-.24-.26-.21-.43.79-2.78,1.58-5.58,1.93-8.46.75-5.83.51-13.72-5.58-16.58-2.48-1.39-5.39-1.67-8.19-1.86h-.58c-.79.04-1.65-.3-2.4,0-.08.06-.13.17-.13.26-.08.55-.79.26-.69-.19.13-1.18,1.54-.98,2.4-.88,2.24.09,4.47.34,6.67.79,7.51,2.05,9.45,7.41,9.45,14.63-.08,3.38-.68,6.75-1.58,10.02-.24.85-.47,1.67-.69,2.52-.04.17-.21.24-.36.19h-.04Z"/>
  <path class="cls-1" d="M30.69,69.19c-.38-.58.62-.98.88-1.39,2.97-3.06,3.47-7.22,3.12-11.28-.28-2.58-.79-5.13-1.48-7.63-.62-2.41-1.43-4.89-3.34-6.56-1.05-1-2.54-1.41-3.94-1.32-.47-.06-1.41.38-1.54-.28-.04-.66.96-.32,1.35-.45,1.31-.11,2.65.19,3.76.9,2.52,1.75,3.59,4.74,4.3,7.61.98,3.63,1.75,7.37,1.6,11.17,0,2.78-.94,5.49-2.65,7.67-.45.6-.98,1.15-1.52,1.65-.15.15-.39.06-.51-.09h-.02Z"/>
  <path class="cls-1" d="M26.5,69.53c-.24-.36.09-.55.34-.73,1.75-1.26,3.06-2.91,3.98-4.83,1.73-3.78,3.19-7.95,3.06-12.14-.19-2.58-1.54-5.08-3.4-6.82-1.48-1.18-2.87-2.73-4.75-3.25-.19-.06-.32-.26-.3-.47.02-.19.19-.34.39-.28,1.54.38,2.67,1.5,3.87,2.46,5.26,4.06,5.69,9.51,3.72,15.49-1.18,4.02-2.89,8.23-6.48,10.66-.13.11-.32.08-.43-.08Z"/>
  <path class="cls-1" d="M15.85,73.61c-.32.02-.62-.24-.53-.56.04-.19.23-.28.39-.24.53.06,1.03-.08,1.56-.09,1.77-.09,3.55-.06,5.24-.62,2.01-.68,3.91-1.69,5.63-2.9,2.74-2.24,4.47-5.6,5.58-8.91.13-.3.06-1,.54-.86.51.3,0,1-.04,1.43-.94,2.69-2.33,5.28-4.13,7.46-1.3,1.52-3.06,2.48-4.81,3.4-1.65.86-3.44,1.49-5.32,1.62-1.37.04-2.74.19-4.11.26l-.02.02Z"/>
  <path class="cls-1" d="M21.56,73.29c-.28-.51.38-.68.69-.9,1.18-.68,2.46-1.17,3.61-1.86,4.47-2.82,6.24-8.38,6.65-13.4.08-.43.64-.23.58.15-.41,6-3.01,12.63-8.94,15.02-.71.36-1.43.73-2.1,1.17-.17.11-.39,0-.49-.17Z"/>
  <path class="cls-1" d="M17.58,73.14c-3.89-.51-7.36-2.74-10.25-5.3-2.63-2.27-3.64-5.66-4.19-8.99-.04-.17,0-.38.21-.41.58-.09.53,1.33.69,1.75.58,3.99,2.95,7.14,6.33,9.21,1.97,1.35,4.13,2.46,6.5,2.88.54.06,1.15.24,1.65,0,.15-.26.49-.21.62.04.3.86-1,.92-1.56.83Z"/>
  <path class="cls-1" d="M46,18.79c-2.12-1.18-1.92-4.15-1.11-6.13,1.78-4.21,5.94-6.62,9.5-9.17.47-.28,1.95-1.22,2.25-.49.06.21-.06.47-.28.53-.9,0-1.67.66-2.37,1.09-.85.58-1.67,1.17-2.52,1.77-1.63,1.18-3.34,2.41-4.55,4.06-1.22,1.56-2.18,3.53-1.97,5.55.81,3.18,2.37,2.24,4.39.77.17-.11.36,0,.41.17.17.41-.39.62-.64.81-.9.62-1.97,1.5-3.14,1.03v.02Z"/>
  <path class="cls-1" d="M55.15,35.22c-.62-2.95-.19-5.98-.08-8.97.06-2.95-.11-5.9.21-8.84v.06c.02-1.92.32-3.91-.04-5.81-.85,1.54-2.14,2.74-3.29,4.06-.81.94-1.52,1.97-2.67,2.52-.34.15-1.05.56-1.15-.06-.04-.3.21-.49.49-.51,1.18-.36,1.95-1.37,2.72-2.27.96-1.13,2.12-2.18,2.95-3.42.41-.55.62-1.32,1.15-1.75.62-.11.36.66.41,1.02.51,2.93-.02,5.98-.17,8.95-.08,3.2.09,6.39-.24,9.57-.04,1.73-.09,3.52.3,5.21.11.39-.45.73-.6.23v.02Z"/>
  <path class="cls-1" d="M54.71,44.82c-.75-1.09-1.45-2.41-1.09-3.76.11-.49.38-.83.51-1.28.17-.49,0-1.02,0-1.54-.11-2.41-.54-4.78-.54-7.18.08-2.24.56-4.44.66-6.67.11-2.03.11-4.06.34-6.07.13-1.22.34-2.46.47-3.67,0-1.03-.11-2.07-.17-3.1-.23-.39.36-.9.6-.39.06.17.06.34.08.51,0,.73,0,1.47.09,2.22.02,1.45-.34,2.88-.47,4.32-.24,1.99-.23,3.99-.34,5.98-.08,2.29-.6,4.57-.68,6.86,0,1.97.36,3.89.49,5.85.58-4.68.88-9.42,1.01-14.14-.02-1.79-.15-3.59.17-5.38.06-.45.68-.41.62.08-.41,2.2-.09,4.44-.21,6.67-.3,5.13-.49,10.28-1.41,15.36.09,1.37.24,2.76.43,4.12.04.41.21.9-.09,1.24-.13.15-.36.13-.47-.02ZM54.54,43.15c-.09-.71-.17-1.45-.23-2.16-.28.7-.13,1.5.23,2.16Z"/>
  <path class="cls-1" d="M53.7,63.62c-1.13-.21-2.16-.79-3.1-1.41-1.01-.85-1.58-2.07-2.22-3.18-.09-.15-.06-.38.09-.49s.32-.06.41.09c.34.58.68,1.17,1.03,1.71.45.77,1.11,1.39,1.93,1.75.86.41,1.88,1.03,2.85.68.21-.09.24-.32.28-.51.24-1.88-.43-3.74-.66-5.58-.28-1.8-.75-3.63-.56-5.49.17-1.56.43-3.12.62-4.68.09-.81.13-1.62.17-2.43.04-.34-.08-.92.38-.98.51.04.32.7.3,1.03-.08,2.86-.92,5.68-.92,8.52.19,1.99.64,3.93.96,5.88.3,1.67,1.35,5.53-1.58,5.06v.02Z"/>
  <path class="cls-1" d="M45.83,65.15c-.81-1.07-1.3-2.37-1.16-3.72.08-1.2.43-2.65,1.69-3.12,1.52-.58,2.97.62,4.28,1.24.41.15.23.9-.23.77-.21-.08-.39-.19-.58-.3-1.15-.64-2.82-1.8-3.94-.55-.73,1.17-.79,2.8-.26,4.06.19.39.43.75.68,1.11.11.15.09.38-.04.53-.11.13-.34.13-.45-.02h.02Z"/>
  <path class="cls-1" d="M51.67,70.99c-1.62-.17-2.85-1.26-3.85-2.44-1.95-2.16-3.32-5.45-2.25-8.33.08-.17.26-.3.47-.21.38.23.09.66,0,.96-.54,2.5.53,5.13,2.16,6.97.94,1.13,2.07,2.24,3.59,2.31.41.06.32.81-.09.75l-.02-.02Z"/>
  <path class="cls-1" d="M56.08,72.4c-2.55,0-5.2-.49-7.04-2.41-.49-.49-2.24-2.31-1.5-2.95.21-.11.43.04.47.24,1.05,2.46,3.68,4.19,6.33,4.29.62,0,1.24.04,1.86.06.21,0,.3.24.26.41-.02.19-.17.36-.38.34v.02Z"/>
  <path class="cls-1" d="M55.01,72.95c-.28-.09-.39-.41-.32-.7.49-1.17,2.1-.81,3.12-.98,1.41-.09,2.78-.32,4.17-.51,1.41-.19,2.85-.28,4.15-.88,1.82-.88,2.89-2.69,4.11-4.19.81-1.24,1.92-2.61,1.75-4.17-.26-1.02-.36-2.46-1.75-2.41-.51,0-1,.08-1.48.17-.19.04-.34-.13-.38-.3-.08-.7,1.33-.56,1.8-.64,1.67-.04,2.01,1.17,2.31,2.56.86,2.73-3.04,7.01-4.9,8.85-1.46,1.28-3.47,1.49-5.33,1.73-2.12.36-4.26.55-6.42.77.24.51-.45.81-.86.71l.04-.02Z"/>
  <path class="cls-1" d="M61.98,65.03c-.19-.06-.26-.28-.21-.47.17-.66.34-1.33.58-1.97,1.09-2.99,4.6-4.36,7.55-4.59.49.09.32.92-.17.79-2.72.28-6.03,1.49-6.91,4.32-.17.53-.32,1.07-.45,1.64-.04.19-.23.32-.41.26l.02.02Z"/>
  <path class="cls-1" d="M62.96,63.06c-1.15-1.45-1.67-3.4-1.93-5.21-.26-2.07.26-4.12.6-6.15.36-2.9.69-5.79.69-8.7.32-3.78-.92-7.35-1.22-11.07-.06-3.29.04-6.6.24-9.89.13-2.61.66-5.23.47-7.84-.04-.17-.04-.23-.09-.34-.15-.26.06-.71.39-.62.38.21.36.75.41,1.13.08,2.59-.43,5.19-.6,7.78-.21,3.18-.3,6.43-.24,9.61.13,2.39.79,4.62,1.13,6.96.23,1.94.11,3.91.13,5.85-.17,2.63-.38,5.28-.81,7.9-.26,1.52-.62,3.14-.53,4.68.11,1.8.71,3.59,1.65,5.13.06.08.09.09.15.15.36.24-.02.96-.39.62l-.06.02Z"/>
  <path class="cls-1" d="M62.32,64.08c-1.31-.38-2.03-1.69-2.5-2.88-.6-1.33-.62-2.84,0-4.17.21-.47.75-.13.58.3-.26.71-.53,1.47-.36,2.22.38,1.47,1,3.42,2.65,3.8,0-.26.04-.64.36-.66.21,0,.36.21.34.39.02.71-.3,1.28-1.07,1Z"/>
  <path class="cls-1" d="M61.91,65.28c-.88-.51-1.35-1.45-1.78-2.35-1.46-2.84-1.31-6.11-1.07-9.19.13-2.9,1.35-5.53,2.01-8.31.77-3.55,1.69-7.13,1.58-10.79-.09-2.03-.49-4.02-.56-6.03-.04-2.69.08-5.41-.11-8.08,0-1.11-.45-2.11-.88-3.1-.49-1.8.13-3.7.83-5.38.21-.55,1.62-1.65,1.8-.81.02.19-.09.39-.28.43-.38.09-.71.32-.92.64-.64,1.37-1.13,2.95-.94,4.47.43,1.33,1.09,2.61,1,4.06.17,2.61.02,5.21.08,7.82.09,2.01.51,4,.56,6.03.09,4.21-1,8.35-1.97,12.43-.96,2.74-1.71,5.56-1.71,8.5-.11,2.33,0,4.72,1.09,6.81.39.77.73,1.6,1.46,2.07.53.13.34,1.09-.23.79h.06Z"/>
</svg>