<svg width="82" height="73" viewBox="0 0 82 73" fill="none" xmlns="http://www.w3.org/2000/svg">
<path d="M14.5919 71.3338C12.89 70.8952 15.4867 66.2993 15.8552 65.2293C17.4869 61.4753 19.1537 57.739 20.9082 54.0377C21.7855 52.1256 22.7154 50.2311 23.6277 48.3366C24.3471 46.4071 25.0489 44.4775 25.7331 42.5479C26.6104 40.1271 27.4526 37.6889 28.5404 35.3558C28.9966 34.4787 29.365 33.4262 30.1546 32.8123C31.4003 30.2512 32.6284 27.6726 33.7689 25.0764C34.1373 22.7433 34.8742 20.498 35.6813 18.2702C36.155 15.4109 37.0674 12.6393 37.9798 9.8853C38.6816 8.1136 39.2781 6.28926 40.1378 4.58772C40.4361 4.02639 40.787 3.51768 41.173 3.02651C41.2256 2.95635 41.2958 2.92126 41.3835 2.9388C41.4713 2.97389 41.5414 3.0616 41.5414 3.16685C41.5414 3.58785 41.5414 4.02639 41.4186 4.42984C40.6817 6.58747 39.7869 8.69247 39.0676 10.8501C39.3658 10.1309 39.6641 9.41168 39.9624 8.71001C40.4887 7.44701 40.9624 6.14893 41.4011 4.85085C41.5941 4.48247 42.4187 1.53547 42.91 2.07926C43.0328 1.86876 43.3311 2.02664 43.3135 2.23714C43.5767 1.55301 43.8223 0.868887 44.0504 0.184762C44.1206 0.044429 44.3311 -0.0783638 44.4715 0.0619695C44.5417 0.132136 44.5768 0.237386 44.5592 0.342636C44.4013 1.44776 44.068 2.50026 43.7521 3.5703C43.3837 4.90347 42.8924 6.18401 42.4363 7.48209C42.3836 7.65751 42.3134 7.85047 42.1555 7.95572C42.0152 8.02589 41.7695 8.00835 41.6994 7.86801C40.9098 9.81514 40.1203 11.7623 39.243 13.6918C38.5763 16.2178 38.0675 18.7965 37.2429 21.2874C36.9095 22.1469 36.5937 23.217 35.576 23.4275C35.4883 23.4626 35.383 23.4275 35.3304 23.3398C34.9795 24.6905 34.6812 26.0587 34.2601 27.4094C33.804 28.0585 33.6636 26.6727 33.6812 26.3745C31.4529 31.1458 29.1545 35.8996 27.3649 40.8814C26.3472 43.4074 25.277 45.9159 24.1014 48.3893C23.3996 50.2838 22.7154 52.1783 21.9785 54.0552C21.9434 54.1605 21.8206 54.2482 21.6977 54.1956C21.3293 53.9675 21.9083 53.2132 21.9609 52.8624C20.1187 56.7742 18.3466 60.7035 16.6447 64.6679C16.2412 65.8608 13.9954 69.8953 14.627 70.79C14.5042 70.4567 14.9077 70.2286 15.0832 70.5619C15.3112 70.9128 14.9779 71.3688 14.5919 71.3688V71.3338ZM34.1198 26.1991C34.2075 25.8482 34.2952 25.5149 34.383 25.1641C34.4707 24.7957 34.576 24.4273 34.6637 24.059C34.5233 24.3747 34.383 24.6905 34.2426 25.0062C34.2251 25.1115 34.2075 25.2343 34.19 25.3395V25.3044C34.1549 25.6026 34.1198 25.9008 34.1198 26.1991ZM34.6637 23.0591C34.8041 22.7433 34.9269 22.4276 35.0672 22.1118C35.0672 22.1118 35.0672 22.1294 35.0672 22.1469C35.2251 21.7961 35.155 21.3926 35.2602 21.0243C35.1023 21.5505 34.9444 22.0592 34.8041 22.5855C34.8041 22.5855 34.8041 22.5679 34.8041 22.5504C34.7514 22.7258 34.7163 22.8837 34.6812 23.0591H34.6637ZM35.6813 22.8311C35.6813 22.8311 35.8217 22.7784 35.8919 22.7433C35.9094 22.7433 35.9445 22.7258 35.9445 22.7258C36.5761 22.1294 36.7691 21.2348 37.0674 20.4454C37.6815 18.4106 38.1201 16.3231 38.6465 14.2707C38.2078 15.6039 37.699 16.8844 37.2078 18.2001C36.7516 19.1824 36.313 20.1296 36.1726 21.2172C36.3305 21.0593 36.4709 20.5857 36.7516 20.7962C36.8569 20.8839 36.8744 21.0593 36.7867 21.1646C36.5761 21.3751 36.0147 22.5504 35.6989 22.0592C35.6813 22.1294 35.6638 22.2171 35.6287 22.2873C35.6462 22.4627 35.6813 22.6556 35.7164 22.8311H35.6813ZM35.8217 20.691C35.8217 20.691 35.8217 20.6559 35.8217 20.6383C35.8568 20.4629 35.9094 20.2875 35.9445 20.1121C35.8919 20.2875 35.8392 20.4629 35.7866 20.6383C35.7866 20.6383 35.7866 20.6383 35.7866 20.6208C35.7866 20.6383 35.7866 20.6559 35.7866 20.691C35.7866 20.691 35.8217 20.691 35.8392 20.691H35.8217ZM36.5761 16.1301C36.9797 15.2355 37.313 14.3233 37.8043 13.4638C38.1552 12.3411 38.471 11.2185 38.8746 10.1133C39.5413 7.9908 40.5589 5.95597 41.1204 3.81589C40.0676 5.30693 39.5413 7.07864 38.8746 8.7451C37.9447 11.1483 37.2253 13.6392 36.5761 16.1301ZM41.1204 7.49964C41.0677 7.60489 41.0151 7.71014 40.98 7.81539C41.2256 7.32422 41.6292 6.88568 41.7344 6.35943C41.5064 6.7278 41.3134 7.11372 41.1204 7.49964ZM42.1029 6.97339C42.138 6.88568 42.1731 6.79797 42.2082 6.71026C42.2784 6.53484 42.331 6.37697 42.4012 6.20155C42.3134 6.39451 42.1731 6.55239 42.138 6.74535C42.138 6.74535 42.138 6.7278 42.138 6.71026C42.138 6.79797 42.1204 6.88568 42.1029 6.97339ZM41.8573 5.34201C42.1029 5.11397 42.1029 4.76314 42.2082 4.46493C42.0854 4.76314 41.9801 5.06135 41.8573 5.34201ZM42.8573 4.8333C42.9626 4.50001 43.0679 4.18426 43.1732 3.85097C43.0503 4.16672 42.9451 4.50001 42.8223 4.81576C42.8223 4.81576 42.8398 4.81576 42.8573 4.8333Z" fill="black"/>
<path d="M65.3855 71.3689C65.0346 70.4392 64.7012 69.5095 64.3328 68.5974C63.8415 68.878 63.8942 67.5975 63.7538 67.3168C63.6135 66.6152 63.2801 65.9661 63.0169 65.3171C62.5607 64.1944 62.0695 63.1068 61.5957 62.0017C61.5256 61.8438 61.5957 61.5982 61.8063 61.5982C61.0167 59.5459 59.9289 57.5461 59.385 55.406C59.3324 55.1254 59.5956 54.5114 59.9114 54.8096C60.2974 55.2657 60.6658 55.7393 60.9992 56.2305C60.0868 53.4063 58.999 50.6172 57.8761 47.8631C57.1042 45.3722 56.262 42.9164 55.2444 40.5132C54.0513 37.7591 52.1915 35.2682 51.7002 32.251C50.9458 31.9353 50.8931 30.9003 50.665 30.1987C50.4369 29.4444 50.2439 28.6901 50.0685 27.9182C49.7176 25.5677 48.4192 23.5328 47.5771 21.3401C46.6823 19.2877 45.9278 17.1827 45.2962 15.0251C44.7523 13.306 44.5242 11.4992 43.7522 9.86787C43.4715 9.13112 43.2785 8.35928 43.0328 7.62254C42.8749 7.21908 42.6995 6.53495 43.2434 6.35954C42.9802 4.76324 42.3661 2.974 43.0679 1.41279C43.8575 0.237496 44.5593 2.0092 44.7347 2.71087C44.7523 2.8512 44.6821 3.00908 44.5417 3.04416C44.4014 3.07924 44.2961 2.95645 44.261 2.83366C44.1206 2.39512 43.9803 1.95658 43.682 1.60574C42.9627 1.86887 43.2785 3.41254 43.296 4.06158C43.4364 5.04391 43.5943 6.06133 43.875 7.00858C44.3487 7.34187 44.7347 7.78041 44.9979 8.28912C45.4541 8.81537 45.9103 9.35916 46.2612 9.95558C47.4718 12.2535 47.8753 14.8848 48.4192 17.3932C48.542 17.2529 48.7526 17.3231 48.7877 17.4985C49.0684 18.323 49.3667 19.0597 49.7527 19.8315C51.3493 22.2523 51.0686 25.2168 51.63 27.9182C53.2793 32.1633 55.4724 36.2155 56.4725 40.671C57.5603 40.1272 59.3324 45.6178 59.5429 46.5124C59.6658 47.179 59.9114 47.8982 59.6131 48.5472C59.5605 48.7402 59.2973 48.7753 59.2096 48.5823C60.4027 51.81 61.9291 54.9675 62.6134 58.353C62.7011 58.7214 62.7888 59.0723 62.8765 59.4231C62.9116 59.5459 62.8765 59.7037 62.7537 59.7564C63.3503 61.4579 63.9644 63.1595 64.4205 64.8961C64.6662 65.8083 64.9293 66.7204 64.8592 67.6677C64.8592 67.7554 64.8241 67.8606 64.7363 67.9132C65.1223 68.9833 65.4732 70.0533 65.7891 71.1409C65.8943 71.4216 65.5083 71.6672 65.368 71.3514L65.3855 71.3689ZM64.1749 66.1942C64.2451 66.3345 64.2977 66.4924 64.3503 66.6327C63.824 63.9137 62.8064 61.3176 61.894 58.7039C62.1396 60.1598 62.1572 61.6509 62.8414 62.984C62.9643 62.949 63.0695 63.0542 63.1222 63.1595C63.4731 64.1769 63.7187 65.2294 64.1749 66.2117V66.1942ZM61.1396 58.8267C61.315 59.2301 61.4729 59.616 61.6484 60.0195C61.5431 59.1775 61.4027 58.353 61.2624 57.5286C60.8413 56.8445 60.4027 56.1779 59.8763 55.5639C60.2448 56.669 60.6834 57.7566 61.1396 58.8267ZM61.4378 56.0025C61.5957 56.4585 61.7712 56.9146 61.9291 57.3532C61.9291 57.3532 61.9291 57.3181 61.9291 57.3005C61.8238 56.8795 61.701 56.441 61.5782 56.02C61.4554 55.599 61.315 55.178 61.1571 54.7745C61.2624 55.178 61.315 55.5815 61.4378 55.9674V56.0025ZM58.7534 46.951C58.9289 47.2667 59.1043 47.5824 59.2973 47.8982C58.999 45.5476 58.0691 43.2321 56.8234 41.2499C56.7357 41.8639 56.9813 42.4427 57.1568 43.0216C57.5954 44.3548 58.0165 45.7406 58.7534 46.951ZM54.8057 36.6365C55.2268 38.0222 55.6479 39.408 56.0865 40.7763C55.7181 39.3379 55.297 37.8994 54.7882 36.4961C54.7882 36.4961 54.7882 36.5137 54.7882 36.5312C54.718 36.3558 54.6478 36.1804 54.5776 36.005C54.6478 36.2155 54.718 36.426 54.7882 36.6365H54.8057ZM54.4724 37.8644C54.718 38.3029 54.911 38.7415 55.1215 39.1975C54.1741 35.8646 52.9108 32.6545 51.7178 29.4093C51.7353 30.3565 52.2441 31.2512 52.1388 32.1984C52.5073 34.2332 53.4723 36.0927 54.4548 37.8644H54.4724ZM51.5774 31.5318C51.4721 30.339 51.0686 29.2163 50.5949 28.1463C50.8931 29.2514 51.1212 30.4267 51.5423 31.4617C51.5423 31.4792 51.5774 31.5143 51.5774 31.5318ZM50.5071 26.9008C50.7352 27.4271 50.9633 27.9533 51.1738 28.4445C50.9107 26.8833 50.0685 25.4449 49.7 23.9012C49.9281 24.9186 50.0159 25.9711 50.5071 26.9008ZM50.1913 23.41C50.3317 23.831 50.4545 24.252 50.5949 24.673C50.6826 24.9362 50.7703 25.1993 50.8405 25.4624C50.7528 23.3399 50.2089 21.4629 49.1561 19.6386C49.3491 20.9367 49.7702 22.1646 50.1913 23.41ZM48.0683 21.3577C48.2789 21.8664 48.4894 22.3751 48.7175 22.8662C48.9105 23.3223 49.121 23.7609 49.314 24.217C48.8579 22.3751 48.8052 20.428 47.9806 18.7089C48.0683 19.3228 48.507 19.8842 48.3315 20.5157C47.9982 21.0419 47.8051 20.5858 47.6121 20.2525C47.7701 20.6209 47.9104 20.9893 48.0683 21.3577ZM47.7701 19.6561C47.4542 18.6913 47.2963 17.6915 47.0507 16.7091C46.5243 15.6917 45.9804 14.6743 45.4541 13.6569C46.0331 15.7268 46.6296 17.8318 47.7701 19.6561ZM47.5771 16.7442C47.7174 17.0249 47.8402 17.3055 47.9806 17.6037C48.0157 17.6739 48.0332 17.7265 48.0683 17.7967C47.4718 15.0777 47.1384 12.1483 45.6471 9.76262C46.4366 12.043 46.8928 14.4462 47.5946 16.7442H47.5771ZM44.8751 11.3765C45.4014 12.5517 45.998 13.692 46.5945 14.8497C46.2963 13.5341 45.8927 12.2535 45.5418 10.9555C45.1909 9.85033 44.9277 8.69258 44.0505 7.88566C44.2961 9.06095 44.5593 10.2187 44.8751 11.3765Z" fill="black"/>
<path d="M66.0522 72.1757C65.9469 72.1757 65.8241 72.1407 65.7363 72.1407C65.6311 72.1231 65.5082 72.053 65.4732 71.9477C59.42 69.4217 53.7529 66.1239 48.156 62.7208C45.647 61.2122 43.0327 59.8615 40.5589 58.2827C39.5588 57.546 38.2253 57.1075 37.5586 56.0199C33.6109 53.6167 29.8387 50.9503 26.277 48.0209C22.4697 45.3019 18.8378 42.3374 15.4165 39.1448C10.6442 36.0048 6.25784 32.3737 1.55571 29.146C1.02935 28.8127 -0.654991 27.7778 0.274909 27.6375C1.18726 27.7778 2.06453 28.2865 2.85407 28.7075C6.55612 30.6897 10.574 32.2158 13.8374 34.9523C18.3816 38.4782 21.8731 43.1794 26.3472 46.7403C29.4352 48.5296 32.7337 49.9505 35.7339 51.9327C38.7342 53.8973 41.4888 56.1953 44.3837 58.2827C45.0505 58.7915 51.9107 61.8262 50.6299 62.3173C55.3144 65.1766 59.5779 68.913 64.7363 70.9127C64.9468 70.79 65.2802 71.0531 65.1047 71.2636C65.4556 71.4215 65.8241 71.5618 66.175 71.7197C66.2802 71.7723 66.3504 71.86 66.3504 71.9828C66.3504 72.1056 66.2101 72.1933 66.0872 72.1757H66.0522ZM59.0867 68.4745C58.6656 68.2113 58.2445 67.9307 57.841 67.65C57.7883 67.6851 57.7357 67.7026 57.6655 67.7026C58.1392 67.9482 58.613 68.2289 59.0867 68.4745ZM56.2794 66.7905C55.3846 66.194 54.4898 65.6152 53.5775 65.0363C52.3844 64.2645 51.2088 63.4926 50.0158 62.7208C51.9984 64.2294 54.0687 65.6502 56.2794 66.7905ZM41.1905 58.195C44.1907 60.0369 47.3138 61.6683 50.314 63.5102C49.8579 63.1418 48.9981 62.598 48.928 62.0016C46.1032 60.8263 43.3661 59.4054 40.6992 57.8793C40.8571 57.9845 41.0326 58.0898 41.1905 58.195ZM49.7877 61.7209C48.8753 61.1771 47.9103 60.686 46.9804 60.1597C47.8401 60.7035 48.5946 61.4753 49.6122 61.6858C49.6122 61.6858 49.6122 61.6858 49.5947 61.6858C49.6649 61.6858 49.7175 61.7209 49.7877 61.7209ZM44.0679 59.23C45.0154 59.7212 45.9804 60.2123 46.9453 60.6509C44.4013 58.7037 41.5414 57.1601 38.5061 56.1076C40.3132 57.2302 42.2081 58.195 44.0679 59.23ZM38.5061 55.669C39.822 55.9672 40.9975 56.6865 42.2257 57.2302C37.8744 53.7921 33.3127 50.6521 28.2772 48.284C30.5931 49.775 32.874 51.3362 35.1725 52.8799C35.5936 53.2658 37.6464 54.1429 37.3656 54.7393C37.2954 54.8095 37.1726 54.827 37.0849 54.7744C35.6462 54.0903 34.2952 53.2834 32.9267 52.494C34.4531 53.5991 36.0497 54.599 37.6463 55.5813C37.9446 55.5989 38.2078 55.634 38.5061 55.6866V55.669ZM32.4705 51.7222C32.9968 52.0379 33.5407 52.3361 34.0671 52.6519C31.5932 51.003 29.1369 49.3365 26.6279 47.7402C28.5228 49.126 30.4879 50.4241 32.4705 51.7046V51.7222ZM25.2594 46.4772C25.2594 46.4772 25.3822 46.5474 25.4348 46.5825C20.7678 42.5303 16.8903 37.5134 11.8022 33.9525C9.25809 32.2509 6.45084 31.0581 3.74887 29.6547C6.41575 31.6896 9.39845 33.2683 11.9952 35.4084C12.0829 35.3733 12.1881 35.4084 12.2759 35.4435C12.7145 35.7417 13.1531 36.0575 13.5742 36.4083C15.0656 37.5836 16.5394 38.7764 18.0307 39.9342C18.7325 40.513 19.5045 41.0217 20.2063 41.6182C20.452 41.8287 20.1537 42.1093 19.9081 41.9515C19.2063 41.5831 18.522 41.1972 17.8553 40.7586C20.1537 42.7584 22.5048 44.688 24.9436 46.5123C25.0313 46.4246 25.1717 46.4246 25.2769 46.4772H25.2594ZM13.2233 37.0924C13.2233 37.0924 13.1356 37.0047 13.083 36.9696C12.9601 36.8644 12.8373 36.7416 12.7321 36.6363C12.7145 36.6539 12.6794 36.6714 12.6619 36.689C12.8549 36.8293 13.0479 36.9521 13.2409 37.0924H13.2233ZM11.8372 35.8996C10.2231 34.5138 8.41591 33.3736 6.64384 32.1983C8.36328 33.4262 9.99499 34.8997 11.8372 35.8996ZM1.83644 28.8127C1.95925 28.9005 2.09961 28.9882 2.23997 29.0759C2.36279 29.1636 2.46807 29.2337 2.59088 29.3215C2.59088 29.2864 2.59089 29.2688 2.60843 29.2337C2.62598 29.1811 2.67861 29.146 2.73125 29.1285C2.45053 28.9882 2.1698 28.8303 1.90662 28.69C1.90662 28.69 1.92416 28.69 1.9417 28.69C1.67853 28.5496 1.41535 28.4268 1.13462 28.304C1.36271 28.4619 1.60835 28.6198 1.85399 28.7777L1.83644 28.8127Z" fill="black"/>
<path d="M36.3305 31.602C32.6284 31.3739 28.9615 30.4442 25.2594 30.146C17.8378 29.4443 10.3986 28.9707 2.95937 28.4269C2.64356 28.3918 2.53829 27.9357 2.95937 27.9357C11.3636 28.6199 19.8028 29.0409 28.1719 30.0758C27.9789 29.953 27.6982 29.6548 28.0667 29.532C29.1369 29.2514 30.2247 29.1286 31.3301 29.0935C35.9445 28.883 40.5238 28.2866 45.0856 27.5674C43.9802 27.4972 38.5587 28.0761 38.2956 27.3042C38.2956 27.1815 38.4008 27.0937 38.5061 27.0937C39.4536 27.0236 40.4185 26.971 41.366 26.9359C44.8926 26.7254 48.4367 26.7078 51.9809 26.778C55.4724 26.5675 58.9639 26.2868 62.4554 26.0237C62.4028 25.5676 63.052 25.6202 63.3502 25.6729C63.5432 25.6027 63.7538 25.5852 63.9468 25.6202C64.8591 25.7606 65.7715 25.708 66.7014 25.7606C68.3682 25.708 70.0525 25.4975 71.7193 25.6378C71.8246 25.6378 71.9474 25.708 71.965 25.8307C72.0527 26.2342 70.8421 26.0763 70.5438 26.164C74.0528 26.4272 77.5268 25.6904 81.0359 25.6027C81.2815 25.5852 81.4219 25.8658 81.3517 26.0763C81.3341 26.1465 81.2464 26.1991 81.1762 26.2167C80.4569 26.357 79.7551 26.5324 79.0357 26.585C79.4217 26.6377 79.8077 26.7254 80.1761 26.8482C80.2814 26.8832 80.3867 26.9885 80.3691 27.1113C80.3516 27.2516 80.2112 27.3042 80.0884 27.2867C79.0357 27.1815 78.0532 27.0411 77.018 26.9534C77.0531 27.0937 76.9303 27.199 76.8074 27.199C74.5441 27.3569 72.2457 27.4621 69.9823 27.199C68.5085 27.3569 67.0698 27.6025 65.6136 27.848C65.4907 27.848 65.3504 27.7779 65.3153 27.6726C65.1749 27.1464 67.7015 26.9359 68.1401 26.8131C66.5786 26.8131 64.9995 26.8482 63.4906 26.3921C60.0517 26.6377 56.6128 26.9183 53.174 27.1464C53.1389 27.2165 53.0687 27.2516 52.981 27.2692C51.5423 27.3569 50.1035 27.4621 48.6648 27.5849C45.9102 27.9007 43.1731 28.3567 40.4185 28.7427C37.892 29.0584 35.3655 29.3391 32.8214 29.497C31.4529 29.6197 30.0668 29.5671 28.7334 29.9004C30.4002 30.1285 32.0845 30.2512 33.7689 30.3565C34.8041 30.4793 35.9445 30.4091 36.8744 30.9354C37.2604 31.3388 36.8744 31.7598 36.348 31.6546L36.3305 31.602ZM35.6462 31.1459C35.9269 31.1459 36.2252 31.1459 36.4884 31.1634C35.0321 30.7073 33.4882 30.7775 31.9793 30.6372C33.2074 30.8301 34.4181 31.0932 35.6462 31.1459ZM68.5436 26.1991C68.5436 26.1991 68.6138 26.164 68.6489 26.164C68.491 26.164 68.3506 26.164 68.1927 26.164C68.3155 26.164 68.4383 26.1816 68.5436 26.1991Z" fill="black"/>
<path d="M12.6443 70.8776C12.2232 70.3689 15.1182 69.3164 15.5042 69.0006C17.75 67.8429 19.6273 66.0712 21.7327 64.6503C28.4701 59.9491 35.9795 56.6338 43.2257 52.8448C46.7347 51.0204 50.1561 48.9681 53.3844 46.7052C55.4372 45.1791 57.4549 43.6003 59.5954 42.197C62.7536 40.2849 65.4907 37.7589 68.4733 35.5662C69.684 34.6541 70.842 33.6893 72.0877 32.8297C73 32.1105 74.1054 31.6369 74.8423 30.7247C75.8073 29.6547 76.7723 28.5671 77.7724 27.5321C77.9654 27.3041 78.2461 26.9708 78.5619 27.1462C78.6321 27.1988 78.6321 27.2866 78.6145 27.3567C78.4215 28.1812 77.9127 28.8653 77.3513 29.4793C78.4742 28.7776 79.5795 28.0408 80.3691 27.0059C80.4568 26.9006 80.6147 26.848 80.7375 26.9182C81.0358 27.1988 80.4919 27.5321 80.334 27.7602C80.7726 27.462 81.9832 27.1111 81.5621 28.0935C80.6322 29.2337 79.3163 30.0055 78.211 30.9528C73.6141 34.6541 68.8944 38.1975 64.5257 42.1619C61.3851 44.9861 58.455 48.0559 54.9635 50.4766C54.1213 50.9503 52.1562 52.8097 51.3492 51.7572C45.7171 55.4936 39.5412 58.2827 33.5758 61.4226C30.4001 62.9312 26.8735 64.089 24.5751 66.8781C23.3469 68.2113 21.6275 68.8778 20.0133 69.5795C19.136 69.8251 18.2061 69.3866 17.3289 69.5444C17.1359 69.6321 16.9253 69.4743 16.978 69.2638C16.9955 69.1234 17.1008 69.0357 17.2411 69.0006C18.4342 68.6849 19.3817 67.7376 20.3817 67.0535C18.7325 67.9131 17.0131 68.6147 15.5042 69.7198C14.6971 70.2286 13.8023 70.6496 12.9075 70.9478C12.8197 70.9828 12.6969 70.9828 12.6443 70.8951V70.8776ZM19.6624 69.141C20.2063 69.0883 20.6449 68.7551 21.1362 68.5621C22.0836 68.1411 23.0486 67.7026 23.8031 67.0009C25.1716 65.58 26.6103 64.2118 28.435 63.3698C31.5581 61.8436 34.7689 60.5105 37.7867 58.7914C42.4011 56.4759 47.0155 54.1955 51.2965 51.3011C51.4193 50.7924 51.6825 50.3363 51.9632 49.9153C49.2262 51.3888 46.454 52.7746 43.6819 54.1955C39.9447 56.1075 36.4708 58.4932 32.8915 60.7034C28.1017 63.5978 23.0662 66.0536 18.364 69.0708C18.8027 69.1059 19.2238 69.1761 19.6448 69.1585L19.6624 69.141ZM18.8202 67.3342C18.8202 67.3342 18.8202 67.3342 18.8027 67.3517C20.68 66.4045 22.5749 65.5449 24.2593 64.2644C24.5751 64.1416 26.2945 62.633 26.2594 63.4048C29.0842 61.5103 31.8213 59.4931 34.6812 57.6512C29.1018 60.4052 23.768 63.5452 18.8378 67.3342H18.8202ZM25.5927 64.3872C27.6981 63.2294 29.8036 62.0541 31.8564 60.8262C31.6107 60.8964 31.2774 61.2648 31.0668 61.0016C30.9966 60.8788 31.0668 60.7561 31.1896 60.6859C32.2774 60.1246 33.3477 59.5106 34.4004 58.8791C37.0498 57.3003 39.7342 55.7918 42.1905 53.9148C36.2251 56.6864 30.9791 60.6859 25.5751 64.3696L25.5927 64.3872ZM43.9451 53.1781C43.9977 53.2833 43.9451 53.4061 43.8573 53.4763C43.6643 53.6341 43.4889 53.7745 43.2959 53.9323C46.454 52.2834 49.6648 50.7222 52.7703 48.9681C54.8933 46.7578 57.2444 44.7054 59.806 43.039C60.192 42.8285 60.3499 43.4951 60.2095 43.7582C59.2094 45.3369 57.5251 46.407 56.0162 47.4946C54.595 48.5646 52.63 49.1084 51.9457 50.8976C57.2093 47.3542 62.2272 43.4775 66.9995 39.3026C69.5787 36.7941 72.0877 34.2155 74.6142 31.672C72.7544 33.5489 70.8595 35.4259 68.7014 36.9871C66.3153 38.7763 63.701 40.2498 61.1394 41.7584C57.8409 44.3195 54.6477 47.0385 51.1035 49.2312C48.77 50.6871 46.2786 51.8449 43.8398 53.1079C43.8749 53.1079 43.91 53.143 43.9275 53.1956L43.9451 53.1781ZM52.1387 51.6344C53.63 51.0731 54.8933 50.003 56.1566 49.0558C58.0164 47.67 59.7007 46.1088 61.3675 44.5125C58.262 46.9332 55.0863 49.3013 51.7878 51.4765C51.8229 51.5467 51.9282 51.5818 51.9632 51.5993C52.0159 51.6168 52.0685 51.6344 52.1211 51.6344H52.1387ZM54.0862 46.7052C53.0511 47.477 51.9282 48.1611 50.8754 48.9154C51.4544 48.5646 52.0334 48.1787 52.6124 47.7928C52.6124 47.7928 52.5949 47.7928 52.5773 47.8103C53.7002 47.056 54.7705 46.2316 55.8408 45.4071C56.0162 45.2668 56.1917 45.1264 56.3671 44.9861C55.6127 45.5474 54.8407 46.1263 54.0862 46.6876V46.7052ZM54.209 48.1085C56.1215 46.9332 57.9988 45.6702 59.4902 44.0213C59.5954 43.881 59.7358 43.7406 59.7709 43.5652C57.7707 44.8808 55.9636 46.5122 54.209 48.1085ZM71.7894 33.5314C69.105 35.5487 66.4732 37.6186 63.8063 39.671C67.0697 37.7414 70.2103 35.4961 72.8597 32.7771C72.5088 33.0227 72.1403 33.2683 71.7894 33.5314ZM76.2284 30.6721C74.2282 32.7596 72.1403 34.7593 70.1226 36.8292C73.7369 33.8471 77.5443 31.0405 81.0709 27.9707C80.8428 28.0408 80.6849 28.111 80.4919 28.2338C80.3164 28.3741 80.0182 28.2689 80.0883 28.0233C78.9479 29.1109 77.5443 29.8827 76.2108 30.6896L76.2284 30.6721ZM77.439 28.5145C76.8074 29.1986 76.1933 29.8827 75.5792 30.5668C75.6669 30.5142 75.7547 30.4616 75.8424 30.409C76.2284 30.0055 76.6144 29.6021 77.0004 29.1811C77.2109 28.9355 77.4215 28.6899 77.6145 28.4268C77.6671 28.3566 77.7022 28.2864 77.7548 28.2163C77.6671 28.3215 77.5618 28.4092 77.4741 28.5145H77.439Z" fill="black"/>
<path d="M15.1708 72.1934C13.7145 68.8254 18.2763 61.2299 19.7677 57.9496C23.1188 51.5995 25.505 44.7758 27.7683 37.9696C28.7684 34.97 29.9264 32.023 31.4528 29.2339C31.6634 28.9532 31.6634 28.3568 32.0845 28.3919C32.3476 28.4796 32.1897 28.7602 32.102 28.9181C31.523 30.0583 30.9265 31.1108 30.4177 32.251C28.4701 36.5137 27.3472 41.092 25.6453 45.4599C26.6805 43.4426 27.663 41.4604 28.8386 39.5484C28.8912 39.4431 29.0316 39.3905 29.1368 39.408C29.5053 39.5834 29.014 40.1097 28.9438 40.3728C27.0665 44.039 25.2944 47.7579 23.4873 51.4767C22.6626 53.0905 21.8907 54.7394 21.452 56.4936C21.3643 56.8269 21.2766 57.1777 21.1011 57.476C20.9958 57.704 20.5748 57.6514 20.6449 57.3532C20.68 57.2304 20.6976 57.1251 20.7327 57.0023C19.1185 60.5457 14.5216 68.1062 15.5919 71.79C15.8375 72.0355 15.3813 72.439 15.1708 72.1759V72.1934Z" fill="black"/>
<path d="M63.8063 70.3689C61.7184 69.8602 59.8411 68.7025 57.9462 67.7201C54.6126 65.8783 51.2965 64.0013 48.0156 62.0542C41.2431 57.9319 34.2425 54.178 27.6981 49.7048C23.8382 47.1438 20.5748 43.8459 17.3113 40.5656C14.4164 38.408 11.4688 36.2679 8.83697 33.777C8.13516 33.1981 7.24035 32.8122 6.64381 32.0755C6.328 31.7246 5.749 30.6721 6.64381 30.7774C6.85435 30.8125 7.01226 30.9879 7.13508 31.1458C7.53862 31.6369 7.9948 32.1281 8.41589 32.6017C8.87206 33.1806 9.48615 33.549 10.1178 33.9173C11.153 34.6015 12.1004 35.3908 13.0654 36.1802C15.1708 37.8291 16.9955 39.8113 19.2062 41.3199C26.0489 46.2316 33.3828 50.3539 40.4185 54.9849C42.559 56.4058 44.6644 57.8617 46.7523 59.3528C48.9981 60.9315 51.1036 62.7383 53.5423 64.0188C56.0338 65.2117 58.4901 66.615 61.1044 67.457C60.771 67.2991 60.4552 67.1588 60.1218 67.0009C59.999 66.9483 59.9639 66.7904 60.0341 66.6676C60.1043 66.5448 60.2622 66.4747 60.4025 66.5273C61.0166 66.808 61.6307 67.1062 62.2448 67.3868C63.3502 67.9306 64.4906 68.6674 65.1398 69.7199C65.1749 70.404 64.2976 70.4391 63.8063 70.3163V70.3689ZM64.4555 69.9128C64.4555 69.9128 64.5432 69.9128 64.5959 69.8953C64.5959 69.8953 64.5959 69.8953 64.6134 69.8953C63.8239 69.0007 62.8589 68.2815 61.7711 67.8254C61.6658 68.72 58.5427 66.9834 58.0164 66.7904C55.6653 65.6502 53.2616 64.6153 51.086 63.1593C48.3489 61.2122 45.6996 59.1423 42.9099 57.2653C35.383 52.0203 27.2771 47.6525 19.8028 42.3549C25.9436 48.9155 33.9618 53.1956 41.6291 57.7038C46.4541 60.528 51.2439 63.44 56.1566 66.1238C57.8234 67.036 59.4727 67.9833 61.1921 68.8077C62.2623 69.2813 63.3151 69.8953 64.4906 69.9128H64.4555Z" fill="black"/>
<path d="M9.74942 29.2336C7.67908 29.2161 5.67892 28.6723 3.66121 28.3741C3.06467 28.2864 0.415324 28.1285 1.23995 27.0936C1.4505 26.8655 1.8365 27.0936 1.6435 27.3742C1.80141 27.497 1.94176 27.5146 2.11722 27.5672C1.8014 27.1286 2.15231 26.8831 2.64358 26.9532C3.83666 27.0936 5.01219 27.4093 6.18772 27.5847C8.18788 27.8829 10.2231 27.8654 12.2408 27.8829C16.3464 27.9005 20.3819 27.1637 24.4699 26.9708C31.5407 26.6726 38.6114 26.7778 45.6821 26.8129C50.4369 26.8129 55.2092 26.7954 59.9464 26.4796C63.824 26.4445 69.0349 25.3219 72.5264 27.1637C74.7371 27.0936 76.9654 27.4444 79.1761 27.3216C79.4568 27.2865 79.7375 27.2514 80.0182 27.1988C80.1586 27.1813 80.2814 27.269 80.2814 27.4093C80.2814 27.918 78.6673 27.7952 78.2813 27.8479C75.3688 27.6724 72.4562 27.69 69.5613 27.5146C67.526 27.3567 65.4908 26.9357 63.438 26.9883C58.7007 27.3918 53.9811 28.111 49.2438 28.4443C44.2961 28.7951 39.3483 28.2864 34.4181 28.3039C32.7337 28.6899 30.9967 28.9354 29.2773 29.0231C27.1543 29.1284 25.0489 28.9354 22.9435 28.7425C18.5747 29.0231 14.1884 29.4091 9.80206 29.2512L9.74942 29.2336ZM13.8726 28.7776C15.785 28.6899 17.6974 28.5846 19.6099 28.4969C15.5744 28.2338 11.5215 28.4618 7.48608 28.5495C9.60906 28.8477 11.7496 28.8302 13.8901 28.7951L13.8726 28.7776ZM28.3825 28.5846C29.0317 28.5846 29.6808 28.532 30.3125 28.4794C30.8915 28.4267 31.488 28.3566 32.067 28.2689C29.9616 28.2689 27.8386 28.4092 25.7332 28.4969C26.628 28.5495 27.5052 28.5671 28.4 28.5671L28.3825 28.5846ZM18.4343 27.9531C19.9783 28.0408 21.5047 28.1811 23.0487 28.2689C24.7506 28.1461 26.4525 28.0233 28.172 27.9706C30.2248 27.8479 32.2951 27.8479 34.3479 27.8654C35.2603 27.6549 36.1726 27.4444 37.085 27.2339C30.8564 27.1988 24.5927 27.1462 18.4168 27.9531C18.4168 27.9531 18.4168 27.9531 18.4343 27.9531ZM39.05 27.9531C41.5064 28.0233 43.9627 28.1461 46.419 28.1636C49.4544 28.0408 52.4546 27.7075 55.4724 27.4093C52.0335 27.5321 48.5771 27.3041 45.1382 27.269C42.1555 27.2865 39.1202 27.076 36.2252 27.8829C37.1727 27.9005 38.1201 27.918 39.0676 27.9531H39.05ZM6.1 28.0233C5.09992 27.8829 4.13493 27.6549 3.15239 27.497C4.08229 27.9005 5.08238 28.0233 6.1 28.0233ZM66.3505 26.6726C67.4558 26.7954 68.5612 26.9357 69.6665 27.0234C68.5436 26.8129 67.4207 26.6199 66.2803 26.655C66.3154 26.655 66.3329 26.655 66.368 26.655L66.3505 26.6726Z" fill="black"/>
<path d="M14.9253 69.6498C14.5568 69.4919 14.9253 69.1586 15.1007 69.0007C14.6972 69.106 14.2936 69.2288 13.9076 69.3691C13.7848 69.4042 13.6445 69.334 13.6269 69.2112C13.6094 69.0709 13.7146 68.9481 13.8375 68.913C14.5217 68.7025 15.206 68.5271 15.8903 68.3517C16.6447 67.7553 17.3992 67.1238 18.1887 66.5449C19.8379 65.317 21.5749 64.1943 23.3645 63.1769C29.6458 59.7212 36.6463 57.7565 43.0854 54.6166C46.6822 52.8448 49.6825 50.2487 52.8932 47.9156C55.6128 45.8808 58.6306 44.3021 61.6659 42.7759C63.7713 41.6883 65.6662 40.3201 67.3506 38.6712C69.5086 36.4083 71.6667 34.1454 74.2108 32.3036C75.9127 31.0581 77.5444 29.7425 79.1761 28.3918C79.3691 28.2514 79.5796 28.0234 79.7902 28.2163C79.8779 28.3391 79.8252 28.4795 79.72 28.5672C78.0356 29.9354 76.3513 31.3212 74.7371 32.7596C67.8418 39.3378 60.3851 45.3019 52.3844 50.4943C46.419 54.3359 40.4712 58.2477 34.2251 61.6157C30.2598 63.6681 26.1718 65.545 21.9434 67.0185C20.0485 67.6851 18.1185 68.2113 16.1885 68.7376C15.8376 69.0183 15.5043 69.2989 15.1884 69.6147C15.1183 69.6673 15.013 69.7024 14.9253 69.6673V69.6498ZM18.1536 67.1413C17.8904 67.3518 17.6272 67.5448 17.3641 67.7553C17.2412 67.843 17.136 67.9482 17.0132 68.0359C26.7683 65.5099 35.7164 60.6333 44.1732 55.2481C50.3667 51.3538 56.5251 47.3894 62.2975 42.8987C59.3324 44.4248 56.3672 45.8983 53.6477 47.8455C50.5071 50.1083 47.5595 52.6694 44.1382 54.5113C35.5936 58.9318 25.7858 61.0368 18.1536 67.1413Z" fill="black"/>
<path d="M59.4376 56.8793C59.3148 56.8091 59.2797 56.6162 59.3499 56.4934C60.6132 54.0726 59.192 51.3888 58.3323 49.0908C57.9112 49.4066 57.7884 48.6873 57.8235 48.3891C57.8059 47.8804 57.7357 47.4419 57.5252 47.0033C57.262 45.9859 56.5076 45.2667 56.1567 44.2844C55.7005 43.0389 55.4022 41.7408 54.946 40.4954C53.5073 36.5661 52.0335 32.6543 50.7703 28.6723C49.4895 24.9535 48.9105 21.0768 47.77 17.3228C46.9805 14.0952 45.2611 11.2183 44.2083 8.07839C43.8399 7.00835 43.8925 5.8506 43.9802 4.74547C44.0504 4.3771 43.7346 3.83331 44.1206 3.62281C44.2434 3.58772 44.3838 3.69297 44.4013 3.81576C45.1207 7.79772 46.577 11.6218 47.7174 15.4985C47.7174 15.4108 47.77 15.3056 47.8577 15.2705C47.9806 15.2178 48.0858 15.2705 48.1385 15.3933C48.735 17.165 49.2965 18.9542 49.893 20.7435C51.8405 26.7603 53.753 32.8121 55.8409 38.7763C56.6479 41.39 57.5252 43.9686 58.2621 46.6174C58.4902 47.3893 58.4551 48.2488 58.8411 48.968C59.8061 51.3888 61.122 54.213 59.8061 56.739C59.7359 56.8618 59.5955 56.9495 59.4727 56.8618L59.4376 56.8793ZM57.3147 45.1966C55.7531 39.899 53.9284 34.7066 52.1914 29.4617C50.9282 25.3043 49.5596 21.1645 48.2087 17.0246C50.8931 26.5147 53.5249 36.0573 57.3322 45.179L57.3147 45.1966ZM45.7172 10.6395C45.226 9.11335 44.7873 7.56968 44.3662 6.02602C44.3312 7.65739 45.0856 9.18352 45.7172 10.6395Z" fill="black"/>
</svg>
