<?xml version="1.0" encoding="UTF-8"?>
<svg id="Layer_1" data-name="Layer 1" xmlns="http://www.w3.org/2000/svg" viewBox="0 0 82 73">
  <defs>
    <style>
      .cls-1 {
        stroke: #000;
        stroke-miterlimit: 10;
      }
    </style>
  </defs>
  <path class="cls-1" d="M16.27,69.69c-1.6-.41.84-4.75,1.19-5.76,1.54-3.54,3.11-7.06,4.76-10.55.83-1.8,1.7-3.59,2.56-5.38.68-1.82,1.34-3.64,1.99-5.46.83-2.28,1.62-4.58,2.65-6.78.43-.83.78-1.82,1.52-2.4,1.17-2.41,2.33-4.85,3.41-7.29.35-2.2,1.04-4.32,1.8-6.42.45-2.7,1.31-5.31,2.17-7.91.66-1.67,1.22-3.39,2.03-4.99.28-.53.61-1.01.98-1.47.05-.07.12-.1.2-.08.08.03.15.12.15.22,0,.4,0,.81-.12,1.19-.69,2.03-1.54,4.02-2.22,6.05.28-.68.56-1.36.84-2.02.5-1.19.94-2.41,1.36-3.64.18-.35.96-3.13,1.42-2.61.12-.2.4-.05.38.15.25-.65.48-1.29.69-1.94.07-.13.26-.25.4-.12.07.07.1.17.08.26-.15,1.04-.46,2.03-.76,3.04-.35,1.26-.81,2.46-1.24,3.69-.05.17-.12.35-.26.45-.13.07-.36.05-.43-.08-.74,1.84-1.49,3.67-2.32,5.49-.63,2.38-1.11,4.81-1.89,7.16-.31.81-.61,1.82-1.57,2.02-.08.03-.18,0-.23-.08-.33,1.27-.61,2.56-1.01,3.84-.43.61-.56-.69-.55-.98-2.1,4.5-4.27,8.98-5.96,13.68-.96,2.38-1.97,4.75-3.08,7.08-.66,1.79-1.31,3.57-2,5.34-.03.1-.15.18-.26.13-.35-.22.2-.93.25-1.26-1.74,3.69-3.41,7.39-5.01,11.13-.38,1.12-2.5,4.93-1.9,5.77-.12-.31.26-.53.43-.22.21.33-.1.76-.46.76v-.03ZM34.68,27.14c.08-.33.17-.65.25-.98.08-.35.18-.69.26-1.04-.13.3-.26.6-.4.89-.02.1-.03.22-.05.31v-.03c-.03.28-.07.56-.07.84ZM35.19,24.18c.13-.3.25-.6.38-.89v.03c.15-.33.08-.71.18-1.06-.15.5-.3.98-.43,1.47v-.03c-.05.17-.08.31-.12.48h-.02ZM36.15,23.96s.13-.05.2-.08c.02,0,.05-.02.05-.02.6-.56.78-1.41,1.06-2.15.58-1.92.99-3.89,1.49-5.82-.41,1.26-.89,2.46-1.36,3.7-.43.93-.84,1.82-.98,2.84.15-.15.28-.6.55-.4.1.08.12.25.03.35-.2.2-.73,1.31-1.03.84-.02.07-.03.15-.07.22.02.17.05.35.08.51h-.03ZM36.28,21.94v-.05c.03-.17.08-.33.12-.5-.05.17-.1.33-.15.5v-.02.07h.05-.02ZM36.99,17.64c.38-.84.69-1.7,1.16-2.51.33-1.06.63-2.12,1.01-3.16.63-2,1.59-3.92,2.12-5.94-.99,1.41-1.49,3.08-2.12,4.65-.88,2.27-1.56,4.61-2.17,6.96ZM41.28,9.5c-.05.1-.1.2-.13.3.23-.46.61-.88.71-1.37-.21.35-.4.71-.58,1.08ZM42.21,9.01c.03-.08.07-.17.1-.25.07-.17.12-.31.18-.48-.08.18-.22.33-.25.51v-.03c0,.08-.02.17-.03.25ZM41.97,7.47c.23-.22.23-.55.33-.83-.12.28-.22.56-.33.83ZM42.92,6.99c.1-.31.2-.61.3-.93-.12.3-.22.61-.33.91,0,0,.02,0,.03.02Z"/>
  <path class="cls-1" d="M64.16,69.72c-.33-.88-.65-1.75-.99-2.61-.46.26-.41-.94-.55-1.21-.13-.66-.45-1.27-.69-1.89-.43-1.06-.89-2.08-1.34-3.13-.07-.15,0-.38.2-.38-.74-1.94-1.77-3.82-2.28-5.84-.05-.26.2-.84.5-.56.36.43.71.88,1.03,1.34-.86-2.66-1.89-5.29-2.94-7.89-.73-2.35-1.52-4.66-2.48-6.93-1.12-2.6-2.88-4.95-3.34-7.79-.71-.3-.76-1.27-.98-1.94-.22-.71-.4-1.42-.56-2.15-.33-2.22-1.56-4.13-2.35-6.2-.84-1.94-1.56-3.92-2.15-5.95-.51-1.62-.73-3.32-1.46-4.86-.26-.69-.45-1.42-.68-2.12-.15-.38-.31-1.03.2-1.19-.25-1.51-.83-3.19-.17-4.66.74-1.11,1.41.56,1.57,1.22.02.13-.05.28-.18.31-.13.03-.23-.08-.26-.2-.13-.41-.26-.83-.55-1.16-.68.25-.38,1.7-.36,2.32.13.93.28,1.89.55,2.78.45.31.81.73,1.06,1.21.43.5.86,1.01,1.19,1.57,1.14,2.17,1.52,4.65,2.03,7.01.12-.13.31-.07.35.1.26.78.55,1.47.91,2.2,1.51,2.28,1.24,5.08,1.77,7.62,1.56,4,3.62,7.82,4.57,12.02,1.03-.51,2.7,4.66,2.89,5.51.12.63.35,1.31.07,1.92-.05.18-.3.22-.38.03,1.12,3.04,2.56,6.02,3.21,9.21.08.35.17.68.25,1.01.03.12,0,.26-.12.31.56,1.6,1.14,3.21,1.57,4.85.23.86.48,1.72.41,2.61,0,.08-.03.18-.12.23.36,1.01.69,2.02.99,3.04.1.26-.26.5-.4.2l.02.02ZM63.02,64.85c.07.13.12.28.17.41-.5-2.56-1.46-5.01-2.32-7.48.23,1.37.25,2.78.89,4.04.12-.03.22.07.26.17.33.96.56,1.95.99,2.88v-.02ZM60.15,57.9c.17.38.31.74.48,1.12-.1-.79-.23-1.57-.36-2.35-.4-.65-.81-1.27-1.31-1.85.35,1.04.76,2.07,1.19,3.08ZM60.44,55.24c.15.43.31.86.46,1.27v-.05c-.1-.4-.22-.81-.33-1.21-.12-.4-.25-.79-.4-1.17.1.38.15.76.26,1.12v.03ZM57.9,46.7c.17.3.33.6.51.89-.28-2.22-1.16-4.4-2.33-6.27-.08.58.15,1.12.31,1.67.41,1.26.81,2.56,1.51,3.7ZM54.18,36.98c.4,1.31.79,2.61,1.21,3.9-.35-1.36-.74-2.71-1.22-4.04v.03c-.07-.17-.13-.33-.2-.5.07.2.13.4.2.6h.02ZM53.87,38.13c.23.41.41.83.61,1.26-.89-3.14-2.08-6.17-3.21-9.23.02.89.5,1.74.4,2.63.35,1.92,1.26,3.67,2.18,5.34h.02ZM51.14,32.16c-.1-1.12-.48-2.18-.93-3.19.28,1.04.5,2.15.89,3.13,0,.02.03.05.03.07ZM50.13,27.8c.22.5.43.99.63,1.46-.25-1.47-1.04-2.83-1.39-4.28.22.96.3,1.95.76,2.83ZM49.83,24.51c.13.4.25.79.38,1.19.08.25.17.5.23.74-.08-2-.6-3.77-1.59-5.49.18,1.22.58,2.38.98,3.56ZM47.83,22.57c.2.48.4.96.61,1.42.18.43.38.84.56,1.27-.43-1.74-.48-3.57-1.26-5.19.08.58.5,1.11.33,1.7-.31.5-.5.07-.68-.25.15.35.28.69.43,1.04ZM47.55,20.97c-.3-.91-.45-1.85-.68-2.78-.5-.96-1.01-1.92-1.51-2.88.55,1.95,1.11,3.94,2.18,5.66ZM47.37,18.22c.13.26.25.53.38.81.03.07.05.12.08.18-.56-2.56-.88-5.33-2.28-7.57.74,2.15,1.17,4.42,1.84,6.58h-.02ZM44.82,13.16c.5,1.11,1.06,2.18,1.62,3.27-.28-1.24-.66-2.45-.99-3.67-.33-1.04-.58-2.13-1.41-2.89.23,1.11.48,2.2.78,3.29Z"/>
  <path class="cls-1" d="M64.79,70.49c-.1,0-.22-.03-.3-.03-.1-.02-.22-.08-.25-.18-5.71-2.38-11.05-5.49-16.33-8.7-2.37-1.42-4.83-2.7-7.16-4.18-.94-.69-2.2-1.11-2.83-2.13-3.72-2.27-7.28-4.78-10.64-7.54-3.59-2.56-7.01-5.36-10.24-8.37-4.5-2.96-8.64-6.38-13.07-9.43-.5-.31-2.08-1.29-1.21-1.42.86.13,1.69.61,2.43,1.01,3.49,1.87,7.28,3.31,10.36,5.89,4.28,3.32,7.58,7.76,11.79,11.11,2.91,1.69,6.02,3.03,8.85,4.9,2.83,1.85,5.43,4.02,8.16,5.99.63.48,7.1,3.34,5.89,3.8,4.42,2.7,8.44,6.22,13.3,8.1.2-.12.51.13.35.33.33.15.68.28,1.01.43.1.05.17.13.17.25s-.13.2-.25.18h-.03ZM58.22,67c-.4-.25-.79-.51-1.17-.78-.05.03-.1.05-.17.05.45.23.89.5,1.34.73ZM55.57,65.41c-.84-.56-1.69-1.11-2.55-1.65-1.12-.73-2.23-1.46-3.36-2.18,1.87,1.42,3.82,2.76,5.91,3.84ZM41.34,57.3c2.83,1.74,5.77,3.27,8.6,5.01-.43-.35-1.24-.86-1.31-1.42-2.66-1.11-5.24-2.45-7.76-3.89.15.1.31.2.46.3ZM49.45,60.63c-.86-.51-1.77-.98-2.65-1.47.81.51,1.52,1.24,2.48,1.44h-.02c.07,0,.12.03.18.03ZM44.06,58.28c.89.46,1.8.93,2.71,1.34-2.4-1.84-5.1-3.29-7.96-4.28,1.7,1.06,3.49,1.97,5.24,2.94ZM38.81,54.92c1.24.28,2.35.96,3.51,1.47-4.1-3.24-8.4-6.2-13.15-8.43,2.18,1.41,4.33,2.88,6.5,4.33.4.36,2.33,1.19,2.07,1.75-.07.07-.18.08-.26.03-1.36-.65-2.63-1.41-3.92-2.15,1.44,1.04,2.94,1.98,4.45,2.91.28.02.53.05.81.1v-.02ZM33.12,51.2c.5.3,1.01.58,1.51.88-2.33-1.55-4.65-3.13-7.01-4.63,1.79,1.31,3.64,2.53,5.51,3.74v.02ZM26.32,46.26s.12.07.17.1c-4.4-3.82-8.06-8.55-12.85-11.91-2.4-1.6-5.05-2.73-7.59-4.05,2.51,1.92,5.33,3.41,7.78,5.42.08-.03.18,0,.26.03.41.28.83.58,1.22.91,1.41,1.11,2.8,2.23,4.2,3.32.66.55,1.39,1.03,2.05,1.59.23.2-.05.46-.28.31-.66-.35-1.31-.71-1.94-1.12,2.17,1.89,4.38,3.7,6.68,5.42.08-.08.22-.08.31-.03h-.02ZM14.98,37.41s-.08-.08-.13-.12c-.12-.1-.23-.21-.33-.31-.02.02-.05.03-.07.05.18.13.36.25.55.38h-.02ZM13.67,36.28c-1.52-1.31-3.23-2.38-4.9-3.49,1.62,1.16,3.16,2.55,4.9,3.49ZM4.24,29.6c.12.08.25.17.38.25.12.08.22.15.33.23,0-.03,0-.05.02-.08.02-.05.07-.08.12-.1-.26-.13-.53-.28-.78-.41h.03c-.25-.13-.5-.25-.76-.36.22.15.45.3.68.45l-.02.03Z"/>
  <path class="cls-1" d="M36.76,32.23c-3.49-.22-6.95-1.09-10.44-1.37-7-.66-14.01-1.11-21.03-1.62-.3-.03-.4-.46,0-.46,7.92.65,15.88,1.04,23.77,2.02-.18-.12-.45-.4-.1-.51,1.01-.26,2.03-.38,3.08-.41,4.35-.2,8.67-.76,12.97-1.44-1.04-.07-6.15.48-6.4-.25,0-.12.1-.2.2-.2.89-.07,1.8-.12,2.7-.15,3.33-.2,6.67-.22,10.01-.15,3.29-.2,6.58-.46,9.88-.71-.05-.43.56-.38.84-.33.18-.07.38-.08.56-.05.86.13,1.72.08,2.6.13,1.57-.05,3.16-.25,4.73-.12.1,0,.22.07.23.18.08.38-1.06.23-1.34.31,3.31.25,6.58-.45,9.89-.53.23-.02.36.25.3.45-.02.07-.1.12-.17.13-.68.13-1.34.3-2.02.35.36.05.73.13,1.08.25.1.03.2.13.18.25-.02.13-.15.18-.26.17-.99-.1-1.92-.23-2.89-.31.03.13-.08.23-.2.23-2.13.15-4.3.25-6.44,0-1.39.15-2.75.38-4.12.61-.12,0-.25-.07-.28-.17-.13-.5,2.25-.69,2.66-.81-1.47,0-2.96.03-4.38-.4-3.24.23-6.48.5-9.73.71-.03.07-.1.1-.18.12-1.36.08-2.71.18-4.07.3-2.6.3-5.18.73-7.78,1.09-2.38.3-4.76.56-7.16.71-1.29.12-2.6.07-3.85.38,1.57.22,3.16.33,4.75.43.98.12,2.05.05,2.93.55.36.38,0,.78-.5.68l-.02-.05ZM36.12,31.8c.26,0,.55,0,.79.02-1.37-.43-2.83-.36-4.25-.5,1.16.18,2.3.43,3.46.48ZM67.13,27.14s.07-.03.1-.03h-.43c.12,0,.23.02.33.03Z"/>
  <path class="cls-1" d="M14.43,69.26c-.4-.48,2.33-1.47,2.7-1.77,2.12-1.09,3.89-2.76,5.87-4.1,6.35-4.43,13.43-7.56,20.26-11.13,3.31-1.72,6.53-3.66,9.58-5.79,1.94-1.44,3.84-2.93,5.86-4.25,2.98-1.8,5.56-4.18,8.37-6.25,1.14-.86,2.23-1.77,3.41-2.58.86-.68,1.9-1.12,2.6-1.98.91-1.01,1.82-2.03,2.76-3.01.18-.21.45-.53.74-.36.07.05.07.13.05.2-.18.78-.66,1.42-1.19,2,1.06-.66,2.1-1.36,2.85-2.33.08-.1.23-.15.35-.08.28.26-.23.58-.38.79.41-.28,1.55-.61,1.16.31-.88,1.08-2.12,1.8-3.16,2.7-4.33,3.49-8.78,6.83-12.9,10.57-2.96,2.66-5.72,5.56-9.02,7.84-.79.45-2.65,2.2-3.41,1.21-5.31,3.52-11.13,6.15-16.76,9.11-2.99,1.42-6.32,2.51-8.49,5.14-1.16,1.26-2.78,1.89-4.3,2.55-.83.23-1.7-.18-2.53-.03-.18.08-.38-.07-.33-.26.02-.13.12-.22.25-.25,1.12-.3,2.02-1.19,2.96-1.84-1.55.81-3.18,1.47-4.6,2.51-.76.48-1.6.88-2.45,1.16-.08.03-.2.03-.25-.05v-.02ZM21.05,67.62c.51-.05.93-.36,1.39-.55.89-.4,1.8-.81,2.51-1.47,1.29-1.34,2.65-2.63,4.37-3.42,2.94-1.44,5.97-2.7,8.82-4.32,4.35-2.18,8.7-4.33,12.74-7.06.12-.48.36-.91.63-1.31-2.58,1.39-5.19,2.7-7.81,4.04-3.52,1.8-6.8,4.05-10.17,6.14-4.52,2.73-9.26,5.04-13.7,7.89.41.03.81.1,1.21.08l.02-.02ZM20.25,65.92l-.02.02c1.77-.89,3.56-1.7,5.14-2.91.3-.12,1.92-1.54,1.89-.81,2.66-1.79,5.24-3.69,7.94-5.42-5.26,2.6-10.29,5.56-14.94,9.13h-.02ZM26.64,63.14c1.99-1.09,3.97-2.2,5.91-3.36-.23.07-.55.41-.74.17-.07-.12,0-.23.12-.3,1.03-.53,2.03-1.11,3.03-1.7,2.5-1.49,5.03-2.91,7.34-4.68-5.62,2.61-10.57,6.38-15.67,9.86l.02.02ZM43.94,52.57c.05.1,0,.21-.08.28-.18.15-.35.28-.53.43,2.98-1.55,6-3.03,8.93-4.68,2-2.08,4.22-4.02,6.63-5.59.36-.2.51.43.38.68-.94,1.49-2.53,2.5-3.95,3.52-1.34,1.01-3.19,1.52-3.84,3.21,4.96-3.34,9.69-7,14.19-10.93,2.43-2.37,4.8-4.8,7.18-7.19-1.75,1.77-3.54,3.54-5.57,5.01-2.25,1.69-4.71,3.08-7.13,4.5-3.11,2.41-6.12,4.98-9.46,7.05-2.2,1.37-4.55,2.46-6.85,3.66.03,0,.07.03.08.08l.02-.02ZM51.67,51.12c1.41-.53,2.6-1.54,3.79-2.43,1.75-1.31,3.34-2.78,4.91-4.28-2.93,2.28-5.92,4.52-9.03,6.57.03.07.13.1.17.12.05.02.1.03.15.03h.02ZM53.5,46.47c-.98.73-2.03,1.37-3.03,2.08.55-.33,1.09-.69,1.64-1.06,0,0-.02,0-.03.02,1.06-.71,2.07-1.49,3.08-2.27.17-.13.33-.26.5-.4-.71.53-1.44,1.08-2.15,1.6v.02ZM53.62,47.79c1.8-1.11,3.57-2.3,4.98-3.85.1-.13.23-.26.26-.43-1.89,1.24-3.59,2.78-5.24,4.28ZM70.2,34.05c-2.53,1.9-5.01,3.85-7.53,5.79,3.08-1.82,6.04-3.94,8.54-6.5-.33.23-.68.46-1.01.71ZM74.38,31.35c-1.89,1.97-3.85,3.85-5.76,5.81,3.41-2.81,7-5.46,10.32-8.35-.22.07-.36.13-.55.25-.17.13-.45.03-.38-.2-1.08,1.03-2.4,1.75-3.66,2.51l.02-.02ZM75.52,29.32c-.6.65-1.17,1.29-1.75,1.94.08-.05.17-.1.25-.15.36-.38.73-.76,1.09-1.16.2-.23.4-.46.58-.71.05-.07.08-.13.13-.2-.08.1-.18.18-.26.28h-.03Z"/>
  <path class="cls-1" d="M16.81,70.5c-1.37-3.18,2.93-10.34,4.33-13.43,3.16-5.99,5.41-12.42,7.54-18.84.94-2.83,2.03-5.61,3.47-8.24.2-.26.2-.83.6-.79.25.08.1.35.02.5-.55,1.08-1.11,2.07-1.59,3.14-1.84,4.02-2.9,8.34-4.5,12.45.98-1.9,1.9-3.77,3.01-5.57.05-.1.18-.15.28-.13.35.17-.12.66-.18.91-1.77,3.46-3.44,6.96-5.14,10.47-.78,1.52-1.51,3.08-1.92,4.73-.08.31-.17.65-.33.93-.1.21-.5.17-.43-.12.03-.12.05-.22.08-.33-1.52,3.34-5.86,10.47-4.85,13.94.23.23-.2.61-.4.36v.02Z"/>
  <path class="cls-1" d="M62.67,68.78c-1.97-.48-3.74-1.57-5.53-2.5-3.14-1.74-6.27-3.51-9.36-5.34-6.39-3.89-12.99-7.43-19.16-11.64-3.64-2.41-6.72-5.52-9.79-8.62-2.73-2.03-5.51-4.05-7.99-6.4-.66-.55-1.51-.91-2.07-1.6-.3-.33-.84-1.32,0-1.22.2.03.35.2.46.35.38.46.81.93,1.21,1.37.43.55,1.01.89,1.6,1.24.98.65,1.87,1.39,2.78,2.13,1.99,1.55,3.71,3.42,5.79,4.85,6.45,4.63,13.37,8.52,20,12.88,2.02,1.34,4,2.71,5.97,4.12,2.12,1.49,4.1,3.19,6.4,4.4,2.35,1.12,4.67,2.45,7.13,3.24-.31-.15-.61-.28-.93-.43-.12-.05-.15-.2-.08-.31.07-.12.22-.18.35-.13.58.26,1.16.55,1.74.81,1.04.51,2.12,1.21,2.73,2.2.03.65-.79.68-1.26.56v.05ZM63.28,68.35s.08,0,.13-.02h.02c-.74-.84-1.65-1.52-2.68-1.95-.1.84-3.04-.79-3.54-.98-2.22-1.08-4.48-2.05-6.53-3.42-2.58-1.84-5.08-3.79-7.71-5.56-7.1-4.95-14.74-9.06-21.79-14.06,5.79,6.19,13.35,10.22,20.58,14.47,4.55,2.66,9.07,5.41,13.7,7.94,1.57.86,3.13,1.75,4.75,2.53,1.01.45,2,1.03,3.11,1.04h-.03Z"/>
  <path class="cls-1" d="M11.7,30c-1.95-.02-3.84-.53-5.74-.81-.56-.08-3.06-.23-2.28-1.21.2-.22.56,0,.38.26.15.12.28.13.45.18-.3-.41.03-.65.5-.58,1.12.13,2.23.43,3.34.6,1.89.28,3.8.26,5.71.28,3.87.02,7.68-.68,11.53-.86,6.67-.28,13.33-.18,20-.15,4.48,0,8.98-.02,13.45-.31,3.66-.03,8.57-1.09,11.86.65,2.08-.07,4.19.26,6.27.15.26-.03.53-.07.79-.12.13-.02.25.07.25.2,0,.48-1.52.36-1.89.41-2.75-.17-5.49-.15-8.22-.31-1.92-.15-3.84-.55-5.77-.5-4.47.38-8.92,1.06-13.38,1.37-4.66.33-9.33-.15-13.98-.13-1.59.36-3.23.6-4.85.68-2,.1-3.99-.08-5.97-.26-4.12.26-8.25.63-12.39.48l-.05-.02ZM15.59,29.57c1.8-.08,3.61-.18,5.41-.26-3.8-.25-7.63-.03-11.43.05,2,.28,4.02.26,6.04.23l-.02-.02ZM29.27,29.38c.61,0,1.22-.05,1.82-.1.55-.05,1.11-.12,1.65-.2-1.99,0-3.99.13-5.97.21.84.05,1.67.07,2.51.07l-.02.02ZM19.89,28.79c1.46.08,2.89.21,4.35.3,1.6-.12,3.21-.23,4.83-.28,1.94-.12,3.89-.12,5.82-.1.86-.2,1.72-.4,2.58-.6-5.87-.03-11.78-.08-17.6.68h.02ZM39.33,28.79c2.32.07,4.63.18,6.95.2,2.86-.12,5.69-.43,8.54-.71-3.24.12-6.5-.1-9.74-.13-2.81.02-5.67-.18-8.4.58.89.02,1.79.03,2.68.07h-.02ZM8.26,28.86c-.94-.13-1.85-.35-2.78-.5.88.38,1.82.5,2.78.5ZM65.07,27.58c1.04.12,2.08.25,3.13.33-1.06-.2-2.12-.38-3.19-.35h.08l-.02.02Z"/>
  <path class="cls-1" d="M16.58,68.1c-.35-.15,0-.46.17-.61-.38.1-.76.22-1.12.35-.12.03-.25-.03-.26-.15-.02-.13.08-.25.2-.28.65-.2,1.29-.36,1.94-.53.71-.56,1.42-1.16,2.17-1.7,1.55-1.16,3.19-2.22,4.88-3.18,5.92-3.26,12.52-5.11,18.59-8.07,3.39-1.67,6.22-4.12,9.25-6.32,2.56-1.92,5.41-3.41,8.27-4.85,1.99-1.03,3.77-2.32,5.36-3.87,2.03-2.13,4.07-4.27,6.47-6,1.6-1.17,3.14-2.41,4.68-3.69.18-.13.38-.35.58-.17.08.12.03.25-.07.33-1.59,1.29-3.18,2.6-4.7,3.95-6.5,6.2-13.53,11.83-21.08,16.72-5.62,3.62-11.23,7.31-17.12,10.49-3.74,1.94-7.59,3.7-11.58,5.09-1.79.63-3.61,1.12-5.43,1.62-.33.26-.65.53-.94.83-.07.05-.17.08-.25.05v-.02ZM19.62,65.74c-.25.2-.5.38-.74.58-.12.08-.22.18-.33.26,9.2-2.38,17.63-6.98,25.61-12.06,5.84-3.67,11.65-7.41,17.09-11.64-2.8,1.44-5.59,2.83-8.16,4.66-2.96,2.13-5.74,4.55-8.97,6.28-8.06,4.17-17.3,6.15-24.5,11.91Z"/>
  <path class="cls-1" d="M58.55,56.06c-.12-.07-.15-.25-.08-.36,1.19-2.28-.15-4.81-.96-6.98-.4.3-.51-.38-.48-.66-.02-.48-.08-.89-.28-1.31-.25-.96-.96-1.64-1.29-2.56-.43-1.17-.71-2.4-1.14-3.57-1.36-3.7-2.75-7.39-3.94-11.15-1.21-3.51-1.75-7.16-2.83-10.7-.74-3.04-2.37-5.76-3.36-8.72-.35-1.01-.3-2.1-.22-3.14.07-.35-.23-.86.13-1.06.12-.03.25.07.26.18.68,3.75,2.05,7.36,3.13,11.02,0-.08.05-.18.13-.21.12-.05.22,0,.26.12.56,1.67,1.09,3.36,1.65,5.04,1.84,5.67,3.64,11.38,5.61,17,.76,2.46,1.59,4.9,2.28,7.39.22.73.18,1.54.55,2.22.91,2.28,2.15,4.95.91,7.33-.07.12-.2.2-.31.12l-.03.02ZM56.55,45.05c-1.47-4.99-3.19-9.89-4.83-14.84-1.19-3.92-2.48-7.82-3.76-11.73,2.53,8.95,5.01,17.95,8.6,26.55l-.02.02ZM45.61,12.47c-.46-1.44-.88-2.89-1.27-4.35-.03,1.54.68,2.98,1.27,4.35Z"/>
</svg>