<svg width="15" height="28" viewBox="0 0 15 28" fill="none" xmlns="http://www.w3.org/2000/svg">
<path d="M0.0177778 14.6114C0.0177778 14.6114 -0.0222222 14.5214 0.0177778 14.4814C0.0477778 14.4314 0.0877839 14.3914 0.117784 14.3414C0.0677839 14.3114 0.0577851 14.2414 0.0877851 14.2014C0.377785 13.7914 0.677789 13.3914 0.997789 13.0114C2.39779 11.1214 4.15779 9.56138 5.79779 7.88138C6.09779 7.04138 6.87779 6.45138 7.43779 5.77138C8.14779 5.06138 8.84779 4.32139 9.63779 3.69139C9.74779 3.65139 9.87778 3.45138 9.98778 3.54138C10.0178 3.57138 10.0178 3.63138 9.98778 3.66138C9.73778 4.00138 9.46778 4.31139 9.17778 4.62139C10.5378 3.41139 11.7878 2.07139 13.1578 0.871386C13.4678 0.591386 13.7778 0.301383 14.0878 0.0213834C14.1278 -0.00861656 14.1778 -0.00861443 14.2078 0.0313856C14.2378 0.0713856 14.2378 0.131385 14.2078 0.171385C13.6678 0.721385 13.1078 1.24139 12.5678 1.78139C12.6578 1.72139 12.8778 1.49138 12.8878 1.73138C13.0478 1.62138 13.2078 1.51138 13.3878 1.43138C13.4278 1.41138 13.4678 1.43139 13.4878 1.46139C13.5178 1.51139 13.4878 1.57139 13.4578 1.60139C13.5278 1.58139 13.5778 1.64139 13.5778 1.71139C13.5778 1.83139 13.4578 1.81138 13.3778 1.84138C11.7778 2.98138 10.5778 4.64139 9.18779 6.03139C7.88779 7.44139 6.41778 8.67138 5.03778 9.99138C4.40778 10.5314 3.86778 11.1314 3.34778 11.7714C2.64778 12.5814 1.87779 13.3114 1.13779 14.0814C0.937788 14.2914 0.727791 14.5214 0.437791 14.6014C0.387791 14.6214 0.347785 14.5814 0.337785 14.5314C0.297785 14.5614 0.24778 14.5814 0.20778 14.6114C0.18778 14.6114 0.177777 14.6214 0.157777 14.6114C0.127777 14.6414 0.0777918 14.6514 0.0477918 14.6114H0.0177778ZM4.97778 9.78139C5.88778 8.94139 6.79779 8.11138 7.69779 7.25138C7.69779 7.17138 7.73778 7.10138 7.75778 7.02138C6.82778 7.94138 5.88778 8.84139 4.98778 9.78139H4.97778ZM6.12778 7.56138C7.30778 6.47138 8.36779 5.26138 9.44779 4.08138C8.27779 5.16138 7.09778 6.28138 6.12778 7.56138ZM7.93779 7.00138C8.30779 6.71138 8.62779 6.35138 8.93779 6.00138C8.54779 6.26138 8.09779 6.54138 7.93779 7.00138ZM9.20778 5.71139C9.33778 5.57139 9.46778 5.43138 9.59778 5.29138C9.44778 5.41138 9.30779 5.54138 9.16779 5.67138C9.17779 5.67138 9.19778 5.69138 9.20778 5.70138V5.71139Z" fill="black"/>
<path d="M12.7477 27.4814C12.0277 26.9014 11.3477 26.2614 10.6877 25.6014C11.1477 26.1014 11.6077 26.5714 12.0477 27.0814C12.0777 27.1114 12.0677 27.1614 12.0477 27.1814C12.0077 27.2114 11.9577 27.2014 11.9177 27.1714C11.2977 26.6114 10.7177 26.0014 10.1277 25.4114C9.77768 25.0314 9.41768 24.6214 9.06768 24.2514C8.93768 24.1014 8.80769 23.9514 8.66769 23.8114C8.79769 24.3414 8.47769 24.0114 8.29769 23.8214C7.57769 23.0614 6.89769 22.2714 6.21769 21.4914C5.74769 21.0114 5.36768 20.4214 4.92768 19.9114C4.80768 20.1614 4.10768 19.1414 3.94768 19.0314C3.32768 18.3514 2.73769 17.6514 2.13769 16.9414C1.97769 16.7614 1.76769 16.5914 1.68769 16.3514C1.52769 16.2014 1.36768 16.0414 1.20768 15.8914C1.15768 15.8414 1.10769 15.7914 1.05769 15.7414C0.917685 15.9814 0.627682 15.5714 0.507682 15.4714C0.337682 15.2814 0.20768 15.0514 0.17768 14.7914C0.17768 14.7514 0.177689 14.6914 0.217689 14.6614C0.137689 14.6414 0.0176866 14.6214 0.0276866 14.5114C0.0476866 14.4314 0.137685 14.4414 0.197685 14.4614C0.217685 14.4114 0.297684 14.4014 0.337684 14.4414C0.457684 14.5314 0.587685 14.6114 0.697685 14.7214C0.847685 14.6714 1.02768 14.9314 1.03768 15.0614C1.15768 15.2114 1.30768 15.3314 1.47768 15.4314C1.16768 14.9814 0.897684 14.5014 0.587684 14.0414C0.567684 14.0014 0.587683 13.9514 0.617683 13.9314C0.787683 13.9014 0.877684 14.2214 0.977684 14.3214C1.61768 15.1114 2.30769 15.8814 3.13769 16.4714C4.41769 17.3414 5.32768 18.6214 6.25768 19.8414C7.55768 21.3114 8.81769 22.8014 10.1677 24.2314C10.4177 24.2814 10.5777 24.5514 10.7477 24.7214C11.0677 25.0614 11.3977 25.3914 11.7277 25.7314C12.1077 26.1314 12.4877 26.5314 12.8577 26.9314C12.8877 26.9614 12.8877 27.0114 12.8577 27.0414C12.7077 27.1114 12.5277 26.8514 12.4077 26.7714C12.4677 26.8814 13.2477 27.5914 12.7977 27.4614L12.7477 27.4814ZM8.10769 23.3814C8.18769 23.4714 8.27769 23.5614 8.35769 23.6514C8.38769 23.6914 8.42768 23.7214 8.45768 23.7614C8.30768 23.4514 7.96768 23.2614 7.75768 22.9814C7.50768 22.7114 7.25768 22.4314 7.00768 22.1514C7.36768 22.5614 7.72769 22.9814 8.10769 23.3814ZM8.33768 22.7514C8.26768 22.6714 8.19768 22.6014 8.11768 22.5214C8.02768 22.4314 7.94769 22.3414 7.85769 22.2514C7.99769 22.4314 8.13769 22.6214 8.32769 22.7514H8.33768ZM7.28768 21.7714C7.24768 21.7014 7.14768 21.6214 7.17768 21.5314C6.93768 21.2814 6.69769 21.0314 6.46769 20.7914C6.73769 21.1214 7.00768 21.4614 7.28768 21.7714ZM7.53768 21.6214C7.40768 21.4714 7.28768 21.3214 7.15768 21.1714C7.05768 21.0514 6.94768 20.9314 6.84768 20.8014C6.82768 20.8214 6.78768 20.8214 6.75768 20.8214C6.75768 20.8214 6.75768 20.8414 6.73768 20.8414C7.00768 21.0914 7.22769 21.4214 7.52769 21.6114L7.53768 21.6214ZM5.27769 19.0914C5.27769 19.0914 5.30769 19.1114 5.32769 19.1114C4.47769 18.1514 3.57769 17.2314 2.63769 16.3614C3.06769 17.0414 3.80768 17.4814 4.19768 18.1914C4.48768 18.5414 4.85768 18.7914 5.19768 19.0914C5.21768 19.0914 5.24768 19.0914 5.26768 19.0914H5.27769ZM2.40768 16.2614C2.40768 16.2614 2.40769 16.2414 2.41769 16.2414C2.39769 16.2414 2.37769 16.2214 2.35769 16.2214C2.35769 16.2214 2.35768 16.2214 2.36768 16.2214C2.36768 16.2214 2.34768 16.2214 2.33768 16.2214C2.35768 16.2414 2.37768 16.2514 2.39768 16.2714L2.40768 16.2614ZM2.11768 16.0114C2.18768 16.0214 2.24768 16.0314 2.31768 16.0414C2.20768 15.9414 2.09769 15.8414 1.99769 15.7314C1.84769 15.5814 1.69769 15.4314 1.55769 15.2814C1.61769 15.3814 1.68768 15.4814 1.75768 15.5714C1.83768 15.6914 1.92768 15.8014 2.00768 15.9214C2.04768 15.9514 2.08768 15.9814 2.11768 16.0114ZM0.807685 15.5414C0.707685 15.4214 0.587688 15.3214 0.497688 15.2014C0.537688 15.2614 0.587677 15.3314 0.627677 15.3714C0.677677 15.4214 0.727687 15.4714 0.777687 15.5214C0.787687 15.5214 0.797685 15.5414 0.807685 15.5514V15.5414Z" fill="black"/>
</svg>
