<?xml version="1.0" encoding="UTF-8"?>
<svg id="Layer_1" data-name="Layer 1" xmlns="http://www.w3.org/2000/svg" viewBox="0 0 104 100">
  <defs>
    <style>
      .cls-1 {
        stroke: #000;
        stroke-miterlimit: 10;
      }
    </style>
  </defs>
  <path class="cls-1" d="M8.64,93.49s-.08-.12-.12-.18c-.42.03-.74-.37-1.01-.62-.72-.59-1.46-1.23-1.68-2.16-.71-1.19-1.24-2.63-.77-4.01.07-.22.13-.45.13-.69,0-.07.05-.12.1-.15.15-.4.15-.77.05-1.17-.15-.96-.34-1.91-.44-2.87-.29-2.94-.86-5.84-1.04-8.78,0-.22.3-.25.39-.08.08.12.15.25.17.39.18,1.19.25,2.38.39,3.57-.37-4.56-.96-9.1-1.06-13.68,0,.22-.02.59-.3.57-.1-.02-.18-.1-.22-.2-.24-.91-.3-1.85-.37-2.77-.55-6.98-.15-13.98.59-20.93.03-.2,0-.45.13-.6.17-.12.39.08.35.27-.24,3.31-.15,6.61,0,9.92.15-3.17.32-6.33.39-9.5,0-5.35-.24-10.71-.24-16.08.1-4.45.67-8.88.89-13.32,0-.1.07-.18.17-.2.5.07.24.77.27,1.12-.89,10.32-1.7,20.91.97,31.03-.03-4.23-.69-8.41-.79-12.64-.3-5.86-.05-11.73.29-17.59.07-1.26.08-2.53.02-3.79.03-.34-.3-1.36.29-1.12.2.13.54.64.17.76.18,3.21-.2,6.41-.32,9.62-.2,3.74-.22,7.5-.07,11.24.07,3.68.5,7.33.74,10.99.05.99.13,1.98.08,2.95-.03.15-.05.37-.22.4-.91.07-1.76-6.65-1.88-7.65.32,7.72-.72,15.39-.6,23.09,0,4.65.3,9.28.77,13.91.17,2.01.5,4.03.32,6.06,0,.72.27,1.49.08,2.18.13,1.23.32,2.45.52,3.68.15.02.25.17.24.32-.22,2,.65,4.03,1.51,5.81.27.5,2.03,2.65,1.41,3.02-.1.03-.2-.03-.27-.1h-.03ZM8.03,92.55c-.59-.86-.89-2-1.66-2.69-.54.59,1.23,2.25,1.66,2.69ZM5.88,89.7c.08-.23.35-.4.6-.29-.08-.2-.15-.39-.24-.59-.13,0-.24-.1-.3-.2-.22-.5-.37-1.06-.54-1.59-.24.91.07,1.88.47,2.67ZM3.25,60.04c.03.42.05.84.1,1.26.02-2.47.1-4.93.27-7.4-.02-2.87-.17-5.74-.27-8.59-.37,4.9-.45,9.83-.08,14.75l-.02-.02Z"/>
  <path class="cls-1" d="M79.63,4.91s-.07-.18-.03-.27c0,0-.05-.05-.08-.07-.05-.02-.08-.05-.13-.07-.1-.03-.22-.07-.3-.1-.18-.03-.39-.07-.57-.08-.2-.02-.42-.05-.59-.05-.25-.02-.49-.03-.71-.05-.5-.03-1.01-.07-1.49-.12-.49-.03-.96-.08-1.44-.12-.45-.03-.89-.07-1.34-.1-.86-.07-1.7-.15-2.55-.22-.22-.02-.42-.03-.6-.05-.74-.05-1.49-.1-2.23-.1.22.03.42.07.64.08.22.03.45.07.67.08.12,0,.18.13.15.25-.03.12-.15.2-.29.18-.29-.03-.57-.07-.86-.1-.2-.03-.4-.05-.6-.08-.12-.02-.24-.05-.34-.1-.13-.07-.25-.13-.39-.2-.07-.03-.12-.12-.1-.2,0-.1.08-.17.17-.2h.02s.17-.1.25-.12c.13-.02.27-.03.4-.03h1.02c.24,0,.45.03.69.03.42.03.84.05,1.26.08.44.03.87.07,1.29.1.47.03.92.08,1.39.12.96.07,1.91.13,2.87.22.52.03,1.04.07,1.56.1.35.02.71.03,1.06.07.17.02.35.03.52.07.18.02.37.05.54.12.12.03.25.08.35.15.1.07.2.13.24.25,0,.03.03.08.03.12v.15c0,.08-.07.17-.12.23-.05.05-.13.08-.2.08-.05,0-.12-.02-.15-.07Z"/>
  <path class="cls-1" d="M78.46,4.33c-1.24-.15-2.48-.49-3.74-.52-.49,0-.97.05-1.46.05-.08,0-.13-.05-.17-.12-1.75-.02-3.49.02-5.24.03h-2.42c-.3,0-.18-.45.07-.44,3.56.03,7.12-.18,10.66.03.86.05,1.75.13,2.57.37.08.03.17.1.18.18.05.27-.24.42-.47.39l.02.02Z"/>
  <path class="cls-1" d="M26.77,5.38c-.44-.1-.92-.13-1.33-.32-.12-.07-.15-.2-.13-.32.07-.6,2.06-.22,2.57-.3,2.89-.3,5.78-.49,8.7-.54-.03-.45.59-.3.89-.35,2.1-.17,4.2-.13,6.3-.4,4.03-.2,7.99-1.06,12.04-.81,1.9.13,3.74.23,5.61.62,2.08-.13,4.16-.15,6.26-.08,4.33.17,8.63.7,12.89,1.39.25.08.79,0,.72.39-.03.13-.18.23-.32.22-5.98-1.07-12.05-1.8-18.13-1.56.27.05.44.18.27.47-.27.34-.76.18-1.12.2-1.58-.03-3.16-.25-4.73-.39-3.26-.3-6.51-.34-9.77-.29-1.83.05-3.61.23-5.42.42.25.12.82.13.77.5-.08.25-.37.2-.57.2-1.81-.15-3.64-.12-5.47-.07-2.06.08-4.15.05-6.19.27-1.24.13-2.48.34-3.74.27.39,0,.27.54-.07.49v-.02ZM61.82,3.52h.12c-.52-.18-1.06-.1-1.61-.1.15,0,.3.02.45.03h-.03c.35.02.71.05,1.07.07ZM55.2,3c1.24.03,2.48.03,3.74.03-2.54-.27-5.12-.42-7.66-.17,1.31,0,2.6.08,3.91.13Z"/>
  <path class="cls-1" d="M7.12,6.14c-.2-.05-.44-.05-.6-.18-.12-.13-.07-.35.03-.5.25-.32.64-.45.97-.65,3.34-1.44,6.97-2.6,10.64-2.37,4.52.52,9.03.6,13.56.39,5.14-.17,10.27.32,15.41.05,1.61-.08,3.21-.13,4.82-.05.64-.05,1.31-.13,1.93.03.1.05.17.17.13.29-.08.44-.96.12-1.28.15-1.83-.05-3.64.44-5.47.47-2.6.15-5.22.05-7.82-.03-6.8-.17-13.61-.15-20.41.27-2.82.17-5.91-.29-8.51,1.01-.3.17-.47-.27-.15-.42,2.05-1.04,4.4-.91,6.63-1.01,2.27,0,4.52-.12,6.78-.25-2.64-.05-5.25-.64-7.87-.45-3.09.32-6.16,1.26-8.9,2.72.18.02.45.07.39.32-.03.13-.18.23-.32.22l.03.02ZM42.35,3.39c1.96.03,3.95.03,5.91-.13-2.32.1-4.65.17-6.97.1.35,0,.71.02,1.07.03h-.02ZM35.68,3.24c1.68,0,3.36.07,5.05.1-3.04-.12-6.09-.17-9.15-.1,1.36,0,2.74-.02,4.1,0Z"/>
  <path class="cls-1" d="M79.87,5.82s-.03-.1-.05-.15c-1.06-1.19-2.85-1.11-4.3-1.17-.27-.07-.89.12-.99-.2.03-.49.71-.32,1.04-.34.62,0,1.24.03,1.86.07.07,0,.15.03.17.12.82.1,2.65.57,2.72,1.56-.05.18-.34.34-.47.15l.02-.03Z"/>
  <path class="cls-1" d="M92.05,29.3c-.97-.35-1.95-.27-2.95-.17-.74-.03-1.46-.17-2.2-.08-1.59.35-3.11-.32-4.62-.7-.86-.27-1.24-1.17-1.91-1.69-.74-.55-1.58-1.04-2.08-1.83.07.79.13,1.61-.07,2.38-.03.1-.13.17-.22.22-.24.13-.42-.13-.45-.35-.24-1.56.07-3.17-.15-4.72-.25-1.24-.42-2.48-.54-3.74-.13-1.85.03-3.68,0-5.5,0-1.39-.32-2.77-.22-4.16.05-1.46.54-3.07-.18-4.41-.3.22-.6-.22-.35-.47.18-.2.5-.07.65.1.92,1.28.49,3,.39,4.46.12-.7.37-1.39.39-2.11,0-.29.27-.62.54-.29.1.13.05.3.03.44-.32,1.75-.3,3.56-.59,5.32-.25,1.59.13,3.17.12,4.78.03,1.26.15,2.5.24,3.74.02,1.59-.07,3.37,1.16,4.58.6.6,1.38.96,1.98,1.56.32.34.57.72.92,1.02.37.3.84.34,1.28.47,1.19.39,2.37.74,3.63.45.84-.1,1.68.13,2.52.08.99-.22,1.96-.03,2.92.23.5.1.99-.03,1.49-.08.45-.03.96.03,1.39-.13.59-.22,1.01-.76,1.58-1.01.08-.03.2,0,.29,0,.24.05.34.29.4.49.05.42-.47.32-.52-.03-.62.39-1.16.99-1.91,1.09-.99,0-1.98.3-2.95.08l.02-.02Z"/>
  <path class="cls-1" d="M99.91,36.26c-.54-1.04-.6-2.32-.94-3.46-.67-2.75-1.18-5.54-1.49-8.36.64-1.24,1.66,3.98,1.8,4.38-.42-1.98-.57-4.11-1.66-5.87-.18-.32-.35-.62-.52-.92-1.18-1.78-1.61-4.53-3.83-5.32-.13,0-.25-.1-.29-.22,0-.42.59-.18.81-.05,2.27,1.33,2.75,4.16,4.13,6.23,1.29,2.08,1.39,4.62,1.95,6.95.39,2.1,1.07,4.21,1.11,6.33-.03.17-.27.32-.42.22-.07-.03-.12-.1-.13-.18-.23-1.02-.45-2.03-.69-3.05-.5-2.23-.94-4.48-1.58-6.68.44,3.12,1.21,6.19,1.96,9.23.3.07.22.42.25.65,0,.24-.32.27-.45.1v.03Z"/>
  <path class="cls-1" d="M97.83,23.29c-.6-.65-1.16-1.34-1.73-2.01-.08-.1-.1-.25.02-.34.12-.08.29-.03.37.07.22.29.45.57.69.84-2.32-3-6.56-10.35-9.8-11.65-.18.29-.67-.05-.4-.3,1.36-.87,5.07,4.13,5.89,5.19,1.23,1.66,2.37,3.36,3.58,5.02.59.91,1.41,1.73,1.75,2.77.13.29,0,.65-.37.4l.02.02Z"/>
  <path class="cls-1" d="M97.53,23.98c-.62-.94-1.19-1.93-1.75-2.9-1.01-1.33-2.13-2.55-3.22-3.81-2.42-2.75-4.83-5.5-7.37-8.14-1.96-1.81-4.43-3.05-6.28-5-.15-.18-.44-.69.02-.64.57.15.99.57,1.49.84,0-.15.2-.22.32-.13.87.49,1.73.97,2.55,1.54,2.89,2.01,5.3,4.6,7.62,7.23.99,1.11,1.95,2.23,2.77,3.47.13.27.45.52.44.84.89,1.19,1.33,2.65,2.2,3.86.6.81,1.21,1.61,1.59,2.55.03.13.07.29-.05.39-.12.1-.29.05-.37-.07l.03-.03ZM86.97,10.45c2.7,2.94,5.34,5.92,7.96,8.93-1.95-3.74-4.97-6.83-8.33-9.33.13.13.25.27.37.4ZM85.81,8.96c1.14.87,2.3,1.73,3.37,2.69-1.23-1.36-2.5-2.7-3.91-3.88.1.08.17.25.07.35-.08.08-.22.07-.3,0-.35-.23-.64-.54-.97-.81.57.57,1.07,1.21,1.75,1.63v.02ZM83.11,6.98c-.13-.12-.35-.37-.08-.49-1.02-.69-2.1-1.39-3.14-2.05,1.02.91,2.13,1.71,3.24,2.52l-.02.02Z"/>
  <path class="cls-1" d="M95.02,94.71c-.64-.5.69-.99,1.06-1.16,1.76-.7,3.22-2.11,3.59-4.03.5-2.35.57-4.77.52-7.15-.03-.39-.05-.79-.1-1.17,0-.12.07-.23.2-.22.13,0,.24.12.25.25.13,3.12.39,8.14-1.43,10.74-.91,1.38-2.5,1.75-3.76,2.63-.05.13-.18.18-.3.12l-.03-.02Z"/>
  <path class="cls-1" d="M99.59,90.18c-.12-.05-.2-.2-.15-.34.15-.4.27-.81.37-1.23.37-1.64.34-3.36.4-5.03-.12-7.07-.54-14.15-.02-21.21,0-.12.1-.2.22-.18.34.08.15.52.15.74-.37,5.4-.22,10.84-.03,16.26.07,1.53.45,10.77-.94,10.99Z"/>
  <path class="cls-1" d="M93.97,94.56c-.39-.25-.2-.7-.05-1.04.44-1.16,1.81-1.24,2.62-2.03.87-.81,1.7-1.71,2.27-2.75.07-.86-.07-1.69-.1-2.53-.1-1.76.22-3.56.15-5.32-.27-2.94-.49-5.89-.03-8.83.52-4.65,1.36-9.26,1.48-13.95.08-2.82-.37-5.66-.34-8.47.07-3.79-.27-7.59-.42-11.36.13-1.23-.2-2.45-.05-3.66.02-.17.25-.22.37-.1.54.67.05,1.83.24,2.63.23,1.56.79,3.05.82,4.65-.07,3.21-.4,6.41-.34,9.63,0,2.55.25,5.07.24,7.62-.08,2.11-.47,4.21-.42,6.33,0,1.16,0,2.3.05,3.46.25.52.29,1.11.3,1.66-.02,2.27.13,4.51.52,6.75.34.2.08.65-.27.45-.34-.3-.24-.84-.32-1.26-.15,3.51-.5,7.01-.92,10.51.2-.25.87-.52.87,0-.02.49-.35.91-.62,1.29-.2.3-.5.54-.6.89-.07.17-.2.39-.39.35-.39.44-.59,1.01-.71,1.58-.08.29-.42.37-.47.64-.52,1.09-2.67,2.87-3.88,2.87ZM94.24,94.08c1.26-.57,2.5-1.43,3.16-2.67-.47.5-1.02.92-1.63,1.24-.32.18-.69.29-.99.52-.27.23-.42.59-.54.89v.02ZM99.69,87.78v.08c.08-.12.17-.23.24-.37-.03.03-.07.08-.12.12-.05.05-.08.1-.13.15l.02.02ZM99.19,87.04c0,.15.03.29.03.44.15-1.8,0-3.61.07-5.42-.08,1.66-.27,3.32-.1,4.98ZM99.94,73.6c-.13,3.32-.22,6.65-.22,9.97.37-4.16.87-8.32.4-12.49-.08.84-.12,1.69-.19,2.53v-.02ZM99.04,77.6c.05,1.21.25,2.42.27,3.64.05-2.99.1-5.99.32-8.98.15-2,.5-3.96.37-5.97-.4,3.76-1.21,7.52-.96,11.31ZM100.31,44.77v.17c.18-1.98.3-4.01-.3-5.92.03,1.91.24,3.84.29,5.76h.02Z"/>
  <path class="cls-1" d="M101.1,63.97c-.12-.03-.2-.17-.18-.3.07-.42.12-.84.18-1.28.22-1.71.29-3.44.29-5.17v.03c-.1-3.12-.57-6.21-.49-9.33,0-1.56,0-3.1-.05-4.65,0-1.53.13-3.12-.74-4.46-.17-.3.25-.52.42-.2.89,1.41.81,3.09.77,4.68.03,2.5,0,5,.05,7.48.07,1.81.32,3.59.4,5.4.07,1.48.03,2.95-.07,4.45-.07,1.06-.2,2.13-.35,3.19,0,.12-.15.18-.25.15h.02Z"/>
  <path class="cls-1" d="M99.24,81.47c-.1-.05-.18-.18-.13-.3.29-.87.6-1.78.84-2.65.44-1.96.44-3.98.52-5.97.13-3.91,1.28-7.95.18-11.8-.22-.39.25-.64.42-.2,1.04,3.51.18,7.23-.12,10.79-.15,2.08-.12,4.2-.42,6.26-.15,1.29-.67,2.52-1.02,3.76-.03.12-.17.15-.27.1v.02Z"/>
  <path class="cls-1" d="M98.21,92.26c-.1-.05-.17-.18-.13-.29.15-.39.3-.77.42-1.17.55-1.63.7-3.34.96-5.03.49-2.67.64-5.37.69-8.07.07-.29.47-.1.4.13,0,3.34-.44,6.65-.96,9.95-.2,1.49-.55,2.97-1.12,4.38-.03.1-.15.15-.25.1Z"/>
  <path class="cls-1" d="M34.71,97.65c-2.3-.15-4.57-.86-6.85-1.09-.74-.07-1.49.07-2.23-.07-.13-.03-.32-.1-.34-.25-1.95-.32-3.91-.64-5.86-.94-1.68-.07-3.36-.17-5-.42-.52-.08-5.66-.64-4.99-1.39-.25-.13-.87-.27-.81-.6.07-.2.32-.23.5-.22,1.95.2,3.86.76,5.81.79,4.5,0,9.02-.12,13.45.86.08-.25.37-.32.6-.23,1.49.2,2.99.49,4.5.64.96-.08,6.95-.89,7.02.17,4.58.25,9.17.15,13.75.15,4.21.1,8.43.32,12.66.15,6.06-.23,12.14.18,18.16-.5,1.98-.08,3.95-.37,5.91-.6.55-.13,1.12-.13,1.68-.13.54-.12,1.06-.3,1.56-.54.24-.15.89-.35.76.13-.02.2-.29.37-.45.22h-.02c-.13.07-.27.12-.4.18.54.17.45,1.06-.22.74-1.48-.42-2.92.02-4.4.23-2.27.35-4.55.67-6.83.87-3.29.3-6.58.57-9.87.55-1.78.02-3.56-.13-5.34.02-1.68.08-3.37.07-5.05.03-3,.65-6.08.92-9.13,1.11-4.05.17-8.07,0-12.12-.12-2.13.13-4.28.45-6.41.25l-.03.02ZM35.93,97.32h.86c-.74,0-1.46-.05-2.2-.08.08,0,.17,0,.25.02h-.03c.37.03.76.05,1.12.07ZM46.39,97.13c4.68.1,9.38,0,14-.79-2.94,0-5.88,0-8.81.07-2,.07-3.96.54-5.94.7h.76v.02ZM36.08,96.9c3.93.1,7.87.18,11.77-.47-6.18-.37-12.36-.32-18.53-.17-.02,0-.05.03-.07.03,2.27.39,4.55.49,6.83.59v.02ZM64.07,96.04h1.63c-.4-.03-.81-.07-1.23-.1-.37-.03-.74-.07-1.11-.08.02.03.02.08.02.12,0,.02,0,.05-.02.07h.71ZM40.78,95.74c2.13.02,4.26.17,6.38.27,1.49.03,3.09.12,4.47-.55-3.89.1-7.79,0-11.68-.13-2.6.7-5.41.34-8.04.02-.72.05-1.46.12-2.18-.05-.39-.08-.76-.25-1.06-.49-.82-.15-1.65-.29-2.47-.44-2.17-.39-4.38-.49-6.58-.49-2.03-.03-4.06.08-6.09-.08-1.12-.12-2.22-.4-3.32-.52,1.8.82,3.79.86,5.72,1.11,3.09.42,6.19.64,9.32.69,1.38.05,2.79.2,4.03.76,3.83-.03,7.67-.17,11.5-.08h.02ZM52.2,95.64c-.27.12-.54.23-.81.35-.02,0-.03,0-.05.02,1.06-.07,2.13-.07,3.21-.07-.08-.35.4-.39.64-.49-.92-.03-1.86-.02-2.79-.03,0,.08-.1.17-.17.2l-.03.02ZM56.85,95.84c1.8.05,3.58.02,5.37-.08-2.06-.13-4.16,0-6.23.05.29.02.59.03.87.03h-.02ZM67.48,95.77c3.16.2,6.31-.1,9.45-.3-3.74,0-7.49.08-11.23.15.59.05,1.19.1,1.78.15ZM27.15,95.82h.81c-.05,0-.1-.02-.13-.03-.55-.12-1.12-.2-1.68-.25h.03c-.44-.03-.87-.05-1.31-.07.77.12,1.53.35,2.32.35h-.03ZM36.2,94.9c1.14.02,2.3,0,3.44,0-1.28-.18-2.53-.1-3.81,0h.37Z"/>
  <path class="cls-1" d="M11.71,95.17c-1.02-.37-1.9-1.04-2.8-1.64-1.21-.96-2.8-1.86-3.19-3.47-.15-.32.4-.59.5-.22.13.79.67,1.38,1.24,1.9.34-.17.74.1,1.07.18.17.05.17.27.05.37,1.11.76,2.3,1.39,3.32,2.25.24.2.17.7-.2.62v.02Z"/>
  <path class="cls-1" d="M51.73,97.32c-5.49-.3-10.93-.97-16.44-1.16-5.04-.25-10.12.27-15.13-.49-2.45-.4-4.85-.99-7.25-1.64-.12-.02-.13-.15-.1-.25.05-.39,1.86.37,2.22.37,2.23.57,4.48,1.07,6.8,1.29,4.11.5,8.28.1,12.41.27,5.66.15,11.3.79,16.94,1.16,4.6.22,9.13-.91,13.72-.96,2.03-.1,4.06-.1,6.08-.22,1.66-.4,3.29-1.01,5.04-.86,1.04-.03,2.2.08,3.14-.44.1-.08.25-.12.35-.02.4.72-2.17.94-2.6.91-1.41.02-2.85-.08-4.21.4-1.44.55-2.94.52-4.45.5-1.78.12-3.54.12-5.32.2-3.71.29-7.4.96-11.15.91l-.03.02Z"/>
  <path class="cls-1" d="M75.6,97.11c-.49,0-.97-.03-1.46-.05-.13,0-.25,0-.39-.02-.3-.02-.59-.03-.89-.05-.29-.02-.59-.03-.87-.05-.13,0-.25,0-.35-.02-.44-.02-.87-.07-1.31-.1-.42-.03-.84-.05-1.24-.08-.45-.03-.89-.05-1.34-.08-.3-.02-.6-.03-.91-.05-.13,0-.27,0-.39-.02-.47-.03-.96-.07-1.44-.1-.27-.02-.55-.03-.82-.05-.1,0-.2,0-.29-.02-.5-.05-.99-.12-1.49-.17-.1,0-.22-.02-.32-.03-.22-.03-.42-.07-.64-.12-.59-.1-1.19-.2-1.78-.35-.1-.03-.2-.07-.3-.08-.1-.03-.22-.05-.32-.08-.12-.03-.27-.12-.3-.25-.03-.12,0-.27.1-.35.05-.03.1-.07.17-.08.1-.02.18,0,.29,0,.59-.03,1.16.02,1.75.1.3.05.59.1.89.15.42.07.86.15,1.28.22.42.07.84.15,1.26.2.54.08,1.07.15,1.63.23h.05l1.88.13h1.91c.87-.05,1.73-.1,2.6-.15.4-.02.79-.05,1.19-.07.5,0,1.01-.03,1.53-.05h1.48c.39-.02.76-.02,1.14-.02.94,0,1.88-.02,2.84-.03.3,0,.62-.02.92-.03.39-.02.77-.03,1.16-.05.49-.03.97-.08,1.48-.12.35-.03.69-.07,1.04-.1.99-.1,1.98-.18,2.97-.29.37-.03.76-.07,1.12-.1.4-.03.79-.07,1.19-.12.08,0,.15-.02.24-.03.17-.03.34-.07.49-.1.87-.2,1.76-.37,2.65-.57.17-.03.34-.07.5-.12.03-.05.1-.08.15-.1.03-.12.13-.2.25-.22.25-.03.49-.05.74-.08.13,0,.27-.03.4-.03.08,0,.18-.02.27-.02h.18c.05,0,.1.02.15.03.08.02.15.12.13.2,0,.1-.08.22-.18.25-.13.05-.27.07-.4.08h-.05c-.25.05-.49.08-.74.13-.05.07-.12.13-.2.18-.03.02-.08.03-.13.05-.05.02-.1.03-.15.05-.17.05-.34.08-.5.12-.24.05-.49.1-.72.15-.15.03-.3.07-.47.08-.3.05-.6.1-.91.15-.13.02-.27.05-.4.07-.5.07-1.02.13-1.53.2-.13.03-.27.05-.4.08-.86.17-1.71.34-2.55.5-.82.15-1.63.34-2.45.49-.3.05-.6.12-.92.18-.17.03-.32.07-.49.08-.52.08-1.02.15-1.54.23-.4.07-.82.1-1.23.15l-.72.08c-.13,0-.27.02-.4.03-.32.02-.64.05-.94.07-.15,0-.3.03-.44.03h-1.65c-.34,0-.67,0-1.01-.03l-.03-.1ZM73.12,96.59c.29.02.57.03.86.05.1,0,.18,0,.29.02.55.02,1.09.03,1.65.05.2,0,.39,0,.59.02h1.85c.49-.03.96-.07,1.44-.1.39-.03.77-.08,1.16-.13.39-.05.76-.08,1.14-.13.49-.07.97-.15,1.46-.22.49-.1.97-.18,1.46-.29.42-.08.86-.17,1.28-.25.1-.02.22-.05.32-.07-.55.05-1.09.1-1.65.15-.39.03-.76.07-1.14.1-.39.03-.79.07-1.18.08-.57.02-1.14.05-1.7.07-.37,0-.74,0-1.11.02-1.76.02-3.53,0-5.27.07-.35,0-.71.02-1.06.03h-.02c-.87.05-1.75.12-2.62.17-.39.02-.77.05-1.16.05h-1.04.2c.12,0,.24,0,.34.02.44.02.87.07,1.31.1.42.03.84.05,1.24.1.45.03.92.07,1.38.08l-.02.02ZM65.43,96.07h.05c-.24-.03-.49-.07-.72-.1-.17-.02-.34-.05-.5-.07-.5-.08-.99-.17-1.49-.25-.27-.05-.54-.08-.81-.13-.54-.08-1.07-.18-1.58-.24-.18,0-.39-.02-.57-.03h.05c.1.03.18.05.25.07.44.1.86.17,1.29.25.2.03.42.08.64.12.08,0,.17.03.27.05.32.03.64.08.96.12.3.03.6.07.87.12.44.03.87.07,1.31.1h-.02Z"/>
  <path class="cls-1" d="M80.45,96.61c-4.47-.18-8.91-.87-13.36-1.29-1.61-.23-3.27.17-4.87-.22-.34-.08-.08-.47.17-.47,1.18.02,2.37.03,3.54.15,1.86-.08,3.71-.22,5.57-.2,3.66-.02,7.32.2,10.96.29,2.35.07,4.7,0,7.03-.22.15-.02.27.13.18.27,1.01-.3,2.01-.62,3.06-.84.12-.02.24.03.25.15,0,.12-.08.25-.2.27-.49.1-.97.24-1.46.37-3.51,1.14-7.17,1.93-10.88,1.76v-.02ZM79.38,96.16c3.29.22,6.61-.1,9.75-1.07-6.8.62-13.63-.37-20.45,0,3.58.32,7.1.87,10.69,1.06v.02Z"/>
  <path class="cls-1" d="M12.31,95.75c-1.21-.47-2.43-.84-3.59-1.44-.74-.37-1.56-.64-2.06-1.31-.29-.29-.08-.77.34-.69-1.51-1.68-2.37-3.81-2.74-6.01-1.85-5.05-1.49-10.49-1.24-15.76.03-.74.07-1.48.08-2.22-.29-.67-.45-1.38-.55-2.1-.22-1.66-.12-3.36-.12-5.03.2-2.82.44-5.69,1.39-8.36.03-.25.39-.27.47-.03.25,1.12.24,2.3.18,3.44-.18,2.4-.64,4.77-.76,7.17.57,1.29.45,2.79.5,4.16,0,.45.08,1.98-.71,1.28-.03,2.47,0,4.95.22,7.42.07.67.15,1.33.25,2,0,.1-.03.22-.15.22s-.22-.1-.24-.2c-.15-1.11-.3-2.23-.34-3.36-.1,3.46.05,6.95,1.09,10.25,0-.37,0-.72-.05-1.09,0-.08,0-.18.08-.23.77-.35,1.73,4.51,1.8,5.17.84.35,1.38,1.19,1.98,1.83-.91-2.69-2.18-5.29-2.79-8.07-.29-1.78-.29-3.57-.35-5.37-.24-3.98-.47-7.95-.24-11.95.37-5.54.55-11.11.74-16.66.12-2.38.35-4.78.32-7.17-.03-.69-.05-1.39-.13-2.06-.02-.13.05-.27.18-.27.5-.05.32,1.69.39,2.05.07,2.45-.18,4.9-.34,7.35-.18,4.26-.27,8.54-.52,12.8-.17,2.67-.35,5.34-.32,8-.02,3,.29,5.99.37,9,.07,1.63.08,3.27.45,4.85.42,1.69,1.18,3.29,1.78,4.93.77,2.11,1.44,4.67,3.56,5.79.2.12.39.23.57.35.15.1.17.4-.03.44-.03,0-.08.02-.12.02.32.25.97.17,1.07.64,0,.23-.25.29-.42.18l-.03.05ZM8.95,93.91c-.65-.32-1.12-1.06-1.88-1.09.49.57,1.24.76,1.88,1.09ZM9.61,93.27s-.07-.08-.12-.13c0,.02-.02.05-.03.07.05.02.1.05.15.07ZM8.95,92.75c-.49-1.17-1.58-2.06-2.43-2.97-.13-.12-.29-.23-.45-.27.29,1.44,1.65,2.57,2.89,3.22v.02ZM5.61,89.43v-.1c-.05-.05-.1-.1-.13-.17.03.08.08.18.12.27h.02ZM5.71,88.74c-.2-1.23-.52-2.42-.94-3.57-.17,1.29.34,2.47.94,3.57ZM3.75,68.5c.12-1.21,0-2.48-.1-3.69-.05,1.11-.08,2.23-.12,3.32,0,.15.1.29.24.37h-.02ZM3.11,66.96c.03-1.23-.08-2.52.18-3.71.12-3.15.97-6.29.67-9.46-.72,2.4-.92,4.92-1.11,7.4,0,1.93-.15,3.88.25,5.77Z"/>
  <path class="cls-1" d="M18.64,96.19c-1.86-.52-3.76-.92-5.62-1.46-.44-.13-1.06-.1-1.31-.54-.64-.37-1.53-.64-1.83-1.34-.07-.13-.05-.34.12-.37.4-.08,1.73-.25,1.7.39-.03.13-.17.18-.29.15-.3-.1-.62-.12-.94-.08.5.35,1.01.65,1.56.89.99-.18,2,.23,3,.32.13.02.22.13.24.25,0,.12-.08.23-.2.22-.45-.07-.91-.13-1.38-.2,1.68.42,3.39.79,5.05,1.29.3.08.27.54-.08.49h-.02Z"/>
  <path class="cls-1" d="M5.34,10.03c-.1-.07-.12-.2-.08-.32.12-.3.24-.59.35-.87.07-.13.12-.29.18-.42.17-.37.35-.72.55-1.07.2-.34.4-.67.64-.99.22-.3.47-.6.74-.87.25-.25.54-.49.84-.67.25-.15.55-.27.84-.25.13,0,.2.18.2.3,0,.13-.12.25-.27.23h-.05s-.08,0-.13.02c-.08.02-.15.05-.24.08-.1.05-.18.1-.27.15-.17.12-.34.25-.47.37-.17.15-.34.32-.49.49-.17.2-.32.4-.45.6.02,0,.05,0,.07.03.1.08.12.23.07.34-.27.49-.55.96-.84,1.44-.08.15-.18.3-.27.45-.08.15-.18.29-.27.44-.05.08-.12.18-.18.27-.05.07-.12.13-.18.18-.05.03-.1.07-.15.07-.03,0-.08,0-.12-.03l-.02.03Z"/>
  <path class="cls-1" d="M7.63,6.22c-.3-.3.15-.67.27-.96.07-.12.2-.17.32-.08.29.3-.15.67-.27.96-.07.12-.22.17-.32.08Z"/>
  <path class="cls-1" d="M6.07,10.72c.05-2.27,1.04-4.45,2.5-6.16.05-.13.05-.35.25-.35.59.2-.07.92-.3,1.17-.47.57-.84,1.17-1.16,1.81-.5,1.11-.87,2.28-.87,3.51,0,.32-.44.34-.44,0l.02.02Z"/>
  <path class="cls-1" d="M3.99,44.22c-1.18-.05-1.44-4.51-1.58-5.52-.62-6.71.29-13.46,1.68-20,.52-3.21,1.29-6.36,2.27-9.46.34-.99.72-1.96,1.19-2.9.05-.1.17-.13.27-.07.1.07.1.22.05.32-.13.29-.27.57-.4.86.71-1.09,1.58-2.06,2.59-2.89.24-.17.44.25.22.4-2.85,2.16-3.71,5.15-4.43,8.47-.45,2.35-1.31,4.65-1.59,7.03-.12,4.98-.6,9.93-.44,14.9.2,2.08.13,4.18.34,6.26-.03.6.65,2.53-.17,2.63l.02-.03ZM3.97,43.7c-.07-1.44-.37-2.87-.34-4.33-.03-2.27-.3-4.48-.25-6.75.03-3.51.39-6.98.4-10.49-.45,2.52-.79,5.07-1.01,7.64-.22,3.56-.25,7.15.27,10.69.24,1.04.22,2.42.92,3.24Z"/>
  <path class="cls-1" d="M13.54,5.89c-.07-.1-.03-.25.07-.34,1.23-1.24,2.95-1.49,4.63-1.56,3.24-.27,6.51-.49,9.77-.13-1.44-.57-3.04-.47-4.57-.59-2.3-.12-4.67-.25-6.88.54-.03.27-.34.23-.54.23-.24,0-.3-.37-.12-.49.47-.3,1.04-.4,1.58-.55,2.05-.49,4.16-.29,6.24-.18,1.58.18,3.41-.05,4.77.86.37.44-.18.79-.6.7-4.01-.37-8.14-.2-12.12.4-.77.17-1.36.69-1.95,1.17-.1.08-.24.03-.29-.07Z"/>
  <path class="cls-1" d="M21.68,40.76c-.76-.07-1.48-.34-2.18-.55-.1-.02-.17-.12-.18-.22-.03-.34.39-.34.62-.42.87-.2,1.75-.34,2.64-.5-1.66-.1-3.32-.25-4.99-.32,0,.35.03.7.05,1.06,0,.1-.07.23-.18.25-.12.02-.2-.07-.24-.17-.1-.45-.15-.92-.34-1.36-.2-.12-.34-.42-.2-.62.13-.18.4-.05.47.13-.05-1.41-.13-2.82-.13-4.25-.22-.55-.24-1.14-.25-1.73,0-2.01.1-4.03.39-6.02-.13.27-.79.6-.82.12.12-1.29.65-2.53,1.09-3.76-.97-.39.99-2.27,1.53-2.47.64-.57,5.69-1.09,5.44.22,1.26-.03,2.45-.55,3.69-.81,1.75-.39,3.49-.69,5.24-1.06.4,0,1.86-.67,1.88-.08,1.12-.03,2.22.4,3.34.37.4.02,2.05-.3,1.75.47-.13.2-.3.44-.52.55-.08,0-.13.07-.22.08.92.65,1.26,1.81.97,2.89.72,2.11.92,4.45.69,6.66-.15,1.16-.44,2.33-.35,3.51.07,1.73,1.23,3.41.76,5.14.02.74-.27,1.54-.89,1.96-.13.25-.34.54-.64.52-.57.47-.99.12-1.51-.17-1.9.5-3.78-.1-5.66-.32-1.39.1-2.79.49-4.13.67-2.32.39-4.7.52-7.03.2l-.07.02ZM26.5,40.36c.82-.07,1.63-.18,2.45-.34,1.18-.37,2.37-.79,3.63-.67,1.46,0,2.94.05,4.4.18.52.02,1.04-.03,1.54.12.47-.12.96-.02,1.39.17.65-.42.79-1.24,1.12-1.88.15-.25.02-.54-.03-.79-.32-.87-.81-1.63-1.09-2.52-.37-.86-1.44-6.98-.18-6.98-.34-2.25-.57-4.5-.67-6.75-.25-.29-.54-.55-.84-.79-2.87.54-5.83-.32-8.68.45-.45.08-.89.17-1.34.25-.24.03-.32-.34-.13-.45-1.23.22-2.47.15-3.68.42-.12.03-.2-.07-.24-.17-1.56.45-3.14,1.07-4.75,1.44-.12.02-.22-.07-.24-.18-.07-.44.69-.47.97-.67,1.14-.54,2.38-.92,3.64-1.06.03-.02.05-.03.08-.05l.02-.02c-.5-.3-1.18-.18-1.75-.22-.94.02-1.85.02-2.7.37.22.23-.03.55-.22.7-.39.44-.76.91-1.24,1.24-.54,1.16-.91,2.4-1.24,3.62.72-.86.65-2.05.99-3.05.12-.3.62-.34.59.05-.05.72-.32,1.41-.6,2.06-.39,2.42-.6,4.88-.57,7.33.1-.23.44-.12.55.05.2.49.45,1.73-.25,1.9.03,1.34.07,2.69.12,4.03,2.3.12,4.58.4,6.88.4,1.73.1,3.46-.27,5.2-.02.47,0,1.56.27.82.82-1.18.37-2.48.05-3.71.22-.35.94-2.69.62-3.58.77,1.12.07,2.25.05,3.32-.03v.02ZM25.36,39.17c-1.14.1-2.27.32-3.39.54,1.26-.1,2.5-.34,3.74-.49-.12,0-.24-.03-.35-.03v-.02ZM26.67,39.15c.94-.08,1.9-.03,2.84-.07-.97-.1-1.95-.1-2.9-.02.02.03.05.05.07.08ZM41.19,36.48c-.02-.12-.03-.24-.07-.37v.03c-.05-.25-.1-.5-.17-.76-.03.12-.07.23-.13.32.07.13.13.27.2.42v-.02c.05.12.12.23.17.37ZM40.26,34.4c0-1.31-.2-2.62-.39-3.91-.1-.74-.05-1.46-.24-2.16-.2.91-.05,1.81.02,2.7.12,1.16.24,2.28.6,3.36v.02ZM39.81,25.34c.27,1.91.52,3.83.67,5.76.4-2.13.52-4.33.1-6.46-.08-.47-.2-.92-.34-1.39-.15.3-.59.22-.69-.08.05.76.13,1.44.24,2.18h.02ZM39.93,22.87c.03-.1.07-.2.08-.29-.05-.1-.08-.2-.13-.3-.08-.17-.17-.32-.25-.47.08.37.15.72.3,1.07v-.02ZM17.62,21.81h.03c.02-.05.05-.1.08-.15-.03.05-.07.1-.12.17v-.02ZM40.15,21.8c.05-.55-.2-1.09-.6-1.46-.02.05-.05.08-.1.12v.23c.27.34.5.72.69,1.11h.02ZM33.31,19.53s-.08,0-.12.02c1.26-.13,2.53-.13,3.81-.13h.02c-.22-.12-.49-.12-.69-.25-1.01.07-2.01.18-3.02.35v.02ZM39.64,19.04s.03-.02.05-.03h-.15s.07.03.1.03ZM34.2,18.79c-.22.08-.44.15-.67.22.54-.08,1.06-.15,1.59-.2-.1-.02-.2-.03-.3-.05-.08-.02-.13-.08-.17-.15-.15.07-.3.13-.45.18Z"/>
  <path class="cls-1" d="M67.48,22.33c-1.11-.59-2.28-.72-3.53-.69-2.12-.07-4.25-.07-6.36-.03-1.26.03-2.5.05-3.76,0-.1,0-.2-.08-.2-.2-.18.03-.54.18-.59-.1,0-.12.1-.23.22-.27,1.39-.34,2.72-.87,4.16-.96,2.57-.32,5.07.52,7.64.49,1.02.03,2.05.05,3.07.1.12,0,.2.1.18.2,0,.12-.1.22-.22.23-.44.08-.87.1-1.31.13.59.03,1.19-.07,1.76.02.08.02.15.07.2.13.15.25-.25.54-.44.32-.37-.03-.76,0-1.12,0,.2.13.76.13.64.49-.07.12-.22.17-.34.12l-.02.02ZM56.93,21.19c.84,0,1.66-.02,2.5-.03h.76c-1.09,0-2.18-.08-3.26.03ZM56.04,20.72c-.12.03-.25.05-.37.08,1.41-.03,2.79-.3,4.18-.32-1.28-.08-2.57-.02-3.81.23Z"/>
  <path class="cls-1" d="M51.78,33.38c-.15,0-.3-.05-.47-.07-.42-.17.1-.59.35-.64-1.23-.42.15-1.29,1.58-1.96.17,0,.34-.02.5-.03.22-.02.44-.03.65-.05-.97.42-1.9.92-2.75,1.54.12.13.3.12.5.1.12,0,.24-.02.32,0h.45c-.08-.62,1.43-.39,1.8-.34.39,0,.79-.05,1.18-.07,3.31-.18,6.55-.94,9.85-.92h.35c.25,0,.5-.03.74-.12.08.07.13.15.08.29-.13.32-.57.3-.82.29-1.75.03-3.49.08-5.22.34,2.37.07,4.75.07,7.12.05.12,0,.22.12.18.23-.03.12-.15.23-.29.22-.37-.02-.69,0-1.04.03.35.03.27.45-.03.47,0,.1-.08.18-.18.22-.69.34-1.46.29-2.2.22-.57-.03-1.16-.07-1.73-.12-.17,0-.24-.2-.13-.32-1.86.3-3.73.64-5.62.59-.67-.03-1.34-.12-2.01-.27-1.01.08-2.03.32-3.04.32h-.12ZM52.18,32.94c.42-.02.82-.08,1.23-.13.2-.02.39-.05.59-.07,0-.02-.03-.05-.03-.08-.6,0-1.21.15-1.8.29h.02ZM56.51,32.86c.39.03.76.05,1.11.03,1.11-.02,2.22-.17,3.31-.34h-.13c-1.43,0-2.85.1-4.28.29v.02ZM63.13,32.65c.34.02.69.05,1.02.07.69,0,1.39.18,2.06-.05-.59-.08-1.18-.13-1.76-.13-.44,0-.87.03-1.33.12Z"/>
  <path class="cls-1" d="M69.09,41.85c-3.53,0-7.05-.12-10.56-.47-1.53-.23-3.17-.23-4.6-.91-.07-.03-.17-.07-.18-.15-.45-.03-.91-.05-1.36-.08-.1,0-.2-.08-.18-.2,0-.12.12-.22.25-.23,1.7-.18,3.39.25,5.07.39,2.57.42,5.14,0,7.72.15,4.82.18,9.67.5,14.47.25-2.59-.24-5.19-.49-7.77-.69-.45,0-.92,0-1.38-.05-.1,0-.18-.08-.18-.18.03-.49,1.68-.12,2.06-.17,2.55.03,5.12-.12,7.67.13,2.92.22,5.84.82,8.75,1.17.32.02.64.1.94.05.08,0,.18,0,.25.08.1.17-.05.35-.22.4-4.28-.27-8.56-1.51-12.91-1.43.4.1,5.67.2,3.59,1.01-1.46.22-2.94.15-4.42.18-.39.25-1.12.12-1.61.23-1.78.49-3.59.54-5.42.49l.02.02ZM61.72,41.21c2.69.17,5.37.23,8.07.22,1.34,0,2.69.05,3.98-.34-3.56-.08-7.1-.35-10.66-.37.17.03.5-.03.49.22,0,.12-.12.23-.25.23-.69.05-1.36-.07-2.05,0,.13,0,.27.02.4.03h.02Z"/>
  <path class="cls-1" d="M61.3,32.65h-1.19c-.12,0-.2-.12-.18-.22.03-.12.15-.2.27-.2,2.55,0,5.15.07,7.59-.74-1.29-.05-2.59.4-3.88.08h.02c-3.09-.42-6.21-.15-9.32.13-.39-.03-1.24.29-1.26-.34-.35-.23.1-.57.39-.45.25,0,.87-.12.67.32,3.39-.29,6.83-.54,10.21-.02,1.34.22,2.77-.55,4.06-.03.24.44-.57.62-.86.76-2.1.69-4.35.7-6.53.7h.02Z"/>
  <path class="cls-1" d="M85.37,51.79c-3.69-.03-7.4-.18-11.08-.44-.82-.07-1.63-.13-2.43-.18-.18,0-.24-.23-.1-.35-.77-.07-1.56-.13-2.33-.18h-.27c-.17.45-.89.03-1.24.03-2.25-.18-4.53.12-6.77.35-.64.07-5.19.72-4.9-.25-2.9.05-5.79-.02-8.7-.13-.37-.02-.76,0-1.12,0-.12,0-.2-.12-.18-.23.03-.13.15-.22.29-.22,3.11.07,6.21.22,9.3.13-.44-.03-2.38-.29-1.46-.92,1.46-.08,2.94.23,4.4.3,2.2.25,4.4-.13,6.6.1,1.14,0,2.35-.03,3.42.4,1.85.05,3.68.29,5.52.47,2.43-.15,4.87-.4,7.3-.54-.97-.08-1.98-.12-2.92-.37-.1-.02-.17-.1-.15-.2.18-.47.99-.4,1.43-.4,1.88.08,3.76.29,5.62.59,1.7-.02,3.44.03,5.09.49.24.12.74,0,.71.35-.03.13-.17.23-.3.23-1.02-.18-2.05-.5-3.09-.55.44.13,1.21.3,1.33.81,0,.08-.1.15-.17.18-.22.13-.42.29-.67.34-.99.18-2.03.13-3.04.15l-.07.05ZM84.16,51.35c1.34.02,2.62.02,3.93-.08.24-.03.4-.08.59-.2-.64-.42-1.46-.5-2.2-.69.71.64-2.23.94-2.6.97h.29ZM78.29,51.01c2.53.03,5.14.2,7.6-.44-2.99-.25-5.98.1-8.96.34.45.03.91.07,1.36.1ZM58.46,50.85c2.13-.1,4.23-.5,6.36-.6-2.15,0-4.3-.08-6.43.23-.4.3-1.02.2-1.49.27.12.02.24.03.34.05.42.05.84.05,1.26.05h-.03ZM57,49.97c.37.02.76.13,1.12.1-.72-.05-1.44-.15-2.15-.22.35.03.69.07,1.02.12Z"/>
  <path class="cls-1" d="M33.53,51.77c-.59-.03-1.14-.3-1.71-.45-1.06-.05-2.12-.07-3.17-.1-.91-.07-1.85,0-2.72-.27-.07-.02-.12-.07-.12-.13-1.34.08-2.67.3-4.01.25-1.12,0-2.23-.32-3.34-.4-.17.3-.67.17-.94.1-.12-.05-.13-.22-.08-.34.12-.2.35-.22.55-.25,1.04-.05,2.08.25,3.09.37,2.1.18,4.16-.13,6.23-.4-.74-.34-1.44-.86-2.3-.86-.13,0-.22-.12-.2-.25.13-.47,1.16-.05,1.48.05,1.09.6,2.22,1.12,3.49.97,2.92.05,5.83-.27,8.71-.54,2.27-.13,4.52-.44,6.75-.77,2.27-.29,4.55-.37,6.83-.55,2.5-.25,5.02-.69,7.52-.22,1.85.27,3.71.44,5.54.79,1.71.37,3.44.91,5.19,1.11,2.48.29,4.95-.08,7.42-.03.81.07,1.76,0,2.43.52.39.57-1.33.55-1.63.65-3.17-.07-6.35-.29-9.52-.45.27.89-4.89.35-5.56.34-2.85-.23-5.69-.54-8.54-.72-2.27-.44-4.55-.45-6.85-.25,2.01.05,4,.35,5.99.52.22.03.65-.08.69.23-.18.76-5.12.57-6.03.65-1.86-.03-3.68.2-5.51.1-.24-.07-.47-.25-.24-.49.22-.34.55-.54.92-.69-4.55.13-9.05.12-13.58.3,1.54.39,3.17.22,4.7.59.65.55-1.24.62-1.54.6l.05.02ZM44.02,51.06c2.94-.17,5.89-.12,8.83-.32-1.75-.24-3.48-.39-5.22-.44-1.39-.05-2.99-.18-4.15.74.17.02.35.02.54.02ZM74.66,50.41c1.51.05,3.06.34,4.55.08-1.65-.32-3.31-.13-4.97-.1.13,0,.29,0,.42.02ZM62.98,50.41c.79.05,1.58.13,2.38.13-1.01-.08-2.03-.13-3.04-.18.22.02.44.03.65.05ZM67.88,50.48h.24c-.13,0-.25-.03-.39-.03-.2-.02-.39-.03-.59-.07.07,0,.12.03.18.03.13.03.27.05.4.07h-.03.18ZM68.52,50.09c.24.02.47.05.72.07-1.85-.32-3.63-.92-5.47-1.19-2.35-.25-4.73-.77-7.1-.77-3.41.29-6.8.6-10.22.84-2.87.35-5.69.79-8.56.97,2.4-.05,4.83-.13,7.24-.13,2.42-.39,4.87-.55,7.34-.47.35-.27.86-.2,1.28-.25,1.07-.03,2.15,0,3.22,0,3.88,0,7.74.57,11.58.96l-.02-.02ZM60.56,49.84c.71.05,1.41.1,2.12.13.57.03,1.12.07,1.7.1-2.47-.25-4.94-.47-7.42-.49,1.21.07,2.42.17,3.61.25Z"/>
  <path class="cls-1" d="M89.67,61.84c-.13-.02-.2-.15-.15-.29,0,0-.02,0-.03-.02h-.03c-1.04.1-2.12-.29-3.16-.39-2.99-.39-5.96-.57-8.95-.92-2.5.15-4.99.54-7.5.47-4.9-.12-9.8-1.49-14.71-1.04.1,0,.22.02.32.05.24.08.12.42-.1.45-1.65.25-3.29.39-4.95.54-2.64.22-5.27.39-7.91.22-2.01-.12-3.98-.64-6.01-.64-.32-.03-.2-.44.08-.47-1.65-.15-3.32-.1-4.95.15-1.28.2-6.33,1.43-6.58-.37-1.31.29-2.69.44-4.03.18-.76-.12-1.46-.4-2.2-.6-.29-.05-.57-.42-.24-.6.86-.42,2-.24,2.72-.91-.07-.65.99-.15,1.34-.17,1.04.17,2.06.42,3.11.65.84.15,1.71.52,2.55.2,1.93-.49,3.89-.81,5.88-.91.69-.07,7.32-.49,6.53.7,3.63-.32,7.29-.45,10.93-.18,2.33.22,4.67.67,7.02.86,1.71-.15,3.42,0,5.12-.1,2.6-.42,5.25-.54,7.86,0,2.67-1.43,8.46-.82,11.45-.23,1.56.32,3.07.81,4.57,1.39.69.35,1.56.52,2.03,1.17.44.08.5.82,0,.79ZM84.3,60.45c.91.1,1.83.2,2.74.35-1.61-.34-3.26-.64-4.9-.62,0,.02-.02.03-.03.05.74.07,1.46.15,2.2.22ZM42.95,60.5c3.84.18,7.69-.25,11.52-.67-.03-.08-.03-.2,0-.27-2.94.05-5.83-.47-8.75-.6-2.85.08-5.69.25-8.54.45,1.43.08,2.85.3,4.26.4.13,0,.22.12.18.23-.15.4-.84.13-1.18.22.82.12,1.66.23,2.5.25v-.02ZM84.01,59.82c1.31.17,2.62.37,3.91.7-4.83-2.06-10.53-2.94-15.66-1.71,3.89.67,7.84.84,11.77,1.01h-.02ZM69,60.23c1.12.07,2.2.03,3.31-.03-2.64-.32-5.24-.77-7.87-.97-1.41-.1-2.8.15-4.21.08,2.94.23,5.84.76,8.78.92ZM73.55,59.56c.25.1.08.42-.05.55.18-.02.39-.03.57-.05.44-.05.86-.08,1.29-.13-.17-.05-.44-.1-.47-.3-.62-.08-1.26-.15-1.88-.25.18.07.35.12.54.18ZM27.45,60.08c.71,0,1.41-.08,2.08-.18.15-.02.32-.05.47-.07-1.49.05-3-.32-4.48-.29-.03.12.1.2.18.25.54.32,1.19.25,1.78.29h-.03ZM71.86,59.67c.08,0,.18,0,.27.02.18.03.39.07.57.08-.39-.15-.89-.24-1.11-.64-2.01-.37-4.03-.54-6.06-.25,2.12.15,4.2.55,6.31.77l.02.02ZM22.69,59.44c1.36-.03,2.64-.34,3.95-.67-1.61-.32-3.21-.76-4.85-.96-.57.76-1.61.81-2.45.99,1.11.37,2.22.69,3.39.64h-.03ZM28.33,59.3c1.07.08,2.15.08,3.22.12-1.04-.1-2.06-.2-3.11-.35-.57-.13-1.11-.12-1.66.08.5.07,1.02.1,1.53.15h.02ZM45.9,58.52c3.51.13,7.03.96,10.54.47-3.84-.64-7.71-.91-11.6-.74-1.83.2-3.76.05-5.54.57,2.2-.1,4.4-.29,6.6-.3ZM31.13,58.95c2.15.39,4.25-.12,6.36-.47.72-.1,1.46-.15,2.18-.24.2-.07.34-.13.5-.25-1.91-.4-3.84-.29-5.77-.15-1.93.08-3.84.37-5.71.84.81.12,1.61.2,2.42.27h.02Z"/>
  <path class="cls-1" d="M89.55,71.74c-1.39-.69-2.92-1.02-4.38-1.54-1.7-.55-3.46-1.09-5.24-1.31-4.06-.22-8.16-.52-12.22-.3,4.45-.08,8.9.39,13.23,1.46.15.03.3.1.42.2.15.13,0,.39-.17.39-.22.02-.44.03-.67.05-4.03-.15-8.06-.12-12.09-.23-3.34-.17-6.66-.37-10.01-.35-3.96,0-7.84,1.07-11.8.69-.29.67-1.96.18-2.57.15-2.67-.42-5.27-1.11-7.94-1.53-1.53-.25-3.02.45-4.57.4-2.79.03-5.52.92-8.33.55-.69.22-1.46.27-2.12.57-.34.25-.82.47-1.16.1-.2-.17,0-.47.24-.44.59-.03,1.09-.27,1.59-.55.44-.2.94-.2,1.41-.15.35-.08.72-.17,1.07-.23,7.92-1.75,16.1-1.19,24.14-.91,2.7.23,5.34-.29,7.97-.86,1.7-.29,3.42-.25,5.14-.13.35.02.69.05,1.02.07.12,0,.2.1.18.23-.03.12-.15.22-.27.2-1.96-.15-3.96-.27-5.91.03-1.95.32-3.84.92-5.84.91-4.97,0-9.94-.5-14.91-.3,1.38.22,2.74.47,4.1.76-.08-.1-.03-.23.05-.32.34-.32.84-.07,1.24-.05,1.44.24,2.89.47,4.28.89,1.28.27,2.64.22,3.95.25,3.79-.27,7.57-.92,11.4-.72,6.33.3,12.67.42,19.02.52-4.2-.97-8.51-1.29-12.81-1.19-1.06,0-2.06.03-3.09.05-.37-.07-.13-.5.17-.45,3.71-.64,7.44-.59,11.18-.39,1.86.1,3.73.05,5.57.34,2.38.4,4.67,1.26,6.97,1.95.67.2,1.34.44,1.96.74.13.03.17.2.12.3-.07.12-.22.2-.35.15v.02ZM25.26,69.99c1.53-.03,3.02-.4,4.52-.54,1.65-.12,3.31-.15,4.9-.52-3.29.08-6.6.32-9.82,1.06h.4Z"/>
  <path class="cls-1" d="M66.89,70.45c-4.82-.08-9.67-.59-14.39-1.54-.86-.22-.4-.82.3-.79,4.52.34,9.05.47,13.56.67.71.05,1.38.13,2.06.05.34-.03,1.68-.4,1.63.1-.03.13-.15.22-.29.22-2.37.25-4.72-.07-7.08-.1-3.22-.08-6.45-.25-9.67-.47,1.34.3,2.7.47,4.06.65h-.02c3.42.4,6.88.79,10.32.74.5-.02,1.01-.05,1.51-.08.13,0,.25.08.25.22s-.13.25-.27.27c-.65.03-1.31.08-1.96.07h-.03Z"/>
  <path class="cls-1" d="M81.71,81.29c-6.61-.29-13.18-1.24-19.78-1.66.3.18.96.12.86.62-.02.13-.17.23-.29.22-.71-.05-1.43-.1-2.13-.13-2.1-.05-4.23.12-6.31,0-.5-.05-1.06,0-1.53-.2-.13-.07-.2-.2-.22-.34-.03-.3.5-.4.49-.07,2.79.49,5.69-.07,8.51.18-1.01-.27-1.09-.99.12-.77,5.29.35,10.54,1.02,15.83,1.44,3.64.35,7.57.64,10.96-.96.42-.52,1.02-.02.32.35-2.1,1.04-4.52,1.31-6.83,1.33v-.02Z"/>
  <path class="cls-1" d="M73.92,81.74c-4.1-.62-8.24-.42-12.37-.6-5.54-.1-11.05-.74-16.59-.96-4.7-.25-9.38.27-14.08.42-3.26.02-6.51-.45-9.77-.27-.18,0-.35.03-.54.07-.12,0-.22-.07-.24-.18,0-.12.08-.24.18-.27,2.03-.62,4.2-.15,6.26,0,2.43,0,4.82-.47,7.17-1.02-1.91.03-3.84.08-5.74.1-3.34.08-6.66.44-9.99.72.17.2-.15.47-.34.39-.17-.07-.35-.1-.47-.23-.12-.12-.03-.32.08-.4.77-.4,1.75-.23,2.59-.37,2.42-.18,4.83-.42,7.27-.49,1.93-.07,3.86-.05,5.78-.1,1.21-.05,2.43.1,3.59-.3,6.9-1.8,14.1-1.23,21.09-.29,4.82-.07,9.64.08,14.4.77,1.88.25,3.78.23,5.66.5.69.13,1.36.37,2.06.45.12.02.27-.02.35.1.1.15-.03.35-.2.39-2.3,0-4.62-.47-6.93-.57-3.95-.29-7.89-.52-11.84-.82-1.56-.1-3.16-.44-4.72-.39-3.11-.03-6.14.45-9.22.82-3.73.39-7.45-.35-11.18-.29-2.15.22-4.25,1.01-6.41,1.26,4.28.02,8.53-.54,12.81-.45,4.83,0,9.64.62,14.45.84,2.67.12,5.34.25,8.01.29,2.27.02,4.55-.02,6.82.25.71.08,1.43.17,2.15.23.32.05.17.47-.12.42l.02-.02ZM62.19,78.4c2.87.23,5.74.37,8.6.57-2.94-.42-5.93-.59-8.9-.6.1,0,.2,0,.3.02v.02ZM37.28,78.52c2.75,0,5.47.45,8.23.39,3.07-.1,6.08-.79,9.15-.91-5.78-.76-11.7-.86-17.38.5v.02Z"/>
</svg>