<svg width="104" height="100" viewBox="0 0 104 100" fill="none" xmlns="http://www.w3.org/2000/svg">
<path d="M6.68659 94.864C6.68659 94.864 6.59925 94.7418 6.56432 94.6719C6.12771 94.7068 5.7959 94.2878 5.51647 94.026C4.7655 93.4149 3.99707 92.7515 3.77003 91.7738C3.03652 90.5343 2.47765 89.0329 2.96665 87.6013C3.03651 87.3743 3.10637 87.1299 3.10637 86.8855C3.10637 86.8157 3.15876 86.7633 3.21116 86.7284C3.36834 86.3094 3.36833 85.9253 3.26355 85.5063C3.10637 84.5112 2.91427 83.516 2.80948 82.5209C2.51259 79.4657 1.9188 76.4454 1.7267 73.3902C1.7267 73.1632 2.04105 73.1283 2.12837 73.3029C2.21569 73.4251 2.28553 73.5648 2.303 73.7045C2.49511 74.944 2.56498 76.1835 2.7047 77.4231C2.32048 72.6744 1.70922 67.9607 1.60443 63.1945C1.60443 63.4215 1.58698 63.8056 1.29008 63.7881C1.1853 63.7707 1.09797 63.6834 1.06304 63.5786C0.818537 62.6359 0.748677 61.6582 0.678819 60.698C0.102493 53.4353 0.52165 46.1552 1.29008 38.9275C1.32501 38.718 1.29006 38.4561 1.42978 38.299C1.60442 38.1767 1.83147 38.3862 1.79654 38.5783C1.55204 42.0176 1.63936 45.4569 1.79654 48.8962C1.95372 45.5965 2.12836 42.3144 2.19822 39.0147C2.19822 33.4455 1.95371 27.8763 1.95371 22.2897C2.0585 17.6632 2.65229 13.0542 2.87933 8.42775C2.87933 8.323 2.9492 8.2357 3.05398 8.21824C3.57791 8.28807 3.29849 9.02133 3.33342 9.38796C2.4078 20.1248 1.56952 31.141 4.34636 41.6684C4.31143 37.2689 3.63032 32.9218 3.52553 28.5223C3.21117 22.4293 3.47313 16.3189 3.82242 10.226C3.89228 8.91658 3.90973 7.58974 3.83988 6.28036C3.8748 5.9312 3.52551 4.86624 4.13677 5.11066C4.34634 5.25033 4.69564 5.77408 4.31142 5.89629C4.50353 9.23083 4.10185 12.5654 3.97959 15.8999C3.77002 19.7931 3.75257 23.7038 3.90975 27.597C3.97961 31.4204 4.43366 35.2263 4.67816 39.0322C4.73055 40.0622 4.81788 41.0923 4.76549 42.1049C4.73056 42.262 4.71311 42.489 4.53847 42.5239C3.59539 42.5937 2.70469 35.6104 2.58244 34.5629C2.91426 42.5937 1.83146 50.5722 1.95371 58.5855C1.95371 63.4215 2.26809 68.24 2.75709 73.0585C2.93173 75.1535 3.28103 77.2485 3.08892 79.361C3.08892 80.1117 3.36833 80.9147 3.17622 81.6305C3.31593 82.905 3.50807 84.1795 3.71764 85.4539C3.87482 85.4714 3.9796 85.6285 3.96214 85.7856C3.7351 87.8632 4.64324 89.9756 5.53393 91.8262C5.81336 92.35 7.64712 94.5846 7.00093 94.9687C6.89615 95.0036 6.79138 94.9338 6.72152 94.864H6.68659ZM6.05787 93.8863C5.44661 92.9959 5.13224 91.8087 4.32888 91.093C3.77002 91.704 5.60379 93.4324 6.05787 93.8863ZM3.82242 90.9184C3.90974 90.674 4.18918 90.4994 4.45114 90.6216C4.36382 90.4121 4.29396 90.22 4.20664 90.0106C4.06693 90.0106 3.96212 89.9058 3.89227 89.801C3.66523 89.2773 3.50806 88.7012 3.33342 88.1425C3.08892 89.0852 3.40327 90.0978 3.82242 90.9184ZM1.08049 60.0695C1.11542 60.5059 1.13288 60.9424 1.18528 61.3789C1.20274 58.8125 1.29007 56.2461 1.46471 53.6797C1.44725 50.6944 1.29006 47.709 1.18528 44.7411C0.801059 49.8389 0.713758 54.9717 1.09798 60.087L1.08049 60.0695Z" fill="black"/>
<path d="M80.5437 2.71888C80.5437 2.71888 80.4738 2.52684 80.5087 2.43954C80.5087 2.43954 80.4563 2.38717 80.4214 2.36971C80.369 2.35225 80.3341 2.31733 80.2817 2.29987C80.1769 2.26496 80.0546 2.23004 79.9673 2.19513C79.7752 2.16021 79.5657 2.12529 79.3735 2.10783C79.164 2.09037 78.9369 2.05546 78.7623 2.05546C78.5003 2.038 78.2558 2.02054 78.0288 2.00309C77.5048 1.96817 76.9809 1.93325 76.4744 1.88088C75.968 1.84596 75.479 1.79359 74.9725 1.75867C74.501 1.72375 74.0469 1.68884 73.5754 1.65392C72.6847 1.58409 71.8115 1.49679 70.9208 1.42696C70.6937 1.4095 70.4842 1.39204 70.292 1.37458C69.5236 1.32221 68.7377 1.26984 67.9693 1.26984C68.1963 1.30476 68.4059 1.33966 68.6329 1.35712C68.86 1.39204 69.1045 1.42696 69.3315 1.44442C69.4537 1.44442 69.5236 1.58409 69.4887 1.7063C69.4537 1.82851 69.3315 1.9158 69.1918 1.89834C68.8949 1.86342 68.598 1.8285 68.3011 1.79358C68.0915 1.75866 67.882 1.74121 67.6724 1.7063C67.5501 1.68884 67.4279 1.65393 67.3231 1.60155C67.1834 1.53172 67.0611 1.46188 66.9214 1.39205C66.8515 1.35713 66.7992 1.26983 66.8166 1.18254C66.8166 1.07779 66.904 1.00797 66.9913 0.97305H67.0087C67.0087 0.97305 67.1834 0.8683 67.2707 0.850842C67.4104 0.833384 67.5501 0.815918 67.6898 0.815918C68.0391 0.815918 68.4059 0.815918 68.7552 0.815918C68.9997 0.815918 69.2267 0.850842 69.4712 0.850842C69.9078 0.885759 70.3444 0.903209 70.781 0.938126C71.2351 0.973042 71.6892 1.00795 72.1258 1.04287C72.6148 1.07779 73.0864 1.13018 73.5754 1.16509C74.5708 1.23493 75.5663 1.30475 76.5618 1.39205C77.1032 1.42696 77.6446 1.46188 78.186 1.49679C78.5527 1.51425 78.9195 1.53171 79.2862 1.56663C79.4609 1.58409 79.653 1.60155 79.8276 1.63646C80.0197 1.65392 80.2118 1.68884 80.3865 1.75867C80.5087 1.79359 80.6485 1.84595 80.7532 1.91579C80.858 1.98562 80.9628 2.05546 80.9977 2.17767C80.9977 2.21258 81.0327 2.26496 81.0327 2.29987C81.0327 2.35225 81.0327 2.40463 81.0327 2.45701C81.0327 2.5443 80.9628 2.63159 80.9104 2.70142C80.858 2.7538 80.7707 2.7887 80.7009 2.7887C80.6485 2.7887 80.5786 2.77126 80.5437 2.71888Z" fill="black"/>
<path d="M79.3212 2.10784C78.0288 1.95071 76.7365 1.60155 75.4267 1.56663C74.9202 1.56663 74.4137 1.61901 73.9072 1.61901C73.8199 1.61901 73.7675 1.56663 73.7326 1.4968C71.9163 1.47934 70.1 1.51426 68.2837 1.53172C67.4454 1.53172 66.6071 1.53172 65.7688 1.53172C65.4545 1.53172 65.5767 1.06034 65.8387 1.0778C69.5411 1.11272 73.2436 0.885755 76.9286 1.11271C77.8193 1.16509 78.7449 1.25238 79.6006 1.4968C79.688 1.53172 79.7753 1.60155 79.7928 1.68884C79.8452 1.96817 79.5483 2.12531 79.3038 2.09039L79.3212 2.10784Z" fill="black"/>
<path d="M25.5481 3.20774C25.094 3.10299 24.5875 3.06807 24.1683 2.87603C24.0461 2.8062 24.0112 2.66653 24.0286 2.54432C24.0985 1.91582 26.1768 2.31736 26.7007 2.23007C29.7046 1.91582 32.7085 1.72378 35.7473 1.6714C35.7123 1.20003 36.3585 1.35715 36.6729 1.30478C38.8559 1.1302 41.039 1.16512 43.222 0.885782C47.4135 0.676282 51.5351 -0.214099 55.744 0.0477764C57.7175 0.187443 59.6386 0.292198 61.5771 0.69374C63.7427 0.554073 65.9083 0.536609 68.0914 0.606443C72.5972 0.781026 77.0681 1.3397 81.5041 2.05549C81.766 2.14278 82.3249 2.05549 82.255 2.45704C82.2201 2.5967 82.0629 2.70145 81.9232 2.68399C75.7059 1.56666 69.3838 0.815946 63.0616 1.06036C63.3411 1.11274 63.5157 1.2524 63.3411 1.54919C63.0616 1.89836 62.5552 1.74124 62.171 1.7587C60.5293 1.72378 58.8876 1.49682 57.246 1.35715C53.8579 1.0429 50.4698 1.00799 47.0817 1.06036C45.1781 1.11274 43.3268 1.30478 41.4407 1.49682C41.7026 1.61903 42.2964 1.63649 42.244 2.02058C42.1567 2.28245 41.8598 2.23007 41.6503 2.23007C39.7641 2.07294 37.8605 2.10787 35.9568 2.16025C33.8087 2.24754 31.6431 2.21261 29.5125 2.43957C28.2201 2.57924 26.9277 2.78875 25.6179 2.71891C26.0196 2.71891 25.8973 3.27757 25.5481 3.22519V3.20774ZM62.0138 1.26987C62.0138 1.26987 62.1011 1.26987 62.136 1.26987C61.5946 1.07783 61.0357 1.16512 60.4594 1.16512C60.6166 1.16512 60.7738 1.18257 60.931 1.20003C60.931 1.20003 60.9135 1.20003 60.896 1.20003C61.2628 1.21749 61.6295 1.25241 62.0138 1.26987ZM55.1328 0.728664C56.4251 0.76358 57.7175 0.763574 59.0274 0.763574C56.3902 0.484241 53.7007 0.327119 51.0636 0.588994C52.4258 0.588994 53.7705 0.676289 55.1328 0.728664Z" fill="black"/>
<path d="M5.11472 3.99333C4.90515 3.94096 4.66065 3.94096 4.486 3.80129C4.36375 3.66162 4.41615 3.43467 4.52094 3.27755C4.78291 2.94584 5.18459 2.80617 5.53388 2.59667C9.0093 1.09526 12.7816 -0.109375 16.6063 0.135042C21.3042 0.67625 26.0022 0.763548 30.7176 0.53659C36.0617 0.362006 41.4058 0.868296 46.7499 0.588962C48.4265 0.501671 50.0856 0.449298 51.7622 0.53659C52.4259 0.484215 53.1244 0.396917 53.7706 0.5715C53.8754 0.623875 53.9453 0.746081 53.9103 0.868289C53.823 1.32221 52.9149 0.990504 52.583 1.02542C50.6794 0.973046 48.7933 1.47934 46.8896 1.51425C44.1827 1.67138 41.4582 1.56662 38.7512 1.47933C31.6781 1.30474 24.5876 1.32221 17.5145 1.75867C14.5805 1.93325 11.367 1.46187 8.66003 2.80616C8.34567 2.98075 8.171 2.52683 8.50283 2.36971C10.6335 1.28729 13.0785 1.42696 15.4013 1.32221C17.759 1.32221 20.0992 1.2 22.4569 1.06033C19.715 1.00796 16.9905 0.396921 14.2661 0.588962C11.0526 0.920671 7.85664 1.89833 5.00994 3.4172C5.20205 3.43466 5.4815 3.48704 5.41164 3.74892C5.37671 3.88858 5.21953 3.99333 5.07981 3.97587L5.11472 3.99333ZM41.7551 1.13017C43.7984 1.16508 45.8592 1.16508 47.9026 0.990497C45.4925 1.09525 43.0649 1.16509 40.6548 1.09526C41.0216 1.09526 41.3883 1.11271 41.7726 1.13017H41.7551ZM34.8217 0.973048C36.5682 0.973048 38.3146 1.04288 40.0785 1.07779C36.9174 0.955585 33.7389 0.903215 30.5604 0.973048C31.975 0.973048 33.4071 0.95559 34.8217 0.973048Z" fill="black"/>
<path d="M80.788 3.66166C80.788 3.66166 80.7531 3.55692 80.7357 3.50454C79.6354 2.265 77.7667 2.3523 76.2648 2.28246C75.9853 2.21263 75.3392 2.40467 75.2344 2.07296C75.2693 1.56667 75.9679 1.74126 76.3172 1.7238C76.9633 1.7238 77.6095 1.7587 78.2557 1.79362C78.3256 1.79362 78.4129 1.82854 78.4304 1.91583C79.2861 2.02058 81.1897 2.50941 81.2596 3.53945C81.2072 3.7315 80.9103 3.88863 80.7706 3.69659L80.788 3.66166Z" fill="black"/>
<path d="M93.4674 28.0859C92.4544 27.7193 91.4415 27.8066 90.3936 27.9113C89.6252 27.8764 88.8742 27.7367 88.1058 27.824C86.4466 28.1906 84.8748 27.4923 83.303 27.0908C82.4124 26.8114 82.0107 25.8687 81.3121 25.3275C80.5437 24.7514 79.6704 24.2451 79.1465 23.4245C79.2164 24.2451 79.2862 25.1005 79.0767 25.9036C79.0417 26.0084 78.9369 26.0782 78.8496 26.1306C78.6051 26.2702 78.413 25.9909 78.3781 25.7639C78.1336 24.1403 78.4479 22.4643 78.2209 20.8581C77.9589 19.5662 77.7843 18.2743 77.662 16.9649C77.5223 15.0445 77.697 13.1416 77.662 11.2386C77.662 9.78956 77.3302 8.35797 77.435 6.90893C77.4874 5.39005 77.9939 3.71406 77.2429 2.31739C76.9285 2.54435 76.6142 2.09043 76.8762 1.82856C77.0683 1.61906 77.4001 1.75872 77.5573 1.93331C78.5178 3.26014 78.0637 5.05835 77.9589 6.57723C78.0812 5.84398 78.3431 5.12818 78.3606 4.37748C78.3606 4.08068 78.6401 3.73152 78.9195 4.08069C79.0243 4.22035 78.9719 4.39493 78.9544 4.53459C78.6226 6.35026 78.6401 8.23577 78.3432 10.0689C78.0812 11.7274 78.4829 13.3685 78.4654 15.0445C78.5003 16.3539 78.6226 17.6458 78.7099 18.9377C78.7274 20.5963 78.64 22.4469 79.9149 23.7039C80.5437 24.3324 81.347 24.699 81.9758 25.3275C82.3076 25.6766 82.5696 26.0782 82.9363 26.3924C83.3205 26.7067 83.8095 26.7416 84.2636 26.8813C85.5036 27.2828 86.7261 27.6494 88.0359 27.3526C88.9091 27.2479 89.7824 27.4923 90.6556 27.4399C91.686 27.213 92.6989 27.405 93.6944 27.6843C94.2183 27.7891 94.7248 27.6494 95.2487 27.5971C95.7202 27.5621 96.2442 27.632 96.6983 27.4574C97.3095 27.2304 97.7461 26.6718 98.3399 26.4099C98.4272 26.375 98.5495 26.4099 98.6368 26.4099C98.8813 26.4623 98.9861 26.7067 99.056 26.9162C99.1084 27.3526 98.567 27.2479 98.5146 26.8813C97.8684 27.2828 97.3095 27.9113 96.5236 28.0161C95.4932 28.0161 94.4628 28.3303 93.4499 28.1033L93.4674 28.0859Z" fill="black"/>
<path d="M101.641 35.3311C101.082 34.2487 101.012 32.9218 100.663 31.7347C99.964 28.8715 99.44 25.9734 99.1082 23.0404C99.7719 21.7485 100.837 27.1781 100.977 27.5971C100.54 25.537 100.383 23.3198 99.2479 21.4866C99.0558 21.1549 98.8812 20.8407 98.7065 20.5264C97.484 18.6758 97.03 15.8127 94.7247 14.9921C94.5849 14.9921 94.4627 14.8874 94.4277 14.7652C94.4277 14.3287 95.039 14.5731 95.266 14.7128C97.6237 16.092 98.1302 19.0425 99.5623 21.1898C100.907 23.3547 101.012 25.9909 101.588 28.4176C101.99 30.5999 102.706 32.7996 102.741 34.9994C102.706 35.174 102.461 35.3311 102.304 35.2263C102.234 35.1914 102.182 35.1216 102.164 35.0343C101.92 33.9693 101.693 32.9218 101.448 31.8569C100.925 29.5349 100.47 27.1955 99.8068 24.9085C100.261 28.1557 101.064 31.3506 101.85 34.5106C102.164 34.5804 102.077 34.947 102.112 35.1914C102.112 35.4359 101.78 35.4708 101.641 35.2962V35.3311Z" fill="black"/>
<path d="M99.475 21.8358C98.8463 21.1549 98.2699 20.4391 97.6762 19.7408C97.5888 19.636 97.5714 19.4789 97.6936 19.3916C97.8159 19.3043 97.9905 19.3567 98.0779 19.4614C98.3049 19.7582 98.5494 20.055 98.7939 20.3343C96.3838 17.2093 91.9653 9.56255 88.5947 8.21826C88.4025 8.51505 87.8961 8.16588 88.1755 7.90401C89.5901 6.99618 93.4498 12.1988 94.3055 13.2986C95.5804 15.027 96.768 16.7903 98.0255 18.5187C98.6367 19.4614 99.4925 20.3169 99.8417 21.3993C99.9815 21.6961 99.8417 22.0802 99.4575 21.8183L99.475 21.8358Z" fill="black"/>
<path d="M99.1606 22.5516C98.5145 21.574 97.9207 20.5439 97.3444 19.5313C96.2965 18.1521 95.1263 16.8777 93.9912 15.5683C91.4763 12.7051 88.9614 9.84194 86.3243 7.10099C84.2809 5.21549 81.7137 3.92358 79.7926 1.89841C79.6354 1.70637 79.3385 1.18261 79.8101 1.23498C80.4038 1.39211 80.8405 1.82857 81.3644 2.1079C81.3644 1.95078 81.574 1.88095 81.6962 1.96824C82.6044 2.47454 83.4951 2.98082 84.3508 3.57441C87.3547 5.66941 89.8696 8.35799 92.2797 11.0989C93.3101 12.2512 94.3055 13.4209 95.1613 14.7128C95.301 14.9922 95.6328 15.254 95.6154 15.5857C96.541 16.8253 96.9951 18.3442 97.9032 19.6012C98.5319 20.4392 99.1606 21.2772 99.5623 22.2548C99.5972 22.3945 99.6322 22.5516 99.5099 22.6564C99.3877 22.7611 99.213 22.7087 99.1257 22.5865L99.1606 22.5516ZM88.1755 8.4802C90.9873 11.5354 93.7292 14.643 96.4537 17.768C94.4278 13.8748 91.2842 10.6625 87.7913 8.0612C87.931 8.20087 88.0533 8.34053 88.1755 8.4802ZM86.9705 6.9264C88.1581 7.83424 89.3631 8.72461 90.4808 9.71974C89.2059 8.30561 87.8786 6.90895 86.4116 5.68686C86.5164 5.77416 86.5863 5.94874 86.4815 6.05349C86.3942 6.14078 86.2544 6.12332 86.1671 6.05349C85.8004 5.80907 85.5035 5.49483 85.1542 5.2155C85.748 5.80908 86.2719 6.47248 86.9705 6.90894V6.9264ZM84.1587 4.86632C84.019 4.74411 83.7919 4.48224 84.0714 4.36003C83.0061 3.64424 81.8883 2.91098 80.8055 2.23011C81.8709 3.17286 83.0235 4.01086 84.1762 4.84886L84.1587 4.86632Z" fill="black"/>
<path d="M96.5584 96.1384C95.8948 95.6147 97.2745 95.1084 97.6587 94.9338C99.4925 94.2005 101.012 92.734 101.396 90.7438C101.92 88.2996 101.99 85.7856 101.937 83.3066C101.903 82.905 101.885 82.486 101.833 82.0844C101.833 81.9622 101.903 81.84 102.042 81.8575C102.182 81.8575 102.287 81.9797 102.304 82.1194C102.444 85.3666 102.706 90.5867 100.82 93.2927C99.8767 94.7243 98.2176 95.1084 96.9078 96.0337C96.8554 96.1733 96.7156 96.2257 96.5934 96.1559L96.5584 96.1384Z" fill="black"/>
<path d="M101.309 91.4247C101.187 91.3724 101.099 91.2152 101.152 91.0756C101.309 90.6566 101.431 90.2376 101.536 89.8011C101.92 88.0902 101.885 86.3094 101.955 84.5636C101.833 77.2136 101.396 69.8462 101.938 62.4963C101.938 62.3741 102.042 62.2868 102.165 62.3042C102.514 62.3915 102.322 62.8454 102.322 63.0724C101.938 68.694 102.095 74.3505 102.287 79.9895C102.357 81.5782 102.758 91.1978 101.309 91.4247Z" fill="black"/>
<path d="M95.4581 95.9814C95.0565 95.7195 95.2486 95.2481 95.4058 94.899C95.8598 93.6943 97.2919 93.607 98.1302 92.7865C99.0383 91.9485 99.8941 91.0057 100.488 89.9233C100.558 89.033 100.418 88.16 100.383 87.2871C100.278 85.454 100.61 83.586 100.54 81.7528C100.261 78.6976 100.034 75.625 100.505 72.5697C101.047 67.7338 101.92 62.9327 102.042 58.0619C102.13 55.1289 101.658 52.1784 101.693 49.2454C101.763 45.2998 101.413 41.3542 101.256 37.4261C101.396 36.1517 101.047 34.8772 101.204 33.6202C101.221 33.4456 101.466 33.3932 101.588 33.5155C102.147 34.2138 101.641 35.4184 101.833 36.2564C102.077 37.88 102.653 39.4338 102.688 41.0924C102.619 44.4269 102.269 47.7614 102.339 51.1134C102.339 53.7671 102.601 56.3859 102.584 59.0395C102.496 61.2393 102.095 63.4216 102.147 65.6213C102.147 66.826 102.147 68.0131 102.199 69.2177C102.461 69.759 102.496 70.37 102.514 70.9461C102.496 73.303 102.653 75.6424 103.055 77.9644C103.404 78.1739 103.142 78.6452 102.776 78.4357C102.426 78.1215 102.531 77.5628 102.444 77.1264C102.287 80.7752 101.92 84.4239 101.483 88.0553C101.693 87.7934 102.392 87.5141 102.392 88.0553C102.374 88.5616 102.025 88.998 101.745 89.3996C101.536 89.7138 101.221 89.9582 101.117 90.3249C101.047 90.4994 100.907 90.7264 100.715 90.6915C100.313 91.1454 100.104 91.739 99.9814 92.3326C99.8941 92.6294 99.5448 92.7167 99.4924 92.996C98.951 94.1308 96.7156 95.9814 95.4581 95.9814ZM95.7376 95.4751C97.0474 94.8815 98.3398 93.9911 99.0209 92.6992C98.5319 93.2229 97.9555 93.6594 97.3268 93.9911C96.995 94.1832 96.6108 94.2879 96.2964 94.5323C96.017 94.7767 95.8598 95.1434 95.7376 95.4576C95.7376 95.4576 95.7376 95.4576 95.7376 95.4751ZM101.413 88.9282C101.413 88.9282 101.413 88.9806 101.413 89.0155C101.501 88.8933 101.588 88.7711 101.658 88.6314C101.623 88.6663 101.588 88.7187 101.536 88.7536C101.483 88.806 101.448 88.8584 101.396 88.9107L101.413 88.9282ZM100.89 88.16C100.89 88.3172 100.924 88.4568 100.924 88.614C101.082 86.7459 100.925 84.8604 100.994 82.9749C100.907 84.7033 100.715 86.4317 100.89 88.16ZM101.675 74.1759C101.536 77.6327 101.448 81.0894 101.448 84.5462C101.833 80.2165 102.357 75.8868 101.868 71.5572C101.78 72.4301 101.745 73.3205 101.675 74.1934V74.1759ZM100.732 78.331C100.785 79.588 100.994 80.845 101.012 82.1195C101.064 79.0119 101.117 75.8868 101.344 72.7792C101.501 70.7017 101.868 68.6591 101.728 66.5641C101.309 70.4747 100.47 74.3854 100.732 78.331ZM102.06 44.1825C102.06 44.1825 102.06 44.3047 102.06 44.3571C102.252 42.297 102.374 40.1845 101.745 38.1943C101.78 40.1845 101.99 42.1922 102.042 44.1825H102.06Z" fill="black"/>
<path d="M102.881 64.1548C102.758 64.1199 102.671 63.9802 102.689 63.8405C102.758 63.4041 102.811 62.9676 102.881 62.5137C103.108 60.733 103.178 58.9348 103.178 57.1366C103.178 57.1366 103.178 57.154 103.178 57.1715C103.073 53.9242 102.584 50.7119 102.671 47.4646C102.671 45.841 102.671 44.2349 102.619 42.6287C102.619 41.04 102.758 39.3814 101.85 37.9848C101.676 37.6705 102.112 37.4435 102.287 37.7753C103.213 39.2418 103.125 40.9876 103.09 42.6461C103.125 45.2474 103.09 47.8487 103.143 50.4325C103.213 52.318 103.474 54.1686 103.562 56.0541C103.632 57.5905 103.597 59.1268 103.492 60.6806C103.422 61.7805 103.282 62.8978 103.125 63.9977C103.125 64.1199 102.968 64.1897 102.863 64.1548H102.881Z" fill="black"/>
<path d="M100.942 82.3639C100.837 82.3115 100.75 82.1718 100.802 82.0496C101.099 81.1418 101.431 80.199 101.676 79.2912C102.13 77.2486 102.13 75.1536 102.217 73.076C102.357 69.0082 103.544 64.8008 102.409 60.8028C102.182 60.4013 102.671 60.1394 102.846 60.5933C103.928 64.2421 103.038 68.1179 102.723 71.819C102.566 73.9839 102.601 76.1836 102.287 78.331C102.13 79.6753 101.588 80.9497 101.221 82.2417C101.187 82.3639 101.047 82.3988 100.942 82.3464V82.3639Z" fill="black"/>
<path d="M99.8768 93.5896C99.772 93.5372 99.7022 93.3975 99.7371 93.2928C99.8943 92.8912 100.051 92.4897 100.174 92.0707C100.75 90.3773 100.907 88.5965 101.169 86.8332C101.676 84.0573 101.833 81.2465 101.885 78.4358C101.955 78.139 102.374 78.331 102.304 78.5754C102.304 82.0496 101.85 85.4889 101.309 88.9282C101.099 90.482 100.733 92.0183 100.139 93.4848C100.104 93.5896 99.9816 93.642 99.8768 93.5896Z" fill="black"/>
<path d="M33.8089 99.1937C31.4163 99.0366 29.0586 98.3033 26.6834 98.0589C25.915 97.9891 25.1291 98.1287 24.3606 97.9891C24.2209 97.9541 24.0288 97.8843 24.0113 97.7272C21.9855 97.3955 19.9421 97.0638 17.9163 96.7495C16.1698 96.6797 14.4234 96.5749 12.7119 96.3131C12.1705 96.2258 6.82635 95.6497 7.52493 94.864C7.26296 94.7244 6.61679 94.5847 6.68664 94.2355C6.7565 94.026 7.01847 93.9911 7.21058 94.0086C9.23645 94.2181 11.2274 94.7942 13.2533 94.8291C17.9337 94.8291 22.6317 94.7069 27.2423 95.7195C27.3296 95.4576 27.6265 95.3878 27.871 95.4751C29.4253 95.6846 30.9797 95.9814 32.5515 96.1385C33.5469 96.0512 39.7817 95.2132 39.8516 96.3131C44.6194 96.5749 49.3871 96.4702 54.1549 96.4702C58.5385 96.5749 62.9221 96.8019 67.3231 96.6273C73.6278 96.3829 79.9499 96.8193 86.2196 96.1036C88.2804 96.0163 90.3238 95.7195 92.3671 95.4751C92.9434 95.3354 93.5372 95.3354 94.1135 95.3354C94.6724 95.2132 95.2138 95.0211 95.7377 94.7767C95.9822 94.6196 96.6634 94.4101 96.5237 94.9164C96.5062 95.1259 96.2267 95.3005 96.0521 95.1434H96.0346C95.8949 95.2132 95.7552 95.2656 95.6155 95.3354C96.1744 95.51 96.087 96.4353 95.3884 96.1036C93.8516 95.6671 92.3496 96.121 90.8128 96.348C88.4551 96.7146 86.0799 97.0463 83.7047 97.2558C80.2817 97.5701 76.8587 97.8494 73.4357 97.8319C71.5844 97.8494 69.7332 97.6923 67.882 97.8494C66.1355 97.9367 64.3716 97.9192 62.6252 97.8843C59.4991 98.5652 56.3031 98.8445 53.1245 99.0366C48.9156 99.2111 44.7242 99.0366 40.5152 98.9143C38.2972 99.054 36.0618 99.3857 33.8438 99.1762L33.8089 99.1937ZM35.0838 98.8445C35.3807 98.8445 35.6776 98.8445 35.9745 98.8445C35.2061 98.8445 34.4551 98.7921 33.6866 98.7572C33.774 98.7572 33.8613 98.7572 33.9486 98.7747C33.9486 98.7747 33.9311 98.7747 33.9137 98.7747C34.2979 98.8096 34.6996 98.8271 35.0838 98.8445ZM45.9641 98.6525C50.8367 98.7572 55.7267 98.6525 60.5295 97.8319C57.4732 97.8319 54.4169 97.832 51.3606 97.9018C49.2824 97.9716 47.239 98.4604 45.1782 98.635C45.4402 98.635 45.7021 98.635 45.9641 98.635V98.6525ZM35.241 98.4081C39.3276 98.5128 43.4318 98.6001 47.4835 97.9192C41.0566 97.5352 34.6297 97.5875 28.2028 97.7446C28.1853 97.7446 28.1504 97.7796 28.133 97.7796C30.4907 98.1811 32.8658 98.2859 35.241 98.3906V98.4081ZM64.3542 97.5177C64.913 97.5177 65.4893 97.5177 66.0482 97.5177C65.6291 97.4828 65.2099 97.4478 64.7733 97.4129C64.3891 97.378 64.0049 97.3431 63.6207 97.3257C63.6381 97.3606 63.6381 97.4129 63.6381 97.4479C63.6381 97.4653 63.6381 97.5002 63.6207 97.5177C63.8652 97.5177 64.1097 97.5177 64.3542 97.5177ZM40.131 97.2034C42.349 97.2209 44.567 97.378 46.7675 97.4828C48.3218 97.5177 49.981 97.605 51.413 96.9066C47.3613 97.0114 43.3095 96.9066 39.2578 96.767C36.5508 97.5002 33.6343 97.1161 30.8923 96.7844C30.1414 96.8368 29.3729 96.9066 28.622 96.7321C28.2203 96.6448 27.836 96.4702 27.5217 96.2258C26.6659 96.0686 25.8102 95.929 24.9544 95.7719C22.7015 95.3703 20.3962 95.2656 18.1084 95.2656C15.9952 95.2306 13.882 95.3528 11.7688 95.1783C10.5987 95.0561 9.46347 94.7593 8.31082 94.6371C10.1795 95.4925 12.2578 95.5274 14.2662 95.7893C17.4797 96.2258 20.7106 96.4527 23.959 96.5051C25.391 96.5575 26.858 96.7146 28.1504 97.2907C32.1323 97.2558 36.1317 97.1161 40.1135 97.2034H40.131ZM52.0068 97.0987C51.7274 97.2209 51.448 97.3431 51.1685 97.4653C51.1511 97.4653 51.1336 97.4653 51.1161 97.4828C52.2164 97.4129 53.3341 97.4129 54.4518 97.4129C54.3645 97.0463 54.871 97.0114 55.1155 96.9066C54.1549 96.8717 53.1769 96.8892 52.2164 96.8717C52.2164 96.959 52.1116 97.0463 52.0418 97.0812L52.0068 97.0987ZM56.8445 97.3082C58.7132 97.3606 60.5644 97.3256 62.4331 97.2209C60.285 97.0812 58.1019 97.2209 55.9538 97.2733C56.2507 97.2907 56.565 97.3082 56.8619 97.3082H56.8445ZM67.8995 97.2384C71.1828 97.4479 74.4661 97.1336 77.7319 96.9241C73.8373 96.9241 69.9428 97.0114 66.0482 97.0812C66.6595 97.1336 67.2882 97.186 67.8995 97.2384ZM25.9499 97.2907C26.1944 97.2907 26.4389 97.2907 26.7009 97.2907C26.7358 97.2907 26.7533 97.2907 26.7882 97.2907C26.7358 97.2907 26.6834 97.2733 26.6485 97.2558C26.0721 97.1336 25.4784 97.0463 24.902 96.9939C24.902 96.9939 24.9195 96.9939 24.937 96.9939C24.4829 96.959 24.0288 96.9416 23.5747 96.9241C24.3781 97.0463 25.164 97.2907 25.9848 97.2907H25.9499ZM35.3632 96.3305C36.5508 96.348 37.7559 96.3305 38.9434 96.3305C37.6161 96.1385 36.3063 96.2258 34.979 96.3305C35.1013 96.3305 35.241 96.3305 35.3632 96.3305Z" fill="black"/>
<path d="M9.88264 96.6098C8.81731 96.2257 7.90917 95.5274 6.96609 94.8989C5.70865 93.9038 4.04951 92.961 3.64783 91.285C3.49065 90.9533 4.06698 90.674 4.17177 91.058C4.31149 91.8786 4.87036 92.4896 5.46415 93.0308C5.81344 92.8563 6.23258 93.1356 6.58187 93.2229C6.75651 93.2753 6.75651 93.5022 6.63426 93.607C7.78691 94.3926 9.02688 95.056 10.0922 95.9464C10.3367 96.1559 10.2669 96.6796 9.88264 96.5924V96.6098Z" fill="black"/>
<path d="M51.5177 98.8445C45.8069 98.5302 40.1484 97.8319 34.4201 97.6399C29.1807 97.378 23.889 97.9192 18.6846 97.1336C16.1348 96.7146 13.6374 96.1035 11.14 95.4226C11.0177 95.4052 11.0002 95.2655 11.0352 95.1608C11.0876 94.7592 12.9737 95.5449 13.3405 95.5449C15.6633 96.1385 18.0035 96.6622 20.4136 96.8892C24.6924 97.4129 29.0236 96.9939 33.3198 97.1685C39.2053 97.3256 45.0733 97.989 50.9414 98.3731C55.7267 98.6001 60.442 97.4304 65.2098 97.378C67.323 97.2733 69.4362 97.2732 71.532 97.151C73.261 96.732 74.955 96.1035 76.7713 96.2607C77.8541 96.2258 79.0591 96.3479 80.0371 95.8067C80.1419 95.7194 80.2991 95.6845 80.4039 95.7893C80.823 96.54 78.151 96.7669 77.6969 96.732C76.2299 96.7495 74.7279 96.6447 73.3133 97.151C71.8114 97.7272 70.2571 97.6922 68.6853 97.6748C66.834 97.797 65.0003 97.797 63.149 97.8843C59.2894 98.1811 55.4472 98.8794 51.5527 98.827L51.5177 98.8445Z" fill="black"/>
<path d="M76.3521 98.635C75.8456 98.635 75.3392 98.6001 74.8327 98.5826C74.693 98.5826 74.5707 98.5826 74.431 98.5652C74.1166 98.5477 73.8197 98.5303 73.5054 98.5128C73.2085 98.4953 72.8941 98.4779 72.5972 98.4604C72.4575 98.4604 72.3353 98.4604 72.2305 98.443C71.7764 98.4255 71.3223 98.3731 70.8683 98.3382C70.4316 98.3033 69.995 98.2858 69.5759 98.2509C69.1043 98.216 68.6503 98.1985 68.1787 98.1636C67.8644 98.1462 67.55 98.1287 67.2356 98.1113C67.0959 98.1113 66.9562 98.1112 66.834 98.0938C66.345 98.0589 65.8385 98.024 65.332 97.989C65.0526 97.9716 64.7557 97.9541 64.4763 97.9367C64.3715 97.9367 64.2667 97.9367 64.1794 97.9192C63.6554 97.8668 63.149 97.797 62.625 97.7446C62.5203 97.7446 62.398 97.7272 62.2932 97.7097C62.0662 97.6748 61.8566 97.6399 61.6296 97.5875C61.0183 97.4828 60.3896 97.378 59.7783 97.2209C59.6735 97.186 59.5688 97.1511 59.464 97.1336C59.3592 97.0987 59.2369 97.0812 59.1322 97.0463C59.0099 97.0114 58.8527 96.9241 58.8178 96.7844C58.7829 96.6622 58.8178 96.5051 58.9226 96.4178C58.975 96.3829 59.0274 96.348 59.0972 96.3305C59.202 96.313 59.2893 96.3305 59.3941 96.3305C60.0054 96.2956 60.5992 96.348 61.2104 96.4352C61.5248 96.4876 61.8217 96.54 62.136 96.5924C62.5726 96.6622 63.0267 96.7495 63.4633 96.8193C63.8999 96.8892 64.3365 96.9765 64.7732 97.0289C65.332 97.1161 65.8909 97.186 66.4672 97.2733C66.4672 97.2733 66.5021 97.2733 66.5196 97.2733L68.4756 97.4129C68.5804 97.4129 68.6852 97.4129 68.79 97.4129C69.017 97.4129 69.2441 97.4129 69.4711 97.4129C69.8029 97.4129 70.1348 97.4129 70.4666 97.4129C71.3747 97.3605 72.2654 97.3082 73.1735 97.2558C73.5927 97.2383 73.9944 97.2034 74.4135 97.186C74.9375 97.186 75.4614 97.1511 76.0028 97.1336C76.1949 97.1336 76.3695 97.1336 76.5616 97.1336H77.5396C77.9413 97.1161 78.3256 97.1161 78.7272 97.1161C79.7052 97.1161 80.6833 97.0987 81.6787 97.0812C81.9931 97.0812 82.3249 97.0638 82.6393 97.0463C83.0409 97.0288 83.4426 97.0114 83.8443 96.9939C84.3508 96.959 84.8573 96.9066 85.3812 96.8717C85.7479 96.8368 86.0972 96.8019 86.464 96.767C87.4944 96.6622 88.5248 96.5749 89.5552 96.4702C89.9394 96.4353 90.3411 96.4003 90.7253 96.3654C91.1444 96.3305 91.5461 96.2956 91.9653 96.2432C92.0526 96.2432 92.1225 96.2258 92.2098 96.2083C92.3844 96.1734 92.5591 96.1385 92.7162 96.1035C93.6244 95.894 94.55 95.7195 95.4756 95.51C95.6503 95.475 95.8249 95.4401 95.9996 95.3878C96.0345 95.3354 96.1043 95.3005 96.1567 95.283C96.1917 95.1608 96.2965 95.0735 96.4187 95.0561C96.6807 95.0211 96.9252 95.0037 97.1871 94.9688C97.3268 94.9688 97.4666 94.9338 97.6063 94.9338C97.6936 94.9338 97.7984 94.9164 97.8857 94.9164C97.9381 94.9164 98.008 94.9164 98.0778 94.9164C98.1302 94.9164 98.1826 94.9338 98.235 94.9513C98.3223 94.9688 98.3922 95.0735 98.3747 95.1608C98.3747 95.2655 98.2874 95.3877 98.1826 95.4227C98.0429 95.475 97.9032 95.4925 97.7635 95.51C97.7635 95.51 97.7285 95.51 97.7111 95.51C97.4491 95.5623 97.2046 95.5973 96.9426 95.6496C96.8902 95.7195 96.8204 95.7893 96.7331 95.8417C96.6981 95.8591 96.6457 95.8766 96.5933 95.894C96.5409 95.9115 96.4886 95.929 96.4362 95.9464C96.2615 95.9988 96.0869 96.0337 95.9122 96.0686C95.6677 96.121 95.4058 96.1734 95.1613 96.2258C95.0041 96.2607 94.8469 96.2956 94.6723 96.3131C94.3579 96.3654 94.0435 96.4178 93.7292 96.4702C93.5895 96.4876 93.4497 96.5225 93.31 96.54C92.7861 96.6098 92.2447 96.6797 91.7208 96.7495C91.5811 96.7844 91.4413 96.8019 91.3016 96.8368C90.4109 97.0114 89.5202 97.186 88.647 97.3605C87.7913 97.5177 86.953 97.7097 86.0972 97.8668C85.7829 97.9192 85.4685 97.9891 85.1367 98.0589C84.962 98.0938 84.8049 98.1287 84.6302 98.1462C84.0888 98.2335 83.5649 98.3033 83.0235 98.3906C82.6043 98.4604 82.1677 98.4953 81.7486 98.5477L80.9976 98.635C80.8579 98.635 80.7182 98.6525 80.5785 98.6699C80.2466 98.6874 79.9148 98.7223 79.6005 98.7398C79.4433 98.7398 79.2861 98.7747 79.1464 98.7747C78.5875 98.7747 78.0287 98.7747 77.4873 98.7747C77.4873 98.7747 77.4523 98.7747 77.4349 98.7747C77.0856 98.7747 76.7363 98.7747 76.387 98.7398L76.3521 98.635ZM73.7674 98.0938C74.0642 98.1112 74.3611 98.1287 74.658 98.1462C74.7628 98.1462 74.8501 98.1462 74.9549 98.1636C75.5312 98.1811 76.0901 98.1985 76.6664 98.216C76.876 98.216 77.0681 98.216 77.2777 98.2335C77.4174 98.2335 77.5746 98.2335 77.7143 98.2335C78.2033 98.2335 78.7098 98.2335 79.1988 98.2335C79.7053 98.1985 80.1943 98.1636 80.7007 98.1287C81.1024 98.0938 81.5041 98.0414 81.9058 97.989C82.3074 97.9367 82.6917 97.9017 83.0933 97.8494C83.5998 97.7795 84.1063 97.6923 84.6127 97.6224C85.1192 97.5177 85.6257 97.4304 86.1321 97.3256C86.5688 97.2383 87.0228 97.151 87.4595 97.0637C87.5642 97.0463 87.6865 97.0114 87.7913 96.9939C87.215 97.0463 86.6561 97.0987 86.0798 97.151C85.6781 97.186 85.2939 97.2209 84.8922 97.2558C84.4905 97.2907 84.0714 97.3256 83.6697 97.3431C83.0759 97.3605 82.4821 97.3955 81.9058 97.4129C81.5215 97.4129 81.1373 97.4129 80.7531 97.4304C78.9194 97.4478 77.0856 97.4304 75.2693 97.5002C74.9025 97.5002 74.5358 97.5177 74.169 97.5351C74.169 97.5351 74.169 97.5351 74.1516 97.5351C73.2434 97.5875 72.3352 97.6574 71.4271 97.7097C71.0254 97.7272 70.6238 97.7621 70.2221 97.7621C69.8553 97.7621 69.506 97.7621 69.1393 97.7621C69.2091 97.7621 69.279 97.7621 69.3489 97.7621C69.4711 97.7621 69.5934 97.7621 69.6981 97.7795C70.1522 97.797 70.6063 97.8494 71.0604 97.8843C71.497 97.9192 71.9336 97.9367 72.3527 97.989C72.8243 98.024 73.3133 98.0589 73.7848 98.0763L73.7674 98.0938ZM65.7686 97.5526C65.7686 97.5526 65.8036 97.5526 65.821 97.5526C65.5765 97.5177 65.3146 97.4828 65.07 97.4478C64.8954 97.4304 64.7208 97.3955 64.5461 97.378C64.0222 97.2907 63.5157 97.2034 62.9918 97.1161C62.7123 97.0637 62.4329 97.0288 62.1535 96.9765C61.5946 96.8892 61.0358 96.7844 60.5118 96.732C60.3197 96.732 60.1102 96.7146 59.918 96.6971C59.9355 96.6971 59.953 96.6971 59.9704 96.6971C60.0752 96.7321 60.1626 96.7495 60.2324 96.767C60.6865 96.8717 61.1231 96.9416 61.5772 97.0289C61.7867 97.0638 62.0138 97.1161 62.2408 97.151C62.3281 97.151 62.4155 97.186 62.5203 97.2034C62.8521 97.2383 63.1839 97.2907 63.5157 97.3256C63.8301 97.3606 64.1444 97.3955 64.4239 97.4478C64.8779 97.4828 65.332 97.5177 65.7861 97.5526H65.7686Z" fill="black"/>
<path d="M81.3994 98.1113C76.7538 97.9193 72.1257 97.2035 67.4977 96.767C65.8211 96.5226 64.0921 96.9416 62.433 96.54C62.0837 96.4527 62.3457 96.0512 62.6077 96.0512C63.8302 96.0687 65.0701 96.0861 66.2926 96.2083C68.2312 96.1211 70.1523 95.9814 72.0908 95.9988C75.8981 95.9814 79.7053 96.2083 83.4951 96.2956C85.9401 96.3655 88.3851 96.2956 90.8127 96.0687C90.9699 96.0512 91.0921 96.2083 91.0048 96.348C92.0527 96.0337 93.1005 95.702 94.1833 95.4751C94.3056 95.4576 94.4278 95.51 94.4453 95.6322C94.4453 95.7544 94.358 95.8941 94.2357 95.9115C93.7293 96.0163 93.2228 96.156 92.7163 96.2956C89.0662 97.4828 85.259 98.3033 81.3994 98.1287V98.1113ZM80.2816 97.6399C83.7047 97.8669 87.1626 97.5352 90.4285 96.5226C83.3554 97.1685 76.2474 96.1385 69.1568 96.5226C72.8767 96.8543 76.5443 97.4304 80.2816 97.6225V97.6399Z" fill="black"/>
<path d="M10.5114 97.2209C9.25394 96.7321 7.97904 96.348 6.77399 95.7195C6.00556 95.3354 5.14978 95.0561 4.62585 94.3578C4.32895 94.061 4.53855 93.5547 4.97516 93.642C3.40336 91.8961 2.51267 89.6789 2.12845 87.3919C0.207362 82.1369 0.574105 76.4804 0.836072 70.9985C0.871001 70.2304 0.905935 69.4622 0.923399 68.694C0.626504 67.9957 0.451857 67.2624 0.34707 66.5117C0.120033 64.7833 0.224833 63.0201 0.224833 61.2742C0.434406 58.3412 0.678911 55.3559 1.67438 52.58C1.70931 52.3181 2.07606 52.3006 2.16338 52.5451C2.42535 53.7148 2.40789 54.9368 2.35549 56.124C2.16339 58.6206 1.69183 61.0822 1.56957 63.5787C2.16336 64.923 2.04112 66.4768 2.09351 67.9084C2.09351 68.3798 2.18084 69.9685 1.36001 69.2352C1.32508 71.8016 1.36002 74.3854 1.58706 76.9518C1.65691 77.6502 1.74423 78.331 1.84901 79.0293C1.84901 79.1341 1.81409 79.2563 1.69184 79.2563C1.56959 79.2563 1.4648 79.1516 1.44734 79.0468C1.29016 77.8946 1.13298 76.7249 1.09805 75.5551C0.993268 79.1516 1.15044 82.7829 2.23323 86.2222C2.23323 85.8381 2.23323 85.4715 2.18084 85.0874C2.18084 85.0001 2.18085 84.8953 2.26817 84.843C3.07153 84.4763 4.06699 89.5393 4.13685 90.2201C5.01007 90.5868 5.56894 91.4597 6.19766 92.1231C5.25458 89.3298 3.92728 86.6237 3.29856 83.7256C3.00167 81.8751 3.00165 80.007 2.9318 78.139C2.6873 74.0014 2.44279 69.8637 2.6873 65.7086C3.07151 59.9474 3.26363 54.1512 3.45574 48.3725C3.57799 45.8934 3.82249 43.3969 3.78756 40.9178C3.75263 40.202 3.73517 39.4688 3.64784 38.7704C3.63038 38.6308 3.70024 38.4911 3.83995 38.4911C4.36389 38.4387 4.17177 40.2544 4.24163 40.621C4.31149 43.1699 4.04953 45.7188 3.89235 48.2678C3.70024 52.7022 3.61292 57.1541 3.35095 61.5885C3.17631 64.3644 2.9842 67.1402 3.01912 69.9161C3.00166 73.0411 3.31602 76.1487 3.40334 79.2738C3.4732 80.9672 3.49067 82.6781 3.87489 84.3192C4.3115 86.0825 5.0974 87.7411 5.72612 89.452C6.52948 91.6517 7.22805 94.3054 9.42857 95.4751C9.63814 95.5973 9.83027 95.7195 10.0224 95.8417C10.1796 95.9465 10.197 96.2607 9.98744 96.2956C9.95251 96.2956 9.9001 96.3131 9.86518 96.3131C10.197 96.575 10.8781 96.4877 10.9829 96.9765C10.9829 97.2209 10.7209 97.2733 10.5463 97.1685L10.5114 97.2209ZM7.01849 95.3005C6.33738 94.9688 5.84836 94.2006 5.06246 94.1657C5.56893 94.7593 6.35484 94.9514 7.01849 95.3005ZM7.6996 94.6371C7.6996 94.6371 7.62973 94.5498 7.57734 94.4974C7.57734 94.5149 7.55987 94.5498 7.5424 94.5673C7.5948 94.5847 7.64721 94.6196 7.6996 94.6371ZM7.01849 94.0959C6.51202 92.8738 5.37682 91.9485 4.48613 91.0058C4.34641 90.8835 4.18925 90.7614 4.01461 90.7264C4.3115 92.2279 5.72613 93.3976 7.01849 94.0784V94.0959ZM3.54306 90.6391C3.54306 90.6391 3.54306 90.5693 3.54306 90.5344C3.49067 90.482 3.43827 90.4296 3.40334 90.3598C3.43827 90.4471 3.49068 90.5519 3.52561 90.6391H3.54306ZM3.64784 89.9233C3.43827 88.6489 3.10645 87.4093 2.66984 86.2047C2.4952 87.549 3.01913 88.7711 3.64784 89.9233ZM1.60451 68.8686C1.72676 67.6116 1.60451 66.2848 1.49973 65.0278C1.44734 66.18 1.41239 67.3497 1.37746 68.4845C1.37746 68.6416 1.48225 68.7813 1.62197 68.8686H1.60451ZM0.940854 67.2624C0.975783 65.988 0.853533 64.6437 1.13296 63.4041C1.25521 60.122 2.14592 56.8573 1.83156 53.5576C1.08059 56.0542 0.871007 58.6729 0.678898 61.2568C0.678898 63.2645 0.521708 65.2896 0.940854 67.2624Z" fill="black"/>
<path d="M17.0954 97.6748C15.1568 97.1336 13.1834 96.7146 11.2448 96.156C10.7907 96.0163 10.1445 96.0512 9.88258 95.5973C9.21893 95.2132 8.29329 94.9339 7.97893 94.2006C7.90908 94.0609 7.92655 93.8514 8.1012 93.8165C8.52034 93.7292 9.90002 93.5547 9.8651 94.2181C9.83017 94.3577 9.69045 94.4101 9.5682 94.3752C9.25384 94.2705 8.92202 94.253 8.5902 94.2879C9.11413 94.6545 9.63808 94.9688 10.2144 95.2132C11.2448 95.0212 12.2927 95.4576 13.3405 95.5449C13.4802 95.5624 13.5676 95.6846 13.585 95.8068C13.585 95.929 13.4977 96.0512 13.3755 96.0337C12.9039 95.9639 12.4324 95.8941 11.9434 95.8242C13.6898 96.2607 15.4712 96.6448 17.2002 97.1685C17.5145 97.2558 17.4796 97.7272 17.1128 97.6748H17.0954Z" fill="black"/>
<path d="M3.26359 8.04367C3.1588 7.97384 3.14133 7.83418 3.17626 7.71197C3.29851 7.39772 3.42077 7.10092 3.54302 6.80413C3.61288 6.66446 3.66528 6.50734 3.73513 6.36767C3.90978 5.98359 4.10189 5.61696 4.31146 5.25034C4.52104 4.90117 4.73062 4.55201 4.97512 4.2203C5.20216 3.90605 5.4641 3.5918 5.74353 3.31246C6.0055 3.05059 6.30239 2.80617 6.61675 2.61413C6.87872 2.457 7.19308 2.33479 7.48997 2.35225C7.62969 2.35225 7.69956 2.54429 7.69956 2.6665C7.69956 2.80617 7.57731 2.92839 7.42013 2.91093H7.36774C7.36774 2.91093 7.28041 2.91092 7.22802 2.92838C7.1407 2.94584 7.07084 2.98076 6.98352 3.01567C6.87873 3.06805 6.7914 3.12042 6.70408 3.17279C6.52944 3.295 6.35479 3.43467 6.21508 3.55688C6.04043 3.714 5.8658 3.88859 5.70862 4.06317C5.53398 4.27267 5.37679 4.48217 5.23707 4.69167C5.25454 4.69167 5.28946 4.69167 5.30692 4.72658C5.41171 4.81388 5.42919 4.97101 5.37679 5.07576C5.09736 5.58205 4.80047 6.07088 4.50357 6.57718C4.41625 6.7343 4.31146 6.89142 4.22414 7.04855C4.13681 7.20567 4.03202 7.34534 3.9447 7.50247C3.8923 7.58976 3.82245 7.6945 3.75259 7.78179C3.7002 7.85163 3.63034 7.92146 3.56048 7.97383C3.50809 8.00875 3.4557 8.04367 3.40331 8.04367C3.36838 8.04367 3.316 8.04368 3.28107 8.00876L3.26359 8.04367Z" fill="black"/>
<path d="M5.63871 4.08072C5.32435 3.76647 5.79589 3.38239 5.91814 3.0856C5.988 2.96339 6.12772 2.91101 6.24997 2.9983C6.54687 3.31255 6.09279 3.69663 5.97054 3.99343C5.90068 4.11563 5.74349 4.16801 5.63871 4.08072Z" fill="black"/>
<path d="M4.01455 8.75944C4.06695 6.40256 5.09733 4.13297 6.61673 2.35222C6.66913 2.21255 6.66914 1.9856 6.87872 1.9856C7.48997 2.1951 6.80884 2.94581 6.56434 3.20769C6.07534 3.80127 5.69112 4.42977 5.35929 5.09319C4.83536 6.24544 4.45116 7.46752 4.45116 8.74198C4.45116 9.07368 3.99707 9.09114 3.99707 8.74198L4.01455 8.75944Z" fill="black"/>
<path d="M1.84891 43.6063C0.626401 43.554 0.346966 38.91 0.20725 37.8625C-0.438934 30.8792 0.504145 23.861 1.95369 17.0522C2.49509 13.7177 3.29846 10.4355 4.3114 7.20571C4.66069 6.17567 5.06236 5.16308 5.55136 4.18542C5.60375 4.08067 5.72601 4.04575 5.8308 4.11558C5.93558 4.18541 5.93558 4.34254 5.88319 4.44729C5.74347 4.74408 5.60377 5.04088 5.46406 5.33767C6.19756 4.20288 7.1057 3.19029 8.15357 2.33484C8.39807 2.16025 8.60765 2.59671 8.38061 2.75383C5.41166 5.00596 4.52098 8.11355 3.77001 11.5703C3.29847 14.0145 2.40779 16.4062 2.11089 18.8853C1.98864 24.0705 1.48216 29.2207 1.6568 34.3883C1.86637 36.5532 1.79651 38.7355 2.00608 40.9003C1.97115 41.5288 2.68721 43.5365 1.83146 43.6412L1.84891 43.6063ZM1.83146 43.0651C1.7616 41.5637 1.44724 40.0798 1.48217 38.5609C1.44724 36.204 1.1678 33.8995 1.22019 31.5426C1.25512 27.8938 1.62188 24.28 1.63935 20.6312C1.16781 23.2499 0.818507 25.9036 0.59147 28.5747C0.364432 32.2759 0.32951 36.012 0.870907 39.6957C1.11541 40.7781 1.09795 42.2097 1.83146 43.0651Z" fill="black"/>
<path d="M11.7861 3.73147C11.7162 3.62672 11.7512 3.4696 11.8559 3.38231C13.1309 2.09039 14.9297 1.82852 16.6761 1.75869C20.0468 1.47935 23.4523 1.25239 26.8404 1.61902C25.3385 1.02543 23.6794 1.13019 22.0901 1.00798C19.6975 0.885769 17.235 0.746102 14.9297 1.56664C14.8948 1.84598 14.5804 1.81106 14.3708 1.81106C14.1263 1.81106 14.0565 1.42697 14.2486 1.30477C14.7376 0.990516 15.3314 0.885776 15.8903 0.728651C18.0209 0.222359 20.2214 0.431858 22.387 0.536608C24.0287 0.72865 25.9323 0.484223 27.3469 1.42697C27.7311 1.88089 27.1548 2.24753 26.7182 2.16023C22.5442 1.77615 18.2479 1.95073 14.1089 2.57923C13.3055 2.75381 12.6943 3.29502 12.083 3.80131C11.9782 3.8886 11.8385 3.83622 11.7861 3.73147Z" fill="black"/>
<path d="M20.2565 40.0099C19.4706 39.9401 18.7196 39.6608 17.9861 39.4338C17.8813 39.4164 17.8114 39.3116 17.794 39.2069C17.759 38.8577 18.1956 38.8577 18.4401 38.7704C19.3483 38.5609 20.2565 38.4212 21.1821 38.2467C19.4531 38.1419 17.7241 37.9848 15.9951 37.9149C15.9951 38.2816 16.0301 38.6482 16.0475 39.0148C16.0475 39.1196 15.9777 39.2592 15.8554 39.2767C15.7332 39.2941 15.6458 39.2069 15.6109 39.1021C15.5061 38.6307 15.4537 38.1419 15.2616 37.688C15.0521 37.5658 14.9123 37.2515 15.052 37.042C15.1918 36.85 15.4712 36.9897 15.541 37.1817C15.4886 35.7152 15.4013 34.2487 15.4013 32.7647C15.1743 32.1886 15.1568 31.5776 15.1394 30.9665C15.1394 28.8715 15.2441 26.7765 15.541 24.699C15.4013 24.9783 14.7202 25.3275 14.6853 24.8212C14.8076 23.4769 15.3664 22.185 15.8205 20.9105C14.8075 20.509 16.8509 18.5537 17.4097 18.3442C18.0734 17.7506 23.3302 17.2094 23.0682 18.5711C24.3781 18.5362 25.618 17.995 26.9104 17.7331C28.7267 17.3316 30.543 17.0173 32.3593 16.6332C32.7784 16.6332 34.2978 15.9349 34.3153 16.5459C35.4854 16.511 36.6206 16.9649 37.7907 16.93C38.2099 16.9475 39.9214 16.6158 39.607 17.4189C39.4673 17.6284 39.2927 17.8728 39.0656 17.995C38.9783 17.995 38.9259 18.0648 38.8386 18.0823C39.7991 18.7631 40.1484 19.9678 39.8515 21.0851C40.6025 23.2849 40.8121 25.7116 40.5676 28.0161C40.4104 29.2207 40.1135 30.4428 40.2008 31.6649C40.2707 33.4631 41.4757 35.2089 40.9867 37.0071C41.0042 37.7753 40.7073 38.6133 40.0611 39.0497C39.9214 39.3116 39.7118 39.6084 39.3975 39.5909C38.8037 40.0798 38.3671 39.7131 37.8257 39.4164C35.8522 39.9401 33.8962 39.3116 31.9401 39.0846C30.4906 39.1894 29.0411 39.5909 27.6439 39.783C25.2338 40.1845 22.7539 40.3242 20.3263 39.9925L20.2565 40.0099ZM25.2687 39.5909C26.1245 39.5211 26.9628 39.3989 27.8185 39.2418C29.041 38.8577 30.281 38.4212 31.5909 38.5434C33.1103 38.5434 34.6471 38.5958 36.1665 38.7355C36.7079 38.7529 37.2493 38.7006 37.7733 38.8577C38.2623 38.7355 38.7687 38.8402 39.2228 39.0323C39.9039 38.5958 40.0436 37.7404 40.3929 37.0769C40.5501 36.8151 40.4104 36.5183 40.358 36.2564C40.0262 35.3486 39.5197 34.5629 39.2228 33.6377C38.8386 32.7473 37.7209 26.375 39.0307 26.375C38.6814 24.0356 38.4369 21.6962 38.3321 19.3567C38.0702 19.0599 37.7733 18.7806 37.4589 18.5362C34.4725 19.0949 31.3987 18.2045 28.4298 19.0076C27.9583 19.0949 27.5042 19.1821 27.0326 19.2694C26.7881 19.3044 26.7008 18.9203 26.8929 18.7981C25.618 19.025 24.3257 18.9552 23.0682 19.2345C22.946 19.2694 22.8586 19.1647 22.8237 19.0599C21.1995 19.5313 19.5579 20.1773 17.8813 20.5614C17.759 20.5788 17.6543 20.4915 17.6368 20.3693C17.5669 19.9154 18.3528 19.8805 18.6497 19.671C19.8373 19.1123 21.1297 18.7108 22.4395 18.5711C22.4744 18.5536 22.4919 18.5362 22.5268 18.5187C22.5268 18.5187 22.5268 18.5187 22.5443 18.5013C22.0204 18.187 21.3218 18.3092 20.728 18.2743C19.75 18.2918 18.8069 18.2918 17.9162 18.6584C18.1432 18.9028 17.8813 19.2345 17.6892 19.3916C17.2875 19.8456 16.9033 20.3344 16.3968 20.6836C15.8379 21.8882 15.4537 23.1801 15.1044 24.4546C15.8554 23.5642 15.7856 22.3247 16.1349 21.2772C16.2571 20.9629 16.781 20.928 16.7461 21.3295C16.6937 22.0802 16.4143 22.796 16.1174 23.4769C15.7157 25.9909 15.4887 28.5573 15.5236 31.1062C15.6284 30.8618 15.9777 30.984 16.0999 31.1586C16.3095 31.6649 16.5714 32.9568 15.8379 33.1314C15.8729 34.528 15.9078 35.9247 15.9602 37.3214C18.3528 37.4436 20.728 37.7404 23.1206 37.7404C24.9195 37.8451 26.7183 37.461 28.5346 37.7229C29.0236 37.7229 30.1588 38.0022 29.3903 38.5784C28.1678 38.9624 26.8056 38.6307 25.5307 38.8053C25.1639 39.783 22.7364 39.4513 21.8108 39.6084C22.9809 39.6782 24.151 39.6608 25.2687 39.5735V39.5909ZM24.0811 38.3514C22.8936 38.4561 21.7235 38.6831 20.5534 38.9101C21.8632 38.8053 23.1555 38.5609 24.4479 38.4038C24.3257 38.4038 24.2034 38.3689 24.0811 38.3689V38.3514ZM25.4434 38.3339C26.4214 38.2466 27.4169 38.299 28.3949 38.2641C27.3819 38.1594 26.369 38.1594 25.3735 38.2467C25.391 38.2816 25.4259 38.299 25.4434 38.3339ZM40.5501 35.5581C40.5326 35.4359 40.5152 35.3136 40.4802 35.174C40.4802 35.174 40.4802 35.1914 40.4802 35.2089C40.4278 34.947 40.3755 34.6851 40.3056 34.4233C40.2707 34.5455 40.2357 34.6677 40.1659 34.755C40.2357 34.8947 40.3056 35.0343 40.3755 35.1914C40.3755 35.1914 40.3755 35.1914 40.3755 35.174C40.4278 35.2962 40.4977 35.4184 40.5501 35.5581ZM39.5896 33.3932C39.5896 32.0315 39.38 30.6697 39.1879 29.3254C39.0831 28.5573 39.1355 27.8066 38.9434 27.0733C38.7338 28.0161 38.891 28.9588 38.9608 29.8841C39.0831 31.0887 39.2053 32.2584 39.5896 33.3758V33.3932ZM39.118 23.9657C39.3974 25.956 39.6594 27.9462 39.8166 29.9539C40.2358 27.7367 40.358 25.4497 39.9214 23.2325C39.8341 22.7437 39.7118 22.2723 39.5721 21.7834C39.4149 22.0977 38.9608 22.0104 38.8561 21.6961C38.9085 22.4818 38.9958 23.1976 39.1006 23.9657H39.118ZM39.2403 21.3994C39.2752 21.2946 39.3101 21.1899 39.3276 21.1026C39.2752 20.9978 39.2403 20.8931 39.1879 20.7883C39.1006 20.6137 39.0132 20.4566 38.9259 20.2995C39.0132 20.6836 39.0831 21.0502 39.2403 21.4168V21.3994ZM16.03 20.2995C16.03 20.2995 16.0475 20.2995 16.065 20.2995C16.0824 20.2471 16.1174 20.1947 16.1523 20.1424C16.1174 20.1947 16.0824 20.2471 16.03 20.3169V20.2995ZM39.4673 20.282C39.5197 19.7059 39.2578 19.1472 38.8386 18.7631C38.8211 18.8155 38.7862 18.8504 38.7338 18.8854C38.7338 18.9377 38.7338 18.9726 38.7338 19.025C38.7338 19.0599 38.7338 19.0949 38.7338 19.1298C39.0132 19.4789 39.2577 19.8805 39.4498 20.282H39.4673ZM32.3593 17.9252C32.3593 17.9252 32.272 17.9251 32.2371 17.9426C33.5469 17.8029 34.8742 17.8029 36.2015 17.8029C36.2015 17.8029 36.2015 17.8029 36.2189 17.8029C35.9919 17.6807 35.7125 17.6807 35.5029 17.5411C34.455 17.6109 33.4072 17.7331 32.3593 17.9077V17.9252ZM38.9434 17.4189C38.9434 17.4189 38.9783 17.4014 38.9958 17.3839C38.9434 17.3839 38.891 17.3839 38.8386 17.3839C38.8735 17.3839 38.9085 17.4189 38.9434 17.4189ZM33.2849 17.157C33.0579 17.2443 32.8308 17.3141 32.5863 17.3839C33.1452 17.2966 33.6866 17.2268 34.2455 17.1744C34.1407 17.157 34.0359 17.1395 33.9311 17.1221C33.8438 17.1046 33.7914 17.0348 33.7565 16.9649C33.5993 17.0348 33.4421 17.1046 33.2849 17.157Z" fill="black"/>
<path d="M67.8993 20.8407C66.7466 20.2296 65.5241 20.09 64.2318 20.1249C62.0312 20.0551 59.8133 20.0551 57.6128 20.09C56.3029 20.1249 55.0105 20.1424 53.7007 20.09C53.5959 20.09 53.4911 20.0027 53.4911 19.8805C53.299 19.9154 52.9323 20.0725 52.8799 19.7757C52.8799 19.6535 52.9847 19.5313 53.1069 19.4964C54.5565 19.1472 55.9362 18.5886 57.4381 18.5013C60.1102 18.1696 62.7124 19.0425 65.3844 19.0076C66.4497 19.0425 67.5151 19.0599 68.5804 19.1123C68.7027 19.1123 68.79 19.2171 68.7725 19.3218C68.7725 19.444 68.6677 19.5488 68.5455 19.5662C68.0914 19.6535 67.6373 19.671 67.1833 19.7059C67.7945 19.7408 68.4232 19.6361 69.017 19.7234C69.1043 19.7408 69.1742 19.7932 69.2266 19.863C69.3838 20.1249 68.9646 20.4217 68.7725 20.1947C68.3883 20.1598 67.9866 20.1947 67.6024 20.1947C67.812 20.3344 68.3883 20.3344 68.266 20.701C68.1962 20.8232 68.039 20.8756 67.9168 20.8232L67.8993 20.8407ZM56.9316 19.6535C57.8049 19.6535 58.6606 19.6361 59.5338 19.6186C59.7958 19.6186 60.0578 19.6186 60.3197 19.6186C59.1845 19.6186 58.0494 19.5313 56.9316 19.6535ZM56.006 19.1647C55.8838 19.1996 55.7441 19.2171 55.6218 19.252C57.0888 19.2171 58.5209 18.9377 59.9704 18.9203C58.6431 18.833 57.2984 18.9028 56.006 19.1647Z" fill="black"/>
<path d="M51.5703 32.3283C51.4131 32.3283 51.2559 32.2759 51.0813 32.2584C50.6446 32.0838 51.1861 31.6474 51.448 31.595C50.1731 31.1585 51.6052 30.2507 53.0897 29.5524C53.2643 29.5524 53.439 29.5349 53.6136 29.5175C53.8406 29.5 54.0677 29.4825 54.2947 29.4651C53.2818 29.9015 52.3212 30.4253 51.4305 31.0713C51.5528 31.2109 51.7449 31.1935 51.9545 31.176C52.0767 31.176 52.199 31.1585 52.2863 31.176C52.4435 31.176 52.6007 31.176 52.7579 31.176C52.6705 30.53 54.2423 30.7745 54.6265 30.8268C55.0282 30.8268 55.4474 30.7745 55.849 30.757C59.2895 30.565 62.6602 29.7793 66.1007 29.7968C66.2229 29.7968 66.3452 29.7968 66.4674 29.7968C66.7294 29.7968 66.9914 29.7619 67.2359 29.6746C67.3232 29.7444 67.3756 29.8317 67.3232 29.9714C67.1835 30.3031 66.7294 30.2856 66.4674 30.2682C64.6511 30.3031 62.8348 30.3555 61.036 30.6173C63.4985 30.6872 65.9784 30.6872 68.4409 30.6697C68.5632 30.6697 68.6679 30.7919 68.633 30.9141C68.5981 31.0363 68.4758 31.1585 68.3361 31.1411C67.9519 31.1236 67.6201 31.1411 67.2533 31.176C67.6201 31.2109 67.5328 31.6474 67.2184 31.6648C67.2184 31.7696 67.1311 31.8569 67.0263 31.8918C66.3102 32.241 65.5069 32.1886 64.7384 32.1187C64.1446 32.0838 63.5334 32.0489 62.9396 31.9965C62.7649 31.9965 62.6951 31.787 62.7999 31.6648C60.8614 31.9791 58.9228 32.3283 56.9493 32.2759C56.2507 32.241 55.5522 32.1537 54.8536 31.9965C53.8057 32.0838 52.7404 32.3283 51.6925 32.3283C51.6576 32.3283 51.6052 32.3283 51.5703 32.3283ZM51.9894 31.8743C52.426 31.8569 52.8452 31.787 53.2643 31.7347C53.4739 31.7172 53.666 31.6823 53.8756 31.6648C53.8756 31.6474 53.8406 31.6125 53.8406 31.5775C53.2119 31.5775 52.5832 31.7347 51.9719 31.8743H51.9894ZM56.4952 31.787C56.8969 31.822 57.2811 31.8394 57.6479 31.822C58.8005 31.8045 59.9532 31.6474 61.0884 31.4728C61.036 31.4728 60.9836 31.4728 60.9486 31.4728C59.4642 31.4728 57.9797 31.5775 56.4952 31.7696V31.787ZM63.3762 31.5775C63.7255 31.595 64.0922 31.6299 64.4415 31.6474C65.1576 31.6474 65.8911 31.8394 66.5897 31.595C65.9784 31.5077 65.3672 31.4553 64.7559 31.4553C64.3018 31.4553 63.8477 31.4903 63.3762 31.5775Z" fill="black"/>
<path d="M69.576 41.1447C65.9085 41.1447 62.241 41.0225 58.5909 40.6559C57.0016 40.4115 55.2901 40.4115 53.8056 39.7131C53.7358 39.6782 53.631 39.6433 53.6135 39.556C53.142 39.5211 52.6705 39.5036 52.1989 39.4687C52.0941 39.4687 51.9893 39.3814 52.0068 39.2592C52.0068 39.137 52.129 39.0323 52.2688 39.0148C54.0327 38.8228 55.7966 39.2767 57.543 39.4164C60.2151 39.8528 62.8871 39.4164 65.5767 39.5735C70.589 39.7655 75.6362 40.0972 80.631 39.8354C77.9415 39.5909 75.2345 39.3291 72.545 39.1196C72.0734 39.1196 71.5844 39.1196 71.1129 39.0672C71.0081 39.0672 70.9208 38.9799 70.9208 38.8752C70.9557 38.3689 72.6672 38.7529 73.0689 38.7006C75.7235 38.7355 78.3956 38.5784 81.0501 38.8402C84.089 39.0672 87.1278 39.6957 90.1491 40.0623C90.4809 40.0798 90.8127 40.1671 91.1271 40.1147C91.2144 40.1147 91.3192 40.1147 91.3891 40.202C91.4939 40.3766 91.3367 40.5686 91.162 40.621C86.7086 40.3417 82.2552 39.0497 77.7319 39.137C78.151 39.2418 83.6349 39.3465 81.4693 40.1845C79.9499 40.4115 78.413 40.3417 76.8762 40.3766C76.4745 40.6384 75.706 40.4988 75.1996 40.621C73.3483 41.1273 71.4622 41.1797 69.5586 41.1273L69.576 41.1447ZM61.9091 40.4813C64.7034 40.6559 67.4977 40.7257 70.3095 40.7083C71.7067 40.7083 73.1038 40.7607 74.4486 40.3591C70.7461 40.2718 67.0611 39.9925 63.3587 39.975C63.5333 40.0099 63.8826 39.9401 63.8651 40.202C63.8651 40.3242 63.7429 40.4464 63.6032 40.4464C62.8871 40.4988 62.1886 40.3766 61.4725 40.4464C61.6122 40.4464 61.752 40.4639 61.8917 40.4813H61.9091Z" fill="black"/>
<path d="M61.4725 31.5776C61.0534 31.5776 60.6343 31.5776 60.2326 31.5776C60.1103 31.5776 60.023 31.4553 60.0405 31.3506C60.0754 31.2284 60.1976 31.1411 60.3199 31.1411C62.9745 31.1411 65.6815 31.2109 68.2138 30.3729C66.869 30.3205 65.5243 30.7919 64.1795 30.4602C64.1795 30.4602 64.1795 30.4602 64.197 30.4602C60.9835 30.0238 57.7352 30.3031 54.5042 30.5999C54.1026 30.565 53.2119 30.8967 53.1944 30.2507C52.8277 30.0063 53.2992 29.6571 53.5961 29.7793C53.8581 29.7793 54.5042 29.6571 54.2947 30.111C57.8225 29.8143 61.4027 29.5524 64.913 30.0936C66.3102 30.3206 67.7947 29.5175 69.1394 30.0587C69.3839 30.5126 68.5456 30.7046 68.2487 30.8443C66.0657 31.5601 63.7255 31.5776 61.4551 31.5776H61.4725Z" fill="black"/>
<path d="M86.5165 51.48C82.6743 51.4451 78.8147 51.288 74.99 51.0261C74.1342 50.9562 73.2959 50.8864 72.4576 50.834C72.2655 50.834 72.2131 50.5896 72.3528 50.4674C71.5495 50.3976 70.7286 50.3277 69.9253 50.2754C69.838 50.2754 69.7507 50.2754 69.6459 50.2754C69.4712 50.7467 68.7202 50.3103 68.3535 50.3103C66.0133 50.1182 63.6381 50.4325 61.3153 50.6769C60.6517 50.7467 55.9188 51.4276 56.2157 50.415C53.1944 50.4674 50.1905 50.3976 47.1691 50.2754C46.7849 50.2579 46.3832 50.2754 45.999 50.2754C45.8768 50.2754 45.7894 50.1532 45.8069 50.031C45.8418 49.8913 45.9641 49.804 46.1038 49.804C49.3347 49.8738 52.5657 50.031 55.7791 49.9437C55.325 49.9087 53.2991 49.6469 54.2597 48.9835C55.7791 48.8962 57.316 49.2279 58.8354 49.2977C61.1232 49.5596 63.4111 49.158 65.6989 49.4025C66.8865 49.4025 68.1439 49.3675 69.2616 49.8215C71.1827 49.8738 73.0863 50.1182 75.0074 50.3103C77.5398 50.1532 80.0721 49.8913 82.6045 49.7516C81.5915 49.6643 80.5437 49.6294 79.5656 49.3675C79.4609 49.3501 79.391 49.2628 79.4085 49.158C79.6006 48.6692 80.4389 48.739 80.8929 48.739C82.8489 48.8263 84.805 49.0358 86.7435 49.3501C88.5074 49.3326 90.3237 49.385 92.0352 49.8564C92.2797 49.9786 92.8037 49.8564 92.7687 50.223C92.7338 50.3627 92.5941 50.4674 92.4544 50.4674C91.3891 50.2754 90.3237 49.9437 89.241 49.8913C89.695 50.031 90.4984 50.2055 90.6206 50.7293C90.6206 50.8166 90.5158 50.8864 90.446 50.9213C90.2189 51.061 90.0094 51.2181 89.7474 51.2705C88.717 51.4625 87.6342 51.4102 86.5864 51.4276L86.5165 51.48ZM85.259 51.0261C86.6562 51.0435 87.9835 51.0435 89.3457 50.9388C89.5902 50.9039 89.7649 50.8515 89.957 50.7293C89.2933 50.2928 88.4376 50.2055 87.6691 50.0135C88.4026 50.6769 85.3464 50.9912 84.9621 51.0261C85.0669 51.0261 85.1543 51.0261 85.259 51.0261ZM79.1465 50.6769C81.7836 50.7118 84.4906 50.8864 87.0579 50.223C83.9492 49.9611 80.8405 50.3277 77.7319 50.5722C78.2034 50.6071 78.6749 50.642 79.1465 50.6769ZM58.521 50.5023C60.739 50.3976 62.9221 49.9786 65.14 49.8738C62.9046 49.8738 60.6691 49.7865 58.4512 50.1182C58.032 50.4325 57.3858 50.3277 56.8968 50.3976C57.0191 50.415 57.1413 50.4325 57.2461 50.45C57.6827 50.5023 58.1193 50.5023 58.5559 50.5023H58.521ZM57.0016 49.5945C57.3858 49.612 57.7875 49.7342 58.1717 49.6992C57.4208 49.6469 56.6698 49.5421 55.9363 49.4723C56.303 49.5072 56.6523 49.5421 57.0016 49.5945Z" fill="black"/>
<path d="M32.5863 51.4626C31.9751 51.4277 31.3987 51.1484 30.8049 50.9912C29.7047 50.9389 28.6044 50.9214 27.5042 50.8865C26.5611 50.8167 25.5831 50.8865 24.6749 50.6072C24.6051 50.5897 24.5527 50.5373 24.5527 50.4675C23.1555 50.5548 21.7758 50.7817 20.3787 50.7294C19.2085 50.7294 18.0559 50.3977 16.9032 50.3104C16.7286 50.6246 16.2047 50.485 15.9252 50.4151C15.803 50.3627 15.7855 50.1882 15.8379 50.0659C15.9602 49.8564 16.2047 49.839 16.4142 49.8041C17.497 49.7517 18.5798 50.0659 19.6277 50.1882C21.8108 50.3802 23.9589 50.0485 26.107 49.7692C25.3386 49.42 24.6051 48.8788 23.7144 48.8788C23.5747 48.8788 23.4873 48.7566 23.5048 48.6169C23.6445 48.1281 24.7098 48.5645 25.0417 48.6693C26.1769 49.2978 27.347 49.839 28.6743 49.6819C31.7131 49.7342 34.7344 49.4025 37.7383 49.1232C40.096 48.9835 42.4362 48.6693 44.759 48.3201C47.1167 48.0233 49.4919 47.936 51.867 47.744C54.4692 47.4821 57.0889 47.0282 59.6911 47.517C61.6122 47.7964 63.5507 47.9709 65.4543 48.3376C67.2357 48.7217 69.0345 49.2803 70.8508 49.4898C73.4356 49.7866 76.0029 49.4025 78.5701 49.4549C79.4084 49.5247 80.4039 49.4549 81.1025 49.9961C81.5042 50.5897 79.7228 50.5722 79.4084 50.677C76.1077 50.6071 72.8069 50.3802 69.5061 50.2056C69.7855 51.1309 64.424 50.5722 63.7254 50.5548C60.7564 50.3104 57.8049 49.9961 54.836 49.8041C52.4783 49.3501 50.1031 49.3327 47.7105 49.5422C49.8062 49.5946 51.867 49.9088 53.9453 50.0834C54.1723 50.1183 54.6264 49.9961 54.6613 50.3278C54.4692 51.1134 49.3347 50.9214 48.3916 51.0087C46.4531 50.9738 44.5669 51.2182 42.6633 51.1134C42.4188 51.0436 42.1743 50.8516 42.4188 50.6072C42.6458 50.258 42.9951 50.0485 43.3793 49.8914C38.6465 50.031 33.966 50.0136 29.2506 50.2056C30.8573 50.6072 32.5514 50.4326 34.1406 50.8167C34.8218 51.3928 32.8483 51.4626 32.5339 51.4452L32.5863 51.4626ZM43.5016 50.7294C46.5578 50.5548 49.6316 50.6072 52.6879 50.3977C50.8716 50.1532 49.0727 49.9961 47.2564 49.9437C45.8069 49.8914 44.1477 49.7517 42.9427 50.7119C43.1173 50.7294 43.3095 50.7294 43.5016 50.7294ZM75.3741 50.0485C76.9459 50.1009 78.5527 50.3977 80.107 50.1358C78.3955 49.8041 76.6665 49.9961 74.9375 50.031C75.0773 50.031 75.2344 50.031 75.3741 50.0485ZM63.2189 50.0485C64.0397 50.1009 64.8605 50.1882 65.6988 50.1882C64.651 50.1009 63.5857 50.0485 62.5378 49.9961C62.7648 50.0136 62.9919 50.031 63.2189 50.0485ZM68.3185 50.1183C68.3185 50.1183 68.4757 50.1183 68.563 50.1183C68.4233 50.1183 68.301 50.0834 68.1613 50.0834C67.9518 50.0659 67.7596 50.0485 67.5501 50.0136C67.6199 50.0136 67.6723 50.0485 67.7422 50.0485C67.8819 50.0834 68.0216 50.1009 68.1613 50.1183C68.1613 50.1183 68.1439 50.1183 68.1264 50.1183C68.1963 50.1183 68.2487 50.1183 68.3011 50.1183H68.3185ZM68.9822 49.7168C69.2267 49.7342 69.4712 49.7692 69.7331 49.7866C67.812 49.4549 65.9608 48.8264 64.0397 48.5471C61.5947 48.2852 59.1148 47.744 56.6523 47.744C53.107 48.0408 49.5792 48.3725 46.0165 48.6169C43.03 48.9835 40.096 49.4374 37.1096 49.6295C39.607 49.5771 42.1393 49.4898 44.6368 49.4898C47.1516 49.0883 49.7014 48.9137 52.2687 49.001C52.6354 48.7217 53.1594 48.7915 53.596 48.7391C54.7137 48.7042 55.8315 48.7391 56.9492 48.7391C60.9835 48.7391 65.0003 49.3327 68.9996 49.7342L68.9822 49.7168ZM60.704 49.4549C61.4375 49.5073 62.171 49.5597 62.9046 49.5946C63.4983 49.6295 64.0747 49.6644 64.6684 49.6993C62.1012 49.4374 59.5339 49.2105 56.9492 49.193C58.2066 49.2629 59.464 49.3676 60.704 49.4549Z" fill="black"/>
<path d="M90.9873 61.9376C90.8476 61.9202 90.7777 61.7805 90.8301 61.6408C90.8301 61.6408 90.8126 61.6408 90.7952 61.6234C90.7952 61.6234 90.7777 61.6234 90.7602 61.6234C89.6774 61.7281 88.5597 61.3266 87.4769 61.2218C84.3682 60.8203 81.277 60.6282 78.1684 60.2616C75.5662 60.4187 72.9814 60.8203 70.3618 60.7504C65.2621 60.6282 60.1625 59.1967 55.0629 59.668C55.1677 59.668 55.29 59.6855 55.3948 59.7204C55.6393 59.8077 55.517 60.1569 55.29 60.1918C53.5785 60.4537 51.867 60.5933 50.138 60.7504C47.3961 60.9774 44.6541 61.152 41.9122 60.9774C39.8165 60.8552 37.7732 60.314 35.66 60.314C35.3281 60.2791 35.4504 59.8601 35.7473 59.8252C34.0358 59.668 32.2893 59.7204 30.5953 59.9823C29.268 60.1918 24.0112 61.4663 23.7492 59.5982C22.387 59.895 20.9549 60.0521 19.5578 59.7903C18.7719 59.6681 18.0384 59.3713 17.2699 59.1618C16.973 59.1094 16.6761 58.7253 17.0254 58.5333C17.9161 58.0968 19.1037 58.2888 19.8546 57.5905C19.7848 56.9096 20.8851 57.4334 21.2518 57.4159C22.3346 57.5905 23.3999 57.8524 24.4827 58.0968C25.356 58.2539 26.2641 58.638 27.1373 58.3063C29.1457 57.8 31.1891 57.4683 33.2499 57.3636C33.9659 57.2937 40.8643 56.8573 40.0435 58.0968C43.8158 57.7651 47.6231 57.6254 51.4129 57.9048C53.8404 58.1317 56.268 58.6031 58.713 58.7951C60.4944 58.638 62.2757 58.7951 64.0396 58.6904C66.7466 58.2539 69.506 58.1317 72.213 58.6904C74.9899 57.2064 81.0151 57.8349 84.1237 58.446C85.7479 58.7777 87.3197 59.284 88.8741 59.895C89.5901 60.2616 90.4983 60.4362 90.9873 61.1171C91.4413 61.2044 91.5112 61.9725 90.9873 61.9376ZM85.3986 60.4886C86.3417 60.5933 87.3023 60.6981 88.2453 60.8552C86.5688 60.5061 84.8572 60.1918 83.1457 60.2092C83.1457 60.2267 83.1283 60.2442 83.1108 60.2616C83.8792 60.3314 84.6302 60.4187 85.3986 60.4886ZM42.3838 60.541C46.3831 60.733 50.3825 60.2791 54.3644 59.8426C54.3294 59.7553 54.3294 59.6331 54.3644 59.5633C51.3081 59.6157 48.3042 59.0745 45.2654 58.9348C42.2964 59.0221 39.345 59.1967 36.376 59.4062C37.8605 59.4935 39.3449 59.7204 40.812 59.8252C40.9517 59.8252 41.039 59.9474 41.0041 60.0696C40.8469 60.4886 40.1309 60.2092 39.7816 60.2965C40.6373 60.4187 41.5106 60.5409 42.3838 60.5584V60.541ZM85.1017 59.8426C86.464 60.0172 87.8262 60.2267 89.171 60.5759C84.1412 58.4285 78.2208 57.5207 72.8766 58.7951C76.9284 59.4935 81.0325 59.668 85.1192 59.8426H85.1017ZM69.4885 60.2616C70.6587 60.3314 71.7764 60.2966 72.929 60.2267C70.1871 59.895 67.4801 59.4236 64.7382 59.2141C63.2712 59.1094 61.8217 59.3713 60.3547 59.3014C63.4109 59.5458 66.4323 60.087 69.4885 60.2616ZM74.2214 59.5633C74.4834 59.668 74.3087 59.9998 74.169 60.1394C74.3611 60.122 74.5707 60.1045 74.7628 60.087C75.2169 60.0347 75.6535 59.9998 76.1076 59.9474C75.9329 59.895 75.6535 59.8426 75.6186 59.6331C74.9724 59.5458 74.3087 59.476 73.6625 59.3713C73.8546 59.4411 74.0293 59.4935 74.2214 59.5633ZM26.2641 60.1045C26.9976 60.1045 27.7311 60.0172 28.4297 59.9125C28.5869 59.895 28.7615 59.8601 28.9187 59.8426C27.3644 59.895 25.7926 59.5109 24.2557 59.5458C24.2208 59.6681 24.3605 59.7553 24.4478 59.8077C25.0067 60.1394 25.6878 60.0696 26.299 60.1045H26.2641ZM72.4575 59.6855C72.5448 59.6855 72.6496 59.6855 72.7369 59.703C72.929 59.7379 73.1386 59.7728 73.3307 59.7903C72.9291 59.6331 72.4051 59.5458 72.1781 59.1268C70.0823 58.7428 67.9866 58.5682 65.8734 58.865C68.0739 59.0221 70.2395 59.4411 72.44 59.668L72.4575 59.6855ZM21.3042 59.4411C22.7188 59.4062 24.0461 59.0919 25.4083 58.7427C23.7318 58.411 22.0726 57.9571 20.3611 57.7476C19.7673 58.5333 18.6845 58.5856 17.8113 58.7777C18.964 59.1618 20.1166 59.4934 21.3391 59.4411H21.3042ZM27.1722 59.3014C28.29 59.3887 29.4077 59.3887 30.5254 59.4236C29.4426 59.3189 28.3773 59.2141 27.2945 59.057C26.7007 58.9173 26.1418 58.9348 25.5655 59.1443C26.0895 59.2141 26.6309 59.2491 27.1548 59.3014H27.1722ZM45.4575 58.4809C49.1076 58.6206 52.7751 59.476 56.4252 58.9697C52.4258 58.3063 48.409 58.027 44.3572 58.2015C42.4536 58.411 40.4452 58.2539 38.594 58.7951C40.8818 58.6904 43.1697 58.4983 45.4575 58.4809ZM30.0888 58.9348C32.3242 59.3363 34.5073 58.8126 36.7078 58.446C37.4588 58.3412 38.2272 58.2888 38.9782 58.2015C39.1878 58.1317 39.3275 58.0619 39.5021 57.9397C37.5112 57.5207 35.5028 57.6429 33.4944 57.7825C31.486 57.8698 29.495 58.1666 27.5565 58.6555C28.3948 58.7777 29.2331 58.865 30.0713 58.9348H30.0888Z" fill="black"/>
<path d="M90.865 72.238C89.4155 71.5223 87.8262 71.1731 86.3068 70.6319C84.5429 70.0558 82.7092 69.4971 80.8579 69.2701C76.6315 69.0432 72.3702 68.7289 68.1438 68.9559C72.7719 68.8686 77.4 69.3574 81.9058 70.4748C82.063 70.5097 82.2201 70.5795 82.3424 70.6843C82.4996 70.8239 82.3424 71.0858 82.1678 71.0858C81.9407 71.1033 81.7137 71.1207 81.4692 71.1382C77.2777 70.9811 73.0863 71.016 68.8948 70.8938C65.4194 70.7192 61.9614 70.5097 58.486 70.5271C54.3644 70.5271 50.3301 71.6445 46.2085 71.2429C45.9116 71.9413 44.1652 71.435 43.5364 71.4001C40.7596 70.9636 38.0526 70.2478 35.2758 69.8113C33.6865 69.5495 32.1322 70.2827 30.5255 70.2303C27.6264 70.2653 24.7797 71.1906 21.8631 70.8065C21.1471 71.0334 20.3437 71.0858 19.6626 71.4001C19.3133 71.6619 18.8068 71.8889 18.4575 71.5048C18.248 71.3302 18.4576 71.016 18.7021 71.0509C19.3133 71.016 19.8372 70.7716 20.3612 70.4748C20.8152 70.2653 21.3392 70.2653 21.8282 70.3176C22.1949 70.2304 22.5791 70.1431 22.9459 70.0732C31.1891 68.2576 39.6943 68.8337 48.0598 69.1305C50.8715 69.3749 53.6134 68.8337 56.3554 68.2401C58.1193 67.9433 59.9181 67.9782 61.6995 68.1004C62.0662 68.1179 62.4155 68.1528 62.7648 68.1703C62.887 68.1703 62.9744 68.275 62.9569 68.4147C62.922 68.5369 62.7997 68.6416 62.6775 68.6242C60.6341 68.4671 58.5559 68.3449 56.53 68.6591C54.5041 68.9908 52.5306 69.6193 50.4524 69.6018C45.2829 69.6018 40.1134 69.0781 34.9439 69.2876C36.376 69.5145 37.7907 69.7764 39.2053 70.0732C39.118 69.9685 39.1703 69.8288 39.2577 69.7415C39.607 69.4098 40.1309 69.6717 40.55 69.6891C42.052 69.9336 43.5539 70.178 45.0035 70.6144C46.3308 70.8938 47.7454 70.8414 49.1076 70.8763C53.0546 70.597 56.9841 69.9161 60.966 70.1256C67.55 70.4399 74.1516 70.5621 80.7532 70.6668C76.3871 69.6542 71.8987 69.3225 67.4278 69.4273C66.3275 69.4273 65.2797 69.4622 64.2143 69.4796C63.8301 69.4098 64.0746 68.9559 64.389 69.0083C68.2486 68.3449 72.1257 68.3972 76.0203 68.6067C77.9588 68.7115 79.8974 68.6591 81.8185 68.9559C84.2984 69.3749 86.6736 70.2653 89.0662 70.981C89.7648 71.1905 90.4634 71.435 91.1095 71.7492C91.2493 71.7841 91.2842 71.9587 91.2318 72.0635C91.1619 72.1857 91.0048 72.273 90.865 72.2206V72.238ZM23.9763 70.4224C25.5656 70.3875 27.1199 70.0034 28.6742 69.8637C30.3857 69.7415 32.1147 69.7066 33.7738 69.3225C30.3508 69.4098 26.9103 69.6542 23.5572 70.4224C23.6969 70.4224 23.8541 70.4224 23.9588 70.4224H23.9763Z" fill="black"/>
<path d="M67.288 70.8937C62.2757 70.8064 57.2285 70.2826 52.321 69.2875C51.4303 69.0605 51.9019 68.4321 52.6354 68.467C57.3333 68.8161 62.0487 68.9558 66.7466 69.1653C67.4801 69.2177 68.1787 69.305 68.8947 69.2177C69.244 69.1828 70.6412 68.7987 70.5888 69.3224C70.5539 69.4621 70.4316 69.5494 70.2919 69.5494C67.8294 69.8113 65.3844 69.4796 62.9219 69.4446C59.5687 69.3573 56.2156 69.1828 52.8624 68.9558C54.2596 69.2701 55.6742 69.4446 57.0888 69.6367C57.0888 69.6367 57.0888 69.6367 57.0713 69.6367C60.6341 70.0557 64.2317 70.4572 67.8119 70.4049C68.3359 70.3874 68.8598 70.3525 69.3837 70.3176C69.5234 70.3176 69.6457 70.4048 69.6457 70.5445C69.6457 70.6842 69.506 70.8064 69.3663 70.8238C68.6852 70.8588 68.0041 70.9111 67.3229 70.8937H67.288Z" fill="black"/>
<path d="M82.7092 82.1718C75.8282 81.875 68.9996 80.8799 62.1361 80.4435C62.4505 80.6355 63.1316 80.5657 63.0268 81.0894C63.0093 81.2291 62.8522 81.3338 62.7299 81.3164C61.9964 81.264 61.2454 81.2116 60.5119 81.1767C58.3289 81.1243 56.1109 81.2989 53.9453 81.1767C53.4214 81.1243 52.845 81.1767 52.356 80.9672C52.2163 80.8974 52.1465 80.7577 52.129 80.618C52.0941 80.3038 52.6529 80.199 52.6355 80.5482C55.5346 81.0545 58.5559 80.4784 61.4899 80.7403C60.4421 80.4609 60.3547 79.7102 61.6122 79.9372C67.1135 80.3038 72.5799 81.0021 78.0811 81.4386C81.8709 81.8052 85.9576 82.102 89.4854 80.4435C89.922 79.9023 90.5507 80.426 89.8172 80.8101C87.6342 81.8925 85.1193 82.1718 82.7092 82.1893V82.1718Z" fill="black"/>
<path d="M74.6056 82.6432C70.3443 81.9972 66.0306 82.2067 61.7343 82.0147C55.9711 81.9099 50.2427 81.2465 44.4795 81.0195C39.5894 80.7577 34.7169 81.2989 29.8268 81.456C26.4387 81.4735 23.0506 80.9847 19.6625 81.1767C19.4704 81.1767 19.2958 81.2116 19.1037 81.2465C18.9814 81.2465 18.8766 81.1767 18.8592 81.0545C18.8592 80.9323 18.9465 80.81 19.0513 80.7751C21.1645 80.1292 23.4174 80.618 25.5655 80.7751C28.0978 80.7751 30.5778 80.2863 33.0228 79.7102C31.0319 79.7451 29.0235 79.7975 27.05 79.8149C23.5746 79.9022 20.1166 80.2688 16.6586 80.5656C16.8333 80.7751 16.5015 81.0545 16.3094 80.9672C16.1347 80.8973 15.9426 80.8624 15.8204 80.7228C15.6981 80.6006 15.7854 80.3911 15.9077 80.3038C16.711 79.8848 17.724 80.0594 18.5972 79.9197C21.1121 79.7277 23.6269 79.4832 26.1593 79.4134C28.1677 79.3436 30.1761 79.361 32.1671 79.3086C33.4245 79.2563 34.6994 79.4134 35.9044 78.9944C43.0823 77.1264 50.5746 77.7199 57.8398 78.6976C62.852 78.6278 67.8643 78.7849 72.8242 79.5007C74.7802 79.7626 76.7537 79.7451 78.7097 80.0244C79.4258 80.1641 80.1244 80.4085 80.8579 80.4958C80.9801 80.5133 81.1373 80.4784 81.2246 80.6006C81.3294 80.7577 81.1897 80.9672 81.0151 81.0021C78.6224 81.0021 76.2123 80.5133 73.8022 80.4085C69.6981 80.1117 65.594 79.8673 61.4898 79.5531C59.8656 79.4483 58.2065 79.0991 56.5823 79.1515C53.3514 79.1166 50.1903 79.6229 46.9944 80.007C43.1173 80.4085 39.2401 79.6403 35.363 79.7102C33.1276 79.9371 30.9445 80.7577 28.6916 81.0195C33.1451 81.037 37.5636 80.4609 42.017 80.5482C47.0467 80.5482 52.0416 81.1942 57.0539 81.4211C59.8307 81.5433 62.6076 81.683 65.3844 81.7179C67.7421 81.7354 70.1173 81.7004 72.4749 81.9798C73.2085 82.0671 73.9594 82.1543 74.7104 82.2242C75.0422 82.2766 74.8851 82.713 74.5882 82.6606L74.6056 82.6432ZM62.398 79.169C65.3844 79.4134 68.3708 79.553 71.3398 79.7625C68.2835 79.3261 65.1748 79.1515 62.0836 79.1341C62.1884 79.1341 62.2932 79.1341 62.398 79.1515V79.169ZM36.4808 79.2912C39.3449 79.2912 42.1742 79.7626 45.0383 79.6927C48.2343 79.588 51.3605 78.8722 54.5565 78.75C48.5487 77.9644 42.3837 77.8596 36.4808 79.2737V79.2912Z" fill="black"/>
</svg>
